<svg width="120" height="120" viewBox="0 0 120 120" fill="none" xmlns="http://www.w3.org/2000/svg">
<circle cx="60" cy="60" r="60" fill="#3360FF"/>
<path d="M88 100H33.6061V88.084L58.6616 61.4353C64.8362 54.3218 67.9235 48.6707 67.9235 44.4821C67.9235 41.0878 67.1918 38.506 65.7285 36.7366C64.2651 34.9673 62.1415 34.0826 59.3576 34.0826C56.6093 34.0826 54.3786 35.2742 52.6654 37.6574C50.9522 40.0045 50.0956 42.9474 50.0956 46.4861H32C32 41.6475 33.1957 37.188 35.587 33.1077C37.9783 28.9912 41.2976 25.7775 45.5449 23.4665C49.7922 21.1555 54.5392 20 59.7859 20C68.209 20 74.6871 21.968 79.2199 25.9039C83.7884 29.8398 86.0727 35.4909 86.0727 42.8571C86.0727 45.9625 85.5016 48.9957 84.3595 51.9567C83.2173 54.8815 81.4328 57.9689 79.0057 61.2187C76.6144 64.4324 72.7419 68.7475 67.3881 74.1638L57.3231 85.9174H88V100Z" fill="white"/>
</svg>
