<svg width="56" height="56" viewBox="0 0 56 56" fill="none" xmlns="http://www.w3.org/2000/svg">
<g filter="url(#filter0_d)">
<circle cx="28" cy="24" r="20" fill="#3360FF"/>
</g>
<path d="M35 34H20.4302V31.021L27.1415 24.3588C28.7954 22.5805 29.6224 21.1677 29.6224 20.1205C29.6224 19.2719 29.4264 18.6265 29.0344 18.1842C28.6424 17.7418 28.0736 17.5206 27.3279 17.5206C26.5918 17.5206 25.9943 17.8186 25.5354 18.4144C25.0765 19.0011 24.847 19.7369 24.847 20.6215H20C20 19.4119 20.3203 18.297 20.9608 17.2769C21.6013 16.2478 22.4904 15.4444 23.6281 14.8666C24.7658 14.2889 26.0373 14 27.4426 14C29.6989 14 31.434 14.492 32.6482 15.476C33.8719 16.4599 34.4837 17.8727 34.4837 19.7143C34.4837 20.4906 34.3308 21.2489 34.0249 21.9892C33.7189 22.7204 33.2409 23.4922 32.5908 24.3047C31.9503 25.1081 30.913 26.1869 29.479 27.541L26.783 30.4793H35V34Z" fill="white"/>
<defs>
<filter id="filter0_d" x="0" y="0" width="56" height="56" filterUnits="userSpaceOnUse" color-interpolation-filters="sRGB">
<feFlood flood-opacity="0" result="BackgroundImageFix"/>
<feColorMatrix in="SourceAlpha" type="matrix" values="0 0 0 0 0 0 0 0 0 0 0 0 0 0 0 0 0 0 127 0"/>
<feOffset dy="4"/>
<feGaussianBlur stdDeviation="4"/>
<feColorMatrix type="matrix" values="0 0 0 0 0.372917 0 0 0 0 0.477333 0 0 0 0 0.745833 0 0 0 0.25 0"/>
<feBlend mode="normal" in2="BackgroundImageFix" result="effect1_dropShadow"/>
<feBlend mode="normal" in="SourceGraphic" in2="effect1_dropShadow" result="shape"/>
</filter>
</defs>
</svg>
