<svg width="120" height="120" viewBox="0 0 120 120" fill="none" xmlns="http://www.w3.org/2000/svg">
<circle cx="60" cy="60" r="60" fill="#3360FF"/>
<path d="M50.5255 52.4916H58.9414C65.6106 52.4916 68.9452 49.1962 68.9452 42.6052C68.9452 40.0401 68.1512 37.9559 66.5633 36.3527C64.9754 34.7139 62.7347 33.8945 59.8412 33.8945C57.477 33.8945 55.4127 34.5892 53.6484 35.9786C51.9193 37.3681 51.0548 39.096 51.0548 41.1623H33.2174C33.2174 37.0652 34.3466 33.4135 36.6049 30.2071C38.8633 27.0007 41.9861 24.5068 45.9735 22.7255C49.9962 20.9085 54.4071 20 59.2061 20C67.7807 20 74.5205 21.9773 79.4253 25.9319C84.3302 29.8864 86.7826 35.3195 86.7826 42.2311C86.7826 45.58 85.7593 48.7508 83.7127 51.7435C81.7013 54.7005 78.7549 57.1053 74.8733 58.9579C78.9666 60.4542 82.1777 62.7344 84.5066 65.7983C86.8355 68.8265 88 72.5852 88 77.0742C88 84.0214 85.3535 89.5792 80.0605 93.7475C74.7675 97.9158 67.816 100 59.2061 100C54.1601 100 49.4669 99.0381 45.1267 97.1142C40.8217 95.1548 37.5577 92.4649 35.3346 89.0448C33.1115 85.589 32 81.67 32 77.2879H49.9433C49.9433 79.6749 50.896 81.7413 52.8015 83.487C54.707 85.2327 57.0536 86.1055 59.8412 86.1055C62.9817 86.1055 65.4871 85.2327 67.3573 83.487C69.2275 81.7056 70.1626 79.4433 70.1626 76.7001C70.1626 72.7811 69.1922 70.0022 67.2514 68.3634C65.3106 66.7246 62.6289 65.9051 59.2061 65.9051H50.5255V52.4916Z" fill="white"/>
</svg>
