<svg width="56" height="56" viewBox="0 0 56 56" fill="none" xmlns="http://www.w3.org/2000/svg">
<g filter="url(#filter0_d)">
<circle cx="28" cy="24" r="20" fill="#3360FF"/>
</g>
<path d="M24.9622 21.5291H27.2164C29.0028 21.5291 29.896 20.664 29.896 18.9339C29.896 18.2605 29.6834 17.7134 29.258 17.2926C28.8327 16.8624 28.2325 16.6473 27.4575 16.6473C26.8242 16.6473 26.2713 16.8297 25.7987 17.1944C25.3355 17.5591 25.104 18.0127 25.104 18.5551H20.3261C20.3261 17.4796 20.6285 16.521 21.2335 15.6794C21.8384 14.8377 22.6749 14.183 23.7429 13.7154C24.8204 13.2385 26.0019 13 27.2873 13C29.5841 13 31.3894 13.519 32.7032 14.5571C34.017 15.5952 34.6739 17.0214 34.6739 18.8357C34.6739 19.7148 34.3998 20.5471 33.8516 21.3327C33.3129 22.1089 32.5236 22.7401 31.4839 23.2265C32.5803 23.6192 33.4405 24.2178 34.0643 25.022C34.6881 25.817 35 26.8036 35 27.982C35 29.8056 34.2911 31.2645 32.8733 32.3587C31.4556 33.4529 29.5936 34 27.2873 34C25.9357 34 24.6786 33.7475 23.5161 33.2425C22.3629 32.7281 21.4887 32.022 20.8932 31.1242C20.2977 30.2171 20 29.1884 20 28.0381H24.8062C24.8062 28.6647 25.0614 29.2071 25.5718 29.6653C26.0822 30.1236 26.7108 30.3527 27.4575 30.3527C28.2987 30.3527 28.9698 30.1236 29.4707 29.6653C29.9716 29.1977 30.2221 28.6039 30.2221 27.8838C30.2221 26.855 29.9622 26.1256 29.4423 25.6954C28.9225 25.2652 28.2042 25.0501 27.2873 25.0501H24.9622V21.5291Z" fill="white"/>
<defs>
<filter id="filter0_d" x="0" y="0" width="56" height="56" filterUnits="userSpaceOnUse" color-interpolation-filters="sRGB">
<feFlood flood-opacity="0" result="BackgroundImageFix"/>
<feColorMatrix in="SourceAlpha" type="matrix" values="0 0 0 0 0 0 0 0 0 0 0 0 0 0 0 0 0 0 127 0"/>
<feOffset dy="4"/>
<feGaussianBlur stdDeviation="4"/>
<feColorMatrix type="matrix" values="0 0 0 0 0.372917 0 0 0 0 0.477333 0 0 0 0 0.745833 0 0 0 0.25 0"/>
<feBlend mode="normal" in2="BackgroundImageFix" result="effect1_dropShadow"/>
<feBlend mode="normal" in="SourceGraphic" in2="effect1_dropShadow" result="shape"/>
</filter>
</defs>
</svg>
