<svg width="1240" height="714" viewBox="0 0 1240 714" fill="none" xmlns="http://www.w3.org/2000/svg">
<ellipse cx="312" cy="430.5" rx="272" ry="278.5" fill="#3360FF"/>
<mask id="path-2-inside-1" fill="white">
<path d="M727.402 333.5C727.402 334.881 726.309 336 724.961 336C723.613 336 722.52 334.881 722.52 333.5C722.52 332.119 723.613 331 724.961 331C726.309 331 727.402 332.119 727.402 333.5Z"/>
<path d="M727.402 288.5C727.402 289.881 726.309 291 724.961 291C723.613 291 722.52 289.881 722.52 288.5C722.52 287.119 723.613 286 724.961 286C726.309 286 727.402 287.119 727.402 288.5Z"/>
<path d="M727.402 243.5C727.402 244.881 726.309 246 724.961 246C723.613 246 722.52 244.881 722.52 243.5C722.52 242.119 723.613 241 724.961 241C726.309 241 727.402 242.119 727.402 243.5Z"/>
<path d="M727.402 198.5C727.402 199.881 726.309 201 724.961 201C723.613 201 722.52 199.881 722.52 198.5C722.52 197.119 723.613 196 724.961 196C726.309 196 727.402 197.119 727.402 198.5Z"/>
<path d="M727.402 153.5C727.402 154.881 726.309 156 724.961 156C723.613 156 722.52 154.881 722.52 153.5C722.52 152.119 723.613 151 724.961 151C726.309 151 727.402 152.119 727.402 153.5Z"/>
<path d="M727.402 108.5C727.402 109.881 726.309 111 724.961 111C723.613 111 722.52 109.881 722.52 108.5C722.52 107.119 723.613 106 724.961 106C726.309 106 727.402 107.119 727.402 108.5Z"/>
<path d="M727.402 63.5C727.402 64.8807 726.309 66 724.961 66C723.613 66 722.52 64.8807 722.52 63.5C722.52 62.1193 723.613 61 724.961 61C726.309 61 727.402 62.1193 727.402 63.5Z"/>
<path d="M771.339 333.5C771.339 334.881 770.246 336 768.898 336C767.55 336 766.457 334.881 766.457 333.5C766.457 332.119 767.55 331 768.898 331C770.246 331 771.339 332.119 771.339 333.5Z"/>
<path d="M771.339 288.5C771.339 289.881 770.246 291 768.898 291C767.55 291 766.457 289.881 766.457 288.5C766.457 287.119 767.55 286 768.898 286C770.246 286 771.339 287.119 771.339 288.5Z"/>
<path d="M771.339 243.5C771.339 244.881 770.246 246 768.898 246C767.55 246 766.457 244.881 766.457 243.5C766.457 242.119 767.55 241 768.898 241C770.246 241 771.339 242.119 771.339 243.5Z"/>
<path d="M771.339 198.5C771.339 199.881 770.246 201 768.898 201C767.55 201 766.457 199.881 766.457 198.5C766.457 197.119 767.55 196 768.898 196C770.246 196 771.339 197.119 771.339 198.5Z"/>
<path d="M771.339 153.5C771.339 154.881 770.246 156 768.898 156C767.55 156 766.457 154.881 766.457 153.5C766.457 152.119 767.55 151 768.898 151C770.246 151 771.339 152.119 771.339 153.5Z"/>
<path d="M771.339 108.5C771.339 109.881 770.246 111 768.898 111C767.55 111 766.457 109.881 766.457 108.5C766.457 107.119 767.55 106 768.898 106C770.246 106 771.339 107.119 771.339 108.5Z"/>
<path d="M771.339 63.5C771.339 64.8807 770.246 66 768.898 66C767.55 66 766.457 64.8807 766.457 63.5C766.457 62.1193 767.55 61 768.898 61C770.246 61 771.339 62.1193 771.339 63.5Z"/>
<path d="M815.276 333.5C815.276 334.881 814.183 336 812.835 336C811.487 336 810.394 334.881 810.394 333.5C810.394 332.119 811.487 331 812.835 331C814.183 331 815.276 332.119 815.276 333.5Z"/>
<path d="M815.276 288.5C815.276 289.881 814.183 291 812.835 291C811.487 291 810.394 289.881 810.394 288.5C810.394 287.119 811.487 286 812.835 286C814.183 286 815.276 287.119 815.276 288.5Z"/>
<path d="M815.276 243.5C815.276 244.881 814.183 246 812.835 246C811.487 246 810.394 244.881 810.394 243.5C810.394 242.119 811.487 241 812.835 241C814.183 241 815.276 242.119 815.276 243.5Z"/>
<path d="M815.276 198.5C815.276 199.881 814.183 201 812.835 201C811.487 201 810.394 199.881 810.394 198.5C810.394 197.119 811.487 196 812.835 196C814.183 196 815.276 197.119 815.276 198.5Z"/>
<path d="M815.276 153.5C815.276 154.881 814.183 156 812.835 156C811.487 156 810.394 154.881 810.394 153.5C810.394 152.119 811.487 151 812.835 151C814.183 151 815.276 152.119 815.276 153.5Z"/>
<path d="M815.276 108.5C815.276 109.881 814.183 111 812.835 111C811.487 111 810.394 109.881 810.394 108.5C810.394 107.119 811.487 106 812.835 106C814.183 106 815.276 107.119 815.276 108.5Z"/>
<path d="M815.276 63.5C815.276 64.8807 814.183 66 812.835 66C811.487 66 810.394 64.8807 810.394 63.5C810.394 62.1193 811.487 61 812.835 61C814.183 61 815.276 62.1193 815.276 63.5Z"/>
<path d="M859.213 333.5C859.213 334.881 858.12 336 856.772 336C855.424 336 854.331 334.881 854.331 333.5C854.331 332.119 855.424 331 856.772 331C858.12 331 859.213 332.119 859.213 333.5Z"/>
<path d="M859.213 288.5C859.213 289.881 858.12 291 856.772 291C855.424 291 854.331 289.881 854.331 288.5C854.331 287.119 855.424 286 856.772 286C858.12 286 859.213 287.119 859.213 288.5Z"/>
<path d="M859.213 243.5C859.213 244.881 858.12 246 856.772 246C855.424 246 854.331 244.881 854.331 243.5C854.331 242.119 855.424 241 856.772 241C858.12 241 859.213 242.119 859.213 243.5Z"/>
<path d="M859.213 198.5C859.213 199.881 858.12 201 856.772 201C855.424 201 854.331 199.881 854.331 198.5C854.331 197.119 855.424 196 856.772 196C858.12 196 859.213 197.119 859.213 198.5Z"/>
<path d="M859.213 153.5C859.213 154.881 858.12 156 856.772 156C855.424 156 854.331 154.881 854.331 153.5C854.331 152.119 855.424 151 856.772 151C858.12 151 859.213 152.119 859.213 153.5Z"/>
<path d="M859.213 108.5C859.213 109.881 858.12 111 856.772 111C855.424 111 854.331 109.881 854.331 108.5C854.331 107.119 855.424 106 856.772 106C858.12 106 859.213 107.119 859.213 108.5Z"/>
<path d="M859.213 63.5C859.213 64.8807 858.12 66 856.772 66C855.424 66 854.331 64.8807 854.331 63.5C854.331 62.1193 855.424 61 856.772 61C858.12 61 859.213 62.1193 859.213 63.5Z"/>
<path d="M903.15 333.5C903.15 334.881 902.057 336 900.709 336C899.361 336 898.268 334.881 898.268 333.5C898.268 332.119 899.361 331 900.709 331C902.057 331 903.15 332.119 903.15 333.5Z"/>
<path d="M903.15 288.5C903.15 289.881 902.057 291 900.709 291C899.361 291 898.268 289.881 898.268 288.5C898.268 287.119 899.361 286 900.709 286C902.057 286 903.15 287.119 903.15 288.5Z"/>
<path d="M903.15 243.5C903.15 244.881 902.057 246 900.709 246C899.361 246 898.268 244.881 898.268 243.5C898.268 242.119 899.361 241 900.709 241C902.057 241 903.15 242.119 903.15 243.5Z"/>
<path d="M903.15 198.5C903.15 199.881 902.057 201 900.709 201C899.361 201 898.268 199.881 898.268 198.5C898.268 197.119 899.361 196 900.709 196C902.057 196 903.15 197.119 903.15 198.5Z"/>
<path d="M903.15 153.5C903.15 154.881 902.057 156 900.709 156C899.361 156 898.268 154.881 898.268 153.5C898.268 152.119 899.361 151 900.709 151C902.057 151 903.15 152.119 903.15 153.5Z"/>
<path d="M903.15 108.5C903.15 109.881 902.057 111 900.709 111C899.361 111 898.268 109.881 898.268 108.5C898.268 107.119 899.361 106 900.709 106C902.057 106 903.15 107.119 903.15 108.5Z"/>
<path d="M903.15 63.5C903.15 64.8807 902.057 66 900.709 66C899.361 66 898.268 64.8807 898.268 63.5C898.268 62.1193 899.361 61 900.709 61C902.057 61 903.15 62.1193 903.15 63.5Z"/>
<path d="M947.087 333.5C947.087 334.881 945.994 336 944.646 336C943.298 336 942.205 334.881 942.205 333.5C942.205 332.119 943.298 331 944.646 331C945.994 331 947.087 332.119 947.087 333.5Z"/>
<path d="M947.087 288.5C947.087 289.881 945.994 291 944.646 291C943.298 291 942.205 289.881 942.205 288.5C942.205 287.119 943.298 286 944.646 286C945.994 286 947.087 287.119 947.087 288.5Z"/>
<path d="M947.087 243.5C947.087 244.881 945.994 246 944.646 246C943.298 246 942.205 244.881 942.205 243.5C942.205 242.119 943.298 241 944.646 241C945.994 241 947.087 242.119 947.087 243.5Z"/>
<path d="M947.087 198.5C947.087 199.881 945.994 201 944.646 201C943.298 201 942.205 199.881 942.205 198.5C942.205 197.119 943.298 196 944.646 196C945.994 196 947.087 197.119 947.087 198.5Z"/>
<path d="M947.087 153.5C947.087 154.881 945.994 156 944.646 156C943.298 156 942.205 154.881 942.205 153.5C942.205 152.119 943.298 151 944.646 151C945.994 151 947.087 152.119 947.087 153.5Z"/>
<path d="M947.087 108.5C947.087 109.881 945.994 111 944.646 111C943.298 111 942.205 109.881 942.205 108.5C942.205 107.119 943.298 106 944.646 106C945.994 106 947.087 107.119 947.087 108.5Z"/>
<path d="M947.087 63.5C947.087 64.8807 945.994 66 944.646 66C943.298 66 942.205 64.8807 942.205 63.5C942.205 62.1193 943.298 61 944.646 61C945.994 61 947.087 62.1193 947.087 63.5Z"/>
<path d="M991.024 333.5C991.024 334.881 989.931 336 988.583 336C987.235 336 986.142 334.881 986.142 333.5C986.142 332.119 987.235 331 988.583 331C989.931 331 991.024 332.119 991.024 333.5Z"/>
<path d="M991.024 288.5C991.024 289.881 989.931 291 988.583 291C987.235 291 986.142 289.881 986.142 288.5C986.142 287.119 987.235 286 988.583 286C989.931 286 991.024 287.119 991.024 288.5Z"/>
<path d="M991.024 243.5C991.024 244.881 989.931 246 988.583 246C987.235 246 986.142 244.881 986.142 243.5C986.142 242.119 987.235 241 988.583 241C989.931 241 991.024 242.119 991.024 243.5Z"/>
<path d="M991.024 198.5C991.024 199.881 989.931 201 988.583 201C987.235 201 986.142 199.881 986.142 198.5C986.142 197.119 987.235 196 988.583 196C989.931 196 991.024 197.119 991.024 198.5Z"/>
<path d="M991.024 153.5C991.024 154.881 989.931 156 988.583 156C987.235 156 986.142 154.881 986.142 153.5C986.142 152.119 987.235 151 988.583 151C989.931 151 991.024 152.119 991.024 153.5Z"/>
<path d="M991.024 108.5C991.024 109.881 989.931 111 988.583 111C987.235 111 986.142 109.881 986.142 108.5C986.142 107.119 987.235 106 988.583 106C989.931 106 991.024 107.119 991.024 108.5Z"/>
<path d="M991.024 63.5C991.024 64.8807 989.931 66 988.583 66C987.235 66 986.142 64.8807 986.142 63.5C986.142 62.1193 987.235 61 988.583 61C989.931 61 991.024 62.1193 991.024 63.5Z"/>
</mask>
<path d="M727.402 333.5C727.402 334.881 726.309 336 724.961 336C723.613 336 722.52 334.881 722.52 333.5C722.52 332.119 723.613 331 724.961 331C726.309 331 727.402 332.119 727.402 333.5Z" stroke="#3360FF" stroke-width="2" mask="url(#path-2-inside-1)"/>
<path d="M727.402 288.5C727.402 289.881 726.309 291 724.961 291C723.613 291 722.52 289.881 722.52 288.5C722.52 287.119 723.613 286 724.961 286C726.309 286 727.402 287.119 727.402 288.5Z" stroke="#3360FF" stroke-width="2" mask="url(#path-2-inside-1)"/>
<path d="M727.402 243.5C727.402 244.881 726.309 246 724.961 246C723.613 246 722.52 244.881 722.52 243.5C722.52 242.119 723.613 241 724.961 241C726.309 241 727.402 242.119 727.402 243.5Z" stroke="#3360FF" stroke-width="2" mask="url(#path-2-inside-1)"/>
<path d="M727.402 198.5C727.402 199.881 726.309 201 724.961 201C723.613 201 722.52 199.881 722.52 198.5C722.52 197.119 723.613 196 724.961 196C726.309 196 727.402 197.119 727.402 198.5Z" stroke="#3360FF" stroke-width="2" mask="url(#path-2-inside-1)"/>
<path d="M727.402 153.5C727.402 154.881 726.309 156 724.961 156C723.613 156 722.52 154.881 722.52 153.5C722.52 152.119 723.613 151 724.961 151C726.309 151 727.402 152.119 727.402 153.5Z" stroke="#3360FF" stroke-width="2" mask="url(#path-2-inside-1)"/>
<path d="M727.402 108.5C727.402 109.881 726.309 111 724.961 111C723.613 111 722.52 109.881 722.52 108.5C722.52 107.119 723.613 106 724.961 106C726.309 106 727.402 107.119 727.402 108.5Z" stroke="#3360FF" stroke-width="2" mask="url(#path-2-inside-1)"/>
<path d="M727.402 63.5C727.402 64.8807 726.309 66 724.961 66C723.613 66 722.52 64.8807 722.52 63.5C722.52 62.1193 723.613 61 724.961 61C726.309 61 727.402 62.1193 727.402 63.5Z" stroke="#3360FF" stroke-width="2" mask="url(#path-2-inside-1)"/>
<path d="M771.339 333.5C771.339 334.881 770.246 336 768.898 336C767.55 336 766.457 334.881 766.457 333.5C766.457 332.119 767.55 331 768.898 331C770.246 331 771.339 332.119 771.339 333.5Z" stroke="#3360FF" stroke-width="2" mask="url(#path-2-inside-1)"/>
<path d="M771.339 288.5C771.339 289.881 770.246 291 768.898 291C767.55 291 766.457 289.881 766.457 288.5C766.457 287.119 767.55 286 768.898 286C770.246 286 771.339 287.119 771.339 288.5Z" stroke="#3360FF" stroke-width="2" mask="url(#path-2-inside-1)"/>
<path d="M771.339 243.5C771.339 244.881 770.246 246 768.898 246C767.55 246 766.457 244.881 766.457 243.5C766.457 242.119 767.55 241 768.898 241C770.246 241 771.339 242.119 771.339 243.5Z" stroke="#3360FF" stroke-width="2" mask="url(#path-2-inside-1)"/>
<path d="M771.339 198.5C771.339 199.881 770.246 201 768.898 201C767.55 201 766.457 199.881 766.457 198.5C766.457 197.119 767.55 196 768.898 196C770.246 196 771.339 197.119 771.339 198.5Z" stroke="#3360FF" stroke-width="2" mask="url(#path-2-inside-1)"/>
<path d="M771.339 153.5C771.339 154.881 770.246 156 768.898 156C767.55 156 766.457 154.881 766.457 153.5C766.457 152.119 767.55 151 768.898 151C770.246 151 771.339 152.119 771.339 153.5Z" stroke="#3360FF" stroke-width="2" mask="url(#path-2-inside-1)"/>
<path d="M771.339 108.5C771.339 109.881 770.246 111 768.898 111C767.55 111 766.457 109.881 766.457 108.5C766.457 107.119 767.55 106 768.898 106C770.246 106 771.339 107.119 771.339 108.5Z" stroke="#3360FF" stroke-width="2" mask="url(#path-2-inside-1)"/>
<path d="M771.339 63.5C771.339 64.8807 770.246 66 768.898 66C767.55 66 766.457 64.8807 766.457 63.5C766.457 62.1193 767.55 61 768.898 61C770.246 61 771.339 62.1193 771.339 63.5Z" stroke="#3360FF" stroke-width="2" mask="url(#path-2-inside-1)"/>
<path d="M815.276 333.5C815.276 334.881 814.183 336 812.835 336C811.487 336 810.394 334.881 810.394 333.5C810.394 332.119 811.487 331 812.835 331C814.183 331 815.276 332.119 815.276 333.5Z" stroke="#3360FF" stroke-width="2" mask="url(#path-2-inside-1)"/>
<path d="M815.276 288.5C815.276 289.881 814.183 291 812.835 291C811.487 291 810.394 289.881 810.394 288.5C810.394 287.119 811.487 286 812.835 286C814.183 286 815.276 287.119 815.276 288.5Z" stroke="#3360FF" stroke-width="2" mask="url(#path-2-inside-1)"/>
<path d="M815.276 243.5C815.276 244.881 814.183 246 812.835 246C811.487 246 810.394 244.881 810.394 243.5C810.394 242.119 811.487 241 812.835 241C814.183 241 815.276 242.119 815.276 243.5Z" stroke="#3360FF" stroke-width="2" mask="url(#path-2-inside-1)"/>
<path d="M815.276 198.5C815.276 199.881 814.183 201 812.835 201C811.487 201 810.394 199.881 810.394 198.5C810.394 197.119 811.487 196 812.835 196C814.183 196 815.276 197.119 815.276 198.5Z" stroke="#3360FF" stroke-width="2" mask="url(#path-2-inside-1)"/>
<path d="M815.276 153.5C815.276 154.881 814.183 156 812.835 156C811.487 156 810.394 154.881 810.394 153.5C810.394 152.119 811.487 151 812.835 151C814.183 151 815.276 152.119 815.276 153.5Z" stroke="#3360FF" stroke-width="2" mask="url(#path-2-inside-1)"/>
<path d="M815.276 108.5C815.276 109.881 814.183 111 812.835 111C811.487 111 810.394 109.881 810.394 108.5C810.394 107.119 811.487 106 812.835 106C814.183 106 815.276 107.119 815.276 108.5Z" stroke="#3360FF" stroke-width="2" mask="url(#path-2-inside-1)"/>
<path d="M815.276 63.5C815.276 64.8807 814.183 66 812.835 66C811.487 66 810.394 64.8807 810.394 63.5C810.394 62.1193 811.487 61 812.835 61C814.183 61 815.276 62.1193 815.276 63.5Z" stroke="#3360FF" stroke-width="2" mask="url(#path-2-inside-1)"/>
<path d="M859.213 333.5C859.213 334.881 858.12 336 856.772 336C855.424 336 854.331 334.881 854.331 333.5C854.331 332.119 855.424 331 856.772 331C858.12 331 859.213 332.119 859.213 333.5Z" stroke="#3360FF" stroke-width="2" mask="url(#path-2-inside-1)"/>
<path d="M859.213 288.5C859.213 289.881 858.12 291 856.772 291C855.424 291 854.331 289.881 854.331 288.5C854.331 287.119 855.424 286 856.772 286C858.12 286 859.213 287.119 859.213 288.5Z" stroke="#3360FF" stroke-width="2" mask="url(#path-2-inside-1)"/>
<path d="M859.213 243.5C859.213 244.881 858.12 246 856.772 246C855.424 246 854.331 244.881 854.331 243.5C854.331 242.119 855.424 241 856.772 241C858.12 241 859.213 242.119 859.213 243.5Z" stroke="#3360FF" stroke-width="2" mask="url(#path-2-inside-1)"/>
<path d="M859.213 198.5C859.213 199.881 858.12 201 856.772 201C855.424 201 854.331 199.881 854.331 198.5C854.331 197.119 855.424 196 856.772 196C858.12 196 859.213 197.119 859.213 198.5Z" stroke="#3360FF" stroke-width="2" mask="url(#path-2-inside-1)"/>
<path d="M859.213 153.5C859.213 154.881 858.12 156 856.772 156C855.424 156 854.331 154.881 854.331 153.5C854.331 152.119 855.424 151 856.772 151C858.12 151 859.213 152.119 859.213 153.5Z" stroke="#3360FF" stroke-width="2" mask="url(#path-2-inside-1)"/>
<path d="M859.213 108.5C859.213 109.881 858.12 111 856.772 111C855.424 111 854.331 109.881 854.331 108.5C854.331 107.119 855.424 106 856.772 106C858.12 106 859.213 107.119 859.213 108.5Z" stroke="#3360FF" stroke-width="2" mask="url(#path-2-inside-1)"/>
<path d="M859.213 63.5C859.213 64.8807 858.12 66 856.772 66C855.424 66 854.331 64.8807 854.331 63.5C854.331 62.1193 855.424 61 856.772 61C858.12 61 859.213 62.1193 859.213 63.5Z" stroke="#3360FF" stroke-width="2" mask="url(#path-2-inside-1)"/>
<path d="M903.15 333.5C903.15 334.881 902.057 336 900.709 336C899.361 336 898.268 334.881 898.268 333.5C898.268 332.119 899.361 331 900.709 331C902.057 331 903.15 332.119 903.15 333.5Z" stroke="#3360FF" stroke-width="2" mask="url(#path-2-inside-1)"/>
<path d="M903.15 288.5C903.15 289.881 902.057 291 900.709 291C899.361 291 898.268 289.881 898.268 288.5C898.268 287.119 899.361 286 900.709 286C902.057 286 903.15 287.119 903.15 288.5Z" stroke="#3360FF" stroke-width="2" mask="url(#path-2-inside-1)"/>
<path d="M903.15 243.5C903.15 244.881 902.057 246 900.709 246C899.361 246 898.268 244.881 898.268 243.5C898.268 242.119 899.361 241 900.709 241C902.057 241 903.15 242.119 903.15 243.5Z" stroke="#3360FF" stroke-width="2" mask="url(#path-2-inside-1)"/>
<path d="M903.15 198.5C903.15 199.881 902.057 201 900.709 201C899.361 201 898.268 199.881 898.268 198.5C898.268 197.119 899.361 196 900.709 196C902.057 196 903.15 197.119 903.15 198.5Z" stroke="#3360FF" stroke-width="2" mask="url(#path-2-inside-1)"/>
<path d="M903.15 153.5C903.15 154.881 902.057 156 900.709 156C899.361 156 898.268 154.881 898.268 153.5C898.268 152.119 899.361 151 900.709 151C902.057 151 903.15 152.119 903.15 153.5Z" stroke="#3360FF" stroke-width="2" mask="url(#path-2-inside-1)"/>
<path d="M903.15 108.5C903.15 109.881 902.057 111 900.709 111C899.361 111 898.268 109.881 898.268 108.5C898.268 107.119 899.361 106 900.709 106C902.057 106 903.15 107.119 903.15 108.5Z" stroke="#3360FF" stroke-width="2" mask="url(#path-2-inside-1)"/>
<path d="M903.15 63.5C903.15 64.8807 902.057 66 900.709 66C899.361 66 898.268 64.8807 898.268 63.5C898.268 62.1193 899.361 61 900.709 61C902.057 61 903.15 62.1193 903.15 63.5Z" stroke="#3360FF" stroke-width="2" mask="url(#path-2-inside-1)"/>
<path d="M947.087 333.5C947.087 334.881 945.994 336 944.646 336C943.298 336 942.205 334.881 942.205 333.5C942.205 332.119 943.298 331 944.646 331C945.994 331 947.087 332.119 947.087 333.5Z" stroke="#3360FF" stroke-width="2" mask="url(#path-2-inside-1)"/>
<path d="M947.087 288.5C947.087 289.881 945.994 291 944.646 291C943.298 291 942.205 289.881 942.205 288.5C942.205 287.119 943.298 286 944.646 286C945.994 286 947.087 287.119 947.087 288.5Z" stroke="#3360FF" stroke-width="2" mask="url(#path-2-inside-1)"/>
<path d="M947.087 243.5C947.087 244.881 945.994 246 944.646 246C943.298 246 942.205 244.881 942.205 243.5C942.205 242.119 943.298 241 944.646 241C945.994 241 947.087 242.119 947.087 243.5Z" stroke="#3360FF" stroke-width="2" mask="url(#path-2-inside-1)"/>
<path d="M947.087 198.5C947.087 199.881 945.994 201 944.646 201C943.298 201 942.205 199.881 942.205 198.5C942.205 197.119 943.298 196 944.646 196C945.994 196 947.087 197.119 947.087 198.5Z" stroke="#3360FF" stroke-width="2" mask="url(#path-2-inside-1)"/>
<path d="M947.087 153.5C947.087 154.881 945.994 156 944.646 156C943.298 156 942.205 154.881 942.205 153.5C942.205 152.119 943.298 151 944.646 151C945.994 151 947.087 152.119 947.087 153.5Z" stroke="#3360FF" stroke-width="2" mask="url(#path-2-inside-1)"/>
<path d="M947.087 108.5C947.087 109.881 945.994 111 944.646 111C943.298 111 942.205 109.881 942.205 108.5C942.205 107.119 943.298 106 944.646 106C945.994 106 947.087 107.119 947.087 108.5Z" stroke="#3360FF" stroke-width="2" mask="url(#path-2-inside-1)"/>
<path d="M947.087 63.5C947.087 64.8807 945.994 66 944.646 66C943.298 66 942.205 64.8807 942.205 63.5C942.205 62.1193 943.298 61 944.646 61C945.994 61 947.087 62.1193 947.087 63.5Z" stroke="#3360FF" stroke-width="2" mask="url(#path-2-inside-1)"/>
<path d="M991.024 333.5C991.024 334.881 989.931 336 988.583 336C987.235 336 986.142 334.881 986.142 333.5C986.142 332.119 987.235 331 988.583 331C989.931 331 991.024 332.119 991.024 333.5Z" stroke="#3360FF" stroke-width="2" mask="url(#path-2-inside-1)"/>
<path d="M991.024 288.5C991.024 289.881 989.931 291 988.583 291C987.235 291 986.142 289.881 986.142 288.5C986.142 287.119 987.235 286 988.583 286C989.931 286 991.024 287.119 991.024 288.5Z" stroke="#3360FF" stroke-width="2" mask="url(#path-2-inside-1)"/>
<path d="M991.024 243.5C991.024 244.881 989.931 246 988.583 246C987.235 246 986.142 244.881 986.142 243.5C986.142 242.119 987.235 241 988.583 241C989.931 241 991.024 242.119 991.024 243.5Z" stroke="#3360FF" stroke-width="2" mask="url(#path-2-inside-1)"/>
<path d="M991.024 198.5C991.024 199.881 989.931 201 988.583 201C987.235 201 986.142 199.881 986.142 198.5C986.142 197.119 987.235 196 988.583 196C989.931 196 991.024 197.119 991.024 198.5Z" stroke="#3360FF" stroke-width="2" mask="url(#path-2-inside-1)"/>
<path d="M991.024 153.5C991.024 154.881 989.931 156 988.583 156C987.235 156 986.142 154.881 986.142 153.5C986.142 152.119 987.235 151 988.583 151C989.931 151 991.024 152.119 991.024 153.5Z" stroke="#3360FF" stroke-width="2" mask="url(#path-2-inside-1)"/>
<path d="M991.024 108.5C991.024 109.881 989.931 111 988.583 111C987.235 111 986.142 109.881 986.142 108.5C986.142 107.119 987.235 106 988.583 106C989.931 106 991.024 107.119 991.024 108.5Z" stroke="#3360FF" stroke-width="2" mask="url(#path-2-inside-1)"/>
<path d="M991.024 63.5C991.024 64.8807 989.931 66 988.583 66C987.235 66 986.142 64.8807 986.142 63.5C986.142 62.1193 987.235 61 988.583 61C989.931 61 991.024 62.1193 991.024 63.5Z" stroke="#3360FF" stroke-width="2" mask="url(#path-2-inside-1)"/>
<mask id="path-3-inside-2" fill="white">
<path d="M121.882 656.5C121.882 657.881 120.789 659 119.441 659C118.093 659 117 657.881 117 656.5C117 655.119 118.093 654 119.441 654C120.789 654 121.882 655.119 121.882 656.5Z"/>
<path d="M121.882 611.5C121.882 612.881 120.789 614 119.441 614C118.093 614 117 612.881 117 611.5C117 610.119 118.093 609 119.441 609C120.789 609 121.882 610.119 121.882 611.5Z"/>
<path d="M121.882 566.5C121.882 567.881 120.789 569 119.441 569C118.093 569 117 567.881 117 566.5C117 565.119 118.093 564 119.441 564C120.789 564 121.882 565.119 121.882 566.5Z"/>
<path d="M121.882 521.5C121.882 522.881 120.789 524 119.441 524C118.093 524 117 522.881 117 521.5C117 520.119 118.093 519 119.441 519C120.789 519 121.882 520.119 121.882 521.5Z"/>
<path d="M121.882 476.5C121.882 477.881 120.789 479 119.441 479C118.093 479 117 477.881 117 476.5C117 475.119 118.093 474 119.441 474C120.789 474 121.882 475.119 121.882 476.5Z"/>
<path d="M165.819 656.5C165.819 657.881 164.726 659 163.378 659C162.03 659 160.937 657.881 160.937 656.5C160.937 655.119 162.03 654 163.378 654C164.726 654 165.819 655.119 165.819 656.5Z"/>
<path d="M165.819 611.5C165.819 612.881 164.726 614 163.378 614C162.03 614 160.937 612.881 160.937 611.5C160.937 610.119 162.03 609 163.378 609C164.726 609 165.819 610.119 165.819 611.5Z"/>
<path d="M165.819 566.5C165.819 567.881 164.726 569 163.378 569C162.03 569 160.937 567.881 160.937 566.5C160.937 565.119 162.03 564 163.378 564C164.726 564 165.819 565.119 165.819 566.5Z"/>
<path d="M165.819 521.5C165.819 522.881 164.726 524 163.378 524C162.03 524 160.937 522.881 160.937 521.5C160.937 520.119 162.03 519 163.378 519C164.726 519 165.819 520.119 165.819 521.5Z"/>
<path d="M165.819 476.5C165.819 477.881 164.726 479 163.378 479C162.03 479 160.937 477.881 160.937 476.5C160.937 475.119 162.03 474 163.378 474C164.726 474 165.819 475.119 165.819 476.5Z"/>
<path d="M209.756 656.5C209.756 657.881 208.663 659 207.315 659C205.967 659 204.874 657.881 204.874 656.5C204.874 655.119 205.967 654 207.315 654C208.663 654 209.756 655.119 209.756 656.5Z"/>
<path d="M209.756 611.5C209.756 612.881 208.663 614 207.315 614C205.967 614 204.874 612.881 204.874 611.5C204.874 610.119 205.967 609 207.315 609C208.663 609 209.756 610.119 209.756 611.5Z"/>
<path d="M209.756 566.5C209.756 567.881 208.663 569 207.315 569C205.967 569 204.874 567.881 204.874 566.5C204.874 565.119 205.967 564 207.315 564C208.663 564 209.756 565.119 209.756 566.5Z"/>
<path d="M209.756 521.5C209.756 522.881 208.663 524 207.315 524C205.967 524 204.874 522.881 204.874 521.5C204.874 520.119 205.967 519 207.315 519C208.663 519 209.756 520.119 209.756 521.5Z"/>
<path d="M209.756 476.5C209.756 477.881 208.663 479 207.315 479C205.967 479 204.874 477.881 204.874 476.5C204.874 475.119 205.967 474 207.315 474C208.663 474 209.756 475.119 209.756 476.5Z"/>
<path d="M253.693 656.5C253.693 657.881 252.6 659 251.252 659C249.904 659 248.811 657.881 248.811 656.5C248.811 655.119 249.904 654 251.252 654C252.6 654 253.693 655.119 253.693 656.5Z"/>
<path d="M253.693 611.5C253.693 612.881 252.6 614 251.252 614C249.904 614 248.811 612.881 248.811 611.5C248.811 610.119 249.904 609 251.252 609C252.6 609 253.693 610.119 253.693 611.5Z"/>
<path d="M253.693 566.5C253.693 567.881 252.6 569 251.252 569C249.904 569 248.811 567.881 248.811 566.5C248.811 565.119 249.904 564 251.252 564C252.6 564 253.693 565.119 253.693 566.5Z"/>
<path d="M253.693 521.5C253.693 522.881 252.6 524 251.252 524C249.904 524 248.811 522.881 248.811 521.5C248.811 520.119 249.904 519 251.252 519C252.6 519 253.693 520.119 253.693 521.5Z"/>
<path d="M253.693 476.5C253.693 477.881 252.6 479 251.252 479C249.904 479 248.811 477.881 248.811 476.5C248.811 475.119 249.904 474 251.252 474C252.6 474 253.693 475.119 253.693 476.5Z"/>
<path d="M297.63 656.5C297.63 657.881 296.537 659 295.189 659C293.841 659 292.748 657.881 292.748 656.5C292.748 655.119 293.841 654 295.189 654C296.537 654 297.63 655.119 297.63 656.5Z"/>
<path d="M297.63 611.5C297.63 612.881 296.537 614 295.189 614C293.841 614 292.748 612.881 292.748 611.5C292.748 610.119 293.841 609 295.189 609C296.537 609 297.63 610.119 297.63 611.5Z"/>
<path d="M297.63 566.5C297.63 567.881 296.537 569 295.189 569C293.841 569 292.748 567.881 292.748 566.5C292.748 565.119 293.841 564 295.189 564C296.537 564 297.63 565.119 297.63 566.5Z"/>
<path d="M297.63 521.5C297.63 522.881 296.537 524 295.189 524C293.841 524 292.748 522.881 292.748 521.5C292.748 520.119 293.841 519 295.189 519C296.537 519 297.63 520.119 297.63 521.5Z"/>
<path d="M297.63 476.5C297.63 477.881 296.537 479 295.189 479C293.841 479 292.748 477.881 292.748 476.5C292.748 475.119 293.841 474 295.189 474C296.537 474 297.63 475.119 297.63 476.5Z"/>
</mask>
<path d="M121.882 656.5C121.882 657.881 120.789 659 119.441 659C118.093 659 117 657.881 117 656.5C117 655.119 118.093 654 119.441 654C120.789 654 121.882 655.119 121.882 656.5Z" stroke="white" stroke-width="2" mask="url(#path-3-inside-2)"/>
<path d="M121.882 611.5C121.882 612.881 120.789 614 119.441 614C118.093 614 117 612.881 117 611.5C117 610.119 118.093 609 119.441 609C120.789 609 121.882 610.119 121.882 611.5Z" stroke="white" stroke-width="2" mask="url(#path-3-inside-2)"/>
<path d="M121.882 566.5C121.882 567.881 120.789 569 119.441 569C118.093 569 117 567.881 117 566.5C117 565.119 118.093 564 119.441 564C120.789 564 121.882 565.119 121.882 566.5Z" stroke="white" stroke-width="2" mask="url(#path-3-inside-2)"/>
<path d="M121.882 521.5C121.882 522.881 120.789 524 119.441 524C118.093 524 117 522.881 117 521.5C117 520.119 118.093 519 119.441 519C120.789 519 121.882 520.119 121.882 521.5Z" stroke="white" stroke-width="2" mask="url(#path-3-inside-2)"/>
<path d="M121.882 476.5C121.882 477.881 120.789 479 119.441 479C118.093 479 117 477.881 117 476.5C117 475.119 118.093 474 119.441 474C120.789 474 121.882 475.119 121.882 476.5Z" stroke="white" stroke-width="2" mask="url(#path-3-inside-2)"/>
<path d="M165.819 656.5C165.819 657.881 164.726 659 163.378 659C162.03 659 160.937 657.881 160.937 656.5C160.937 655.119 162.03 654 163.378 654C164.726 654 165.819 655.119 165.819 656.5Z" stroke="white" stroke-width="2" mask="url(#path-3-inside-2)"/>
<path d="M165.819 611.5C165.819 612.881 164.726 614 163.378 614C162.03 614 160.937 612.881 160.937 611.5C160.937 610.119 162.03 609 163.378 609C164.726 609 165.819 610.119 165.819 611.5Z" stroke="white" stroke-width="2" mask="url(#path-3-inside-2)"/>
<path d="M165.819 566.5C165.819 567.881 164.726 569 163.378 569C162.03 569 160.937 567.881 160.937 566.5C160.937 565.119 162.03 564 163.378 564C164.726 564 165.819 565.119 165.819 566.5Z" stroke="white" stroke-width="2" mask="url(#path-3-inside-2)"/>
<path d="M165.819 521.5C165.819 522.881 164.726 524 163.378 524C162.03 524 160.937 522.881 160.937 521.5C160.937 520.119 162.03 519 163.378 519C164.726 519 165.819 520.119 165.819 521.5Z" stroke="white" stroke-width="2" mask="url(#path-3-inside-2)"/>
<path d="M165.819 476.5C165.819 477.881 164.726 479 163.378 479C162.03 479 160.937 477.881 160.937 476.5C160.937 475.119 162.03 474 163.378 474C164.726 474 165.819 475.119 165.819 476.5Z" stroke="white" stroke-width="2" mask="url(#path-3-inside-2)"/>
<path d="M209.756 656.5C209.756 657.881 208.663 659 207.315 659C205.967 659 204.874 657.881 204.874 656.5C204.874 655.119 205.967 654 207.315 654C208.663 654 209.756 655.119 209.756 656.5Z" stroke="white" stroke-width="2" mask="url(#path-3-inside-2)"/>
<path d="M209.756 611.5C209.756 612.881 208.663 614 207.315 614C205.967 614 204.874 612.881 204.874 611.5C204.874 610.119 205.967 609 207.315 609C208.663 609 209.756 610.119 209.756 611.5Z" stroke="white" stroke-width="2" mask="url(#path-3-inside-2)"/>
<path d="M209.756 566.5C209.756 567.881 208.663 569 207.315 569C205.967 569 204.874 567.881 204.874 566.5C204.874 565.119 205.967 564 207.315 564C208.663 564 209.756 565.119 209.756 566.5Z" stroke="white" stroke-width="2" mask="url(#path-3-inside-2)"/>
<path d="M209.756 521.5C209.756 522.881 208.663 524 207.315 524C205.967 524 204.874 522.881 204.874 521.5C204.874 520.119 205.967 519 207.315 519C208.663 519 209.756 520.119 209.756 521.5Z" stroke="white" stroke-width="2" mask="url(#path-3-inside-2)"/>
<path d="M209.756 476.5C209.756 477.881 208.663 479 207.315 479C205.967 479 204.874 477.881 204.874 476.5C204.874 475.119 205.967 474 207.315 474C208.663 474 209.756 475.119 209.756 476.5Z" stroke="white" stroke-width="2" mask="url(#path-3-inside-2)"/>
<path d="M253.693 656.5C253.693 657.881 252.6 659 251.252 659C249.904 659 248.811 657.881 248.811 656.5C248.811 655.119 249.904 654 251.252 654C252.6 654 253.693 655.119 253.693 656.5Z" stroke="white" stroke-width="2" mask="url(#path-3-inside-2)"/>
<path d="M253.693 611.5C253.693 612.881 252.6 614 251.252 614C249.904 614 248.811 612.881 248.811 611.5C248.811 610.119 249.904 609 251.252 609C252.6 609 253.693 610.119 253.693 611.5Z" stroke="white" stroke-width="2" mask="url(#path-3-inside-2)"/>
<path d="M253.693 566.5C253.693 567.881 252.6 569 251.252 569C249.904 569 248.811 567.881 248.811 566.5C248.811 565.119 249.904 564 251.252 564C252.6 564 253.693 565.119 253.693 566.5Z" stroke="white" stroke-width="2" mask="url(#path-3-inside-2)"/>
<path d="M253.693 521.5C253.693 522.881 252.6 524 251.252 524C249.904 524 248.811 522.881 248.811 521.5C248.811 520.119 249.904 519 251.252 519C252.6 519 253.693 520.119 253.693 521.5Z" stroke="white" stroke-width="2" mask="url(#path-3-inside-2)"/>
<path d="M253.693 476.5C253.693 477.881 252.6 479 251.252 479C249.904 479 248.811 477.881 248.811 476.5C248.811 475.119 249.904 474 251.252 474C252.6 474 253.693 475.119 253.693 476.5Z" stroke="white" stroke-width="2" mask="url(#path-3-inside-2)"/>
<path d="M297.63 656.5C297.63 657.881 296.537 659 295.189 659C293.841 659 292.748 657.881 292.748 656.5C292.748 655.119 293.841 654 295.189 654C296.537 654 297.63 655.119 297.63 656.5Z" stroke="white" stroke-width="2" mask="url(#path-3-inside-2)"/>
<path d="M297.63 611.5C297.63 612.881 296.537 614 295.189 614C293.841 614 292.748 612.881 292.748 611.5C292.748 610.119 293.841 609 295.189 609C296.537 609 297.63 610.119 297.63 611.5Z" stroke="white" stroke-width="2" mask="url(#path-3-inside-2)"/>
<path d="M297.63 566.5C297.63 567.881 296.537 569 295.189 569C293.841 569 292.748 567.881 292.748 566.5C292.748 565.119 293.841 564 295.189 564C296.537 564 297.63 565.119 297.63 566.5Z" stroke="white" stroke-width="2" mask="url(#path-3-inside-2)"/>
<path d="M297.63 521.5C297.63 522.881 296.537 524 295.189 524C293.841 524 292.748 522.881 292.748 521.5C292.748 520.119 293.841 519 295.189 519C296.537 519 297.63 520.119 297.63 521.5Z" stroke="white" stroke-width="2" mask="url(#path-3-inside-2)"/>
<path d="M297.63 476.5C297.63 477.881 296.537 479 295.189 479C293.841 479 292.748 477.881 292.748 476.5C292.748 475.119 293.841 474 295.189 474C296.537 474 297.63 475.119 297.63 476.5Z" stroke="white" stroke-width="2" mask="url(#path-3-inside-2)"/>
</svg>
