<svg width="600" height="660" viewBox="0 0 600 660" fill="none" xmlns="http://www.w3.org/2000/svg">
<mask id="path-1-inside-1" fill="white">
<path d="M212 606.5C212 607.881 210.881 609 209.5 609C208.119 609 207 607.881 207 606.5C207 605.119 208.119 604 209.5 604C210.881 604 212 605.119 212 606.5Z"/>
<path d="M212 561.5C212 562.881 210.881 564 209.5 564C208.119 564 207 562.881 207 561.5C207 560.119 208.119 559 209.5 559C210.881 559 212 560.119 212 561.5Z"/>
<path d="M212 516.5C212 517.881 210.881 519 209.5 519C208.119 519 207 517.881 207 516.5C207 515.119 208.119 514 209.5 514C210.881 514 212 515.119 212 516.5Z"/>
<path d="M212 471.5C212 472.881 210.881 474 209.5 474C208.119 474 207 472.881 207 471.5C207 470.119 208.119 469 209.5 469C210.881 469 212 470.119 212 471.5Z"/>
<path d="M212 426.5C212 427.881 210.881 429 209.5 429C208.119 429 207 427.881 207 426.5C207 425.119 208.119 424 209.5 424C210.881 424 212 425.119 212 426.5Z"/>
<path d="M212 381.5C212 382.881 210.881 384 209.5 384C208.119 384 207 382.881 207 381.5C207 380.119 208.119 379 209.5 379C210.881 379 212 380.119 212 381.5Z"/>
<path d="M212 336.5C212 337.881 210.881 339 209.5 339C208.119 339 207 337.881 207 336.5C207 335.119 208.119 334 209.5 334C210.881 334 212 335.119 212 336.5Z"/>
<path d="M257 606.5C257 607.881 255.881 609 254.5 609C253.119 609 252 607.881 252 606.5C252 605.119 253.119 604 254.5 604C255.881 604 257 605.119 257 606.5Z"/>
<path d="M257 561.5C257 562.881 255.881 564 254.5 564C253.119 564 252 562.881 252 561.5C252 560.119 253.119 559 254.5 559C255.881 559 257 560.119 257 561.5Z"/>
<path d="M257 516.5C257 517.881 255.881 519 254.5 519C253.119 519 252 517.881 252 516.5C252 515.119 253.119 514 254.5 514C255.881 514 257 515.119 257 516.5Z"/>
<path d="M257 471.5C257 472.881 255.881 474 254.5 474C253.119 474 252 472.881 252 471.5C252 470.119 253.119 469 254.5 469C255.881 469 257 470.119 257 471.5Z"/>
<path d="M257 426.5C257 427.881 255.881 429 254.5 429C253.119 429 252 427.881 252 426.5C252 425.119 253.119 424 254.5 424C255.881 424 257 425.119 257 426.5Z"/>
<path d="M257 381.5C257 382.881 255.881 384 254.5 384C253.119 384 252 382.881 252 381.5C252 380.119 253.119 379 254.5 379C255.881 379 257 380.119 257 381.5Z"/>
<path d="M257 336.5C257 337.881 255.881 339 254.5 339C253.119 339 252 337.881 252 336.5C252 335.119 253.119 334 254.5 334C255.881 334 257 335.119 257 336.5Z"/>
<path d="M302 606.5C302 607.881 300.881 609 299.5 609C298.119 609 297 607.881 297 606.5C297 605.119 298.119 604 299.5 604C300.881 604 302 605.119 302 606.5Z"/>
<path d="M302 561.5C302 562.881 300.881 564 299.5 564C298.119 564 297 562.881 297 561.5C297 560.119 298.119 559 299.5 559C300.881 559 302 560.119 302 561.5Z"/>
<path d="M302 516.5C302 517.881 300.881 519 299.5 519C298.119 519 297 517.881 297 516.5C297 515.119 298.119 514 299.5 514C300.881 514 302 515.119 302 516.5Z"/>
<path d="M302 471.5C302 472.881 300.881 474 299.5 474C298.119 474 297 472.881 297 471.5C297 470.119 298.119 469 299.5 469C300.881 469 302 470.119 302 471.5Z"/>
<path d="M302 426.5C302 427.881 300.881 429 299.5 429C298.119 429 297 427.881 297 426.5C297 425.119 298.119 424 299.5 424C300.881 424 302 425.119 302 426.5Z"/>
<path d="M302 381.5C302 382.881 300.881 384 299.5 384C298.119 384 297 382.881 297 381.5C297 380.119 298.119 379 299.5 379C300.881 379 302 380.119 302 381.5Z"/>
<path d="M302 336.5C302 337.881 300.881 339 299.5 339C298.119 339 297 337.881 297 336.5C297 335.119 298.119 334 299.5 334C300.881 334 302 335.119 302 336.5Z"/>
<path d="M347 606.5C347 607.881 345.881 609 344.5 609C343.119 609 342 607.881 342 606.5C342 605.119 343.119 604 344.5 604C345.881 604 347 605.119 347 606.5Z"/>
<path d="M347 561.5C347 562.881 345.881 564 344.5 564C343.119 564 342 562.881 342 561.5C342 560.119 343.119 559 344.5 559C345.881 559 347 560.119 347 561.5Z"/>
<path d="M347 516.5C347 517.881 345.881 519 344.5 519C343.119 519 342 517.881 342 516.5C342 515.119 343.119 514 344.5 514C345.881 514 347 515.119 347 516.5Z"/>
<path d="M347 471.5C347 472.881 345.881 474 344.5 474C343.119 474 342 472.881 342 471.5C342 470.119 343.119 469 344.5 469C345.881 469 347 470.119 347 471.5Z"/>
<path d="M347 426.5C347 427.881 345.881 429 344.5 429C343.119 429 342 427.881 342 426.5C342 425.119 343.119 424 344.5 424C345.881 424 347 425.119 347 426.5Z"/>
<path d="M347 381.5C347 382.881 345.881 384 344.5 384C343.119 384 342 382.881 342 381.5C342 380.119 343.119 379 344.5 379C345.881 379 347 380.119 347 381.5Z"/>
<path d="M347 336.5C347 337.881 345.881 339 344.5 339C343.119 339 342 337.881 342 336.5C342 335.119 343.119 334 344.5 334C345.881 334 347 335.119 347 336.5Z"/>
<path d="M392 606.5C392 607.881 390.881 609 389.5 609C388.119 609 387 607.881 387 606.5C387 605.119 388.119 604 389.5 604C390.881 604 392 605.119 392 606.5Z"/>
<path d="M392 561.5C392 562.881 390.881 564 389.5 564C388.119 564 387 562.881 387 561.5C387 560.119 388.119 559 389.5 559C390.881 559 392 560.119 392 561.5Z"/>
<path d="M392 516.5C392 517.881 390.881 519 389.5 519C388.119 519 387 517.881 387 516.5C387 515.119 388.119 514 389.5 514C390.881 514 392 515.119 392 516.5Z"/>
<path d="M392 471.5C392 472.881 390.881 474 389.5 474C388.119 474 387 472.881 387 471.5C387 470.119 388.119 469 389.5 469C390.881 469 392 470.119 392 471.5Z"/>
<path d="M392 426.5C392 427.881 390.881 429 389.5 429C388.119 429 387 427.881 387 426.5C387 425.119 388.119 424 389.5 424C390.881 424 392 425.119 392 426.5Z"/>
<path d="M392 381.5C392 382.881 390.881 384 389.5 384C388.119 384 387 382.881 387 381.5C387 380.119 388.119 379 389.5 379C390.881 379 392 380.119 392 381.5Z"/>
<path d="M392 336.5C392 337.881 390.881 339 389.5 339C388.119 339 387 337.881 387 336.5C387 335.119 388.119 334 389.5 334C390.881 334 392 335.119 392 336.5Z"/>
<path d="M437 606.5C437 607.881 435.881 609 434.5 609C433.119 609 432 607.881 432 606.5C432 605.119 433.119 604 434.5 604C435.881 604 437 605.119 437 606.5Z"/>
<path d="M437 561.5C437 562.881 435.881 564 434.5 564C433.119 564 432 562.881 432 561.5C432 560.119 433.119 559 434.5 559C435.881 559 437 560.119 437 561.5Z"/>
<path d="M437 516.5C437 517.881 435.881 519 434.5 519C433.119 519 432 517.881 432 516.5C432 515.119 433.119 514 434.5 514C435.881 514 437 515.119 437 516.5Z"/>
<path d="M437 471.5C437 472.881 435.881 474 434.5 474C433.119 474 432 472.881 432 471.5C432 470.119 433.119 469 434.5 469C435.881 469 437 470.119 437 471.5Z"/>
<path d="M437 426.5C437 427.881 435.881 429 434.5 429C433.119 429 432 427.881 432 426.5C432 425.119 433.119 424 434.5 424C435.881 424 437 425.119 437 426.5Z"/>
<path d="M437 381.5C437 382.881 435.881 384 434.5 384C433.119 384 432 382.881 432 381.5C432 380.119 433.119 379 434.5 379C435.881 379 437 380.119 437 381.5Z"/>
<path d="M437 336.5C437 337.881 435.881 339 434.5 339C433.119 339 432 337.881 432 336.5C432 335.119 433.119 334 434.5 334C435.881 334 437 335.119 437 336.5Z"/>
<path d="M482 606.5C482 607.881 480.881 609 479.5 609C478.119 609 477 607.881 477 606.5C477 605.119 478.119 604 479.5 604C480.881 604 482 605.119 482 606.5Z"/>
<path d="M482 561.5C482 562.881 480.881 564 479.5 564C478.119 564 477 562.881 477 561.5C477 560.119 478.119 559 479.5 559C480.881 559 482 560.119 482 561.5Z"/>
<path d="M482 516.5C482 517.881 480.881 519 479.5 519C478.119 519 477 517.881 477 516.5C477 515.119 478.119 514 479.5 514C480.881 514 482 515.119 482 516.5Z"/>
<path d="M482 471.5C482 472.881 480.881 474 479.5 474C478.119 474 477 472.881 477 471.5C477 470.119 478.119 469 479.5 469C480.881 469 482 470.119 482 471.5Z"/>
<path d="M482 426.5C482 427.881 480.881 429 479.5 429C478.119 429 477 427.881 477 426.5C477 425.119 478.119 424 479.5 424C480.881 424 482 425.119 482 426.5Z"/>
<path d="M482 381.5C482 382.881 480.881 384 479.5 384C478.119 384 477 382.881 477 381.5C477 380.119 478.119 379 479.5 379C480.881 379 482 380.119 482 381.5Z"/>
<path d="M482 336.5C482 337.881 480.881 339 479.5 339C478.119 339 477 337.881 477 336.5C477 335.119 478.119 334 479.5 334C480.881 334 482 335.119 482 336.5Z"/>
</mask>
<path d="M212 606.5C212 607.881 210.881 609 209.5 609C208.119 609 207 607.881 207 606.5C207 605.119 208.119 604 209.5 604C210.881 604 212 605.119 212 606.5Z" stroke="#3360FF" stroke-width="2" mask="url(#path-1-inside-1)"/>
<path d="M212 561.5C212 562.881 210.881 564 209.5 564C208.119 564 207 562.881 207 561.5C207 560.119 208.119 559 209.5 559C210.881 559 212 560.119 212 561.5Z" stroke="#3360FF" stroke-width="2" mask="url(#path-1-inside-1)"/>
<path d="M212 516.5C212 517.881 210.881 519 209.5 519C208.119 519 207 517.881 207 516.5C207 515.119 208.119 514 209.5 514C210.881 514 212 515.119 212 516.5Z" stroke="#3360FF" stroke-width="2" mask="url(#path-1-inside-1)"/>
<path d="M212 471.5C212 472.881 210.881 474 209.5 474C208.119 474 207 472.881 207 471.5C207 470.119 208.119 469 209.5 469C210.881 469 212 470.119 212 471.5Z" stroke="#3360FF" stroke-width="2" mask="url(#path-1-inside-1)"/>
<path d="M212 426.5C212 427.881 210.881 429 209.5 429C208.119 429 207 427.881 207 426.5C207 425.119 208.119 424 209.5 424C210.881 424 212 425.119 212 426.5Z" stroke="#3360FF" stroke-width="2" mask="url(#path-1-inside-1)"/>
<path d="M212 381.5C212 382.881 210.881 384 209.5 384C208.119 384 207 382.881 207 381.5C207 380.119 208.119 379 209.5 379C210.881 379 212 380.119 212 381.5Z" stroke="#3360FF" stroke-width="2" mask="url(#path-1-inside-1)"/>
<path d="M212 336.5C212 337.881 210.881 339 209.5 339C208.119 339 207 337.881 207 336.5C207 335.119 208.119 334 209.5 334C210.881 334 212 335.119 212 336.5Z" stroke="#3360FF" stroke-width="2" mask="url(#path-1-inside-1)"/>
<path d="M257 606.5C257 607.881 255.881 609 254.5 609C253.119 609 252 607.881 252 606.5C252 605.119 253.119 604 254.5 604C255.881 604 257 605.119 257 606.5Z" stroke="#3360FF" stroke-width="2" mask="url(#path-1-inside-1)"/>
<path d="M257 561.5C257 562.881 255.881 564 254.5 564C253.119 564 252 562.881 252 561.5C252 560.119 253.119 559 254.5 559C255.881 559 257 560.119 257 561.5Z" stroke="#3360FF" stroke-width="2" mask="url(#path-1-inside-1)"/>
<path d="M257 516.5C257 517.881 255.881 519 254.5 519C253.119 519 252 517.881 252 516.5C252 515.119 253.119 514 254.5 514C255.881 514 257 515.119 257 516.5Z" stroke="#3360FF" stroke-width="2" mask="url(#path-1-inside-1)"/>
<path d="M257 471.5C257 472.881 255.881 474 254.5 474C253.119 474 252 472.881 252 471.5C252 470.119 253.119 469 254.5 469C255.881 469 257 470.119 257 471.5Z" stroke="#3360FF" stroke-width="2" mask="url(#path-1-inside-1)"/>
<path d="M257 426.5C257 427.881 255.881 429 254.5 429C253.119 429 252 427.881 252 426.5C252 425.119 253.119 424 254.5 424C255.881 424 257 425.119 257 426.5Z" stroke="#3360FF" stroke-width="2" mask="url(#path-1-inside-1)"/>
<path d="M257 381.5C257 382.881 255.881 384 254.5 384C253.119 384 252 382.881 252 381.5C252 380.119 253.119 379 254.5 379C255.881 379 257 380.119 257 381.5Z" stroke="#3360FF" stroke-width="2" mask="url(#path-1-inside-1)"/>
<path d="M257 336.5C257 337.881 255.881 339 254.5 339C253.119 339 252 337.881 252 336.5C252 335.119 253.119 334 254.5 334C255.881 334 257 335.119 257 336.5Z" stroke="#3360FF" stroke-width="2" mask="url(#path-1-inside-1)"/>
<path d="M302 606.5C302 607.881 300.881 609 299.5 609C298.119 609 297 607.881 297 606.5C297 605.119 298.119 604 299.5 604C300.881 604 302 605.119 302 606.5Z" stroke="#3360FF" stroke-width="2" mask="url(#path-1-inside-1)"/>
<path d="M302 561.5C302 562.881 300.881 564 299.5 564C298.119 564 297 562.881 297 561.5C297 560.119 298.119 559 299.5 559C300.881 559 302 560.119 302 561.5Z" stroke="#3360FF" stroke-width="2" mask="url(#path-1-inside-1)"/>
<path d="M302 516.5C302 517.881 300.881 519 299.5 519C298.119 519 297 517.881 297 516.5C297 515.119 298.119 514 299.5 514C300.881 514 302 515.119 302 516.5Z" stroke="#3360FF" stroke-width="2" mask="url(#path-1-inside-1)"/>
<path d="M302 471.5C302 472.881 300.881 474 299.5 474C298.119 474 297 472.881 297 471.5C297 470.119 298.119 469 299.5 469C300.881 469 302 470.119 302 471.5Z" stroke="#3360FF" stroke-width="2" mask="url(#path-1-inside-1)"/>
<path d="M302 426.5C302 427.881 300.881 429 299.5 429C298.119 429 297 427.881 297 426.5C297 425.119 298.119 424 299.5 424C300.881 424 302 425.119 302 426.5Z" stroke="#3360FF" stroke-width="2" mask="url(#path-1-inside-1)"/>
<path d="M302 381.5C302 382.881 300.881 384 299.5 384C298.119 384 297 382.881 297 381.5C297 380.119 298.119 379 299.5 379C300.881 379 302 380.119 302 381.5Z" stroke="#3360FF" stroke-width="2" mask="url(#path-1-inside-1)"/>
<path d="M302 336.5C302 337.881 300.881 339 299.5 339C298.119 339 297 337.881 297 336.5C297 335.119 298.119 334 299.5 334C300.881 334 302 335.119 302 336.5Z" stroke="#3360FF" stroke-width="2" mask="url(#path-1-inside-1)"/>
<path d="M347 606.5C347 607.881 345.881 609 344.5 609C343.119 609 342 607.881 342 606.5C342 605.119 343.119 604 344.5 604C345.881 604 347 605.119 347 606.5Z" stroke="#3360FF" stroke-width="2" mask="url(#path-1-inside-1)"/>
<path d="M347 561.5C347 562.881 345.881 564 344.5 564C343.119 564 342 562.881 342 561.5C342 560.119 343.119 559 344.5 559C345.881 559 347 560.119 347 561.5Z" stroke="#3360FF" stroke-width="2" mask="url(#path-1-inside-1)"/>
<path d="M347 516.5C347 517.881 345.881 519 344.5 519C343.119 519 342 517.881 342 516.5C342 515.119 343.119 514 344.5 514C345.881 514 347 515.119 347 516.5Z" stroke="#3360FF" stroke-width="2" mask="url(#path-1-inside-1)"/>
<path d="M347 471.5C347 472.881 345.881 474 344.5 474C343.119 474 342 472.881 342 471.5C342 470.119 343.119 469 344.5 469C345.881 469 347 470.119 347 471.5Z" stroke="#3360FF" stroke-width="2" mask="url(#path-1-inside-1)"/>
<path d="M347 426.5C347 427.881 345.881 429 344.5 429C343.119 429 342 427.881 342 426.5C342 425.119 343.119 424 344.5 424C345.881 424 347 425.119 347 426.5Z" stroke="#3360FF" stroke-width="2" mask="url(#path-1-inside-1)"/>
<path d="M347 381.5C347 382.881 345.881 384 344.5 384C343.119 384 342 382.881 342 381.5C342 380.119 343.119 379 344.5 379C345.881 379 347 380.119 347 381.5Z" stroke="#3360FF" stroke-width="2" mask="url(#path-1-inside-1)"/>
<path d="M347 336.5C347 337.881 345.881 339 344.5 339C343.119 339 342 337.881 342 336.5C342 335.119 343.119 334 344.5 334C345.881 334 347 335.119 347 336.5Z" stroke="#3360FF" stroke-width="2" mask="url(#path-1-inside-1)"/>
<path d="M392 606.5C392 607.881 390.881 609 389.5 609C388.119 609 387 607.881 387 606.5C387 605.119 388.119 604 389.5 604C390.881 604 392 605.119 392 606.5Z" stroke="#3360FF" stroke-width="2" mask="url(#path-1-inside-1)"/>
<path d="M392 561.5C392 562.881 390.881 564 389.5 564C388.119 564 387 562.881 387 561.5C387 560.119 388.119 559 389.5 559C390.881 559 392 560.119 392 561.5Z" stroke="#3360FF" stroke-width="2" mask="url(#path-1-inside-1)"/>
<path d="M392 516.5C392 517.881 390.881 519 389.5 519C388.119 519 387 517.881 387 516.5C387 515.119 388.119 514 389.5 514C390.881 514 392 515.119 392 516.5Z" stroke="#3360FF" stroke-width="2" mask="url(#path-1-inside-1)"/>
<path d="M392 471.5C392 472.881 390.881 474 389.5 474C388.119 474 387 472.881 387 471.5C387 470.119 388.119 469 389.5 469C390.881 469 392 470.119 392 471.5Z" stroke="#3360FF" stroke-width="2" mask="url(#path-1-inside-1)"/>
<path d="M392 426.5C392 427.881 390.881 429 389.5 429C388.119 429 387 427.881 387 426.5C387 425.119 388.119 424 389.5 424C390.881 424 392 425.119 392 426.5Z" stroke="#3360FF" stroke-width="2" mask="url(#path-1-inside-1)"/>
<path d="M392 381.5C392 382.881 390.881 384 389.5 384C388.119 384 387 382.881 387 381.5C387 380.119 388.119 379 389.5 379C390.881 379 392 380.119 392 381.5Z" stroke="#3360FF" stroke-width="2" mask="url(#path-1-inside-1)"/>
<path d="M392 336.5C392 337.881 390.881 339 389.5 339C388.119 339 387 337.881 387 336.5C387 335.119 388.119 334 389.5 334C390.881 334 392 335.119 392 336.5Z" stroke="#3360FF" stroke-width="2" mask="url(#path-1-inside-1)"/>
<path d="M437 606.5C437 607.881 435.881 609 434.5 609C433.119 609 432 607.881 432 606.5C432 605.119 433.119 604 434.5 604C435.881 604 437 605.119 437 606.5Z" stroke="#3360FF" stroke-width="2" mask="url(#path-1-inside-1)"/>
<path d="M437 561.5C437 562.881 435.881 564 434.5 564C433.119 564 432 562.881 432 561.5C432 560.119 433.119 559 434.5 559C435.881 559 437 560.119 437 561.5Z" stroke="#3360FF" stroke-width="2" mask="url(#path-1-inside-1)"/>
<path d="M437 516.5C437 517.881 435.881 519 434.5 519C433.119 519 432 517.881 432 516.5C432 515.119 433.119 514 434.5 514C435.881 514 437 515.119 437 516.5Z" stroke="#3360FF" stroke-width="2" mask="url(#path-1-inside-1)"/>
<path d="M437 471.5C437 472.881 435.881 474 434.5 474C433.119 474 432 472.881 432 471.5C432 470.119 433.119 469 434.5 469C435.881 469 437 470.119 437 471.5Z" stroke="#3360FF" stroke-width="2" mask="url(#path-1-inside-1)"/>
<path d="M437 426.5C437 427.881 435.881 429 434.5 429C433.119 429 432 427.881 432 426.5C432 425.119 433.119 424 434.5 424C435.881 424 437 425.119 437 426.5Z" stroke="#3360FF" stroke-width="2" mask="url(#path-1-inside-1)"/>
<path d="M437 381.5C437 382.881 435.881 384 434.5 384C433.119 384 432 382.881 432 381.5C432 380.119 433.119 379 434.5 379C435.881 379 437 380.119 437 381.5Z" stroke="#3360FF" stroke-width="2" mask="url(#path-1-inside-1)"/>
<path d="M437 336.5C437 337.881 435.881 339 434.5 339C433.119 339 432 337.881 432 336.5C432 335.119 433.119 334 434.5 334C435.881 334 437 335.119 437 336.5Z" stroke="#3360FF" stroke-width="2" mask="url(#path-1-inside-1)"/>
<path d="M482 606.5C482 607.881 480.881 609 479.5 609C478.119 609 477 607.881 477 606.5C477 605.119 478.119 604 479.5 604C480.881 604 482 605.119 482 606.5Z" stroke="#3360FF" stroke-width="2" mask="url(#path-1-inside-1)"/>
<path d="M482 561.5C482 562.881 480.881 564 479.5 564C478.119 564 477 562.881 477 561.5C477 560.119 478.119 559 479.5 559C480.881 559 482 560.119 482 561.5Z" stroke="#3360FF" stroke-width="2" mask="url(#path-1-inside-1)"/>
<path d="M482 516.5C482 517.881 480.881 519 479.5 519C478.119 519 477 517.881 477 516.5C477 515.119 478.119 514 479.5 514C480.881 514 482 515.119 482 516.5Z" stroke="#3360FF" stroke-width="2" mask="url(#path-1-inside-1)"/>
<path d="M482 471.5C482 472.881 480.881 474 479.5 474C478.119 474 477 472.881 477 471.5C477 470.119 478.119 469 479.5 469C480.881 469 482 470.119 482 471.5Z" stroke="#3360FF" stroke-width="2" mask="url(#path-1-inside-1)"/>
<path d="M482 426.5C482 427.881 480.881 429 479.5 429C478.119 429 477 427.881 477 426.5C477 425.119 478.119 424 479.5 424C480.881 424 482 425.119 482 426.5Z" stroke="#3360FF" stroke-width="2" mask="url(#path-1-inside-1)"/>
<path d="M482 381.5C482 382.881 480.881 384 479.5 384C478.119 384 477 382.881 477 381.5C477 380.119 478.119 379 479.5 379C480.881 379 482 380.119 482 381.5Z" stroke="#3360FF" stroke-width="2" mask="url(#path-1-inside-1)"/>
<path d="M482 336.5C482 337.881 480.881 339 479.5 339C478.119 339 477 337.881 477 336.5C477 335.119 478.119 334 479.5 334C480.881 334 482 335.119 482 336.5Z" stroke="#3360FF" stroke-width="2" mask="url(#path-1-inside-1)"/>
<circle cx="232" cy="314" r="161" fill="#3360FF"/>
</svg>
