<svg width="600" height="868" viewBox="0 0 600 868" fill="none" xmlns="http://www.w3.org/2000/svg">
<mask id="path-1-inside-1" fill="white">
<path d="M308 312.5C308 313.881 306.881 315 305.5 315C304.119 315 303 313.881 303 312.5C303 311.119 304.119 310 305.5 310C306.881 310 308 311.119 308 312.5Z"/>
<path d="M308 267.5C308 268.881 306.881 270 305.5 270C304.119 270 303 268.881 303 267.5C303 266.119 304.119 265 305.5 265C306.881 265 308 266.119 308 267.5Z"/>
<path d="M308 222.5C308 223.881 306.881 225 305.5 225C304.119 225 303 223.881 303 222.5C303 221.119 304.119 220 305.5 220C306.881 220 308 221.119 308 222.5Z"/>
<path d="M308 177.5C308 178.881 306.881 180 305.5 180C304.119 180 303 178.881 303 177.5C303 176.119 304.119 175 305.5 175C306.881 175 308 176.119 308 177.5Z"/>
<path d="M308 132.5C308 133.881 306.881 135 305.5 135C304.119 135 303 133.881 303 132.5C303 131.119 304.119 130 305.5 130C306.881 130 308 131.119 308 132.5Z"/>
<path d="M353 312.5C353 313.881 351.881 315 350.5 315C349.119 315 348 313.881 348 312.5C348 311.119 349.119 310 350.5 310C351.881 310 353 311.119 353 312.5Z"/>
<path d="M353 267.5C353 268.881 351.881 270 350.5 270C349.119 270 348 268.881 348 267.5C348 266.119 349.119 265 350.5 265C351.881 265 353 266.119 353 267.5Z"/>
<path d="M353 222.5C353 223.881 351.881 225 350.5 225C349.119 225 348 223.881 348 222.5C348 221.119 349.119 220 350.5 220C351.881 220 353 221.119 353 222.5Z"/>
<path d="M353 177.5C353 178.881 351.881 180 350.5 180C349.119 180 348 178.881 348 177.5C348 176.119 349.119 175 350.5 175C351.881 175 353 176.119 353 177.5Z"/>
<path d="M353 132.5C353 133.881 351.881 135 350.5 135C349.119 135 348 133.881 348 132.5C348 131.119 349.119 130 350.5 130C351.881 130 353 131.119 353 132.5Z"/>
<path d="M398 312.5C398 313.881 396.881 315 395.5 315C394.119 315 393 313.881 393 312.5C393 311.119 394.119 310 395.5 310C396.881 310 398 311.119 398 312.5Z"/>
<path d="M398 267.5C398 268.881 396.881 270 395.5 270C394.119 270 393 268.881 393 267.5C393 266.119 394.119 265 395.5 265C396.881 265 398 266.119 398 267.5Z"/>
<path d="M398 222.5C398 223.881 396.881 225 395.5 225C394.119 225 393 223.881 393 222.5C393 221.119 394.119 220 395.5 220C396.881 220 398 221.119 398 222.5Z"/>
<path d="M398 177.5C398 178.881 396.881 180 395.5 180C394.119 180 393 178.881 393 177.5C393 176.119 394.119 175 395.5 175C396.881 175 398 176.119 398 177.5Z"/>
<path d="M398 132.5C398 133.881 396.881 135 395.5 135C394.119 135 393 133.881 393 132.5C393 131.119 394.119 130 395.5 130C396.881 130 398 131.119 398 132.5Z"/>
<path d="M443 312.5C443 313.881 441.881 315 440.5 315C439.119 315 438 313.881 438 312.5C438 311.119 439.119 310 440.5 310C441.881 310 443 311.119 443 312.5Z"/>
<path d="M443 267.5C443 268.881 441.881 270 440.5 270C439.119 270 438 268.881 438 267.5C438 266.119 439.119 265 440.5 265C441.881 265 443 266.119 443 267.5Z"/>
<path d="M443 222.5C443 223.881 441.881 225 440.5 225C439.119 225 438 223.881 438 222.5C438 221.119 439.119 220 440.5 220C441.881 220 443 221.119 443 222.5Z"/>
<path d="M443 177.5C443 178.881 441.881 180 440.5 180C439.119 180 438 178.881 438 177.5C438 176.119 439.119 175 440.5 175C441.881 175 443 176.119 443 177.5Z"/>
<path d="M443 132.5C443 133.881 441.881 135 440.5 135C439.119 135 438 133.881 438 132.5C438 131.119 439.119 130 440.5 130C441.881 130 443 131.119 443 132.5Z"/>
<path d="M488 312.5C488 313.881 486.881 315 485.5 315C484.119 315 483 313.881 483 312.5C483 311.119 484.119 310 485.5 310C486.881 310 488 311.119 488 312.5Z"/>
<path d="M488 267.5C488 268.881 486.881 270 485.5 270C484.119 270 483 268.881 483 267.5C483 266.119 484.119 265 485.5 265C486.881 265 488 266.119 488 267.5Z"/>
<path d="M488 222.5C488 223.881 486.881 225 485.5 225C484.119 225 483 223.881 483 222.5C483 221.119 484.119 220 485.5 220C486.881 220 488 221.119 488 222.5Z"/>
<path d="M488 177.5C488 178.881 486.881 180 485.5 180C484.119 180 483 178.881 483 177.5C483 176.119 484.119 175 485.5 175C486.881 175 488 176.119 488 177.5Z"/>
<path d="M488 132.5C488 133.881 486.881 135 485.5 135C484.119 135 483 133.881 483 132.5C483 131.119 484.119 130 485.5 130C486.881 130 488 131.119 488 132.5Z"/>
</mask>
<path d="M308 312.5C308 313.881 306.881 315 305.5 315C304.119 315 303 313.881 303 312.5C303 311.119 304.119 310 305.5 310C306.881 310 308 311.119 308 312.5Z" stroke="#3360FF" stroke-width="2" mask="url(#path-1-inside-1)"/>
<path d="M308 267.5C308 268.881 306.881 270 305.5 270C304.119 270 303 268.881 303 267.5C303 266.119 304.119 265 305.5 265C306.881 265 308 266.119 308 267.5Z" stroke="#3360FF" stroke-width="2" mask="url(#path-1-inside-1)"/>
<path d="M308 222.5C308 223.881 306.881 225 305.5 225C304.119 225 303 223.881 303 222.5C303 221.119 304.119 220 305.5 220C306.881 220 308 221.119 308 222.5Z" stroke="#3360FF" stroke-width="2" mask="url(#path-1-inside-1)"/>
<path d="M308 177.5C308 178.881 306.881 180 305.5 180C304.119 180 303 178.881 303 177.5C303 176.119 304.119 175 305.5 175C306.881 175 308 176.119 308 177.5Z" stroke="#3360FF" stroke-width="2" mask="url(#path-1-inside-1)"/>
<path d="M308 132.5C308 133.881 306.881 135 305.5 135C304.119 135 303 133.881 303 132.5C303 131.119 304.119 130 305.5 130C306.881 130 308 131.119 308 132.5Z" stroke="#3360FF" stroke-width="2" mask="url(#path-1-inside-1)"/>
<path d="M353 312.5C353 313.881 351.881 315 350.5 315C349.119 315 348 313.881 348 312.5C348 311.119 349.119 310 350.5 310C351.881 310 353 311.119 353 312.5Z" stroke="#3360FF" stroke-width="2" mask="url(#path-1-inside-1)"/>
<path d="M353 267.5C353 268.881 351.881 270 350.5 270C349.119 270 348 268.881 348 267.5C348 266.119 349.119 265 350.5 265C351.881 265 353 266.119 353 267.5Z" stroke="#3360FF" stroke-width="2" mask="url(#path-1-inside-1)"/>
<path d="M353 222.5C353 223.881 351.881 225 350.5 225C349.119 225 348 223.881 348 222.5C348 221.119 349.119 220 350.5 220C351.881 220 353 221.119 353 222.5Z" stroke="#3360FF" stroke-width="2" mask="url(#path-1-inside-1)"/>
<path d="M353 177.5C353 178.881 351.881 180 350.5 180C349.119 180 348 178.881 348 177.5C348 176.119 349.119 175 350.5 175C351.881 175 353 176.119 353 177.5Z" stroke="#3360FF" stroke-width="2" mask="url(#path-1-inside-1)"/>
<path d="M353 132.5C353 133.881 351.881 135 350.5 135C349.119 135 348 133.881 348 132.5C348 131.119 349.119 130 350.5 130C351.881 130 353 131.119 353 132.5Z" stroke="#3360FF" stroke-width="2" mask="url(#path-1-inside-1)"/>
<path d="M398 312.5C398 313.881 396.881 315 395.5 315C394.119 315 393 313.881 393 312.5C393 311.119 394.119 310 395.5 310C396.881 310 398 311.119 398 312.5Z" stroke="#3360FF" stroke-width="2" mask="url(#path-1-inside-1)"/>
<path d="M398 267.5C398 268.881 396.881 270 395.5 270C394.119 270 393 268.881 393 267.5C393 266.119 394.119 265 395.5 265C396.881 265 398 266.119 398 267.5Z" stroke="#3360FF" stroke-width="2" mask="url(#path-1-inside-1)"/>
<path d="M398 222.5C398 223.881 396.881 225 395.5 225C394.119 225 393 223.881 393 222.5C393 221.119 394.119 220 395.5 220C396.881 220 398 221.119 398 222.5Z" stroke="#3360FF" stroke-width="2" mask="url(#path-1-inside-1)"/>
<path d="M398 177.5C398 178.881 396.881 180 395.5 180C394.119 180 393 178.881 393 177.5C393 176.119 394.119 175 395.5 175C396.881 175 398 176.119 398 177.5Z" stroke="#3360FF" stroke-width="2" mask="url(#path-1-inside-1)"/>
<path d="M398 132.5C398 133.881 396.881 135 395.5 135C394.119 135 393 133.881 393 132.5C393 131.119 394.119 130 395.5 130C396.881 130 398 131.119 398 132.5Z" stroke="#3360FF" stroke-width="2" mask="url(#path-1-inside-1)"/>
<path d="M443 312.5C443 313.881 441.881 315 440.5 315C439.119 315 438 313.881 438 312.5C438 311.119 439.119 310 440.5 310C441.881 310 443 311.119 443 312.5Z" stroke="#3360FF" stroke-width="2" mask="url(#path-1-inside-1)"/>
<path d="M443 267.5C443 268.881 441.881 270 440.5 270C439.119 270 438 268.881 438 267.5C438 266.119 439.119 265 440.5 265C441.881 265 443 266.119 443 267.5Z" stroke="#3360FF" stroke-width="2" mask="url(#path-1-inside-1)"/>
<path d="M443 222.5C443 223.881 441.881 225 440.5 225C439.119 225 438 223.881 438 222.5C438 221.119 439.119 220 440.5 220C441.881 220 443 221.119 443 222.5Z" stroke="#3360FF" stroke-width="2" mask="url(#path-1-inside-1)"/>
<path d="M443 177.5C443 178.881 441.881 180 440.5 180C439.119 180 438 178.881 438 177.5C438 176.119 439.119 175 440.5 175C441.881 175 443 176.119 443 177.5Z" stroke="#3360FF" stroke-width="2" mask="url(#path-1-inside-1)"/>
<path d="M443 132.5C443 133.881 441.881 135 440.5 135C439.119 135 438 133.881 438 132.5C438 131.119 439.119 130 440.5 130C441.881 130 443 131.119 443 132.5Z" stroke="#3360FF" stroke-width="2" mask="url(#path-1-inside-1)"/>
<path d="M488 312.5C488 313.881 486.881 315 485.5 315C484.119 315 483 313.881 483 312.5C483 311.119 484.119 310 485.5 310C486.881 310 488 311.119 488 312.5Z" stroke="#3360FF" stroke-width="2" mask="url(#path-1-inside-1)"/>
<path d="M488 267.5C488 268.881 486.881 270 485.5 270C484.119 270 483 268.881 483 267.5C483 266.119 484.119 265 485.5 265C486.881 265 488 266.119 488 267.5Z" stroke="#3360FF" stroke-width="2" mask="url(#path-1-inside-1)"/>
<path d="M488 222.5C488 223.881 486.881 225 485.5 225C484.119 225 483 223.881 483 222.5C483 221.119 484.119 220 485.5 220C486.881 220 488 221.119 488 222.5Z" stroke="#3360FF" stroke-width="2" mask="url(#path-1-inside-1)"/>
<path d="M488 177.5C488 178.881 486.881 180 485.5 180C484.119 180 483 178.881 483 177.5C483 176.119 484.119 175 485.5 175C486.881 175 488 176.119 488 177.5Z" stroke="#3360FF" stroke-width="2" mask="url(#path-1-inside-1)"/>
<path d="M488 132.5C488 133.881 486.881 135 485.5 135C484.119 135 483 133.881 483 132.5C483 131.119 484.119 130 485.5 130C486.881 130 488 131.119 488 132.5Z" stroke="#3360FF" stroke-width="2" mask="url(#path-1-inside-1)"/>
<mask id="path-2-inside-2" fill="white">
<path d="M180 608.5C180 609.881 178.881 611 177.5 611C176.119 611 175 609.881 175 608.5C175 607.119 176.119 606 177.5 606C178.881 606 180 607.119 180 608.5Z"/>
<path d="M180 563.5C180 564.881 178.881 566 177.5 566C176.119 566 175 564.881 175 563.5C175 562.119 176.119 561 177.5 561C178.881 561 180 562.119 180 563.5Z"/>
<path d="M180 518.5C180 519.881 178.881 521 177.5 521C176.119 521 175 519.881 175 518.5C175 517.119 176.119 516 177.5 516C178.881 516 180 517.119 180 518.5Z"/>
<path d="M180 473.5C180 474.881 178.881 476 177.5 476C176.119 476 175 474.881 175 473.5C175 472.119 176.119 471 177.5 471C178.881 471 180 472.119 180 473.5Z"/>
<path d="M180 428.5C180 429.881 178.881 431 177.5 431C176.119 431 175 429.881 175 428.5C175 427.119 176.119 426 177.5 426C178.881 426 180 427.119 180 428.5Z"/>
<path d="M225 608.5C225 609.881 223.881 611 222.5 611C221.119 611 220 609.881 220 608.5C220 607.119 221.119 606 222.5 606C223.881 606 225 607.119 225 608.5Z"/>
<path d="M225 563.5C225 564.881 223.881 566 222.5 566C221.119 566 220 564.881 220 563.5C220 562.119 221.119 561 222.5 561C223.881 561 225 562.119 225 563.5Z"/>
<path d="M225 518.5C225 519.881 223.881 521 222.5 521C221.119 521 220 519.881 220 518.5C220 517.119 221.119 516 222.5 516C223.881 516 225 517.119 225 518.5Z"/>
<path d="M225 473.5C225 474.881 223.881 476 222.5 476C221.119 476 220 474.881 220 473.5C220 472.119 221.119 471 222.5 471C223.881 471 225 472.119 225 473.5Z"/>
<path d="M225 428.5C225 429.881 223.881 431 222.5 431C221.119 431 220 429.881 220 428.5C220 427.119 221.119 426 222.5 426C223.881 426 225 427.119 225 428.5Z"/>
<path d="M270 608.5C270 609.881 268.881 611 267.5 611C266.119 611 265 609.881 265 608.5C265 607.119 266.119 606 267.5 606C268.881 606 270 607.119 270 608.5Z"/>
<path d="M270 563.5C270 564.881 268.881 566 267.5 566C266.119 566 265 564.881 265 563.5C265 562.119 266.119 561 267.5 561C268.881 561 270 562.119 270 563.5Z"/>
<path d="M270 518.5C270 519.881 268.881 521 267.5 521C266.119 521 265 519.881 265 518.5C265 517.119 266.119 516 267.5 516C268.881 516 270 517.119 270 518.5Z"/>
<path d="M270 473.5C270 474.881 268.881 476 267.5 476C266.119 476 265 474.881 265 473.5C265 472.119 266.119 471 267.5 471C268.881 471 270 472.119 270 473.5Z"/>
<path d="M270 428.5C270 429.881 268.881 431 267.5 431C266.119 431 265 429.881 265 428.5C265 427.119 266.119 426 267.5 426C268.881 426 270 427.119 270 428.5Z"/>
<path d="M315 608.5C315 609.881 313.881 611 312.5 611C311.119 611 310 609.881 310 608.5C310 607.119 311.119 606 312.5 606C313.881 606 315 607.119 315 608.5Z"/>
<path d="M315 563.5C315 564.881 313.881 566 312.5 566C311.119 566 310 564.881 310 563.5C310 562.119 311.119 561 312.5 561C313.881 561 315 562.119 315 563.5Z"/>
<path d="M315 518.5C315 519.881 313.881 521 312.5 521C311.119 521 310 519.881 310 518.5C310 517.119 311.119 516 312.5 516C313.881 516 315 517.119 315 518.5Z"/>
<path d="M315 473.5C315 474.881 313.881 476 312.5 476C311.119 476 310 474.881 310 473.5C310 472.119 311.119 471 312.5 471C313.881 471 315 472.119 315 473.5Z"/>
<path d="M315 428.5C315 429.881 313.881 431 312.5 431C311.119 431 310 429.881 310 428.5C310 427.119 311.119 426 312.5 426C313.881 426 315 427.119 315 428.5Z"/>
<path d="M360 608.5C360 609.881 358.881 611 357.5 611C356.119 611 355 609.881 355 608.5C355 607.119 356.119 606 357.5 606C358.881 606 360 607.119 360 608.5Z"/>
<path d="M360 563.5C360 564.881 358.881 566 357.5 566C356.119 566 355 564.881 355 563.5C355 562.119 356.119 561 357.5 561C358.881 561 360 562.119 360 563.5Z"/>
<path d="M360 518.5C360 519.881 358.881 521 357.5 521C356.119 521 355 519.881 355 518.5C355 517.119 356.119 516 357.5 516C358.881 516 360 517.119 360 518.5Z"/>
<path d="M360 473.5C360 474.881 358.881 476 357.5 476C356.119 476 355 474.881 355 473.5C355 472.119 356.119 471 357.5 471C358.881 471 360 472.119 360 473.5Z"/>
<path d="M360 428.5C360 429.881 358.881 431 357.5 431C356.119 431 355 429.881 355 428.5C355 427.119 356.119 426 357.5 426C358.881 426 360 427.119 360 428.5Z"/>
</mask>
<path d="M180 608.5C180 609.881 178.881 611 177.5 611C176.119 611 175 609.881 175 608.5C175 607.119 176.119 606 177.5 606C178.881 606 180 607.119 180 608.5Z" stroke="#3360FF" stroke-width="2" mask="url(#path-2-inside-2)"/>
<path d="M180 563.5C180 564.881 178.881 566 177.5 566C176.119 566 175 564.881 175 563.5C175 562.119 176.119 561 177.5 561C178.881 561 180 562.119 180 563.5Z" stroke="#3360FF" stroke-width="2" mask="url(#path-2-inside-2)"/>
<path d="M180 518.5C180 519.881 178.881 521 177.5 521C176.119 521 175 519.881 175 518.5C175 517.119 176.119 516 177.5 516C178.881 516 180 517.119 180 518.5Z" stroke="#3360FF" stroke-width="2" mask="url(#path-2-inside-2)"/>
<path d="M180 473.5C180 474.881 178.881 476 177.5 476C176.119 476 175 474.881 175 473.5C175 472.119 176.119 471 177.5 471C178.881 471 180 472.119 180 473.5Z" stroke="#3360FF" stroke-width="2" mask="url(#path-2-inside-2)"/>
<path d="M180 428.5C180 429.881 178.881 431 177.5 431C176.119 431 175 429.881 175 428.5C175 427.119 176.119 426 177.5 426C178.881 426 180 427.119 180 428.5Z" stroke="#3360FF" stroke-width="2" mask="url(#path-2-inside-2)"/>
<path d="M225 608.5C225 609.881 223.881 611 222.5 611C221.119 611 220 609.881 220 608.5C220 607.119 221.119 606 222.5 606C223.881 606 225 607.119 225 608.5Z" stroke="#3360FF" stroke-width="2" mask="url(#path-2-inside-2)"/>
<path d="M225 563.5C225 564.881 223.881 566 222.5 566C221.119 566 220 564.881 220 563.5C220 562.119 221.119 561 222.5 561C223.881 561 225 562.119 225 563.5Z" stroke="#3360FF" stroke-width="2" mask="url(#path-2-inside-2)"/>
<path d="M225 518.5C225 519.881 223.881 521 222.5 521C221.119 521 220 519.881 220 518.5C220 517.119 221.119 516 222.5 516C223.881 516 225 517.119 225 518.5Z" stroke="#3360FF" stroke-width="2" mask="url(#path-2-inside-2)"/>
<path d="M225 473.5C225 474.881 223.881 476 222.5 476C221.119 476 220 474.881 220 473.5C220 472.119 221.119 471 222.5 471C223.881 471 225 472.119 225 473.5Z" stroke="#3360FF" stroke-width="2" mask="url(#path-2-inside-2)"/>
<path d="M225 428.5C225 429.881 223.881 431 222.5 431C221.119 431 220 429.881 220 428.5C220 427.119 221.119 426 222.5 426C223.881 426 225 427.119 225 428.5Z" stroke="#3360FF" stroke-width="2" mask="url(#path-2-inside-2)"/>
<path d="M270 608.5C270 609.881 268.881 611 267.5 611C266.119 611 265 609.881 265 608.5C265 607.119 266.119 606 267.5 606C268.881 606 270 607.119 270 608.5Z" stroke="#3360FF" stroke-width="2" mask="url(#path-2-inside-2)"/>
<path d="M270 563.5C270 564.881 268.881 566 267.5 566C266.119 566 265 564.881 265 563.5C265 562.119 266.119 561 267.5 561C268.881 561 270 562.119 270 563.5Z" stroke="#3360FF" stroke-width="2" mask="url(#path-2-inside-2)"/>
<path d="M270 518.5C270 519.881 268.881 521 267.5 521C266.119 521 265 519.881 265 518.5C265 517.119 266.119 516 267.5 516C268.881 516 270 517.119 270 518.5Z" stroke="#3360FF" stroke-width="2" mask="url(#path-2-inside-2)"/>
<path d="M270 473.5C270 474.881 268.881 476 267.5 476C266.119 476 265 474.881 265 473.5C265 472.119 266.119 471 267.5 471C268.881 471 270 472.119 270 473.5Z" stroke="#3360FF" stroke-width="2" mask="url(#path-2-inside-2)"/>
<path d="M270 428.5C270 429.881 268.881 431 267.5 431C266.119 431 265 429.881 265 428.5C265 427.119 266.119 426 267.5 426C268.881 426 270 427.119 270 428.5Z" stroke="#3360FF" stroke-width="2" mask="url(#path-2-inside-2)"/>
<path d="M315 608.5C315 609.881 313.881 611 312.5 611C311.119 611 310 609.881 310 608.5C310 607.119 311.119 606 312.5 606C313.881 606 315 607.119 315 608.5Z" stroke="#3360FF" stroke-width="2" mask="url(#path-2-inside-2)"/>
<path d="M315 563.5C315 564.881 313.881 566 312.5 566C311.119 566 310 564.881 310 563.5C310 562.119 311.119 561 312.5 561C313.881 561 315 562.119 315 563.5Z" stroke="#3360FF" stroke-width="2" mask="url(#path-2-inside-2)"/>
<path d="M315 518.5C315 519.881 313.881 521 312.5 521C311.119 521 310 519.881 310 518.5C310 517.119 311.119 516 312.5 516C313.881 516 315 517.119 315 518.5Z" stroke="#3360FF" stroke-width="2" mask="url(#path-2-inside-2)"/>
<path d="M315 473.5C315 474.881 313.881 476 312.5 476C311.119 476 310 474.881 310 473.5C310 472.119 311.119 471 312.5 471C313.881 471 315 472.119 315 473.5Z" stroke="#3360FF" stroke-width="2" mask="url(#path-2-inside-2)"/>
<path d="M315 428.5C315 429.881 313.881 431 312.5 431C311.119 431 310 429.881 310 428.5C310 427.119 311.119 426 312.5 426C313.881 426 315 427.119 315 428.5Z" stroke="#3360FF" stroke-width="2" mask="url(#path-2-inside-2)"/>
<path d="M360 608.5C360 609.881 358.881 611 357.5 611C356.119 611 355 609.881 355 608.5C355 607.119 356.119 606 357.5 606C358.881 606 360 607.119 360 608.5Z" stroke="#3360FF" stroke-width="2" mask="url(#path-2-inside-2)"/>
<path d="M360 563.5C360 564.881 358.881 566 357.5 566C356.119 566 355 564.881 355 563.5C355 562.119 356.119 561 357.5 561C358.881 561 360 562.119 360 563.5Z" stroke="#3360FF" stroke-width="2" mask="url(#path-2-inside-2)"/>
<path d="M360 518.5C360 519.881 358.881 521 357.5 521C356.119 521 355 519.881 355 518.5C355 517.119 356.119 516 357.5 516C358.881 516 360 517.119 360 518.5Z" stroke="#3360FF" stroke-width="2" mask="url(#path-2-inside-2)"/>
<path d="M360 473.5C360 474.881 358.881 476 357.5 476C356.119 476 355 474.881 355 473.5C355 472.119 356.119 471 357.5 471C358.881 471 360 472.119 360 473.5Z" stroke="#3360FF" stroke-width="2" mask="url(#path-2-inside-2)"/>
<path d="M360 428.5C360 429.881 358.881 431 357.5 431C356.119 431 355 429.881 355 428.5C355 427.119 356.119 426 357.5 426C358.881 426 360 427.119 360 428.5Z" stroke="#3360FF" stroke-width="2" mask="url(#path-2-inside-2)"/>
</svg>
