<svg width="600" height="1211" viewBox="0 0 600 1211" fill="none" xmlns="http://www.w3.org/2000/svg">
<mask id="path-1-inside-1" fill="white">
<path d="M125 830.5C125 831.881 123.881 833 122.5 833C121.119 833 120 831.881 120 830.5C120 829.119 121.119 828 122.5 828C123.881 828 125 829.119 125 830.5Z"/>
<path d="M125 785.5C125 786.881 123.881 788 122.5 788C121.119 788 120 786.881 120 785.5C120 784.119 121.119 783 122.5 783C123.881 783 125 784.119 125 785.5Z"/>
<path d="M125 740.5C125 741.881 123.881 743 122.5 743C121.119 743 120 741.881 120 740.5C120 739.119 121.119 738 122.5 738C123.881 738 125 739.119 125 740.5Z"/>
<path d="M125 695.5C125 696.881 123.881 698 122.5 698C121.119 698 120 696.881 120 695.5C120 694.119 121.119 693 122.5 693C123.881 693 125 694.119 125 695.5Z"/>
<path d="M125 650.5C125 651.881 123.881 653 122.5 653C121.119 653 120 651.881 120 650.5C120 649.119 121.119 648 122.5 648C123.881 648 125 649.119 125 650.5Z"/>
<path d="M125 605.5C125 606.881 123.881 608 122.5 608C121.119 608 120 606.881 120 605.5C120 604.119 121.119 603 122.5 603C123.881 603 125 604.119 125 605.5Z"/>
<path d="M125 560.5C125 561.881 123.881 563 122.5 563C121.119 563 120 561.881 120 560.5C120 559.119 121.119 558 122.5 558C123.881 558 125 559.119 125 560.5Z"/>
<path d="M170 830.5C170 831.881 168.881 833 167.5 833C166.119 833 165 831.881 165 830.5C165 829.119 166.119 828 167.5 828C168.881 828 170 829.119 170 830.5Z"/>
<path d="M170 785.5C170 786.881 168.881 788 167.5 788C166.119 788 165 786.881 165 785.5C165 784.119 166.119 783 167.5 783C168.881 783 170 784.119 170 785.5Z"/>
<path d="M170 740.5C170 741.881 168.881 743 167.5 743C166.119 743 165 741.881 165 740.5C165 739.119 166.119 738 167.5 738C168.881 738 170 739.119 170 740.5Z"/>
<path d="M170 695.5C170 696.881 168.881 698 167.5 698C166.119 698 165 696.881 165 695.5C165 694.119 166.119 693 167.5 693C168.881 693 170 694.119 170 695.5Z"/>
<path d="M170 650.5C170 651.881 168.881 653 167.5 653C166.119 653 165 651.881 165 650.5C165 649.119 166.119 648 167.5 648C168.881 648 170 649.119 170 650.5Z"/>
<path d="M170 605.5C170 606.881 168.881 608 167.5 608C166.119 608 165 606.881 165 605.5C165 604.119 166.119 603 167.5 603C168.881 603 170 604.119 170 605.5Z"/>
<path d="M170 560.5C170 561.881 168.881 563 167.5 563C166.119 563 165 561.881 165 560.5C165 559.119 166.119 558 167.5 558C168.881 558 170 559.119 170 560.5Z"/>
<path d="M215 830.5C215 831.881 213.881 833 212.5 833C211.119 833 210 831.881 210 830.5C210 829.119 211.119 828 212.5 828C213.881 828 215 829.119 215 830.5Z"/>
<path d="M215 785.5C215 786.881 213.881 788 212.5 788C211.119 788 210 786.881 210 785.5C210 784.119 211.119 783 212.5 783C213.881 783 215 784.119 215 785.5Z"/>
<path d="M215 740.5C215 741.881 213.881 743 212.5 743C211.119 743 210 741.881 210 740.5C210 739.119 211.119 738 212.5 738C213.881 738 215 739.119 215 740.5Z"/>
<path d="M215 695.5C215 696.881 213.881 698 212.5 698C211.119 698 210 696.881 210 695.5C210 694.119 211.119 693 212.5 693C213.881 693 215 694.119 215 695.5Z"/>
<path d="M215 650.5C215 651.881 213.881 653 212.5 653C211.119 653 210 651.881 210 650.5C210 649.119 211.119 648 212.5 648C213.881 648 215 649.119 215 650.5Z"/>
<path d="M215 605.5C215 606.881 213.881 608 212.5 608C211.119 608 210 606.881 210 605.5C210 604.119 211.119 603 212.5 603C213.881 603 215 604.119 215 605.5Z"/>
<path d="M215 560.5C215 561.881 213.881 563 212.5 563C211.119 563 210 561.881 210 560.5C210 559.119 211.119 558 212.5 558C213.881 558 215 559.119 215 560.5Z"/>
<path d="M260 830.5C260 831.881 258.881 833 257.5 833C256.119 833 255 831.881 255 830.5C255 829.119 256.119 828 257.5 828C258.881 828 260 829.119 260 830.5Z"/>
<path d="M260 785.5C260 786.881 258.881 788 257.5 788C256.119 788 255 786.881 255 785.5C255 784.119 256.119 783 257.5 783C258.881 783 260 784.119 260 785.5Z"/>
<path d="M260 740.5C260 741.881 258.881 743 257.5 743C256.119 743 255 741.881 255 740.5C255 739.119 256.119 738 257.5 738C258.881 738 260 739.119 260 740.5Z"/>
<path d="M260 695.5C260 696.881 258.881 698 257.5 698C256.119 698 255 696.881 255 695.5C255 694.119 256.119 693 257.5 693C258.881 693 260 694.119 260 695.5Z"/>
<path d="M260 650.5C260 651.881 258.881 653 257.5 653C256.119 653 255 651.881 255 650.5C255 649.119 256.119 648 257.5 648C258.881 648 260 649.119 260 650.5Z"/>
<path d="M260 605.5C260 606.881 258.881 608 257.5 608C256.119 608 255 606.881 255 605.5C255 604.119 256.119 603 257.5 603C258.881 603 260 604.119 260 605.5Z"/>
<path d="M260 560.5C260 561.881 258.881 563 257.5 563C256.119 563 255 561.881 255 560.5C255 559.119 256.119 558 257.5 558C258.881 558 260 559.119 260 560.5Z"/>
<path d="M305 830.5C305 831.881 303.881 833 302.5 833C301.119 833 300 831.881 300 830.5C300 829.119 301.119 828 302.5 828C303.881 828 305 829.119 305 830.5Z"/>
<path d="M305 785.5C305 786.881 303.881 788 302.5 788C301.119 788 300 786.881 300 785.5C300 784.119 301.119 783 302.5 783C303.881 783 305 784.119 305 785.5Z"/>
<path d="M305 740.5C305 741.881 303.881 743 302.5 743C301.119 743 300 741.881 300 740.5C300 739.119 301.119 738 302.5 738C303.881 738 305 739.119 305 740.5Z"/>
<path d="M305 695.5C305 696.881 303.881 698 302.5 698C301.119 698 300 696.881 300 695.5C300 694.119 301.119 693 302.5 693C303.881 693 305 694.119 305 695.5Z"/>
<path d="M305 650.5C305 651.881 303.881 653 302.5 653C301.119 653 300 651.881 300 650.5C300 649.119 301.119 648 302.5 648C303.881 648 305 649.119 305 650.5Z"/>
<path d="M305 605.5C305 606.881 303.881 608 302.5 608C301.119 608 300 606.881 300 605.5C300 604.119 301.119 603 302.5 603C303.881 603 305 604.119 305 605.5Z"/>
<path d="M305 560.5C305 561.881 303.881 563 302.5 563C301.119 563 300 561.881 300 560.5C300 559.119 301.119 558 302.5 558C303.881 558 305 559.119 305 560.5Z"/>
<path d="M350 830.5C350 831.881 348.881 833 347.5 833C346.119 833 345 831.881 345 830.5C345 829.119 346.119 828 347.5 828C348.881 828 350 829.119 350 830.5Z"/>
<path d="M350 785.5C350 786.881 348.881 788 347.5 788C346.119 788 345 786.881 345 785.5C345 784.119 346.119 783 347.5 783C348.881 783 350 784.119 350 785.5Z"/>
<path d="M350 740.5C350 741.881 348.881 743 347.5 743C346.119 743 345 741.881 345 740.5C345 739.119 346.119 738 347.5 738C348.881 738 350 739.119 350 740.5Z"/>
<path d="M350 695.5C350 696.881 348.881 698 347.5 698C346.119 698 345 696.881 345 695.5C345 694.119 346.119 693 347.5 693C348.881 693 350 694.119 350 695.5Z"/>
<path d="M350 650.5C350 651.881 348.881 653 347.5 653C346.119 653 345 651.881 345 650.5C345 649.119 346.119 648 347.5 648C348.881 648 350 649.119 350 650.5Z"/>
<path d="M350 605.5C350 606.881 348.881 608 347.5 608C346.119 608 345 606.881 345 605.5C345 604.119 346.119 603 347.5 603C348.881 603 350 604.119 350 605.5Z"/>
<path d="M350 560.5C350 561.881 348.881 563 347.5 563C346.119 563 345 561.881 345 560.5C345 559.119 346.119 558 347.5 558C348.881 558 350 559.119 350 560.5Z"/>
<path d="M395 830.5C395 831.881 393.881 833 392.5 833C391.119 833 390 831.881 390 830.5C390 829.119 391.119 828 392.5 828C393.881 828 395 829.119 395 830.5Z"/>
<path d="M395 785.5C395 786.881 393.881 788 392.5 788C391.119 788 390 786.881 390 785.5C390 784.119 391.119 783 392.5 783C393.881 783 395 784.119 395 785.5Z"/>
<path d="M395 740.5C395 741.881 393.881 743 392.5 743C391.119 743 390 741.881 390 740.5C390 739.119 391.119 738 392.5 738C393.881 738 395 739.119 395 740.5Z"/>
<path d="M395 695.5C395 696.881 393.881 698 392.5 698C391.119 698 390 696.881 390 695.5C390 694.119 391.119 693 392.5 693C393.881 693 395 694.119 395 695.5Z"/>
<path d="M395 650.5C395 651.881 393.881 653 392.5 653C391.119 653 390 651.881 390 650.5C390 649.119 391.119 648 392.5 648C393.881 648 395 649.119 395 650.5Z"/>
<path d="M395 605.5C395 606.881 393.881 608 392.5 608C391.119 608 390 606.881 390 605.5C390 604.119 391.119 603 392.5 603C393.881 603 395 604.119 395 605.5Z"/>
<path d="M395 560.5C395 561.881 393.881 563 392.5 563C391.119 563 390 561.881 390 560.5C390 559.119 391.119 558 392.5 558C393.881 558 395 559.119 395 560.5Z"/>
</mask>
<path d="M125 830.5C125 831.881 123.881 833 122.5 833C121.119 833 120 831.881 120 830.5C120 829.119 121.119 828 122.5 828C123.881 828 125 829.119 125 830.5Z" stroke="#3360FF" stroke-width="2" mask="url(#path-1-inside-1)"/>
<path d="M125 785.5C125 786.881 123.881 788 122.5 788C121.119 788 120 786.881 120 785.5C120 784.119 121.119 783 122.5 783C123.881 783 125 784.119 125 785.5Z" stroke="#3360FF" stroke-width="2" mask="url(#path-1-inside-1)"/>
<path d="M125 740.5C125 741.881 123.881 743 122.5 743C121.119 743 120 741.881 120 740.5C120 739.119 121.119 738 122.5 738C123.881 738 125 739.119 125 740.5Z" stroke="#3360FF" stroke-width="2" mask="url(#path-1-inside-1)"/>
<path d="M125 695.5C125 696.881 123.881 698 122.5 698C121.119 698 120 696.881 120 695.5C120 694.119 121.119 693 122.5 693C123.881 693 125 694.119 125 695.5Z" stroke="#3360FF" stroke-width="2" mask="url(#path-1-inside-1)"/>
<path d="M125 650.5C125 651.881 123.881 653 122.5 653C121.119 653 120 651.881 120 650.5C120 649.119 121.119 648 122.5 648C123.881 648 125 649.119 125 650.5Z" stroke="#3360FF" stroke-width="2" mask="url(#path-1-inside-1)"/>
<path d="M125 605.5C125 606.881 123.881 608 122.5 608C121.119 608 120 606.881 120 605.5C120 604.119 121.119 603 122.5 603C123.881 603 125 604.119 125 605.5Z" stroke="#3360FF" stroke-width="2" mask="url(#path-1-inside-1)"/>
<path d="M125 560.5C125 561.881 123.881 563 122.5 563C121.119 563 120 561.881 120 560.5C120 559.119 121.119 558 122.5 558C123.881 558 125 559.119 125 560.5Z" stroke="#3360FF" stroke-width="2" mask="url(#path-1-inside-1)"/>
<path d="M170 830.5C170 831.881 168.881 833 167.5 833C166.119 833 165 831.881 165 830.5C165 829.119 166.119 828 167.5 828C168.881 828 170 829.119 170 830.5Z" stroke="#3360FF" stroke-width="2" mask="url(#path-1-inside-1)"/>
<path d="M170 785.5C170 786.881 168.881 788 167.5 788C166.119 788 165 786.881 165 785.5C165 784.119 166.119 783 167.5 783C168.881 783 170 784.119 170 785.5Z" stroke="#3360FF" stroke-width="2" mask="url(#path-1-inside-1)"/>
<path d="M170 740.5C170 741.881 168.881 743 167.5 743C166.119 743 165 741.881 165 740.5C165 739.119 166.119 738 167.5 738C168.881 738 170 739.119 170 740.5Z" stroke="#3360FF" stroke-width="2" mask="url(#path-1-inside-1)"/>
<path d="M170 695.5C170 696.881 168.881 698 167.5 698C166.119 698 165 696.881 165 695.5C165 694.119 166.119 693 167.5 693C168.881 693 170 694.119 170 695.5Z" stroke="#3360FF" stroke-width="2" mask="url(#path-1-inside-1)"/>
<path d="M170 650.5C170 651.881 168.881 653 167.5 653C166.119 653 165 651.881 165 650.5C165 649.119 166.119 648 167.5 648C168.881 648 170 649.119 170 650.5Z" stroke="#3360FF" stroke-width="2" mask="url(#path-1-inside-1)"/>
<path d="M170 605.5C170 606.881 168.881 608 167.5 608C166.119 608 165 606.881 165 605.5C165 604.119 166.119 603 167.5 603C168.881 603 170 604.119 170 605.5Z" stroke="#3360FF" stroke-width="2" mask="url(#path-1-inside-1)"/>
<path d="M170 560.5C170 561.881 168.881 563 167.5 563C166.119 563 165 561.881 165 560.5C165 559.119 166.119 558 167.5 558C168.881 558 170 559.119 170 560.5Z" stroke="#3360FF" stroke-width="2" mask="url(#path-1-inside-1)"/>
<path d="M215 830.5C215 831.881 213.881 833 212.5 833C211.119 833 210 831.881 210 830.5C210 829.119 211.119 828 212.5 828C213.881 828 215 829.119 215 830.5Z" stroke="#3360FF" stroke-width="2" mask="url(#path-1-inside-1)"/>
<path d="M215 785.5C215 786.881 213.881 788 212.5 788C211.119 788 210 786.881 210 785.5C210 784.119 211.119 783 212.5 783C213.881 783 215 784.119 215 785.5Z" stroke="#3360FF" stroke-width="2" mask="url(#path-1-inside-1)"/>
<path d="M215 740.5C215 741.881 213.881 743 212.5 743C211.119 743 210 741.881 210 740.5C210 739.119 211.119 738 212.5 738C213.881 738 215 739.119 215 740.5Z" stroke="#3360FF" stroke-width="2" mask="url(#path-1-inside-1)"/>
<path d="M215 695.5C215 696.881 213.881 698 212.5 698C211.119 698 210 696.881 210 695.5C210 694.119 211.119 693 212.5 693C213.881 693 215 694.119 215 695.5Z" stroke="#3360FF" stroke-width="2" mask="url(#path-1-inside-1)"/>
<path d="M215 650.5C215 651.881 213.881 653 212.5 653C211.119 653 210 651.881 210 650.5C210 649.119 211.119 648 212.5 648C213.881 648 215 649.119 215 650.5Z" stroke="#3360FF" stroke-width="2" mask="url(#path-1-inside-1)"/>
<path d="M215 605.5C215 606.881 213.881 608 212.5 608C211.119 608 210 606.881 210 605.5C210 604.119 211.119 603 212.5 603C213.881 603 215 604.119 215 605.5Z" stroke="#3360FF" stroke-width="2" mask="url(#path-1-inside-1)"/>
<path d="M215 560.5C215 561.881 213.881 563 212.5 563C211.119 563 210 561.881 210 560.5C210 559.119 211.119 558 212.5 558C213.881 558 215 559.119 215 560.5Z" stroke="#3360FF" stroke-width="2" mask="url(#path-1-inside-1)"/>
<path d="M260 830.5C260 831.881 258.881 833 257.5 833C256.119 833 255 831.881 255 830.5C255 829.119 256.119 828 257.5 828C258.881 828 260 829.119 260 830.5Z" stroke="#3360FF" stroke-width="2" mask="url(#path-1-inside-1)"/>
<path d="M260 785.5C260 786.881 258.881 788 257.5 788C256.119 788 255 786.881 255 785.5C255 784.119 256.119 783 257.5 783C258.881 783 260 784.119 260 785.5Z" stroke="#3360FF" stroke-width="2" mask="url(#path-1-inside-1)"/>
<path d="M260 740.5C260 741.881 258.881 743 257.5 743C256.119 743 255 741.881 255 740.5C255 739.119 256.119 738 257.5 738C258.881 738 260 739.119 260 740.5Z" stroke="#3360FF" stroke-width="2" mask="url(#path-1-inside-1)"/>
<path d="M260 695.5C260 696.881 258.881 698 257.5 698C256.119 698 255 696.881 255 695.5C255 694.119 256.119 693 257.5 693C258.881 693 260 694.119 260 695.5Z" stroke="#3360FF" stroke-width="2" mask="url(#path-1-inside-1)"/>
<path d="M260 650.5C260 651.881 258.881 653 257.5 653C256.119 653 255 651.881 255 650.5C255 649.119 256.119 648 257.5 648C258.881 648 260 649.119 260 650.5Z" stroke="#3360FF" stroke-width="2" mask="url(#path-1-inside-1)"/>
<path d="M260 605.5C260 606.881 258.881 608 257.5 608C256.119 608 255 606.881 255 605.5C255 604.119 256.119 603 257.5 603C258.881 603 260 604.119 260 605.5Z" stroke="#3360FF" stroke-width="2" mask="url(#path-1-inside-1)"/>
<path d="M260 560.5C260 561.881 258.881 563 257.5 563C256.119 563 255 561.881 255 560.5C255 559.119 256.119 558 257.5 558C258.881 558 260 559.119 260 560.5Z" stroke="#3360FF" stroke-width="2" mask="url(#path-1-inside-1)"/>
<path d="M305 830.5C305 831.881 303.881 833 302.5 833C301.119 833 300 831.881 300 830.5C300 829.119 301.119 828 302.5 828C303.881 828 305 829.119 305 830.5Z" stroke="#3360FF" stroke-width="2" mask="url(#path-1-inside-1)"/>
<path d="M305 785.5C305 786.881 303.881 788 302.5 788C301.119 788 300 786.881 300 785.5C300 784.119 301.119 783 302.5 783C303.881 783 305 784.119 305 785.5Z" stroke="#3360FF" stroke-width="2" mask="url(#path-1-inside-1)"/>
<path d="M305 740.5C305 741.881 303.881 743 302.5 743C301.119 743 300 741.881 300 740.5C300 739.119 301.119 738 302.5 738C303.881 738 305 739.119 305 740.5Z" stroke="#3360FF" stroke-width="2" mask="url(#path-1-inside-1)"/>
<path d="M305 695.5C305 696.881 303.881 698 302.5 698C301.119 698 300 696.881 300 695.5C300 694.119 301.119 693 302.5 693C303.881 693 305 694.119 305 695.5Z" stroke="#3360FF" stroke-width="2" mask="url(#path-1-inside-1)"/>
<path d="M305 650.5C305 651.881 303.881 653 302.5 653C301.119 653 300 651.881 300 650.5C300 649.119 301.119 648 302.5 648C303.881 648 305 649.119 305 650.5Z" stroke="#3360FF" stroke-width="2" mask="url(#path-1-inside-1)"/>
<path d="M305 605.5C305 606.881 303.881 608 302.5 608C301.119 608 300 606.881 300 605.5C300 604.119 301.119 603 302.5 603C303.881 603 305 604.119 305 605.5Z" stroke="#3360FF" stroke-width="2" mask="url(#path-1-inside-1)"/>
<path d="M305 560.5C305 561.881 303.881 563 302.5 563C301.119 563 300 561.881 300 560.5C300 559.119 301.119 558 302.5 558C303.881 558 305 559.119 305 560.5Z" stroke="#3360FF" stroke-width="2" mask="url(#path-1-inside-1)"/>
<path d="M350 830.5C350 831.881 348.881 833 347.5 833C346.119 833 345 831.881 345 830.5C345 829.119 346.119 828 347.5 828C348.881 828 350 829.119 350 830.5Z" stroke="#3360FF" stroke-width="2" mask="url(#path-1-inside-1)"/>
<path d="M350 785.5C350 786.881 348.881 788 347.5 788C346.119 788 345 786.881 345 785.5C345 784.119 346.119 783 347.5 783C348.881 783 350 784.119 350 785.5Z" stroke="#3360FF" stroke-width="2" mask="url(#path-1-inside-1)"/>
<path d="M350 740.5C350 741.881 348.881 743 347.5 743C346.119 743 345 741.881 345 740.5C345 739.119 346.119 738 347.5 738C348.881 738 350 739.119 350 740.5Z" stroke="#3360FF" stroke-width="2" mask="url(#path-1-inside-1)"/>
<path d="M350 695.5C350 696.881 348.881 698 347.5 698C346.119 698 345 696.881 345 695.5C345 694.119 346.119 693 347.5 693C348.881 693 350 694.119 350 695.5Z" stroke="#3360FF" stroke-width="2" mask="url(#path-1-inside-1)"/>
<path d="M350 650.5C350 651.881 348.881 653 347.5 653C346.119 653 345 651.881 345 650.5C345 649.119 346.119 648 347.5 648C348.881 648 350 649.119 350 650.5Z" stroke="#3360FF" stroke-width="2" mask="url(#path-1-inside-1)"/>
<path d="M350 605.5C350 606.881 348.881 608 347.5 608C346.119 608 345 606.881 345 605.5C345 604.119 346.119 603 347.5 603C348.881 603 350 604.119 350 605.5Z" stroke="#3360FF" stroke-width="2" mask="url(#path-1-inside-1)"/>
<path d="M350 560.5C350 561.881 348.881 563 347.5 563C346.119 563 345 561.881 345 560.5C345 559.119 346.119 558 347.5 558C348.881 558 350 559.119 350 560.5Z" stroke="#3360FF" stroke-width="2" mask="url(#path-1-inside-1)"/>
<path d="M395 830.5C395 831.881 393.881 833 392.5 833C391.119 833 390 831.881 390 830.5C390 829.119 391.119 828 392.5 828C393.881 828 395 829.119 395 830.5Z" stroke="#3360FF" stroke-width="2" mask="url(#path-1-inside-1)"/>
<path d="M395 785.5C395 786.881 393.881 788 392.5 788C391.119 788 390 786.881 390 785.5C390 784.119 391.119 783 392.5 783C393.881 783 395 784.119 395 785.5Z" stroke="#3360FF" stroke-width="2" mask="url(#path-1-inside-1)"/>
<path d="M395 740.5C395 741.881 393.881 743 392.5 743C391.119 743 390 741.881 390 740.5C390 739.119 391.119 738 392.5 738C393.881 738 395 739.119 395 740.5Z" stroke="#3360FF" stroke-width="2" mask="url(#path-1-inside-1)"/>
<path d="M395 695.5C395 696.881 393.881 698 392.5 698C391.119 698 390 696.881 390 695.5C390 694.119 391.119 693 392.5 693C393.881 693 395 694.119 395 695.5Z" stroke="#3360FF" stroke-width="2" mask="url(#path-1-inside-1)"/>
<path d="M395 650.5C395 651.881 393.881 653 392.5 653C391.119 653 390 651.881 390 650.5C390 649.119 391.119 648 392.5 648C393.881 648 395 649.119 395 650.5Z" stroke="#3360FF" stroke-width="2" mask="url(#path-1-inside-1)"/>
<path d="M395 605.5C395 606.881 393.881 608 392.5 608C391.119 608 390 606.881 390 605.5C390 604.119 391.119 603 392.5 603C393.881 603 395 604.119 395 605.5Z" stroke="#3360FF" stroke-width="2" mask="url(#path-1-inside-1)"/>
<path d="M395 560.5C395 561.881 393.881 563 392.5 563C391.119 563 390 561.881 390 560.5C390 559.119 391.119 558 392.5 558C393.881 558 395 559.119 395 560.5Z" stroke="#3360FF" stroke-width="2" mask="url(#path-1-inside-1)"/>
<circle cx="204.5" cy="875.5" r="130.5" fill="#3360FF"/>
<path fill-rule="evenodd" clip-rule="evenodd" d="M174.251 415.369C116.676 375.248 79 308.552 79 233.056C79 110.418 178.418 11 301.056 11C405.137 11 492.492 82.6063 516.547 179.242C516.368 179.167 516.173 179.126 515.967 179.126H511.752C510.924 179.126 510.252 179.797 510.252 180.626C510.252 181.454 510.924 182.126 511.752 182.126H515.967C516.429 182.126 516.842 181.917 517.117 181.589C521.037 198.107 523.112 215.339 523.112 233.056C523.112 253.689 520.298 273.666 515.032 292.622H514.502C513.673 292.622 513.002 293.293 513.002 294.122C513.002 294.842 513.509 295.443 514.186 295.588C494.267 363.59 442.687 418.065 376.489 441.972C376.396 441.232 375.765 440.659 375 440.659H372.887C372.059 440.659 371.387 441.33 371.387 442.159C371.387 442.729 371.706 443.226 372.175 443.479C349.847 451.023 325.929 455.112 301.056 455.112C254.81 455.112 211.867 440.975 176.31 416.787C176.268 415.997 175.614 415.369 174.813 415.369H174.251ZM211.925 76.1167C211.097 76.1167 210.425 76.7883 210.425 77.6167V79.8013C210.425 80.6297 211.097 81.3013 211.925 81.3013C212.753 81.3013 213.425 80.6297 213.425 79.8013V79.1167H213.853C214.681 79.1167 215.353 78.4451 215.353 77.6167C215.353 76.7883 214.681 76.1167 213.853 76.1167H211.925ZM221.563 76.1167C220.734 76.1167 220.063 76.7883 220.063 77.6167C220.063 78.4451 220.734 79.1167 221.563 79.1167H225.418C226.246 79.1167 226.918 78.4451 226.918 77.6167C226.918 76.7883 226.246 76.1167 225.418 76.1167H221.563ZM233.128 76.1167C232.3 76.1167 231.628 76.7883 231.628 77.6167C231.628 78.4451 232.3 79.1167 233.128 79.1167H236.983C237.812 79.1167 238.483 78.4451 238.483 77.6167C238.483 76.7883 237.812 76.1167 236.983 76.1167H233.128ZM244.694 76.1167C243.865 76.1167 243.194 76.7883 243.194 77.6167C243.194 78.4451 243.865 79.1167 244.694 79.1167H248.549C249.377 79.1167 250.049 78.4451 250.049 77.6167C250.049 76.7883 249.377 76.1167 248.549 76.1167H244.694ZM256.259 76.1167C255.431 76.1167 254.759 76.7883 254.759 77.6167C254.759 78.4451 255.431 79.1167 256.259 79.1167H260.114C260.943 79.1167 261.614 78.4451 261.614 77.6167C261.614 76.7883 260.943 76.1167 260.114 76.1167H256.259ZM267.825 76.1167C266.996 76.1167 266.325 76.7883 266.325 77.6167C266.325 78.4451 266.996 79.1167 267.825 79.1167H271.68C272.508 79.1167 273.18 78.4451 273.18 77.6167C273.18 76.7883 272.508 76.1167 271.68 76.1167H267.825ZM279.39 76.1167C278.562 76.1167 277.89 76.7883 277.89 77.6167C277.89 78.4451 278.562 79.1167 279.39 79.1167H279.818V79.5731C279.818 80.4015 280.489 81.0731 281.318 81.0731C282.146 81.0731 282.818 80.4015 282.818 79.5731V77.6167C282.818 76.7883 282.146 76.1167 281.318 76.1167H279.39ZM282.818 87.3986C282.818 86.5702 282.146 85.8986 281.318 85.8986C280.489 85.8986 279.818 86.5702 279.818 87.3986V91.3114C279.818 92.1398 280.489 92.8114 281.318 92.8114C282.146 92.8114 282.818 92.1398 282.818 91.3114V87.3986ZM213.425 88.5396C213.425 87.7112 212.753 87.0396 211.925 87.0396C211.097 87.0396 210.425 87.7112 210.425 88.5396V92.9088C210.425 93.7372 211.097 94.4088 211.925 94.4088C212.753 94.4088 213.425 93.7372 213.425 92.9088V88.5396ZM282.818 99.137C282.818 98.3085 282.146 97.637 281.318 97.637C280.489 97.637 279.818 98.3085 279.818 99.137V103.05C279.818 103.878 280.489 104.55 281.318 104.55C282.146 104.55 282.818 103.878 282.818 103.05V99.137ZM312.776 98.939C311.947 98.939 311.276 99.6105 311.276 100.439V102.341C311.276 103.169 311.947 103.841 312.776 103.841C313.604 103.841 314.276 103.169 314.276 102.341V101.939H314.705C315.534 101.939 316.205 101.267 316.205 100.439C316.205 99.6105 315.534 98.939 314.705 98.939H312.776ZM322.423 98.939C321.595 98.939 320.923 99.6105 320.923 100.439C320.923 101.267 321.595 101.939 322.423 101.939H326.282C327.111 101.939 327.782 101.267 327.782 100.439C327.782 99.6105 327.111 98.939 326.282 98.939H322.423ZM334.001 98.939C333.172 98.939 332.501 99.6105 332.501 100.439C332.501 101.267 333.172 101.939 334.001 101.939H337.86C338.688 101.939 339.36 101.267 339.36 100.439C339.36 99.6105 338.688 98.939 337.86 98.939H334.001ZM345.578 98.939C344.749 98.939 344.078 99.6105 344.078 100.439C344.078 101.267 344.749 101.939 345.578 101.939H349.437C350.265 101.939 350.937 101.267 350.937 100.439C350.937 99.6105 350.265 98.939 349.437 98.939H345.578ZM357.155 98.939C356.327 98.939 355.655 99.6105 355.655 100.439C355.655 101.267 356.327 101.939 357.155 101.939H361.014C361.843 101.939 362.514 101.267 362.514 100.439C362.514 99.6105 361.843 98.939 361.014 98.939H357.155ZM368.732 98.939C367.904 98.939 367.232 99.6105 367.232 100.439C367.232 101.267 367.904 101.939 368.732 101.939H372.592C373.42 101.939 374.092 101.267 374.092 100.439C374.092 99.6105 373.42 98.939 372.592 98.939H368.732ZM380.31 98.939C379.481 98.939 378.81 99.6105 378.81 100.439C378.81 101.267 379.481 101.939 380.31 101.939H384.169C384.997 101.939 385.669 101.267 385.669 100.439C385.669 99.6105 384.997 98.939 384.169 98.939H380.31ZM391.887 98.939C391.059 98.939 390.387 99.6105 390.387 100.439C390.387 101.267 391.059 101.939 391.887 101.939H395.746C396.575 101.939 397.246 101.267 397.246 100.439C397.246 99.6105 396.575 98.939 395.746 98.939H391.887ZM403.464 98.939C402.636 98.939 401.964 99.6105 401.964 100.439C401.964 101.267 402.636 101.939 403.464 101.939H407.323C408.152 101.939 408.823 101.267 408.823 100.439C408.823 99.6105 408.152 98.939 407.323 98.939H403.464ZM415.042 98.939C414.213 98.939 413.542 99.6105 413.542 100.439C413.542 101.267 414.213 101.939 415.042 101.939H418.901C419.729 101.939 420.401 101.267 420.401 100.439C420.401 99.6105 419.729 98.939 418.901 98.939H415.042ZM426.619 98.939C425.79 98.939 425.119 99.6105 425.119 100.439C425.119 101.267 425.79 101.939 426.619 101.939H430.478C431.306 101.939 431.978 101.267 431.978 100.439C431.978 99.6105 431.306 98.939 430.478 98.939H426.619ZM438.196 98.939C437.368 98.939 436.696 99.6105 436.696 100.439C436.696 101.267 437.368 101.939 438.196 101.939H442.055C442.884 101.939 443.555 101.267 443.555 100.439C443.555 99.6105 442.884 98.939 442.055 98.939H438.196ZM449.773 98.939C448.945 98.939 448.273 99.6105 448.273 100.439C448.273 101.267 448.945 101.939 449.773 101.939H453.633C454.461 101.939 455.133 101.267 455.133 100.439C455.133 99.6105 454.461 98.939 453.633 98.939H449.773ZM461.351 98.939C460.522 98.939 459.851 99.6105 459.851 100.439C459.851 101.267 460.522 101.939 461.351 101.939H461.78V102.348C461.78 103.177 462.452 103.848 463.28 103.848C464.109 103.848 464.78 103.177 464.78 102.348V100.439C464.78 99.6105 464.109 98.939 463.28 98.939H461.351ZM213.425 101.647C213.425 100.819 212.753 100.147 211.925 100.147C211.097 100.147 210.425 100.819 210.425 101.647V106.016C210.425 106.845 211.097 107.516 211.925 107.516C212.753 107.516 213.425 106.845 213.425 106.016V101.647ZM314.276 109.948C314.276 109.12 313.604 108.448 312.776 108.448C311.947 108.448 311.276 109.12 311.276 109.948V113.752C311.276 114.58 311.947 115.252 312.776 115.252C313.604 115.252 314.276 114.58 314.276 113.752V109.948ZM464.78 109.985C464.78 109.157 464.109 108.485 463.28 108.485C462.452 108.485 461.78 109.157 461.78 109.985V113.803C461.78 114.632 462.452 115.303 463.28 115.303C464.109 115.303 464.78 114.632 464.78 113.803V109.985ZM282.818 110.875C282.818 110.047 282.146 109.375 281.318 109.375C280.489 109.375 279.818 110.047 279.818 110.875V114.788C279.818 115.617 280.489 116.288 281.318 116.288C282.146 116.288 282.818 115.617 282.818 114.788V110.875ZM213.425 114.755C213.425 113.926 212.753 113.255 211.925 113.255C211.097 113.255 210.425 113.926 210.425 114.755V119.124C210.425 119.952 211.097 120.624 211.925 120.624C212.753 120.624 213.425 119.952 213.425 119.124V114.755ZM314.276 121.36C314.276 120.531 313.604 119.86 312.776 119.86C311.947 119.86 311.276 120.531 311.276 121.36V125.163C311.276 125.992 311.947 126.663 312.776 126.663C313.604 126.663 314.276 125.992 314.276 125.163V121.36ZM464.78 121.44C464.78 120.612 464.109 119.94 463.28 119.94C462.452 119.94 461.78 120.612 461.78 121.44V125.259C461.78 126.087 462.452 126.759 463.28 126.759C464.109 126.759 464.78 126.087 464.78 125.259V121.44ZM282.818 122.614C282.818 121.785 282.146 121.114 281.318 121.114C280.489 121.114 279.818 121.785 279.818 122.614V126.526C279.818 127.355 280.489 128.026 281.318 128.026C282.146 128.026 282.818 127.355 282.818 126.526V122.614ZM213.425 127.862C213.425 127.034 212.753 126.362 211.925 126.362C211.097 126.362 210.425 127.034 210.425 127.862V128.547H209.834C209.005 128.547 208.334 129.218 208.334 130.047C208.334 130.875 209.005 131.547 209.834 131.547H211.925C212.753 131.547 213.425 130.875 213.425 130.047V127.862ZM109.456 128.547C108.627 128.547 107.956 129.218 107.956 130.047C107.956 130.875 108.627 131.547 109.456 131.547H113.638C114.467 131.547 115.138 130.875 115.138 130.047C115.138 129.218 114.467 128.547 113.638 128.547H109.456ZM122.003 128.547C121.175 128.547 120.503 129.218 120.503 130.047C120.503 130.875 121.175 131.547 122.003 131.547H126.186C127.014 131.547 127.686 130.875 127.686 130.047C127.686 129.218 127.014 128.547 126.186 128.547H122.003ZM134.55 128.547C133.722 128.547 133.05 129.218 133.05 130.047C133.05 130.875 133.722 131.547 134.55 131.547H138.733C139.561 131.547 140.233 130.875 140.233 130.047C140.233 129.218 139.561 128.547 138.733 128.547H134.55ZM147.098 128.547C146.269 128.547 145.598 129.218 145.598 130.047C145.598 130.875 146.269 131.547 147.098 131.547H151.28C152.108 131.547 152.78 130.875 152.78 130.047C152.78 129.218 152.108 128.547 151.28 128.547H147.098ZM159.645 128.547C158.816 128.547 158.145 129.218 158.145 130.047C158.145 130.875 158.816 131.547 159.645 131.547H163.827C164.656 131.547 165.327 130.875 165.327 130.047C165.327 129.218 164.656 128.547 163.827 128.547H159.645ZM172.192 128.547C171.364 128.547 170.692 129.218 170.692 130.047C170.692 130.875 171.364 131.547 172.192 131.547H176.375C177.203 131.547 177.875 130.875 177.875 130.047C177.875 129.218 177.203 128.547 176.375 128.547H172.192ZM184.739 128.547C183.911 128.547 183.239 129.218 183.239 130.047C183.239 130.875 183.911 131.547 184.739 131.547H188.922C189.75 131.547 190.422 130.875 190.422 130.047C190.422 129.218 189.75 128.547 188.922 128.547H184.739ZM197.287 128.547C196.458 128.547 195.787 129.218 195.787 130.047C195.787 130.875 196.458 131.547 197.287 131.547H201.469C202.297 131.547 202.969 130.875 202.969 130.047C202.969 129.218 202.297 128.547 201.469 128.547H197.287ZM314.276 132.771C314.276 131.942 313.604 131.271 312.776 131.271C311.947 131.271 311.276 131.942 311.276 132.771V136.575C311.276 137.403 311.947 138.075 312.776 138.075C313.604 138.075 314.276 137.403 314.276 136.575V132.771ZM464.78 132.896C464.78 132.067 464.109 131.396 463.28 131.396C462.452 131.396 461.78 132.067 461.78 132.896V136.714C461.78 137.542 462.452 138.214 463.28 138.214C464.109 138.214 464.78 137.542 464.78 136.714V132.896ZM282.818 134.352C282.818 133.524 282.146 132.852 281.318 132.852C280.489 132.852 279.818 133.524 279.818 134.352V138.265C279.818 139.093 280.489 139.765 281.318 139.765C282.146 139.765 282.818 139.093 282.818 138.265V134.352ZM314.276 144.182C314.276 143.354 313.604 142.682 312.776 142.682C311.947 142.682 311.276 143.354 311.276 144.182V147.986C311.276 148.814 311.947 149.486 312.776 149.486C313.604 149.486 314.276 148.814 314.276 147.986V144.182ZM464.78 144.351C464.78 143.522 464.109 142.851 463.28 142.851C462.452 142.851 461.78 143.522 461.78 144.351V148.169C461.78 148.998 462.452 149.669 463.28 149.669C464.109 149.669 464.78 148.998 464.78 148.169V144.351ZM282.818 146.09C282.818 145.262 282.146 144.59 281.318 144.59C280.489 144.59 279.818 145.262 279.818 146.09V150.003C279.818 150.831 280.489 151.503 281.318 151.503C282.146 151.503 282.818 150.831 282.818 150.003V146.09ZM314.276 155.593C314.276 154.765 313.604 154.093 312.776 154.093C311.947 154.093 311.276 154.765 311.276 155.593V159.397C311.276 160.225 311.947 160.897 312.776 160.897C313.604 160.897 314.276 160.225 314.276 159.397V155.593ZM464.78 155.806C464.78 154.978 464.109 154.306 463.28 154.306C462.452 154.306 461.78 154.978 461.78 155.806V159.625C461.78 160.453 462.452 161.125 463.28 161.125C464.109 161.125 464.78 160.453 464.78 159.625V155.806ZM282.818 157.829C282.818 157 282.146 156.329 281.318 156.329C280.489 156.329 279.818 157 279.818 157.829V161.741C279.818 162.57 280.489 163.241 281.318 163.241C282.146 163.241 282.818 162.57 282.818 161.741V157.829ZM314.276 167.004C314.276 166.176 313.604 165.504 312.776 165.504C311.947 165.504 311.276 166.176 311.276 167.004V170.808C311.276 171.637 311.947 172.308 312.776 172.308C313.604 172.308 314.276 171.637 314.276 170.808V167.004ZM464.78 167.261C464.78 166.433 464.109 165.761 463.28 165.761C462.452 165.761 461.78 166.433 461.78 167.261V171.08C461.78 171.908 462.452 172.58 463.28 172.58C464.109 172.58 464.78 171.908 464.78 171.08V167.261ZM282.818 169.567C282.818 168.739 282.146 168.067 281.318 168.067C280.489 168.067 279.818 168.739 279.818 169.567V173.48C279.818 174.308 280.489 174.98 281.318 174.98C282.146 174.98 282.818 174.308 282.818 173.48V169.567ZM314.276 178.416C314.276 177.587 313.604 176.916 312.776 176.916C311.947 176.916 311.276 177.587 311.276 178.416V182.219C311.276 183.048 311.947 183.719 312.776 183.719C313.604 183.719 314.276 183.048 314.276 182.219V178.416ZM464.78 178.717C464.78 177.888 464.109 177.217 463.28 177.217C462.452 177.217 461.78 177.888 461.78 178.717V180.626C461.78 181.454 462.452 182.126 463.28 182.126H465.388C466.216 182.126 466.888 181.454 466.888 180.626C466.888 179.797 466.216 179.126 465.388 179.126H464.78V178.717ZM473.818 179.126C472.989 179.126 472.318 179.797 472.318 180.626C472.318 181.454 472.989 182.126 473.818 182.126H478.033C478.861 182.126 479.533 181.454 479.533 180.626C479.533 179.797 478.861 179.126 478.033 179.126H473.818ZM486.462 179.126C485.634 179.126 484.962 179.797 484.962 180.626C484.962 181.454 485.634 182.126 486.462 182.126H490.677C491.506 182.126 492.177 181.454 492.177 180.626C492.177 179.797 491.506 179.126 490.677 179.126H486.462ZM499.107 179.126C498.279 179.126 497.607 179.797 497.607 180.626C497.607 181.454 498.279 182.126 499.107 182.126H503.322C504.151 182.126 504.822 181.454 504.822 180.626C504.822 179.797 504.151 179.126 503.322 179.126H499.107ZM282.818 181.305C282.818 180.477 282.146 179.805 281.318 179.805C280.489 179.805 279.818 180.477 279.818 181.305V185.218C279.818 186.046 280.489 186.718 281.318 186.718C282.146 186.718 282.818 186.046 282.818 185.218V181.305ZM314.276 189.827C314.276 188.999 313.604 188.327 312.776 188.327C311.947 188.327 311.276 188.999 311.276 189.827V193.631C311.276 194.459 311.947 195.131 312.776 195.131C313.604 195.131 314.276 194.459 314.276 193.631V189.827ZM282.818 193.044C282.818 192.215 282.146 191.544 281.318 191.544C280.489 191.544 279.818 192.215 279.818 193.044V195C279.818 195.828 280.489 196.5 281.318 196.5C282.146 196.5 282.818 195.828 282.818 195V193.044ZM139.629 193.5C138.801 193.5 138.129 194.172 138.129 195V197.333C138.129 198.162 138.801 198.833 139.629 198.833C140.458 198.833 141.129 198.162 141.129 197.333V196.5H141.696C142.524 196.5 143.196 195.828 143.196 195C143.196 194.172 142.524 193.5 141.696 193.5H139.629ZM149.961 193.5C149.132 193.5 148.461 194.172 148.461 195C148.461 195.828 149.132 196.5 149.961 196.5H154.093C154.921 196.5 155.593 195.828 155.593 195C155.593 194.172 154.921 193.5 154.093 193.5H149.961ZM162.358 193.5C161.529 193.5 160.858 194.172 160.858 195C160.858 195.828 161.529 196.5 162.358 196.5H166.49C167.319 196.5 167.99 195.828 167.99 195C167.99 194.172 167.319 193.5 166.49 193.5H162.358ZM174.755 193.5C173.927 193.5 173.255 194.172 173.255 195C173.255 195.828 173.927 196.5 174.755 196.5H178.888C179.716 196.5 180.388 195.828 180.388 195C180.388 194.172 179.716 193.5 178.888 193.5H174.755ZM187.153 193.5C186.324 193.5 185.653 194.172 185.653 195C185.653 195.828 186.324 196.5 187.153 196.5H191.285C192.113 196.5 192.785 195.828 192.785 195C192.785 194.172 192.113 193.5 191.285 193.5H187.153ZM199.55 193.5C198.721 193.5 198.05 194.172 198.05 195C198.05 195.828 198.721 196.5 199.55 196.5H203.682C204.511 196.5 205.182 195.828 205.182 195C205.182 194.172 204.511 193.5 203.682 193.5H199.55ZM211.947 193.5C211.119 193.5 210.447 194.172 210.447 195C210.447 195.828 211.119 196.5 211.947 196.5H216.08C216.908 196.5 217.58 195.828 217.58 195C217.58 194.172 216.908 193.5 216.08 193.5H211.947ZM224.345 193.5C223.516 193.5 222.845 194.172 222.845 195C222.845 195.828 223.516 196.5 224.345 196.5H228.477C229.305 196.5 229.977 195.828 229.977 195C229.977 194.172 229.305 193.5 228.477 193.5H224.345ZM236.742 193.5C235.914 193.5 235.242 194.172 235.242 195C235.242 195.828 235.914 196.5 236.742 196.5H240.874C241.703 196.5 242.374 195.828 242.374 195C242.374 194.172 241.703 193.5 240.874 193.5H236.742ZM249.139 193.5C248.311 193.5 247.639 194.172 247.639 195C247.639 195.828 248.311 196.5 249.139 196.5H253.272C254.1 196.5 254.772 195.828 254.772 195C254.772 194.172 254.1 193.5 253.272 193.5H249.139ZM261.537 193.5C260.708 193.5 260.037 194.172 260.037 195C260.037 195.828 260.708 196.5 261.537 196.5H265.669C266.497 196.5 267.169 195.828 267.169 195C267.169 194.172 266.497 193.5 265.669 193.5H261.537ZM273.934 193.5C273.106 193.5 272.434 194.172 272.434 195C272.434 195.828 273.106 196.5 273.934 196.5H276C276.829 196.5 277.5 195.828 277.5 195C277.5 194.172 276.829 193.5 276 193.5H273.934ZM314.276 201.238C314.276 200.41 313.604 199.738 312.776 199.738C311.947 199.738 311.276 200.41 311.276 201.238V205.042C311.276 205.87 311.947 206.542 312.776 206.542C313.604 206.542 314.276 205.87 314.276 205.042V201.238ZM141.129 206.667C141.129 205.838 140.458 205.167 139.629 205.167C138.801 205.167 138.129 205.838 138.129 206.667V211.333C138.129 212.162 138.801 212.833 139.629 212.833C140.458 212.833 141.129 212.162 141.129 211.333V206.667ZM314.276 212.649C314.276 211.821 313.604 211.149 312.776 211.149C311.947 211.149 311.276 211.821 311.276 212.649V214.551C311.276 215.38 311.947 216.051 312.776 216.051C313.604 216.051 314.276 215.38 314.276 214.551V212.649ZM320 213.051C319.172 213.051 318.5 213.723 318.5 214.551C318.5 215.38 319.172 216.051 320 216.051H322.085C322.913 216.051 323.585 215.38 323.585 214.551C323.585 213.723 322.913 213.051 322.085 213.051H320ZM330.424 213.051C329.595 213.051 328.924 213.723 328.924 214.551C328.924 215.38 329.595 216.051 330.424 216.051H334.593C335.422 216.051 336.093 215.38 336.093 214.551C336.093 213.723 335.422 213.051 334.593 213.051H330.424ZM342.932 213.051C342.104 213.051 341.432 213.723 341.432 214.551C341.432 215.38 342.104 216.051 342.932 216.051H347.102C347.93 216.051 348.602 215.38 348.602 214.551C348.602 213.723 347.93 213.051 347.102 213.051H342.932ZM355.441 213.051C354.612 213.051 353.941 213.723 353.941 214.551C353.941 215.38 354.612 216.051 355.441 216.051H359.61C360.438 216.051 361.11 215.38 361.11 214.551C361.11 213.723 360.438 213.051 359.61 213.051H355.441ZM367.949 213.051C367.12 213.051 366.449 213.723 366.449 214.551C366.449 215.38 367.12 216.051 367.949 216.051H372.118C372.947 216.051 373.618 215.38 373.618 214.551C373.618 213.723 372.947 213.051 372.118 213.051H367.949ZM380.457 213.051C379.629 213.051 378.957 213.723 378.957 214.551C378.957 215.38 379.629 216.051 380.457 216.051H384.627C385.455 216.051 386.127 215.38 386.127 214.551C386.127 213.723 385.455 213.051 384.627 213.051H380.457ZM392.966 213.051C392.137 213.051 391.466 213.723 391.466 214.551C391.466 215.38 392.137 216.051 392.966 216.051H397.135C397.963 216.051 398.635 215.38 398.635 214.551C398.635 213.723 397.963 213.051 397.135 213.051H392.966ZM405.474 213.051C404.645 213.051 403.974 213.723 403.974 214.551C403.974 215.38 404.645 216.051 405.474 216.051H409.643C410.472 216.051 411.143 215.38 411.143 214.551C411.143 213.723 410.472 213.051 409.643 213.051H405.474ZM417.982 213.051C417.154 213.051 416.482 213.723 416.482 214.551C416.482 215.38 417.154 216.051 417.982 216.051H422.152C422.98 216.051 423.652 215.38 423.652 214.551C423.652 213.723 422.98 213.051 422.152 213.051H417.982ZM430.491 213.051C429.662 213.051 428.991 213.723 428.991 214.551C428.991 215.38 429.662 216.051 430.491 216.051H434.66C435.488 216.051 436.16 215.38 436.16 214.551C436.16 213.723 435.488 213.051 434.66 213.051H430.491ZM442.999 213.051C442.171 213.051 441.499 213.723 441.499 214.551C441.499 215.38 442.171 216.051 442.999 216.051H443.584V216.282C443.584 217.11 444.255 217.782 445.084 217.782C445.912 217.782 446.584 217.11 446.584 216.282V214.551C446.584 213.723 445.912 213.051 445.084 213.051H442.999ZM141.129 220.667C141.129 219.838 140.458 219.167 139.629 219.167C138.801 219.167 138.129 219.838 138.129 220.667V221.5H137.779C136.95 221.5 136.279 222.172 136.279 223C136.279 223.828 136.95 224.5 137.779 224.5H139.629C140.458 224.5 141.129 223.828 141.129 223V220.667ZM82.2538 221.5C81.4254 221.5 80.7538 222.172 80.7538 223C80.7538 223.828 81.4254 224.5 82.2538 224.5H85.9555C86.7839 224.5 87.4555 223.828 87.4555 223C87.4555 222.172 86.7839 221.5 85.9555 221.5H82.2538ZM93.3588 221.5C92.5304 221.5 91.8588 222.172 91.8588 223C91.8588 223.828 92.5304 224.5 93.3588 224.5H97.0604C97.8889 224.5 98.5604 223.828 98.5604 223C98.5604 222.172 97.8889 221.5 97.0604 221.5H93.3588ZM104.464 221.5C103.635 221.5 102.964 222.172 102.964 223C102.964 223.828 103.635 224.5 104.464 224.5H108.165C108.994 224.5 109.665 223.828 109.665 223C109.665 222.172 108.994 221.5 108.165 221.5H104.464ZM115.569 221.5C114.74 221.5 114.069 222.172 114.069 223C114.069 223.828 114.74 224.5 115.569 224.5H119.27C120.099 224.5 120.77 223.828 120.77 223C120.77 222.172 120.099 221.5 119.27 221.5H115.569ZM126.674 221.5C125.845 221.5 125.174 222.172 125.174 223C125.174 223.828 125.845 224.5 126.674 224.5H130.375C131.204 224.5 131.875 223.828 131.875 223C131.875 222.172 131.204 221.5 130.375 221.5H126.674ZM446.584 223.204C446.584 222.375 445.912 221.704 445.084 221.704C444.255 221.704 443.584 222.375 443.584 223.204V226.665C443.584 227.493 444.255 228.165 445.084 228.165C445.912 228.165 446.584 227.493 446.584 226.665V223.204ZM446.584 233.587C446.584 232.759 445.912 232.087 445.084 232.087C444.255 232.087 443.584 232.759 443.584 233.587V237.048C443.584 237.877 444.255 238.548 445.084 238.548C445.912 238.548 446.584 237.877 446.584 237.048V233.587ZM446.584 243.97C446.584 243.142 445.912 242.47 445.084 242.47C444.255 242.47 443.584 243.142 443.584 243.97V245.701C443.584 246.529 444.255 247.201 445.084 247.201H447.043C447.872 247.201 448.543 246.529 448.543 245.701C448.543 244.872 447.872 244.201 447.043 244.201H446.584V243.97ZM454.882 244.201C454.054 244.201 453.382 244.872 453.382 245.701C453.382 246.529 454.054 247.201 454.882 247.201H458.802C459.63 247.201 460.302 246.529 460.302 245.701C460.302 244.872 459.63 244.201 458.802 244.201H454.882ZM466.64 244.201C465.812 244.201 465.14 244.872 465.14 245.701C465.14 246.529 465.812 247.201 466.64 247.201H470.56C471.388 247.201 472.06 246.529 472.06 245.701C472.06 244.872 471.388 244.201 470.56 244.201H466.64ZM478.399 244.201C477.57 244.201 476.899 244.872 476.899 245.701C476.899 246.529 477.57 247.201 478.399 247.201H482.318C483.146 247.201 483.818 246.529 483.818 245.701C483.818 244.872 483.146 244.201 482.318 244.201H478.399ZM490.157 244.201C489.328 244.201 488.657 244.872 488.657 245.701C488.657 246.529 489.328 247.201 490.157 247.201H494.076C494.905 247.201 495.576 246.529 495.576 245.701C495.576 244.872 494.905 244.201 494.076 244.201H490.157ZM501.915 244.201C501.086 244.201 500.415 244.872 500.415 245.701C500.415 246.529 501.086 247.201 501.915 247.201H505.834C506.663 247.201 507.334 246.529 507.334 245.701C507.334 244.872 506.663 244.201 505.834 244.201H501.915ZM513.673 244.201C512.845 244.201 512.173 244.872 512.173 245.701C512.173 246.529 512.845 247.201 513.673 247.201H517.592C518.421 247.201 519.092 246.529 519.092 245.701C519.092 244.872 518.421 244.201 517.592 244.201H513.673ZM186.944 268.565C186.115 268.565 185.444 269.237 185.444 270.065V271.954C185.444 272.783 186.115 273.454 186.944 273.454C187.772 273.454 188.444 272.783 188.444 271.954V271.565H188.964C189.792 271.565 190.464 270.894 190.464 270.065C190.464 269.237 189.792 268.565 188.964 268.565H186.944ZM197.043 268.565C196.215 268.565 195.543 269.237 195.543 270.065C195.543 270.894 196.215 271.565 197.043 271.565H201.083C201.912 271.565 202.583 270.894 202.583 270.065C202.583 269.237 201.912 268.565 201.083 268.565H197.043ZM209.163 268.565C208.335 268.565 207.663 269.237 207.663 270.065C207.663 270.894 208.335 271.565 209.163 271.565H213.203C214.031 271.565 214.703 270.894 214.703 270.065C214.703 269.237 214.031 268.565 213.203 268.565H209.163ZM221.283 268.565C220.454 268.565 219.783 269.237 219.783 270.065C219.783 270.894 220.454 271.565 221.283 271.565H225.323C226.151 271.565 226.823 270.894 226.823 270.065C226.823 269.237 226.151 268.565 225.323 268.565H221.283ZM233.403 268.565C232.574 268.565 231.903 269.237 231.903 270.065C231.903 270.894 232.574 271.565 233.403 271.565H237.442C238.271 271.565 238.942 270.894 238.942 270.065C238.942 269.237 238.271 268.565 237.442 268.565H233.403ZM245.522 268.565C244.694 268.565 244.022 269.237 244.022 270.065C244.022 270.894 244.694 271.565 245.522 271.565H249.562C250.391 271.565 251.062 270.894 251.062 270.065C251.062 269.237 250.391 268.565 249.562 268.565H245.522ZM257.642 268.565C256.814 268.565 256.142 269.237 256.142 270.065C256.142 270.894 256.814 271.565 257.642 271.565H261.682C262.51 271.565 263.182 270.894 263.182 270.065C263.182 269.237 262.51 268.565 261.682 268.565H257.642ZM269.762 268.565C268.933 268.565 268.262 269.237 268.262 270.065C268.262 270.894 268.933 271.565 269.762 271.565H273.802C274.63 271.565 275.302 270.894 275.302 270.065C275.302 269.237 274.63 268.565 273.802 268.565H269.762ZM281.882 268.565C281.053 268.565 280.382 269.237 280.382 270.065C280.382 270.894 281.053 271.565 281.882 271.565H285.921C286.75 271.565 287.421 270.894 287.421 270.065C287.421 269.237 286.75 268.565 285.921 268.565H281.882ZM294.001 268.565C293.173 268.565 292.501 269.237 292.501 270.065C292.501 270.894 293.173 271.565 294.001 271.565H298.041C298.87 271.565 299.541 270.894 299.541 270.065C299.541 269.237 298.87 268.565 298.041 268.565H294.001ZM306.121 268.565C305.293 268.565 304.621 269.237 304.621 270.065C304.621 270.894 305.293 271.565 306.121 271.565H310.161C310.989 271.565 311.661 270.894 311.661 270.065C311.661 269.237 310.989 268.565 310.161 268.565H306.121ZM318.241 268.565C317.412 268.565 316.741 269.237 316.741 270.065C316.741 270.894 317.412 271.565 318.241 271.565H322.281C323.109 271.565 323.781 270.894 323.781 270.065C323.781 269.237 323.109 268.565 322.281 268.565H318.241ZM330.361 268.565C329.532 268.565 328.861 269.237 328.861 270.065C328.861 270.894 329.532 271.565 330.361 271.565H334.4C335.229 271.565 335.9 270.894 335.9 270.065C335.9 269.237 335.229 268.565 334.4 268.565H330.361ZM342.48 268.565C341.652 268.565 340.98 269.237 340.98 270.065C340.98 270.894 341.652 271.565 342.48 271.565H344.5C345.329 271.565 346 270.894 346 270.065C346 269.237 345.329 268.565 344.5 268.565H342.48ZM188.444 279.511C188.444 278.682 187.772 278.011 186.944 278.011C186.115 278.011 185.444 278.682 185.444 279.511V283.289C185.444 284.117 186.115 284.789 186.944 284.789C187.772 284.789 188.444 284.117 188.444 283.289V279.511ZM188.444 290.845C188.444 290.016 187.772 289.345 186.944 289.345C186.115 289.345 185.444 290.016 185.444 290.845V294.623C185.444 295.451 186.115 296.123 186.944 296.123C187.772 296.123 188.444 295.451 188.444 294.623V290.845ZM443.161 292.622C442.332 292.622 441.661 293.293 441.661 294.122V296.049C441.661 296.878 442.332 297.549 443.161 297.549C443.989 297.549 444.661 296.878 444.661 296.049V295.622H445.199C446.027 295.622 446.699 294.95 446.699 294.122C446.699 293.293 446.027 292.622 445.199 292.622H443.161ZM453.352 292.622C452.524 292.622 451.852 293.293 451.852 294.122C451.852 294.95 452.524 295.622 453.352 295.622H457.429C458.257 295.622 458.929 294.95 458.929 294.122C458.929 293.293 458.257 292.622 457.429 292.622H453.352ZM465.582 292.622C464.754 292.622 464.082 293.293 464.082 294.122C464.082 294.95 464.754 295.622 465.582 295.622H469.659C470.487 295.622 471.159 294.95 471.159 294.122C471.159 293.293 470.487 292.622 469.659 292.622H465.582ZM477.812 292.622C476.984 292.622 476.312 293.293 476.312 294.122C476.312 294.95 476.984 295.622 477.812 295.622H481.889C482.717 295.622 483.389 294.95 483.389 294.122C483.389 293.293 482.717 292.622 481.889 292.622H477.812ZM490.042 292.622C489.213 292.622 488.542 293.293 488.542 294.122C488.542 294.95 489.213 295.622 490.042 295.622H494.119C494.947 295.622 495.619 294.95 495.619 294.122C495.619 293.293 494.947 292.622 494.119 292.622H490.042ZM502.272 292.622C501.443 292.622 500.772 293.293 500.772 294.122C500.772 294.95 501.443 295.622 502.272 295.622H506.348C507.177 295.622 507.848 294.95 507.848 294.122C507.848 293.293 507.177 292.622 506.348 292.622H502.272ZM188.444 302.179C188.444 301.35 187.772 300.679 186.944 300.679C186.115 300.679 185.444 301.35 185.444 302.179V305.957C185.444 306.785 186.115 307.457 186.944 307.457C187.772 307.457 188.444 306.785 188.444 305.957V302.179ZM444.661 303.759C444.661 302.931 443.989 302.259 443.161 302.259C442.332 302.259 441.661 302.931 441.661 303.759V307.615C441.661 308.443 442.332 309.115 443.161 309.115C443.989 309.115 444.661 308.443 444.661 307.615V303.759ZM188.444 313.513C188.444 312.684 187.772 312.013 186.944 312.013C186.115 312.013 185.444 312.684 185.444 313.513V313.902H184.851C184.023 313.902 183.351 314.573 183.351 315.402C183.351 316.23 184.023 316.902 184.851 316.902H186.944C187.772 316.902 188.444 316.23 188.444 315.402V313.513ZM444.661 315.325C444.661 314.496 443.989 313.825 443.161 313.825C442.332 313.825 441.661 314.496 441.661 315.325V319.18C441.661 320.008 442.332 320.68 443.161 320.68C443.989 320.68 444.661 320.008 444.661 319.18V315.325ZM96.9625 313.902C96.1341 313.902 95.4625 314.573 95.4625 315.402C95.4625 316.23 96.1341 316.902 96.9625 316.902H101.148C101.976 316.902 102.648 316.23 102.648 315.402C102.648 314.573 101.976 313.902 101.148 313.902H96.9625ZM109.518 313.902C108.69 313.902 108.018 314.573 108.018 315.402C108.018 316.23 108.69 316.902 109.518 316.902H113.703C114.532 316.902 115.203 316.23 115.203 315.402C115.203 314.573 114.532 313.902 113.703 313.902H109.518ZM122.074 313.902C121.245 313.902 120.574 314.573 120.574 315.402C120.574 316.23 121.245 316.902 122.074 316.902H126.259C127.087 316.902 127.759 316.23 127.759 315.402C127.759 314.573 127.087 313.902 126.259 313.902H122.074ZM134.629 313.902C133.801 313.902 133.129 314.573 133.129 315.402C133.129 316.23 133.801 316.902 134.629 316.902H138.814C139.643 316.902 140.314 316.23 140.314 315.402C140.314 314.573 139.643 313.902 138.814 313.902H134.629ZM147.184 313.902C146.356 313.902 145.684 314.573 145.684 315.402C145.684 316.23 146.356 316.902 147.184 316.902H151.37C152.198 316.902 152.87 316.23 152.87 315.402C152.87 314.573 152.198 313.902 151.37 313.902H147.184ZM159.74 313.902C158.912 313.902 158.24 314.573 158.24 315.402C158.24 316.23 158.912 316.902 159.74 316.902H163.925C164.754 316.902 165.425 316.23 165.425 315.402C165.425 314.573 164.754 313.902 163.925 313.902H159.74ZM172.295 313.902C171.467 313.902 170.795 314.573 170.795 315.402C170.795 316.23 171.467 316.902 172.295 316.902H176.481C177.309 316.902 177.981 316.23 177.981 315.402C177.981 314.573 177.309 313.902 176.481 313.902H172.295ZM444.661 326.89C444.661 326.062 443.989 325.39 443.161 325.39C442.332 325.39 441.661 326.062 441.661 326.89V330.745C441.661 331.574 442.332 332.245 443.161 332.245C443.989 332.245 444.661 331.574 444.661 330.745V326.89ZM444.661 338.456C444.661 337.627 443.989 336.956 443.161 336.956C442.332 336.956 441.661 337.627 441.661 338.456V342.311C441.661 343.139 442.332 343.811 443.161 343.811C443.989 343.811 444.661 343.139 444.661 342.311V338.456ZM444.661 350.021C444.661 349.193 443.989 348.521 443.161 348.521C442.332 348.521 441.661 349.193 441.661 350.021V353.876C441.661 354.705 442.332 355.376 443.161 355.376C443.989 355.376 444.661 354.705 444.661 353.876V350.021ZM222.102 353.07C221.274 353.07 220.602 353.741 220.602 354.57V356.646C220.602 357.475 221.274 358.146 222.102 358.146C222.931 358.146 223.602 357.475 223.602 356.646V356.07H224.11C224.938 356.07 225.61 355.398 225.61 354.57C225.61 353.741 224.938 353.07 224.11 353.07H222.102ZM232.139 353.07C231.311 353.07 230.639 353.741 230.639 354.57C230.639 355.398 231.311 356.07 232.139 356.07H236.154C236.982 356.07 237.654 355.398 237.654 354.57C237.654 353.741 236.982 353.07 236.154 353.07H232.139ZM244.183 353.07C243.355 353.07 242.683 353.741 242.683 354.57C242.683 355.398 243.355 356.07 244.183 356.07H248.198C249.027 356.07 249.698 355.398 249.698 354.57C249.698 353.741 249.027 353.07 248.198 353.07H244.183ZM256.228 353.07C255.399 353.07 254.728 353.741 254.728 354.57C254.728 355.398 255.399 356.07 256.228 356.07H260.242C261.071 356.07 261.742 355.398 261.742 354.57C261.742 353.741 261.071 353.07 260.242 353.07H256.228ZM268.272 353.07C267.443 353.07 266.772 353.741 266.772 354.57C266.772 355.398 267.443 356.07 268.272 356.07H272.287C273.115 356.07 273.787 355.398 273.787 354.57C273.787 353.741 273.115 353.07 272.287 353.07H268.272ZM280.316 353.07C279.488 353.07 278.816 353.741 278.816 354.57C278.816 355.398 279.488 356.07 280.316 356.07H284.331C285.159 356.07 285.831 355.398 285.831 354.57C285.831 353.741 285.159 353.07 284.331 353.07H280.316ZM292.36 353.07C291.532 353.07 290.86 353.741 290.86 354.57C290.86 355.398 291.532 356.07 292.36 356.07H296.375C297.203 356.07 297.875 355.398 297.875 354.57C297.875 353.741 297.203 353.07 296.375 353.07H292.36ZM304.404 353.07C303.576 353.07 302.904 353.741 302.904 354.57C302.904 355.398 303.576 356.07 304.404 356.07H308.419C309.248 356.07 309.919 355.398 309.919 354.57C309.919 353.741 309.248 353.07 308.419 353.07H304.404ZM316.449 353.07C315.62 353.07 314.949 353.741 314.949 354.57C314.949 355.398 315.62 356.07 316.449 356.07H320.463C321.292 356.07 321.963 355.398 321.963 354.57C321.963 353.741 321.292 353.07 320.463 353.07H316.449ZM328.493 353.07C327.664 353.07 326.993 353.741 326.993 354.57C326.993 355.398 327.664 356.07 328.493 356.07H330.5C331.329 356.07 332 355.398 332 354.57C332 353.741 331.329 353.07 330.5 353.07H328.493ZM444.661 361.587C444.661 360.758 443.989 360.087 443.161 360.087C442.332 360.087 441.661 360.758 441.661 361.587V365.442C441.661 366.27 442.332 366.942 443.161 366.942C443.989 366.942 444.661 366.27 444.661 365.442V361.587ZM223.602 364.953C223.602 364.125 222.931 363.453 222.102 363.453C221.274 363.453 220.602 364.125 220.602 364.953V369.106C220.602 369.935 221.274 370.606 222.102 370.606C222.931 370.606 223.602 369.935 223.602 369.106V364.953ZM287.752 371.533C287.752 370.704 287.081 370.033 286.252 370.033C285.424 370.033 284.752 370.704 284.752 371.533V373.495C284.752 374.323 285.424 374.995 286.252 374.995C287.081 374.995 287.752 374.323 287.752 373.495V371.533ZM444.661 373.152C444.661 372.324 443.989 371.652 443.161 371.652C442.332 371.652 441.661 372.324 441.661 373.152V377.007C441.661 377.836 442.332 378.507 443.161 378.507C443.989 378.507 444.661 377.836 444.661 377.007V373.152ZM223.602 377.413C223.602 376.584 222.931 375.913 222.102 375.913C221.274 375.913 220.602 376.584 220.602 377.413V381.566C220.602 382.395 221.274 383.066 222.102 383.066C222.931 383.066 223.602 382.395 223.602 381.566V377.413ZM287.752 381.342C287.752 380.513 287.081 379.842 286.252 379.842C285.424 379.842 284.752 380.513 284.752 381.342V385.266C284.752 386.094 285.424 386.766 286.252 386.766C287.081 386.766 287.752 386.094 287.752 385.266V381.342ZM444.661 384.717C444.661 383.889 443.989 383.217 443.161 383.217C442.332 383.217 441.661 383.889 441.661 384.717V385.145H441.167C440.338 385.145 439.667 385.817 439.667 386.645C439.667 387.473 440.338 388.145 441.167 388.145H443.161C443.989 388.145 444.661 387.473 444.661 386.645V384.717ZM335.5 385.145C334.672 385.145 334 385.817 334 386.645C334 387.473 334.672 388.145 335.5 388.145H337.494C338.322 388.145 338.994 387.473 338.994 386.645C338.994 385.817 338.322 385.145 337.494 385.145H335.5ZM345.469 385.145C344.64 385.145 343.969 385.817 343.969 386.645C343.969 387.473 344.64 388.145 345.469 388.145H349.456C350.285 388.145 350.956 387.473 350.956 386.645C350.956 385.817 350.285 385.145 349.456 385.145H345.469ZM357.431 385.145C356.603 385.145 355.931 385.817 355.931 386.645C355.931 387.473 356.603 388.145 357.431 388.145H361.418C362.247 388.145 362.918 387.473 362.918 386.645C362.918 385.817 362.247 385.145 361.418 385.145H357.431ZM369.393 385.145C368.565 385.145 367.893 385.817 367.893 386.645C367.893 387.473 368.565 388.145 369.393 388.145H373.381C374.209 388.145 374.881 387.473 374.881 386.645C374.881 385.817 374.209 385.145 373.381 385.145H369.393ZM381.356 385.145C380.527 385.145 379.856 385.817 379.856 386.645C379.856 387.473 380.527 388.145 381.356 388.145H385.343C386.171 388.145 386.843 387.473 386.843 386.645C386.843 385.817 386.171 385.145 385.343 385.145H381.356ZM393.318 385.145C392.489 385.145 391.818 385.817 391.818 386.645C391.818 387.473 392.489 388.145 393.318 388.145H397.305C398.134 388.145 398.805 387.473 398.805 386.645C398.805 385.817 398.134 385.145 397.305 385.145H393.318ZM405.28 385.145C404.452 385.145 403.78 385.817 403.78 386.645C403.78 387.473 404.452 388.145 405.28 388.145H409.267C410.096 388.145 410.767 387.473 410.767 386.645C410.767 385.817 410.096 385.145 409.267 385.145H405.28ZM417.242 385.145C416.414 385.145 415.742 385.817 415.742 386.645C415.742 387.473 416.414 388.145 417.242 388.145H421.23C422.058 388.145 422.73 387.473 422.73 386.645C422.73 385.817 422.058 385.145 421.23 385.145H417.242ZM429.205 385.145C428.376 385.145 427.705 385.817 427.705 386.645C427.705 387.473 428.376 388.145 429.205 388.145H433.192C434.02 388.145 434.692 387.473 434.692 386.645C434.692 385.817 434.02 385.145 433.192 385.145H429.205ZM223.602 389.873C223.602 389.044 222.931 388.373 222.102 388.373C221.274 388.373 220.602 389.044 220.602 389.873V394.026C220.602 394.854 221.274 395.526 222.102 395.526C222.931 395.526 223.602 394.854 223.602 394.026V389.873ZM287.752 393.113C287.752 392.285 287.081 391.613 286.252 391.613C285.424 391.613 284.752 392.285 284.752 393.113V397.037C284.752 397.865 285.424 398.537 286.252 398.537C287.081 398.537 287.752 397.865 287.752 397.037V393.113ZM223.602 402.332C223.602 401.504 222.931 400.832 222.102 400.832C221.274 400.832 220.602 401.504 220.602 402.332V406.486C220.602 407.314 221.274 407.986 222.102 407.986C222.931 407.986 223.602 407.314 223.602 406.486V402.332ZM287.752 404.884C287.752 404.056 287.081 403.384 286.252 403.384C285.424 403.384 284.752 404.056 284.752 404.884V408.808C284.752 409.636 285.424 410.308 286.252 410.308C287.081 410.308 287.752 409.636 287.752 408.808V404.884ZM223.602 414.792C223.602 413.964 222.931 413.292 222.102 413.292C221.274 413.292 220.602 413.964 220.602 414.792V415.369H220.046C219.218 415.369 218.546 416.04 218.546 416.869C218.546 417.697 219.218 418.369 220.046 418.369H222.102C222.931 418.369 223.602 417.697 223.602 416.869V414.792ZM287.752 416.655C287.752 415.827 287.081 415.155 286.252 415.155C285.424 415.155 284.752 415.827 284.752 416.655V420.579C284.752 421.407 285.424 422.079 286.252 422.079C287.081 422.079 287.752 421.407 287.752 420.579V416.655ZM183.037 415.369C182.208 415.369 181.537 416.04 181.537 416.869C181.537 417.697 182.208 418.369 183.037 418.369H187.149C187.977 418.369 188.649 417.697 188.649 416.869C188.649 416.04 187.977 415.369 187.149 415.369H183.037ZM195.373 415.369C194.545 415.369 193.873 416.04 193.873 416.869C193.873 417.697 194.545 418.369 195.373 418.369H199.486C200.314 418.369 200.986 417.697 200.986 416.869C200.986 416.04 200.314 415.369 199.486 415.369H195.373ZM207.71 415.369C206.881 415.369 206.21 416.04 206.21 416.869C206.21 417.697 206.881 418.369 207.71 418.369H211.822C212.65 418.369 213.322 417.697 213.322 416.869C213.322 416.04 212.65 415.369 211.822 415.369H207.71ZM287.752 428.426C287.752 427.598 287.081 426.926 286.252 426.926C285.424 426.926 284.752 427.598 284.752 428.426V432.35C284.752 433.178 285.424 433.85 286.252 433.85C287.081 433.85 287.752 433.178 287.752 432.35V428.426ZM287.752 440.197C287.752 439.369 287.081 438.697 286.252 438.697C285.424 438.697 284.752 439.369 284.752 440.197V442.159C284.752 442.987 285.424 443.659 286.252 443.659H288.365C289.194 443.659 289.865 442.987 289.865 442.159C289.865 441.33 289.194 440.659 288.365 440.659H287.752V440.197ZM296.817 440.659C295.989 440.659 295.317 441.33 295.317 442.159C295.317 442.987 295.989 443.659 296.817 443.659H301.043C301.872 443.659 302.543 442.987 302.543 442.159C302.543 441.33 301.872 440.659 301.043 440.659H296.817ZM309.496 440.659C308.667 440.659 307.996 441.33 307.996 442.159C307.996 442.987 308.667 443.659 309.496 443.659H313.722C314.55 443.659 315.222 442.987 315.222 442.159C315.222 441.33 314.55 440.659 313.722 440.659H309.496ZM322.174 440.659C321.346 440.659 320.674 441.33 320.674 442.159C320.674 442.987 321.346 443.659 322.174 443.659H326.4C327.228 443.659 327.9 442.987 327.9 442.159C327.9 441.33 327.228 440.659 326.4 440.659H322.174ZM334.852 440.659C334.024 440.659 333.352 441.33 333.352 442.159C333.352 442.987 334.024 443.659 334.852 443.659H339.078C339.907 443.659 340.578 442.987 340.578 442.159C340.578 441.33 339.907 440.659 339.078 440.659H334.852ZM347.531 440.659C346.702 440.659 346.031 441.33 346.031 442.159C346.031 442.987 346.702 443.659 347.531 443.659H351.757C352.585 443.659 353.257 442.987 353.257 442.159C353.257 441.33 352.585 440.659 351.757 440.659H347.531ZM360.209 440.659C359.38 440.659 358.709 441.33 358.709 442.159C358.709 442.987 359.38 443.659 360.209 443.659H364.435C365.263 443.659 365.935 442.987 365.935 442.159C365.935 441.33 365.263 440.659 364.435 440.659H360.209Z" fill="#3360FF"/>
</svg>
