<svg width="1240" height="655" viewBox="0 0 1240 655" fill="none" xmlns="http://www.w3.org/2000/svg">
<circle cx="282.5" cy="282.5" r="282.5" fill="#3360FF"/>
<mask id="path-2-inside-1" fill="white">
<path d="M970 652.5C970 653.881 968.881 655 967.5 655C966.119 655 965 653.881 965 652.5C965 651.119 966.119 650 967.5 650C968.881 650 970 651.119 970 652.5Z"/>
<path d="M970 607.5C970 608.881 968.881 610 967.5 610C966.119 610 965 608.881 965 607.5C965 606.119 966.119 605 967.5 605C968.881 605 970 606.119 970 607.5Z"/>
<path d="M970 562.5C970 563.881 968.881 565 967.5 565C966.119 565 965 563.881 965 562.5C965 561.119 966.119 560 967.5 560C968.881 560 970 561.119 970 562.5Z"/>
<path d="M970 517.5C970 518.881 968.881 520 967.5 520C966.119 520 965 518.881 965 517.5C965 516.119 966.119 515 967.5 515C968.881 515 970 516.119 970 517.5Z"/>
<path d="M970 472.5C970 473.881 968.881 475 967.5 475C966.119 475 965 473.881 965 472.5C965 471.119 966.119 470 967.5 470C968.881 470 970 471.119 970 472.5Z"/>
<path d="M970 427.5C970 428.881 968.881 430 967.5 430C966.119 430 965 428.881 965 427.5C965 426.119 966.119 425 967.5 425C968.881 425 970 426.119 970 427.5Z"/>
<path d="M970 382.5C970 383.881 968.881 385 967.5 385C966.119 385 965 383.881 965 382.5C965 381.119 966.119 380 967.5 380C968.881 380 970 381.119 970 382.5Z"/>
<path d="M1015 652.5C1015 653.881 1013.88 655 1012.5 655C1011.12 655 1010 653.881 1010 652.5C1010 651.119 1011.12 650 1012.5 650C1013.88 650 1015 651.119 1015 652.5Z"/>
<path d="M1015 607.5C1015 608.881 1013.88 610 1012.5 610C1011.12 610 1010 608.881 1010 607.5C1010 606.119 1011.12 605 1012.5 605C1013.88 605 1015 606.119 1015 607.5Z"/>
<path d="M1015 562.5C1015 563.881 1013.88 565 1012.5 565C1011.12 565 1010 563.881 1010 562.5C1010 561.119 1011.12 560 1012.5 560C1013.88 560 1015 561.119 1015 562.5Z"/>
<path d="M1015 517.5C1015 518.881 1013.88 520 1012.5 520C1011.12 520 1010 518.881 1010 517.5C1010 516.119 1011.12 515 1012.5 515C1013.88 515 1015 516.119 1015 517.5Z"/>
<path d="M1015 472.5C1015 473.881 1013.88 475 1012.5 475C1011.12 475 1010 473.881 1010 472.5C1010 471.119 1011.12 470 1012.5 470C1013.88 470 1015 471.119 1015 472.5Z"/>
<path d="M1015 427.5C1015 428.881 1013.88 430 1012.5 430C1011.12 430 1010 428.881 1010 427.5C1010 426.119 1011.12 425 1012.5 425C1013.88 425 1015 426.119 1015 427.5Z"/>
<path d="M1015 382.5C1015 383.881 1013.88 385 1012.5 385C1011.12 385 1010 383.881 1010 382.5C1010 381.119 1011.12 380 1012.5 380C1013.88 380 1015 381.119 1015 382.5Z"/>
<path d="M1060 652.5C1060 653.881 1058.88 655 1057.5 655C1056.12 655 1055 653.881 1055 652.5C1055 651.119 1056.12 650 1057.5 650C1058.88 650 1060 651.119 1060 652.5Z"/>
<path d="M1060 607.5C1060 608.881 1058.88 610 1057.5 610C1056.12 610 1055 608.881 1055 607.5C1055 606.119 1056.12 605 1057.5 605C1058.88 605 1060 606.119 1060 607.5Z"/>
<path d="M1060 562.5C1060 563.881 1058.88 565 1057.5 565C1056.12 565 1055 563.881 1055 562.5C1055 561.119 1056.12 560 1057.5 560C1058.88 560 1060 561.119 1060 562.5Z"/>
<path d="M1060 517.5C1060 518.881 1058.88 520 1057.5 520C1056.12 520 1055 518.881 1055 517.5C1055 516.119 1056.12 515 1057.5 515C1058.88 515 1060 516.119 1060 517.5Z"/>
<path d="M1060 472.5C1060 473.881 1058.88 475 1057.5 475C1056.12 475 1055 473.881 1055 472.5C1055 471.119 1056.12 470 1057.5 470C1058.88 470 1060 471.119 1060 472.5Z"/>
<path d="M1060 427.5C1060 428.881 1058.88 430 1057.5 430C1056.12 430 1055 428.881 1055 427.5C1055 426.119 1056.12 425 1057.5 425C1058.88 425 1060 426.119 1060 427.5Z"/>
<path d="M1060 382.5C1060 383.881 1058.88 385 1057.5 385C1056.12 385 1055 383.881 1055 382.5C1055 381.119 1056.12 380 1057.5 380C1058.88 380 1060 381.119 1060 382.5Z"/>
<path d="M1105 652.5C1105 653.881 1103.88 655 1102.5 655C1101.12 655 1100 653.881 1100 652.5C1100 651.119 1101.12 650 1102.5 650C1103.88 650 1105 651.119 1105 652.5Z"/>
<path d="M1105 607.5C1105 608.881 1103.88 610 1102.5 610C1101.12 610 1100 608.881 1100 607.5C1100 606.119 1101.12 605 1102.5 605C1103.88 605 1105 606.119 1105 607.5Z"/>
<path d="M1105 562.5C1105 563.881 1103.88 565 1102.5 565C1101.12 565 1100 563.881 1100 562.5C1100 561.119 1101.12 560 1102.5 560C1103.88 560 1105 561.119 1105 562.5Z"/>
<path d="M1105 517.5C1105 518.881 1103.88 520 1102.5 520C1101.12 520 1100 518.881 1100 517.5C1100 516.119 1101.12 515 1102.5 515C1103.88 515 1105 516.119 1105 517.5Z"/>
<path d="M1105 472.5C1105 473.881 1103.88 475 1102.5 475C1101.12 475 1100 473.881 1100 472.5C1100 471.119 1101.12 470 1102.5 470C1103.88 470 1105 471.119 1105 472.5Z"/>
<path d="M1105 427.5C1105 428.881 1103.88 430 1102.5 430C1101.12 430 1100 428.881 1100 427.5C1100 426.119 1101.12 425 1102.5 425C1103.88 425 1105 426.119 1105 427.5Z"/>
<path d="M1105 382.5C1105 383.881 1103.88 385 1102.5 385C1101.12 385 1100 383.881 1100 382.5C1100 381.119 1101.12 380 1102.5 380C1103.88 380 1105 381.119 1105 382.5Z"/>
<path d="M1150 652.5C1150 653.881 1148.88 655 1147.5 655C1146.12 655 1145 653.881 1145 652.5C1145 651.119 1146.12 650 1147.5 650C1148.88 650 1150 651.119 1150 652.5Z"/>
<path d="M1150 607.5C1150 608.881 1148.88 610 1147.5 610C1146.12 610 1145 608.881 1145 607.5C1145 606.119 1146.12 605 1147.5 605C1148.88 605 1150 606.119 1150 607.5Z"/>
<path d="M1150 562.5C1150 563.881 1148.88 565 1147.5 565C1146.12 565 1145 563.881 1145 562.5C1145 561.119 1146.12 560 1147.5 560C1148.88 560 1150 561.119 1150 562.5Z"/>
<path d="M1150 517.5C1150 518.881 1148.88 520 1147.5 520C1146.12 520 1145 518.881 1145 517.5C1145 516.119 1146.12 515 1147.5 515C1148.88 515 1150 516.119 1150 517.5Z"/>
<path d="M1150 472.5C1150 473.881 1148.88 475 1147.5 475C1146.12 475 1145 473.881 1145 472.5C1145 471.119 1146.12 470 1147.5 470C1148.88 470 1150 471.119 1150 472.5Z"/>
<path d="M1150 427.5C1150 428.881 1148.88 430 1147.5 430C1146.12 430 1145 428.881 1145 427.5C1145 426.119 1146.12 425 1147.5 425C1148.88 425 1150 426.119 1150 427.5Z"/>
<path d="M1150 382.5C1150 383.881 1148.88 385 1147.5 385C1146.12 385 1145 383.881 1145 382.5C1145 381.119 1146.12 380 1147.5 380C1148.88 380 1150 381.119 1150 382.5Z"/>
<path d="M1195 652.5C1195 653.881 1193.88 655 1192.5 655C1191.12 655 1190 653.881 1190 652.5C1190 651.119 1191.12 650 1192.5 650C1193.88 650 1195 651.119 1195 652.5Z"/>
<path d="M1195 607.5C1195 608.881 1193.88 610 1192.5 610C1191.12 610 1190 608.881 1190 607.5C1190 606.119 1191.12 605 1192.5 605C1193.88 605 1195 606.119 1195 607.5Z"/>
<path d="M1195 562.5C1195 563.881 1193.88 565 1192.5 565C1191.12 565 1190 563.881 1190 562.5C1190 561.119 1191.12 560 1192.5 560C1193.88 560 1195 561.119 1195 562.5Z"/>
<path d="M1195 517.5C1195 518.881 1193.88 520 1192.5 520C1191.12 520 1190 518.881 1190 517.5C1190 516.119 1191.12 515 1192.5 515C1193.88 515 1195 516.119 1195 517.5Z"/>
<path d="M1195 472.5C1195 473.881 1193.88 475 1192.5 475C1191.12 475 1190 473.881 1190 472.5C1190 471.119 1191.12 470 1192.5 470C1193.88 470 1195 471.119 1195 472.5Z"/>
<path d="M1195 427.5C1195 428.881 1193.88 430 1192.5 430C1191.12 430 1190 428.881 1190 427.5C1190 426.119 1191.12 425 1192.5 425C1193.88 425 1195 426.119 1195 427.5Z"/>
<path d="M1195 382.5C1195 383.881 1193.88 385 1192.5 385C1191.12 385 1190 383.881 1190 382.5C1190 381.119 1191.12 380 1192.5 380C1193.88 380 1195 381.119 1195 382.5Z"/>
<path d="M1240 652.5C1240 653.881 1238.88 655 1237.5 655C1236.12 655 1235 653.881 1235 652.5C1235 651.119 1236.12 650 1237.5 650C1238.88 650 1240 651.119 1240 652.5Z"/>
<path d="M1240 607.5C1240 608.881 1238.88 610 1237.5 610C1236.12 610 1235 608.881 1235 607.5C1235 606.119 1236.12 605 1237.5 605C1238.88 605 1240 606.119 1240 607.5Z"/>
<path d="M1240 562.5C1240 563.881 1238.88 565 1237.5 565C1236.12 565 1235 563.881 1235 562.5C1235 561.119 1236.12 560 1237.5 560C1238.88 560 1240 561.119 1240 562.5Z"/>
<path d="M1240 517.5C1240 518.881 1238.88 520 1237.5 520C1236.12 520 1235 518.881 1235 517.5C1235 516.119 1236.12 515 1237.5 515C1238.88 515 1240 516.119 1240 517.5Z"/>
<path d="M1240 472.5C1240 473.881 1238.88 475 1237.5 475C1236.12 475 1235 473.881 1235 472.5C1235 471.119 1236.12 470 1237.5 470C1238.88 470 1240 471.119 1240 472.5Z"/>
<path d="M1240 427.5C1240 428.881 1238.88 430 1237.5 430C1236.12 430 1235 428.881 1235 427.5C1235 426.119 1236.12 425 1237.5 425C1238.88 425 1240 426.119 1240 427.5Z"/>
<path d="M1240 382.5C1240 383.881 1238.88 385 1237.5 385C1236.12 385 1235 383.881 1235 382.5C1235 381.119 1236.12 380 1237.5 380C1238.88 380 1240 381.119 1240 382.5Z"/>
</mask>
<path d="M970 652.5C970 653.881 968.881 655 967.5 655C966.119 655 965 653.881 965 652.5C965 651.119 966.119 650 967.5 650C968.881 650 970 651.119 970 652.5Z" stroke="#3360FF" stroke-width="2" mask="url(#path-2-inside-1)"/>
<path d="M970 607.5C970 608.881 968.881 610 967.5 610C966.119 610 965 608.881 965 607.5C965 606.119 966.119 605 967.5 605C968.881 605 970 606.119 970 607.5Z" stroke="#3360FF" stroke-width="2" mask="url(#path-2-inside-1)"/>
<path d="M970 562.5C970 563.881 968.881 565 967.5 565C966.119 565 965 563.881 965 562.5C965 561.119 966.119 560 967.5 560C968.881 560 970 561.119 970 562.5Z" stroke="#3360FF" stroke-width="2" mask="url(#path-2-inside-1)"/>
<path d="M970 517.5C970 518.881 968.881 520 967.5 520C966.119 520 965 518.881 965 517.5C965 516.119 966.119 515 967.5 515C968.881 515 970 516.119 970 517.5Z" stroke="#3360FF" stroke-width="2" mask="url(#path-2-inside-1)"/>
<path d="M970 472.5C970 473.881 968.881 475 967.5 475C966.119 475 965 473.881 965 472.5C965 471.119 966.119 470 967.5 470C968.881 470 970 471.119 970 472.5Z" stroke="#3360FF" stroke-width="2" mask="url(#path-2-inside-1)"/>
<path d="M970 427.5C970 428.881 968.881 430 967.5 430C966.119 430 965 428.881 965 427.5C965 426.119 966.119 425 967.5 425C968.881 425 970 426.119 970 427.5Z" stroke="#3360FF" stroke-width="2" mask="url(#path-2-inside-1)"/>
<path d="M970 382.5C970 383.881 968.881 385 967.5 385C966.119 385 965 383.881 965 382.5C965 381.119 966.119 380 967.5 380C968.881 380 970 381.119 970 382.5Z" stroke="#3360FF" stroke-width="2" mask="url(#path-2-inside-1)"/>
<path d="M1015 652.5C1015 653.881 1013.88 655 1012.5 655C1011.12 655 1010 653.881 1010 652.5C1010 651.119 1011.12 650 1012.5 650C1013.88 650 1015 651.119 1015 652.5Z" stroke="#3360FF" stroke-width="2" mask="url(#path-2-inside-1)"/>
<path d="M1015 607.5C1015 608.881 1013.88 610 1012.5 610C1011.12 610 1010 608.881 1010 607.5C1010 606.119 1011.12 605 1012.5 605C1013.88 605 1015 606.119 1015 607.5Z" stroke="#3360FF" stroke-width="2" mask="url(#path-2-inside-1)"/>
<path d="M1015 562.5C1015 563.881 1013.88 565 1012.5 565C1011.12 565 1010 563.881 1010 562.5C1010 561.119 1011.12 560 1012.5 560C1013.88 560 1015 561.119 1015 562.5Z" stroke="#3360FF" stroke-width="2" mask="url(#path-2-inside-1)"/>
<path d="M1015 517.5C1015 518.881 1013.88 520 1012.5 520C1011.12 520 1010 518.881 1010 517.5C1010 516.119 1011.12 515 1012.5 515C1013.88 515 1015 516.119 1015 517.5Z" stroke="#3360FF" stroke-width="2" mask="url(#path-2-inside-1)"/>
<path d="M1015 472.5C1015 473.881 1013.88 475 1012.5 475C1011.12 475 1010 473.881 1010 472.5C1010 471.119 1011.12 470 1012.5 470C1013.88 470 1015 471.119 1015 472.5Z" stroke="#3360FF" stroke-width="2" mask="url(#path-2-inside-1)"/>
<path d="M1015 427.5C1015 428.881 1013.88 430 1012.5 430C1011.12 430 1010 428.881 1010 427.5C1010 426.119 1011.12 425 1012.5 425C1013.88 425 1015 426.119 1015 427.5Z" stroke="#3360FF" stroke-width="2" mask="url(#path-2-inside-1)"/>
<path d="M1015 382.5C1015 383.881 1013.88 385 1012.5 385C1011.12 385 1010 383.881 1010 382.5C1010 381.119 1011.12 380 1012.5 380C1013.88 380 1015 381.119 1015 382.5Z" stroke="#3360FF" stroke-width="2" mask="url(#path-2-inside-1)"/>
<path d="M1060 652.5C1060 653.881 1058.88 655 1057.5 655C1056.12 655 1055 653.881 1055 652.5C1055 651.119 1056.12 650 1057.5 650C1058.88 650 1060 651.119 1060 652.5Z" stroke="#3360FF" stroke-width="2" mask="url(#path-2-inside-1)"/>
<path d="M1060 607.5C1060 608.881 1058.88 610 1057.5 610C1056.12 610 1055 608.881 1055 607.5C1055 606.119 1056.12 605 1057.5 605C1058.88 605 1060 606.119 1060 607.5Z" stroke="#3360FF" stroke-width="2" mask="url(#path-2-inside-1)"/>
<path d="M1060 562.5C1060 563.881 1058.88 565 1057.5 565C1056.12 565 1055 563.881 1055 562.5C1055 561.119 1056.12 560 1057.5 560C1058.88 560 1060 561.119 1060 562.5Z" stroke="#3360FF" stroke-width="2" mask="url(#path-2-inside-1)"/>
<path d="M1060 517.5C1060 518.881 1058.88 520 1057.5 520C1056.12 520 1055 518.881 1055 517.5C1055 516.119 1056.12 515 1057.5 515C1058.88 515 1060 516.119 1060 517.5Z" stroke="#3360FF" stroke-width="2" mask="url(#path-2-inside-1)"/>
<path d="M1060 472.5C1060 473.881 1058.88 475 1057.5 475C1056.12 475 1055 473.881 1055 472.5C1055 471.119 1056.12 470 1057.5 470C1058.88 470 1060 471.119 1060 472.5Z" stroke="#3360FF" stroke-width="2" mask="url(#path-2-inside-1)"/>
<path d="M1060 427.5C1060 428.881 1058.88 430 1057.5 430C1056.12 430 1055 428.881 1055 427.5C1055 426.119 1056.12 425 1057.5 425C1058.88 425 1060 426.119 1060 427.5Z" stroke="#3360FF" stroke-width="2" mask="url(#path-2-inside-1)"/>
<path d="M1060 382.5C1060 383.881 1058.88 385 1057.5 385C1056.12 385 1055 383.881 1055 382.5C1055 381.119 1056.12 380 1057.5 380C1058.88 380 1060 381.119 1060 382.5Z" stroke="#3360FF" stroke-width="2" mask="url(#path-2-inside-1)"/>
<path d="M1105 652.5C1105 653.881 1103.88 655 1102.5 655C1101.12 655 1100 653.881 1100 652.5C1100 651.119 1101.12 650 1102.5 650C1103.88 650 1105 651.119 1105 652.5Z" stroke="#3360FF" stroke-width="2" mask="url(#path-2-inside-1)"/>
<path d="M1105 607.5C1105 608.881 1103.88 610 1102.5 610C1101.12 610 1100 608.881 1100 607.5C1100 606.119 1101.12 605 1102.5 605C1103.88 605 1105 606.119 1105 607.5Z" stroke="#3360FF" stroke-width="2" mask="url(#path-2-inside-1)"/>
<path d="M1105 562.5C1105 563.881 1103.88 565 1102.5 565C1101.12 565 1100 563.881 1100 562.5C1100 561.119 1101.12 560 1102.5 560C1103.88 560 1105 561.119 1105 562.5Z" stroke="#3360FF" stroke-width="2" mask="url(#path-2-inside-1)"/>
<path d="M1105 517.5C1105 518.881 1103.88 520 1102.5 520C1101.12 520 1100 518.881 1100 517.5C1100 516.119 1101.12 515 1102.5 515C1103.88 515 1105 516.119 1105 517.5Z" stroke="#3360FF" stroke-width="2" mask="url(#path-2-inside-1)"/>
<path d="M1105 472.5C1105 473.881 1103.88 475 1102.5 475C1101.12 475 1100 473.881 1100 472.5C1100 471.119 1101.12 470 1102.5 470C1103.88 470 1105 471.119 1105 472.5Z" stroke="#3360FF" stroke-width="2" mask="url(#path-2-inside-1)"/>
<path d="M1105 427.5C1105 428.881 1103.88 430 1102.5 430C1101.12 430 1100 428.881 1100 427.5C1100 426.119 1101.12 425 1102.5 425C1103.88 425 1105 426.119 1105 427.5Z" stroke="#3360FF" stroke-width="2" mask="url(#path-2-inside-1)"/>
<path d="M1105 382.5C1105 383.881 1103.88 385 1102.5 385C1101.12 385 1100 383.881 1100 382.5C1100 381.119 1101.12 380 1102.5 380C1103.88 380 1105 381.119 1105 382.5Z" stroke="#3360FF" stroke-width="2" mask="url(#path-2-inside-1)"/>
<path d="M1150 652.5C1150 653.881 1148.88 655 1147.5 655C1146.12 655 1145 653.881 1145 652.5C1145 651.119 1146.12 650 1147.5 650C1148.88 650 1150 651.119 1150 652.5Z" stroke="#3360FF" stroke-width="2" mask="url(#path-2-inside-1)"/>
<path d="M1150 607.5C1150 608.881 1148.88 610 1147.5 610C1146.12 610 1145 608.881 1145 607.5C1145 606.119 1146.12 605 1147.5 605C1148.88 605 1150 606.119 1150 607.5Z" stroke="#3360FF" stroke-width="2" mask="url(#path-2-inside-1)"/>
<path d="M1150 562.5C1150 563.881 1148.88 565 1147.5 565C1146.12 565 1145 563.881 1145 562.5C1145 561.119 1146.12 560 1147.5 560C1148.88 560 1150 561.119 1150 562.5Z" stroke="#3360FF" stroke-width="2" mask="url(#path-2-inside-1)"/>
<path d="M1150 517.5C1150 518.881 1148.88 520 1147.5 520C1146.12 520 1145 518.881 1145 517.5C1145 516.119 1146.12 515 1147.5 515C1148.88 515 1150 516.119 1150 517.5Z" stroke="#3360FF" stroke-width="2" mask="url(#path-2-inside-1)"/>
<path d="M1150 472.5C1150 473.881 1148.88 475 1147.5 475C1146.12 475 1145 473.881 1145 472.5C1145 471.119 1146.12 470 1147.5 470C1148.88 470 1150 471.119 1150 472.5Z" stroke="#3360FF" stroke-width="2" mask="url(#path-2-inside-1)"/>
<path d="M1150 427.5C1150 428.881 1148.88 430 1147.5 430C1146.12 430 1145 428.881 1145 427.5C1145 426.119 1146.12 425 1147.5 425C1148.88 425 1150 426.119 1150 427.5Z" stroke="#3360FF" stroke-width="2" mask="url(#path-2-inside-1)"/>
<path d="M1150 382.5C1150 383.881 1148.88 385 1147.5 385C1146.12 385 1145 383.881 1145 382.5C1145 381.119 1146.12 380 1147.5 380C1148.88 380 1150 381.119 1150 382.5Z" stroke="#3360FF" stroke-width="2" mask="url(#path-2-inside-1)"/>
<path d="M1195 652.5C1195 653.881 1193.88 655 1192.5 655C1191.12 655 1190 653.881 1190 652.5C1190 651.119 1191.12 650 1192.5 650C1193.88 650 1195 651.119 1195 652.5Z" stroke="#3360FF" stroke-width="2" mask="url(#path-2-inside-1)"/>
<path d="M1195 607.5C1195 608.881 1193.88 610 1192.5 610C1191.12 610 1190 608.881 1190 607.5C1190 606.119 1191.12 605 1192.5 605C1193.88 605 1195 606.119 1195 607.5Z" stroke="#3360FF" stroke-width="2" mask="url(#path-2-inside-1)"/>
<path d="M1195 562.5C1195 563.881 1193.88 565 1192.5 565C1191.12 565 1190 563.881 1190 562.5C1190 561.119 1191.12 560 1192.5 560C1193.88 560 1195 561.119 1195 562.5Z" stroke="#3360FF" stroke-width="2" mask="url(#path-2-inside-1)"/>
<path d="M1195 517.5C1195 518.881 1193.88 520 1192.5 520C1191.12 520 1190 518.881 1190 517.5C1190 516.119 1191.12 515 1192.5 515C1193.88 515 1195 516.119 1195 517.5Z" stroke="#3360FF" stroke-width="2" mask="url(#path-2-inside-1)"/>
<path d="M1195 472.5C1195 473.881 1193.88 475 1192.5 475C1191.12 475 1190 473.881 1190 472.5C1190 471.119 1191.12 470 1192.5 470C1193.88 470 1195 471.119 1195 472.5Z" stroke="#3360FF" stroke-width="2" mask="url(#path-2-inside-1)"/>
<path d="M1195 427.5C1195 428.881 1193.88 430 1192.5 430C1191.12 430 1190 428.881 1190 427.5C1190 426.119 1191.12 425 1192.5 425C1193.88 425 1195 426.119 1195 427.5Z" stroke="#3360FF" stroke-width="2" mask="url(#path-2-inside-1)"/>
<path d="M1195 382.5C1195 383.881 1193.88 385 1192.5 385C1191.12 385 1190 383.881 1190 382.5C1190 381.119 1191.12 380 1192.5 380C1193.88 380 1195 381.119 1195 382.5Z" stroke="#3360FF" stroke-width="2" mask="url(#path-2-inside-1)"/>
<path d="M1240 652.5C1240 653.881 1238.88 655 1237.5 655C1236.12 655 1235 653.881 1235 652.5C1235 651.119 1236.12 650 1237.5 650C1238.88 650 1240 651.119 1240 652.5Z" stroke="#3360FF" stroke-width="2" mask="url(#path-2-inside-1)"/>
<path d="M1240 607.5C1240 608.881 1238.88 610 1237.5 610C1236.12 610 1235 608.881 1235 607.5C1235 606.119 1236.12 605 1237.5 605C1238.88 605 1240 606.119 1240 607.5Z" stroke="#3360FF" stroke-width="2" mask="url(#path-2-inside-1)"/>
<path d="M1240 562.5C1240 563.881 1238.88 565 1237.5 565C1236.12 565 1235 563.881 1235 562.5C1235 561.119 1236.12 560 1237.5 560C1238.88 560 1240 561.119 1240 562.5Z" stroke="#3360FF" stroke-width="2" mask="url(#path-2-inside-1)"/>
<path d="M1240 517.5C1240 518.881 1238.88 520 1237.5 520C1236.12 520 1235 518.881 1235 517.5C1235 516.119 1236.12 515 1237.5 515C1238.88 515 1240 516.119 1240 517.5Z" stroke="#3360FF" stroke-width="2" mask="url(#path-2-inside-1)"/>
<path d="M1240 472.5C1240 473.881 1238.88 475 1237.5 475C1236.12 475 1235 473.881 1235 472.5C1235 471.119 1236.12 470 1237.5 470C1238.88 470 1240 471.119 1240 472.5Z" stroke="#3360FF" stroke-width="2" mask="url(#path-2-inside-1)"/>
<path d="M1240 427.5C1240 428.881 1238.88 430 1237.5 430C1236.12 430 1235 428.881 1235 427.5C1235 426.119 1236.12 425 1237.5 425C1238.88 425 1240 426.119 1240 427.5Z" stroke="#3360FF" stroke-width="2" mask="url(#path-2-inside-1)"/>
<path d="M1240 382.5C1240 383.881 1238.88 385 1237.5 385C1236.12 385 1235 383.881 1235 382.5C1235 381.119 1236.12 380 1237.5 380C1238.88 380 1240 381.119 1240 382.5Z" stroke="#3360FF" stroke-width="2" mask="url(#path-2-inside-1)"/>
</svg>
