<svg width="1340" height="1107" viewBox="0 0 1340 1107" fill="none" xmlns="http://www.w3.org/2000/svg">
<mask id="path-1-inside-1" fill="white">
<path d="M630 1104.5C630 1105.88 628.881 1107 627.5 1107C626.119 1107 625 1105.88 625 1104.5C625 1103.12 626.119 1102 627.5 1102C628.881 1102 630 1103.12 630 1104.5Z"/>
<path d="M630 1059.5C630 1060.88 628.881 1062 627.5 1062C626.119 1062 625 1060.88 625 1059.5C625 1058.12 626.119 1057 627.5 1057C628.881 1057 630 1058.12 630 1059.5Z"/>
<path d="M630 1014.5C630 1015.88 628.881 1017 627.5 1017C626.119 1017 625 1015.88 625 1014.5C625 1013.12 626.119 1012 627.5 1012C628.881 1012 630 1013.12 630 1014.5Z"/>
<path d="M630 969.5C630 970.881 628.881 972 627.5 972C626.119 972 625 970.881 625 969.5C625 968.119 626.119 967 627.5 967C628.881 967 630 968.119 630 969.5Z"/>
<path d="M630 924.5C630 925.881 628.881 927 627.5 927C626.119 927 625 925.881 625 924.5C625 923.119 626.119 922 627.5 922C628.881 922 630 923.119 630 924.5Z"/>
<path d="M630 879.5C630 880.881 628.881 882 627.5 882C626.119 882 625 880.881 625 879.5C625 878.119 626.119 877 627.5 877C628.881 877 630 878.119 630 879.5Z"/>
<path d="M630 834.5C630 835.881 628.881 837 627.5 837C626.119 837 625 835.881 625 834.5C625 833.119 626.119 832 627.5 832C628.881 832 630 833.119 630 834.5Z"/>
<path d="M675 1104.5C675 1105.88 673.881 1107 672.5 1107C671.119 1107 670 1105.88 670 1104.5C670 1103.12 671.119 1102 672.5 1102C673.881 1102 675 1103.12 675 1104.5Z"/>
<path d="M675 1059.5C675 1060.88 673.881 1062 672.5 1062C671.119 1062 670 1060.88 670 1059.5C670 1058.12 671.119 1057 672.5 1057C673.881 1057 675 1058.12 675 1059.5Z"/>
<path d="M675 1014.5C675 1015.88 673.881 1017 672.5 1017C671.119 1017 670 1015.88 670 1014.5C670 1013.12 671.119 1012 672.5 1012C673.881 1012 675 1013.12 675 1014.5Z"/>
<path d="M675 969.5C675 970.881 673.881 972 672.5 972C671.119 972 670 970.881 670 969.5C670 968.119 671.119 967 672.5 967C673.881 967 675 968.119 675 969.5Z"/>
<path d="M675 924.5C675 925.881 673.881 927 672.5 927C671.119 927 670 925.881 670 924.5C670 923.119 671.119 922 672.5 922C673.881 922 675 923.119 675 924.5Z"/>
<path d="M675 879.5C675 880.881 673.881 882 672.5 882C671.119 882 670 880.881 670 879.5C670 878.119 671.119 877 672.5 877C673.881 877 675 878.119 675 879.5Z"/>
<path d="M675 834.5C675 835.881 673.881 837 672.5 837C671.119 837 670 835.881 670 834.5C670 833.119 671.119 832 672.5 832C673.881 832 675 833.119 675 834.5Z"/>
<path d="M720 1104.5C720 1105.88 718.881 1107 717.5 1107C716.119 1107 715 1105.88 715 1104.5C715 1103.12 716.119 1102 717.5 1102C718.881 1102 720 1103.12 720 1104.5Z"/>
<path d="M720 1059.5C720 1060.88 718.881 1062 717.5 1062C716.119 1062 715 1060.88 715 1059.5C715 1058.12 716.119 1057 717.5 1057C718.881 1057 720 1058.12 720 1059.5Z"/>
<path d="M720 1014.5C720 1015.88 718.881 1017 717.5 1017C716.119 1017 715 1015.88 715 1014.5C715 1013.12 716.119 1012 717.5 1012C718.881 1012 720 1013.12 720 1014.5Z"/>
<path d="M720 969.5C720 970.881 718.881 972 717.5 972C716.119 972 715 970.881 715 969.5C715 968.119 716.119 967 717.5 967C718.881 967 720 968.119 720 969.5Z"/>
<path d="M720 924.5C720 925.881 718.881 927 717.5 927C716.119 927 715 925.881 715 924.5C715 923.119 716.119 922 717.5 922C718.881 922 720 923.119 720 924.5Z"/>
<path d="M720 879.5C720 880.881 718.881 882 717.5 882C716.119 882 715 880.881 715 879.5C715 878.119 716.119 877 717.5 877C718.881 877 720 878.119 720 879.5Z"/>
<path d="M720 834.5C720 835.881 718.881 837 717.5 837C716.119 837 715 835.881 715 834.5C715 833.119 716.119 832 717.5 832C718.881 832 720 833.119 720 834.5Z"/>
<path d="M765 1104.5C765 1105.88 763.881 1107 762.5 1107C761.119 1107 760 1105.88 760 1104.5C760 1103.12 761.119 1102 762.5 1102C763.881 1102 765 1103.12 765 1104.5Z"/>
<path d="M765 1059.5C765 1060.88 763.881 1062 762.5 1062C761.119 1062 760 1060.88 760 1059.5C760 1058.12 761.119 1057 762.5 1057C763.881 1057 765 1058.12 765 1059.5Z"/>
<path d="M765 1014.5C765 1015.88 763.881 1017 762.5 1017C761.119 1017 760 1015.88 760 1014.5C760 1013.12 761.119 1012 762.5 1012C763.881 1012 765 1013.12 765 1014.5Z"/>
<path d="M765 969.5C765 970.881 763.881 972 762.5 972C761.119 972 760 970.881 760 969.5C760 968.119 761.119 967 762.5 967C763.881 967 765 968.119 765 969.5Z"/>
<path d="M765 924.5C765 925.881 763.881 927 762.5 927C761.119 927 760 925.881 760 924.5C760 923.119 761.119 922 762.5 922C763.881 922 765 923.119 765 924.5Z"/>
<path d="M765 879.5C765 880.881 763.881 882 762.5 882C761.119 882 760 880.881 760 879.5C760 878.119 761.119 877 762.5 877C763.881 877 765 878.119 765 879.5Z"/>
<path d="M765 834.5C765 835.881 763.881 837 762.5 837C761.119 837 760 835.881 760 834.5C760 833.119 761.119 832 762.5 832C763.881 832 765 833.119 765 834.5Z"/>
<path d="M810 1104.5C810 1105.88 808.881 1107 807.5 1107C806.119 1107 805 1105.88 805 1104.5C805 1103.12 806.119 1102 807.5 1102C808.881 1102 810 1103.12 810 1104.5Z"/>
<path d="M810 1059.5C810 1060.88 808.881 1062 807.5 1062C806.119 1062 805 1060.88 805 1059.5C805 1058.12 806.119 1057 807.5 1057C808.881 1057 810 1058.12 810 1059.5Z"/>
<path d="M810 1014.5C810 1015.88 808.881 1017 807.5 1017C806.119 1017 805 1015.88 805 1014.5C805 1013.12 806.119 1012 807.5 1012C808.881 1012 810 1013.12 810 1014.5Z"/>
<path d="M810 969.5C810 970.881 808.881 972 807.5 972C806.119 972 805 970.881 805 969.5C805 968.119 806.119 967 807.5 967C808.881 967 810 968.119 810 969.5Z"/>
<path d="M810 924.5C810 925.881 808.881 927 807.5 927C806.119 927 805 925.881 805 924.5C805 923.119 806.119 922 807.5 922C808.881 922 810 923.119 810 924.5Z"/>
<path d="M810 879.5C810 880.881 808.881 882 807.5 882C806.119 882 805 880.881 805 879.5C805 878.119 806.119 877 807.5 877C808.881 877 810 878.119 810 879.5Z"/>
<path d="M810 834.5C810 835.881 808.881 837 807.5 837C806.119 837 805 835.881 805 834.5C805 833.119 806.119 832 807.5 832C808.881 832 810 833.119 810 834.5Z"/>
<path d="M855 1104.5C855 1105.88 853.881 1107 852.5 1107C851.119 1107 850 1105.88 850 1104.5C850 1103.12 851.119 1102 852.5 1102C853.881 1102 855 1103.12 855 1104.5Z"/>
<path d="M855 1059.5C855 1060.88 853.881 1062 852.5 1062C851.119 1062 850 1060.88 850 1059.5C850 1058.12 851.119 1057 852.5 1057C853.881 1057 855 1058.12 855 1059.5Z"/>
<path d="M855 1014.5C855 1015.88 853.881 1017 852.5 1017C851.119 1017 850 1015.88 850 1014.5C850 1013.12 851.119 1012 852.5 1012C853.881 1012 855 1013.12 855 1014.5Z"/>
<path d="M855 969.5C855 970.881 853.881 972 852.5 972C851.119 972 850 970.881 850 969.5C850 968.119 851.119 967 852.5 967C853.881 967 855 968.119 855 969.5Z"/>
<path d="M855 924.5C855 925.881 853.881 927 852.5 927C851.119 927 850 925.881 850 924.5C850 923.119 851.119 922 852.5 922C853.881 922 855 923.119 855 924.5Z"/>
<path d="M855 879.5C855 880.881 853.881 882 852.5 882C851.119 882 850 880.881 850 879.5C850 878.119 851.119 877 852.5 877C853.881 877 855 878.119 855 879.5Z"/>
<path d="M855 834.5C855 835.881 853.881 837 852.5 837C851.119 837 850 835.881 850 834.5C850 833.119 851.119 832 852.5 832C853.881 832 855 833.119 855 834.5Z"/>
<path d="M900 1104.5C900 1105.88 898.881 1107 897.5 1107C896.119 1107 895 1105.88 895 1104.5C895 1103.12 896.119 1102 897.5 1102C898.881 1102 900 1103.12 900 1104.5Z"/>
<path d="M900 1059.5C900 1060.88 898.881 1062 897.5 1062C896.119 1062 895 1060.88 895 1059.5C895 1058.12 896.119 1057 897.5 1057C898.881 1057 900 1058.12 900 1059.5Z"/>
<path d="M900 1014.5C900 1015.88 898.881 1017 897.5 1017C896.119 1017 895 1015.88 895 1014.5C895 1013.12 896.119 1012 897.5 1012C898.881 1012 900 1013.12 900 1014.5Z"/>
<path d="M900 969.5C900 970.881 898.881 972 897.5 972C896.119 972 895 970.881 895 969.5C895 968.119 896.119 967 897.5 967C898.881 967 900 968.119 900 969.5Z"/>
<path d="M900 924.5C900 925.881 898.881 927 897.5 927C896.119 927 895 925.881 895 924.5C895 923.119 896.119 922 897.5 922C898.881 922 900 923.119 900 924.5Z"/>
<path d="M900 879.5C900 880.881 898.881 882 897.5 882C896.119 882 895 880.881 895 879.5C895 878.119 896.119 877 897.5 877C898.881 877 900 878.119 900 879.5Z"/>
<path d="M900 834.5C900 835.881 898.881 837 897.5 837C896.119 837 895 835.881 895 834.5C895 833.119 896.119 832 897.5 832C898.881 832 900 833.119 900 834.5Z"/>
</mask>
<path d="M630 1104.5C630 1105.88 628.881 1107 627.5 1107C626.119 1107 625 1105.88 625 1104.5C625 1103.12 626.119 1102 627.5 1102C628.881 1102 630 1103.12 630 1104.5Z" stroke="#3360FF" stroke-width="2" mask="url(#path-1-inside-1)"/>
<path d="M630 1059.5C630 1060.88 628.881 1062 627.5 1062C626.119 1062 625 1060.88 625 1059.5C625 1058.12 626.119 1057 627.5 1057C628.881 1057 630 1058.12 630 1059.5Z" stroke="#3360FF" stroke-width="2" mask="url(#path-1-inside-1)"/>
<path d="M630 1014.5C630 1015.88 628.881 1017 627.5 1017C626.119 1017 625 1015.88 625 1014.5C625 1013.12 626.119 1012 627.5 1012C628.881 1012 630 1013.12 630 1014.5Z" stroke="#3360FF" stroke-width="2" mask="url(#path-1-inside-1)"/>
<path d="M630 969.5C630 970.881 628.881 972 627.5 972C626.119 972 625 970.881 625 969.5C625 968.119 626.119 967 627.5 967C628.881 967 630 968.119 630 969.5Z" stroke="#3360FF" stroke-width="2" mask="url(#path-1-inside-1)"/>
<path d="M630 924.5C630 925.881 628.881 927 627.5 927C626.119 927 625 925.881 625 924.5C625 923.119 626.119 922 627.5 922C628.881 922 630 923.119 630 924.5Z" stroke="#3360FF" stroke-width="2" mask="url(#path-1-inside-1)"/>
<path d="M630 879.5C630 880.881 628.881 882 627.5 882C626.119 882 625 880.881 625 879.5C625 878.119 626.119 877 627.5 877C628.881 877 630 878.119 630 879.5Z" stroke="#3360FF" stroke-width="2" mask="url(#path-1-inside-1)"/>
<path d="M630 834.5C630 835.881 628.881 837 627.5 837C626.119 837 625 835.881 625 834.5C625 833.119 626.119 832 627.5 832C628.881 832 630 833.119 630 834.5Z" stroke="#3360FF" stroke-width="2" mask="url(#path-1-inside-1)"/>
<path d="M675 1104.5C675 1105.88 673.881 1107 672.5 1107C671.119 1107 670 1105.88 670 1104.5C670 1103.12 671.119 1102 672.5 1102C673.881 1102 675 1103.12 675 1104.5Z" stroke="#3360FF" stroke-width="2" mask="url(#path-1-inside-1)"/>
<path d="M675 1059.5C675 1060.88 673.881 1062 672.5 1062C671.119 1062 670 1060.88 670 1059.5C670 1058.12 671.119 1057 672.5 1057C673.881 1057 675 1058.12 675 1059.5Z" stroke="#3360FF" stroke-width="2" mask="url(#path-1-inside-1)"/>
<path d="M675 1014.5C675 1015.88 673.881 1017 672.5 1017C671.119 1017 670 1015.88 670 1014.5C670 1013.12 671.119 1012 672.5 1012C673.881 1012 675 1013.12 675 1014.5Z" stroke="#3360FF" stroke-width="2" mask="url(#path-1-inside-1)"/>
<path d="M675 969.5C675 970.881 673.881 972 672.5 972C671.119 972 670 970.881 670 969.5C670 968.119 671.119 967 672.5 967C673.881 967 675 968.119 675 969.5Z" stroke="#3360FF" stroke-width="2" mask="url(#path-1-inside-1)"/>
<path d="M675 924.5C675 925.881 673.881 927 672.5 927C671.119 927 670 925.881 670 924.5C670 923.119 671.119 922 672.5 922C673.881 922 675 923.119 675 924.5Z" stroke="#3360FF" stroke-width="2" mask="url(#path-1-inside-1)"/>
<path d="M675 879.5C675 880.881 673.881 882 672.5 882C671.119 882 670 880.881 670 879.5C670 878.119 671.119 877 672.5 877C673.881 877 675 878.119 675 879.5Z" stroke="#3360FF" stroke-width="2" mask="url(#path-1-inside-1)"/>
<path d="M675 834.5C675 835.881 673.881 837 672.5 837C671.119 837 670 835.881 670 834.5C670 833.119 671.119 832 672.5 832C673.881 832 675 833.119 675 834.5Z" stroke="#3360FF" stroke-width="2" mask="url(#path-1-inside-1)"/>
<path d="M720 1104.5C720 1105.88 718.881 1107 717.5 1107C716.119 1107 715 1105.88 715 1104.5C715 1103.12 716.119 1102 717.5 1102C718.881 1102 720 1103.12 720 1104.5Z" stroke="#3360FF" stroke-width="2" mask="url(#path-1-inside-1)"/>
<path d="M720 1059.5C720 1060.88 718.881 1062 717.5 1062C716.119 1062 715 1060.88 715 1059.5C715 1058.12 716.119 1057 717.5 1057C718.881 1057 720 1058.12 720 1059.5Z" stroke="#3360FF" stroke-width="2" mask="url(#path-1-inside-1)"/>
<path d="M720 1014.5C720 1015.88 718.881 1017 717.5 1017C716.119 1017 715 1015.88 715 1014.5C715 1013.12 716.119 1012 717.5 1012C718.881 1012 720 1013.12 720 1014.5Z" stroke="#3360FF" stroke-width="2" mask="url(#path-1-inside-1)"/>
<path d="M720 969.5C720 970.881 718.881 972 717.5 972C716.119 972 715 970.881 715 969.5C715 968.119 716.119 967 717.5 967C718.881 967 720 968.119 720 969.5Z" stroke="#3360FF" stroke-width="2" mask="url(#path-1-inside-1)"/>
<path d="M720 924.5C720 925.881 718.881 927 717.5 927C716.119 927 715 925.881 715 924.5C715 923.119 716.119 922 717.5 922C718.881 922 720 923.119 720 924.5Z" stroke="#3360FF" stroke-width="2" mask="url(#path-1-inside-1)"/>
<path d="M720 879.5C720 880.881 718.881 882 717.5 882C716.119 882 715 880.881 715 879.5C715 878.119 716.119 877 717.5 877C718.881 877 720 878.119 720 879.5Z" stroke="#3360FF" stroke-width="2" mask="url(#path-1-inside-1)"/>
<path d="M720 834.5C720 835.881 718.881 837 717.5 837C716.119 837 715 835.881 715 834.5C715 833.119 716.119 832 717.5 832C718.881 832 720 833.119 720 834.5Z" stroke="#3360FF" stroke-width="2" mask="url(#path-1-inside-1)"/>
<path d="M765 1104.5C765 1105.88 763.881 1107 762.5 1107C761.119 1107 760 1105.88 760 1104.5C760 1103.12 761.119 1102 762.5 1102C763.881 1102 765 1103.12 765 1104.5Z" stroke="#3360FF" stroke-width="2" mask="url(#path-1-inside-1)"/>
<path d="M765 1059.5C765 1060.88 763.881 1062 762.5 1062C761.119 1062 760 1060.88 760 1059.5C760 1058.12 761.119 1057 762.5 1057C763.881 1057 765 1058.12 765 1059.5Z" stroke="#3360FF" stroke-width="2" mask="url(#path-1-inside-1)"/>
<path d="M765 1014.5C765 1015.88 763.881 1017 762.5 1017C761.119 1017 760 1015.88 760 1014.5C760 1013.12 761.119 1012 762.5 1012C763.881 1012 765 1013.12 765 1014.5Z" stroke="#3360FF" stroke-width="2" mask="url(#path-1-inside-1)"/>
<path d="M765 969.5C765 970.881 763.881 972 762.5 972C761.119 972 760 970.881 760 969.5C760 968.119 761.119 967 762.5 967C763.881 967 765 968.119 765 969.5Z" stroke="#3360FF" stroke-width="2" mask="url(#path-1-inside-1)"/>
<path d="M765 924.5C765 925.881 763.881 927 762.5 927C761.119 927 760 925.881 760 924.5C760 923.119 761.119 922 762.5 922C763.881 922 765 923.119 765 924.5Z" stroke="#3360FF" stroke-width="2" mask="url(#path-1-inside-1)"/>
<path d="M765 879.5C765 880.881 763.881 882 762.5 882C761.119 882 760 880.881 760 879.5C760 878.119 761.119 877 762.5 877C763.881 877 765 878.119 765 879.5Z" stroke="#3360FF" stroke-width="2" mask="url(#path-1-inside-1)"/>
<path d="M765 834.5C765 835.881 763.881 837 762.5 837C761.119 837 760 835.881 760 834.5C760 833.119 761.119 832 762.5 832C763.881 832 765 833.119 765 834.5Z" stroke="#3360FF" stroke-width="2" mask="url(#path-1-inside-1)"/>
<path d="M810 1104.5C810 1105.88 808.881 1107 807.5 1107C806.119 1107 805 1105.88 805 1104.5C805 1103.12 806.119 1102 807.5 1102C808.881 1102 810 1103.12 810 1104.5Z" stroke="#3360FF" stroke-width="2" mask="url(#path-1-inside-1)"/>
<path d="M810 1059.5C810 1060.88 808.881 1062 807.5 1062C806.119 1062 805 1060.88 805 1059.5C805 1058.12 806.119 1057 807.5 1057C808.881 1057 810 1058.12 810 1059.5Z" stroke="#3360FF" stroke-width="2" mask="url(#path-1-inside-1)"/>
<path d="M810 1014.5C810 1015.88 808.881 1017 807.5 1017C806.119 1017 805 1015.88 805 1014.5C805 1013.12 806.119 1012 807.5 1012C808.881 1012 810 1013.12 810 1014.5Z" stroke="#3360FF" stroke-width="2" mask="url(#path-1-inside-1)"/>
<path d="M810 969.5C810 970.881 808.881 972 807.5 972C806.119 972 805 970.881 805 969.5C805 968.119 806.119 967 807.5 967C808.881 967 810 968.119 810 969.5Z" stroke="#3360FF" stroke-width="2" mask="url(#path-1-inside-1)"/>
<path d="M810 924.5C810 925.881 808.881 927 807.5 927C806.119 927 805 925.881 805 924.5C805 923.119 806.119 922 807.5 922C808.881 922 810 923.119 810 924.5Z" stroke="#3360FF" stroke-width="2" mask="url(#path-1-inside-1)"/>
<path d="M810 879.5C810 880.881 808.881 882 807.5 882C806.119 882 805 880.881 805 879.5C805 878.119 806.119 877 807.5 877C808.881 877 810 878.119 810 879.5Z" stroke="#3360FF" stroke-width="2" mask="url(#path-1-inside-1)"/>
<path d="M810 834.5C810 835.881 808.881 837 807.5 837C806.119 837 805 835.881 805 834.5C805 833.119 806.119 832 807.5 832C808.881 832 810 833.119 810 834.5Z" stroke="#3360FF" stroke-width="2" mask="url(#path-1-inside-1)"/>
<path d="M855 1104.5C855 1105.88 853.881 1107 852.5 1107C851.119 1107 850 1105.88 850 1104.5C850 1103.12 851.119 1102 852.5 1102C853.881 1102 855 1103.12 855 1104.5Z" stroke="#3360FF" stroke-width="2" mask="url(#path-1-inside-1)"/>
<path d="M855 1059.5C855 1060.88 853.881 1062 852.5 1062C851.119 1062 850 1060.88 850 1059.5C850 1058.12 851.119 1057 852.5 1057C853.881 1057 855 1058.12 855 1059.5Z" stroke="#3360FF" stroke-width="2" mask="url(#path-1-inside-1)"/>
<path d="M855 1014.5C855 1015.88 853.881 1017 852.5 1017C851.119 1017 850 1015.88 850 1014.5C850 1013.12 851.119 1012 852.5 1012C853.881 1012 855 1013.12 855 1014.5Z" stroke="#3360FF" stroke-width="2" mask="url(#path-1-inside-1)"/>
<path d="M855 969.5C855 970.881 853.881 972 852.5 972C851.119 972 850 970.881 850 969.5C850 968.119 851.119 967 852.5 967C853.881 967 855 968.119 855 969.5Z" stroke="#3360FF" stroke-width="2" mask="url(#path-1-inside-1)"/>
<path d="M855 924.5C855 925.881 853.881 927 852.5 927C851.119 927 850 925.881 850 924.5C850 923.119 851.119 922 852.5 922C853.881 922 855 923.119 855 924.5Z" stroke="#3360FF" stroke-width="2" mask="url(#path-1-inside-1)"/>
<path d="M855 879.5C855 880.881 853.881 882 852.5 882C851.119 882 850 880.881 850 879.5C850 878.119 851.119 877 852.5 877C853.881 877 855 878.119 855 879.5Z" stroke="#3360FF" stroke-width="2" mask="url(#path-1-inside-1)"/>
<path d="M855 834.5C855 835.881 853.881 837 852.5 837C851.119 837 850 835.881 850 834.5C850 833.119 851.119 832 852.5 832C853.881 832 855 833.119 855 834.5Z" stroke="#3360FF" stroke-width="2" mask="url(#path-1-inside-1)"/>
<path d="M900 1104.5C900 1105.88 898.881 1107 897.5 1107C896.119 1107 895 1105.88 895 1104.5C895 1103.12 896.119 1102 897.5 1102C898.881 1102 900 1103.12 900 1104.5Z" stroke="#3360FF" stroke-width="2" mask="url(#path-1-inside-1)"/>
<path d="M900 1059.5C900 1060.88 898.881 1062 897.5 1062C896.119 1062 895 1060.88 895 1059.5C895 1058.12 896.119 1057 897.5 1057C898.881 1057 900 1058.12 900 1059.5Z" stroke="#3360FF" stroke-width="2" mask="url(#path-1-inside-1)"/>
<path d="M900 1014.5C900 1015.88 898.881 1017 897.5 1017C896.119 1017 895 1015.88 895 1014.5C895 1013.12 896.119 1012 897.5 1012C898.881 1012 900 1013.12 900 1014.5Z" stroke="#3360FF" stroke-width="2" mask="url(#path-1-inside-1)"/>
<path d="M900 969.5C900 970.881 898.881 972 897.5 972C896.119 972 895 970.881 895 969.5C895 968.119 896.119 967 897.5 967C898.881 967 900 968.119 900 969.5Z" stroke="#3360FF" stroke-width="2" mask="url(#path-1-inside-1)"/>
<path d="M900 924.5C900 925.881 898.881 927 897.5 927C896.119 927 895 925.881 895 924.5C895 923.119 896.119 922 897.5 922C898.881 922 900 923.119 900 924.5Z" stroke="#3360FF" stroke-width="2" mask="url(#path-1-inside-1)"/>
<path d="M900 879.5C900 880.881 898.881 882 897.5 882C896.119 882 895 880.881 895 879.5C895 878.119 896.119 877 897.5 877C898.881 877 900 878.119 900 879.5Z" stroke="#3360FF" stroke-width="2" mask="url(#path-1-inside-1)"/>
<path d="M900 834.5C900 835.881 898.881 837 897.5 837C896.119 837 895 835.881 895 834.5C895 833.119 896.119 832 897.5 832C898.881 832 900 833.119 900 834.5Z" stroke="#3360FF" stroke-width="2" mask="url(#path-1-inside-1)"/>
<circle cx="399" cy="473" r="399" fill="#3360FF"/>
</svg>
