<svg width="1240" height="1139" viewBox="0 0 1240 1139" fill="none" xmlns="http://www.w3.org/2000/svg">
<circle r="382" transform="matrix(-1 0 0 1 858 382)" fill="#3360FF"/>
<path d="M848 106.5C848.828 106.5 849.5 107.172 849.5 108V109.75C849.5 110.578 848.828 111.25 848 111.25C847.172 111.25 846.5 110.578 846.5 109.75V109.5H845.917C845.088 109.5 844.417 108.828 844.417 108C844.417 107.172 845.088 106.5 845.917 106.5H848Z" fill="#DEDEE7"/>
<path d="M837.583 106.5C838.412 106.5 839.083 107.172 839.083 108C839.083 108.828 838.412 109.5 837.583 109.5H833.417C832.588 109.5 831.917 108.828 831.917 108C831.917 107.172 832.588 106.5 833.417 106.5H837.583Z" fill="#DEDEE7"/>
<path d="M825.083 106.5C825.912 106.5 826.583 107.172 826.583 108C826.583 108.828 825.912 109.5 825.083 109.5H820.917C820.088 109.5 819.417 108.828 819.417 108C819.417 107.172 820.088 106.5 820.917 106.5H825.083Z" fill="#DEDEE7"/>
<path d="M812.583 106.5C813.412 106.5 814.083 107.172 814.083 108C814.083 108.828 813.412 109.5 812.583 109.5H808.417C807.588 109.5 806.917 108.828 806.917 108C806.917 107.172 807.588 106.5 808.417 106.5H812.583Z" fill="#DEDEE7"/>
<path d="M800.083 106.5C800.912 106.5 801.583 107.172 801.583 108C801.583 108.828 800.912 109.5 800.083 109.5H795.917C795.088 109.5 794.417 108.828 794.417 108C794.417 107.172 795.088 106.5 795.917 106.5H800.083Z" fill="#DEDEE7"/>
<path d="M787.583 106.5C788.412 106.5 789.083 107.172 789.083 108C789.083 108.828 788.412 109.5 787.583 109.5H783.417C782.588 109.5 781.917 108.828 781.917 108C781.917 107.172 782.588 106.5 783.417 106.5H787.583Z" fill="#DEDEE7"/>
<path d="M775.083 106.5C775.912 106.5 776.583 107.172 776.583 108C776.583 108.828 775.912 109.5 775.083 109.5H770.917C770.088 109.5 769.417 108.828 769.417 108C769.417 107.172 770.088 106.5 770.917 106.5H775.083Z" fill="#DEDEE7"/>
<path d="M762.583 106.5C763.412 106.5 764.083 107.172 764.083 108C764.083 108.828 763.412 109.5 762.583 109.5H758.417C757.588 109.5 756.917 108.828 756.917 108C756.917 107.172 757.588 106.5 758.417 106.5H762.583Z" fill="#DEDEE7"/>
<path d="M750.083 106.5C750.912 106.5 751.583 107.172 751.583 108C751.583 108.828 750.912 109.5 750.083 109.5H745.917C745.088 109.5 744.417 108.828 744.417 108C744.417 107.172 745.088 106.5 745.917 106.5H750.083Z" fill="#DEDEE7"/>
<path d="M737.583 106.5C738.412 106.5 739.083 107.172 739.083 108C739.083 108.828 738.412 109.5 737.583 109.5H737V110.024C737 110.852 736.328 111.524 735.5 111.524C734.672 111.524 734 110.852 734 110.024V108C734 107.172 734.672 106.5 735.5 106.5H737.583Z" fill="#DEDEE7"/>
<path d="M846.5 116.75C846.5 115.922 847.172 115.25 848 115.25C848.828 115.25 849.5 115.922 849.5 116.75V120.25C849.5 121.078 848.828 121.75 848 121.75C847.172 121.75 846.5 121.078 846.5 120.25V116.75Z" fill="#DEDEE7"/>
<path d="M734 118.119C734 117.291 734.672 116.619 735.5 116.619C736.328 116.619 737 117.291 737 118.119V122.167C737 122.995 736.328 123.667 735.5 123.667C734.672 123.667 734 122.995 734 122.167V118.119Z" fill="#DEDEE7"/>
<path d="M846.5 127.25C846.5 126.422 847.172 125.75 848 125.75C848.828 125.75 849.5 126.422 849.5 127.25V129C849.5 129.828 848.828 130.5 848 130.5C847.172 130.5 846.5 129.828 846.5 129V127.25Z" fill="#DEDEE7"/>
<path d="M734 130.262C734 129.433 734.672 128.762 735.5 128.762C736.328 128.762 737 129.433 737 130.262V134.31C737 135.138 736.328 135.81 735.5 135.81C734.672 135.81 734 135.138 734 134.31V130.262Z" fill="#DEDEE7"/>
<path d="M734 142.405C734 141.576 734.672 140.905 735.5 140.905C736.328 140.905 737 141.576 737 142.405V146.452C737 147.281 736.328 147.952 735.5 147.952C734.672 147.952 734 147.281 734 146.452V142.405Z" fill="#DEDEE7"/>
<path d="M734 154.548C734 153.719 734.672 153.048 735.5 153.048C736.328 153.048 737 153.719 737 154.548V158.595C737 159.424 736.328 160.095 735.5 160.095C734.672 160.095 734 159.424 734 158.595V154.548Z" fill="#DEDEE7"/>
<path d="M734 166.69C734 165.862 734.672 165.19 735.5 165.19C736.328 165.19 737 165.862 737 166.69V170.738C737 171.567 736.328 172.238 735.5 172.238C734.672 172.238 734 171.567 734 170.738V166.69Z" fill="#DEDEE7"/>
<path d="M734 178.833C734 178.005 734.672 177.333 735.5 177.333C736.328 177.333 737 178.005 737 178.833V182.881C737 183.709 736.328 184.381 735.5 184.381C734.672 184.381 734 183.709 734 182.881V178.833Z" fill="#DEDEE7"/>
<path d="M734 190.976C734 190.148 734.672 189.476 735.5 189.476C736.328 189.476 737 190.148 737 190.976V193C737 193.828 736.328 194.5 735.5 194.5H733.514C732.685 194.5 732.014 193.828 732.014 193C732.014 192.172 732.685 191.5 733.514 191.5H734V190.976Z" fill="#DEDEE7"/>
<path d="M725.569 191.5C726.398 191.5 727.069 192.172 727.069 193C727.069 193.828 726.398 194.5 725.569 194.5H721.597C720.769 194.5 720.097 193.828 720.097 193C720.097 192.172 720.769 191.5 721.597 191.5H725.569Z" fill="#DEDEE7"/>
<path d="M713.653 191.5C714.481 191.5 715.153 192.172 715.153 193C715.153 193.828 714.481 194.5 713.653 194.5H709.681C708.852 194.5 708.181 193.828 708.181 193C708.181 192.172 708.852 191.5 709.681 191.5H713.653Z" fill="#DEDEE7"/>
<path d="M701.736 191.5C702.565 191.5 703.236 192.172 703.236 193C703.236 193.828 702.565 194.5 701.736 194.5H697.764C696.935 194.5 696.264 193.828 696.264 193C696.264 192.172 696.935 191.5 697.764 191.5H701.736Z" fill="#DEDEE7"/>
<path d="M689.819 191.5C690.648 191.5 691.319 192.172 691.319 193C691.319 193.828 690.648 194.5 689.819 194.5H685.847C685.019 194.5 684.347 193.828 684.347 193C684.347 192.172 685.019 191.5 685.847 191.5H689.819Z" fill="#DEDEE7"/>
<path d="M677.903 191.5C678.731 191.5 679.403 192.172 679.403 193C679.403 193.828 678.731 194.5 677.903 194.5H673.931C673.102 194.5 672.431 193.828 672.431 193C672.431 192.172 673.102 191.5 673.931 191.5H677.903Z" fill="#DEDEE7"/>
<path d="M665.986 191.5C666.815 191.5 667.486 192.172 667.486 193C667.486 193.828 666.815 194.5 665.986 194.5H664C663.172 194.5 662.5 193.828 662.5 193C662.5 192.172 663.172 191.5 664 191.5H665.986Z" fill="#DEDEE7"/>
<path d="M897.939 143.939C898.221 143.658 898.602 143.5 899 143.5H901.033C901.862 143.5 902.533 144.172 902.533 145C902.533 145.828 901.862 146.5 901.033 146.5H900.5V146.972C900.5 147.801 899.828 148.472 899 148.472C898.172 148.472 897.5 147.801 897.5 146.972V145C897.5 144.602 897.658 144.221 897.939 143.939Z" fill="#DEDEE7"/>
<path d="M909.167 146.5C908.338 146.5 907.667 145.828 907.667 145C907.667 144.172 908.338 143.5 909.167 143.5H913.233C914.062 143.5 914.733 144.172 914.733 145C914.733 145.828 914.062 146.5 913.233 146.5H909.167Z" fill="#DEDEE7"/>
<path d="M921.367 143.5H925.433C926.262 143.5 926.933 144.172 926.933 145C926.933 145.828 926.262 146.5 925.433 146.5H921.367C920.538 146.5 919.867 145.828 919.867 145C919.867 144.172 920.538 143.5 921.367 143.5Z" fill="#DEDEE7"/>
<path d="M932.067 145C932.067 144.172 932.738 143.5 933.567 143.5H937.633C938.462 143.5 939.133 144.172 939.133 145C939.133 145.828 938.462 146.5 937.633 146.5H933.567C932.738 146.5 932.067 145.828 932.067 145Z" fill="#DEDEE7"/>
<path d="M945.767 143.5H949.833C950.662 143.5 951.333 144.172 951.333 145C951.333 145.828 950.662 146.5 949.833 146.5H945.767C944.938 146.5 944.267 145.828 944.267 145C944.267 144.172 944.938 143.5 945.767 143.5Z" fill="#DEDEE7"/>
<path d="M957.967 143.5H962.033C962.862 143.5 963.533 144.172 963.533 145C963.533 145.828 962.862 146.5 962.033 146.5H957.967C957.138 146.5 956.467 145.828 956.467 145C956.467 144.172 957.138 143.5 957.967 143.5Z" fill="#DEDEE7"/>
<path d="M970.167 146.5C969.338 146.5 968.667 145.828 968.667 145C968.667 144.172 969.338 143.5 970.167 143.5H974.233C975.062 143.5 975.733 144.172 975.733 145C975.733 145.828 975.062 146.5 974.233 146.5H970.167Z" fill="#DEDEE7"/>
<path d="M982.367 146.5C981.538 146.5 980.867 145.828 980.867 145C980.867 144.172 981.538 143.5 982.367 143.5H986.433C987.262 143.5 987.933 144.172 987.933 145C987.933 145.828 987.262 146.5 986.433 146.5H982.367Z" fill="#DEDEE7"/>
<path d="M994.567 146.5C993.738 146.5 993.067 145.828 993.067 145C993.067 144.172 993.738 143.5 994.567 143.5H998.633C999.462 143.5 1000.13 144.172 1000.13 145C1000.13 145.828 999.462 146.5 998.633 146.5H994.567Z" fill="#DEDEE7"/>
<path d="M1006.77 146.5C1005.94 146.5 1005.27 145.828 1005.27 145C1005.27 144.172 1005.94 143.5 1006.77 143.5H1010.83C1011.66 143.5 1012.33 144.172 1012.33 145C1012.33 145.828 1011.66 146.5 1010.83 146.5H1006.77Z" fill="#DEDEE7"/>
<path d="M1018.97 143.5H1023.03C1023.86 143.5 1024.53 144.172 1024.53 145C1024.53 145.828 1023.86 146.5 1023.03 146.5H1018.97C1018.14 146.5 1017.47 145.828 1017.47 145C1017.47 144.172 1018.14 143.5 1018.97 143.5Z" fill="#DEDEE7"/>
<path d="M1031.17 146.5C1030.34 146.5 1029.67 145.828 1029.67 145C1029.67 144.172 1030.34 143.5 1031.17 143.5H1035.23C1036.06 143.5 1036.73 144.172 1036.73 145C1036.73 145.828 1036.06 146.5 1035.23 146.5H1031.17Z" fill="#DEDEE7"/>
<path d="M1043.37 143.5H1047.43C1048.26 143.5 1048.93 144.172 1048.93 145C1048.93 145.828 1048.26 146.5 1047.43 146.5H1043.37C1042.54 146.5 1041.87 145.828 1041.87 145C1041.87 144.172 1042.54 143.5 1043.37 143.5Z" fill="#DEDEE7"/>
<path d="M1055.57 146.5C1054.74 146.5 1054.07 145.828 1054.07 145C1054.07 144.172 1054.74 143.5 1055.57 143.5H1059.63C1060.46 143.5 1061.13 144.172 1061.13 145C1061.13 145.828 1060.46 146.5 1059.63 146.5H1055.57Z" fill="#DEDEE7"/>
<path d="M1067.77 146.5C1066.94 146.5 1066.27 145.828 1066.27 145C1066.27 144.172 1066.94 143.5 1067.77 143.5H1071.83C1072.66 143.5 1073.33 144.172 1073.33 145C1073.33 145.828 1072.66 146.5 1071.83 146.5H1067.77Z" fill="#DEDEE7"/>
<path d="M1079.97 146.5C1079.14 146.5 1078.47 145.828 1078.47 145C1078.47 144.172 1079.14 143.5 1079.97 143.5H1084.03C1084.86 143.5 1085.53 144.172 1085.53 145C1085.53 145.828 1084.86 146.5 1084.03 146.5H1079.97Z" fill="#DEDEE7"/>
<path d="M1092.17 146.5C1091.34 146.5 1090.67 145.828 1090.67 145C1090.67 144.172 1091.34 143.5 1092.17 143.5H1096.23C1097.06 143.5 1097.73 144.172 1097.73 145C1097.73 145.828 1097.06 146.5 1096.23 146.5H1092.17Z" fill="#DEDEE7"/>
<path d="M1104.37 146.5C1103.54 146.5 1102.87 145.828 1102.87 145C1102.87 144.172 1103.54 143.5 1104.37 143.5H1108.43C1109.26 143.5 1109.93 144.172 1109.93 145C1109.93 145.828 1109.26 146.5 1108.43 146.5H1104.37Z" fill="#DEDEE7"/>
<path d="M1116.57 146.5C1115.74 146.5 1115.07 145.828 1115.07 145C1115.07 144.172 1115.74 143.5 1116.57 143.5H1120.63C1121.46 143.5 1122.13 144.172 1122.13 145C1122.13 145.828 1121.46 146.5 1120.63 146.5H1116.57Z" fill="#DEDEE7"/>
<path d="M1127.27 145C1127.27 144.172 1127.94 143.5 1128.77 143.5H1132.83C1133.66 143.5 1134.33 144.172 1134.33 145C1134.33 145.828 1133.66 146.5 1132.83 146.5H1128.77C1127.94 146.5 1127.27 145.828 1127.27 145Z" fill="#DEDEE7"/>
<path d="M1140.97 146.5C1140.14 146.5 1139.47 145.828 1139.47 145C1139.47 144.172 1140.14 143.5 1140.97 143.5H1143C1143.83 143.5 1144.5 144.172 1144.5 145V146.97C1144.5 147.798 1143.83 148.47 1143 148.47C1142.17 148.47 1141.5 147.798 1141.5 146.97V146.5H1140.97Z" fill="#DEDEE7"/>
<path d="M1143 153.348C1143.83 153.348 1144.5 154.02 1144.5 154.848V158.788C1144.5 159.616 1143.83 160.288 1143 160.288C1142.17 160.288 1141.5 159.616 1141.5 158.788V154.848C1141.5 154.02 1142.17 153.348 1143 153.348Z" fill="#DEDEE7"/>
<path d="M899 153.361C899.828 153.361 900.5 154.033 900.5 154.861V158.806C900.5 159.634 899.828 160.306 899 160.306C898.172 160.306 897.5 159.634 897.5 158.806V154.861C897.5 154.033 898.172 153.361 899 153.361Z" fill="#DEDEE7"/>
<path d="M1143 165.167C1143.83 165.167 1144.5 165.838 1144.5 166.667V170.606C1144.5 171.434 1143.83 172.106 1143 172.106C1142.17 172.106 1141.5 171.434 1141.5 170.606V166.667C1141.5 165.838 1142.17 165.167 1143 165.167Z" fill="#DEDEE7"/>
<path d="M899 165.194C899.828 165.194 900.5 165.866 900.5 166.694V170.639C900.5 171.467 899.828 172.139 899 172.139C898.172 172.139 897.5 171.467 897.5 170.639V166.694C897.5 165.866 898.172 165.194 899 165.194Z" fill="#DEDEE7"/>
<path d="M1143 176.985C1143.83 176.985 1144.5 177.656 1144.5 178.485V182.424C1144.5 183.253 1143.83 183.924 1143 183.924C1142.17 183.924 1141.5 183.253 1141.5 182.424V178.485C1141.5 177.656 1142.17 176.985 1143 176.985Z" fill="#DEDEE7"/>
<path d="M899 177.028C899.828 177.028 900.5 177.699 900.5 178.528V180.5C900.5 181.328 899.828 182 899 182C898.172 182 897.5 181.328 897.5 180.5V178.528C897.5 177.699 898.172 177.028 899 177.028Z" fill="#DEDEE7"/>
<path d="M1143 188.803C1143.83 188.803 1144.5 189.475 1144.5 190.303V194.242C1144.5 195.071 1143.83 195.742 1143 195.742C1142.17 195.742 1141.5 195.071 1141.5 194.242V190.303C1141.5 189.475 1142.17 188.803 1143 188.803Z" fill="#DEDEE7"/>
<path d="M1143 200.621C1143.83 200.621 1144.5 201.293 1144.5 202.121V206.061C1144.5 206.889 1143.83 207.561 1143 207.561C1142.17 207.561 1141.5 206.889 1141.5 206.061V202.121C1141.5 201.293 1142.17 200.621 1143 200.621Z" fill="#DEDEE7"/>
<path d="M1143 212.439C1143.83 212.439 1144.5 213.111 1144.5 213.939V217.879C1144.5 218.707 1143.83 219.379 1143 219.379C1142.17 219.379 1141.5 218.707 1141.5 217.879V213.939C1141.5 213.111 1142.17 212.439 1143 212.439Z" fill="#DEDEE7"/>
<path d="M1143 224.258C1143.83 224.258 1144.5 224.929 1144.5 225.758V229.697C1144.5 230.525 1143.83 231.197 1143 231.197C1142.17 231.197 1141.5 230.525 1141.5 229.697V225.758C1141.5 224.929 1142.17 224.258 1143 224.258Z" fill="#DEDEE7"/>
<path d="M1143 236.076C1143.83 236.076 1144.5 236.747 1144.5 237.576V241.515C1144.5 242.344 1143.83 243.015 1143 243.015C1142.17 243.015 1141.5 242.344 1141.5 241.515V237.576C1141.5 236.747 1142.17 236.076 1143 236.076Z" fill="#DEDEE7"/>
<path d="M1143 247.894C1143.83 247.894 1144.5 248.565 1144.5 249.394V253.333C1144.5 254.162 1143.83 254.833 1143 254.833C1142.17 254.833 1141.5 254.162 1141.5 253.333V249.394C1141.5 248.565 1142.17 247.894 1143 247.894Z" fill="#DEDEE7"/>
<path d="M1143 259.712C1143.83 259.712 1144.5 260.384 1144.5 261.212V265.151C1144.5 265.98 1143.83 266.651 1143 266.651C1142.17 266.651 1141.5 265.98 1141.5 265.151V261.212C1141.5 260.384 1142.17 259.712 1143 259.712Z" fill="#DEDEE7"/>
<path d="M1143 271.53C1143.83 271.53 1144.5 272.202 1144.5 273.03V273.5H1145.05C1145.88 273.5 1146.55 274.172 1146.55 275C1146.55 275.828 1145.88 276.5 1145.05 276.5H1143C1142.17 276.5 1141.5 275.828 1141.5 275V273.03C1141.5 272.202 1142.17 271.53 1143 271.53Z" fill="#DEDEE7"/>
<path d="M1151.75 275C1151.75 274.172 1152.42 273.5 1153.25 273.5H1157.35C1158.18 273.5 1158.85 274.172 1158.85 275C1158.85 275.828 1158.18 276.5 1157.35 276.5H1153.25C1152.42 276.5 1151.75 275.828 1151.75 275Z" fill="#DEDEE7"/>
<path d="M1164.05 275C1164.05 274.172 1164.72 273.5 1165.55 273.5H1169.65C1170.48 273.5 1171.15 274.172 1171.15 275C1171.15 275.828 1170.48 276.5 1169.65 276.5H1165.55C1164.72 276.5 1164.05 275.828 1164.05 275Z" fill="#DEDEE7"/>
<path d="M1176.35 275C1176.35 274.172 1177.02 273.5 1177.85 273.5H1181.95C1182.78 273.5 1183.45 274.172 1183.45 275C1183.45 275.828 1182.78 276.5 1181.95 276.5H1177.85C1177.02 276.5 1176.35 275.828 1176.35 275Z" fill="#DEDEE7"/>
<path d="M1188.65 275C1188.65 274.172 1189.32 273.5 1190.15 273.5H1194.25C1195.08 273.5 1195.75 274.172 1195.75 275C1195.75 275.828 1195.08 276.5 1194.25 276.5H1190.15C1189.32 276.5 1188.65 275.828 1188.65 275Z" fill="#DEDEE7"/>
<path d="M1200.95 275C1200.95 274.172 1201.62 273.5 1202.45 273.5H1206.55C1207.38 273.5 1208.05 274.172 1208.05 275C1208.05 275.828 1207.38 276.5 1206.55 276.5H1202.45C1201.62 276.5 1200.95 275.828 1200.95 275Z" fill="#DEDEE7"/>
<path d="M1213.25 275C1213.25 274.172 1213.92 273.5 1214.75 273.5H1218.85C1219.68 273.5 1220.35 274.172 1220.35 275C1220.35 275.828 1219.68 276.5 1218.85 276.5H1214.75C1213.92 276.5 1213.25 275.828 1213.25 275Z" fill="#DEDEE7"/>
<path d="M1225.55 275C1225.55 274.172 1226.22 273.5 1227.05 273.5H1231.15C1231.98 273.5 1232.65 274.172 1232.65 275C1232.65 275.828 1231.98 276.5 1231.15 276.5H1227.05C1226.22 276.5 1225.55 275.828 1225.55 275Z" fill="#DEDEE7"/>
<path d="M857.5 584.5C857.5 583.672 856.828 583 856 583C855.172 583 854.5 583.672 854.5 584.5V586.408C854.5 587.237 855.172 587.908 856 587.908C856.828 587.908 857.5 587.237 857.5 586.408V584.5Z" fill="#DEDEE7"/>
<path d="M857.5 594.042C857.5 593.213 856.828 592.542 856 592.542C855.172 592.542 854.5 593.213 854.5 594.042V597.858C854.5 598.687 855.172 599.358 856 599.358C856.828 599.358 857.5 598.687 857.5 597.858V594.042Z" fill="#DEDEE7"/>
<path d="M857.5 605.492C857.5 604.663 856.828 603.992 856 603.992C855.172 603.992 854.5 604.663 854.5 605.492V609.308C854.5 610.137 855.172 610.808 856 610.808C856.828 610.808 857.5 610.137 857.5 609.308V605.492Z" fill="#DEDEE7"/>
<path d="M857.5 616.942C857.5 616.113 856.828 615.442 856 615.442C855.172 615.442 854.5 616.113 854.5 616.942V620.758C854.5 621.587 855.172 622.258 856 622.258C856.828 622.258 857.5 621.587 857.5 620.758V616.942Z" fill="#DEDEE7"/>
<path d="M857.5 628.392C857.5 627.563 856.828 626.892 856 626.892C855.172 626.892 854.5 627.563 854.5 628.392V632.208C854.5 633.037 855.172 633.708 856 633.708C856.828 633.708 857.5 633.037 857.5 632.208V628.392Z" fill="#DEDEE7"/>
<path d="M857.5 639.842C857.5 639.013 856.828 638.342 856 638.342C855.172 638.342 854.5 639.013 854.5 639.842V643.658C854.5 644.487 855.172 645.158 856 645.158C856.828 645.158 857.5 644.487 857.5 643.658V639.842Z" fill="#DEDEE7"/>
<path d="M857.5 651.292C857.5 650.463 856.828 649.792 856 649.792C855.172 649.792 854.5 650.463 854.5 651.292V655.108C854.5 655.937 855.172 656.608 856 656.608C856.828 656.608 857.5 655.937 857.5 655.108V651.292Z" fill="#DEDEE7"/>
<path d="M857.5 662.742C857.5 661.913 856.828 661.242 856 661.242C855.172 661.242 854.5 661.913 854.5 662.742V666.558C854.5 667.387 855.172 668.058 856 668.058C856.828 668.058 857.5 667.387 857.5 666.558V662.742Z" fill="#DEDEE7"/>
<path d="M857.5 674.192C857.5 673.363 856.828 672.692 856 672.692C855.172 672.692 854.5 673.363 854.5 674.192V678.008C854.5 678.837 855.172 679.508 856 679.508C856.828 679.508 857.5 678.837 857.5 678.008V674.192Z" fill="#DEDEE7"/>
<path d="M857.5 685.642C857.5 684.813 856.828 684.142 856 684.142C855.172 684.142 854.5 684.813 854.5 685.642V689.458C854.5 690.287 855.172 690.958 856 690.958C856.828 690.958 857.5 690.287 857.5 689.458V685.642Z" fill="#DEDEE7"/>
<path d="M857.5 697.092C857.5 696.263 856.828 695.592 856 695.592C855.172 695.592 854.5 696.263 854.5 697.092V699C854.5 699.827 855.169 700.498 855.996 700.5L857.99 700.506C858.819 700.508 859.492 699.838 859.494 699.01C859.497 698.181 858.827 697.508 857.999 697.506L857.5 697.504V697.092Z" fill="#DEDEE7"/>
<path d="M865.976 697.528C865.148 697.526 864.475 698.195 864.472 699.024C864.47 699.852 865.14 700.525 865.968 700.528L869.957 700.539C870.785 700.541 871.459 699.871 871.461 699.043C871.463 698.215 870.794 697.541 869.965 697.539L865.976 697.528Z" fill="#DEDEE7"/>
<path d="M877.943 697.561C877.115 697.559 876.441 698.229 876.439 699.057C876.437 699.885 877.106 700.559 877.935 700.561L881.924 700.572C882.752 700.575 883.425 699.905 883.428 699.076C883.43 698.248 882.76 697.575 881.932 697.572L877.943 697.561Z" fill="#DEDEE7"/>
<path d="M889.91 697.594C889.081 697.592 888.408 698.262 888.406 699.09C888.403 699.919 889.073 700.592 889.901 700.594L893.89 700.606C894.719 700.608 895.392 699.938 895.394 699.11C895.397 698.281 894.727 697.608 893.899 697.606L889.91 697.594Z" fill="#DEDEE7"/>
<path d="M901.876 697.628C901.048 697.625 900.375 698.295 900.372 699.124C900.37 699.952 901.04 700.625 901.868 700.628L905.857 700.639C906.685 700.641 907.359 699.971 907.361 699.143C907.363 698.315 906.694 697.641 905.865 697.639L901.876 697.628Z" fill="#DEDEE7"/>
<path d="M913.843 697.661C913.015 697.659 912.341 698.328 912.339 699.157C912.337 699.985 913.006 700.659 913.835 700.661L917.824 700.672C918.652 700.675 919.325 700.005 919.328 699.176C919.33 698.348 918.66 697.675 917.832 697.672L913.843 697.661Z" fill="#DEDEE7"/>
<path d="M925.81 697.694C924.981 697.692 924.308 698.362 924.306 699.19C924.303 700.019 924.973 700.692 925.801 700.694L929.79 700.706C930.619 700.708 931.292 700.038 931.294 699.21C931.297 698.381 930.627 697.708 929.799 697.706L925.81 697.694Z" fill="#DEDEE7"/>
<path d="M937.776 697.728C936.948 697.725 936.275 698.395 936.272 699.224C936.27 700.052 936.94 700.725 937.768 700.728L941.757 700.739C942.585 700.741 943.259 700.071 943.261 699.243C943.263 698.415 942.594 697.741 941.765 697.739L937.776 697.728Z" fill="#DEDEE7"/>
<path d="M949.743 697.761C948.915 697.759 948.241 698.429 948.239 699.257C948.237 700.085 948.906 700.759 949.735 700.761L953.724 700.772C954.552 700.775 955.225 700.105 955.228 699.276C955.23 698.448 954.56 697.775 953.732 697.772L949.743 697.761Z" fill="#DEDEE7"/>
<path d="M961.71 697.794C960.881 697.792 960.208 698.462 960.206 699.29C960.203 700.119 960.873 700.792 961.701 700.794L965.69 700.806C966.519 700.808 967.192 700.138 967.194 699.31C967.197 698.481 966.527 697.808 965.699 697.806L961.71 697.794Z" fill="#DEDEE7"/>
<path d="M973.676 697.828C972.848 697.825 972.175 698.495 972.172 699.324C972.17 700.152 972.84 700.825 973.668 700.828L977.657 700.839C978.485 700.841 979.159 700.172 979.161 699.343C979.163 698.515 978.494 697.841 977.665 697.839L973.676 697.828Z" fill="#DEDEE7"/>
<path d="M985.643 697.861C984.815 697.859 984.141 698.529 984.139 699.357C984.137 700.185 984.806 700.859 985.635 700.861L989.624 700.872C990.452 700.875 991.125 700.205 991.128 699.376C991.13 698.548 990.46 697.875 989.632 697.872L985.643 697.861Z" fill="#DEDEE7"/>
<path d="M997.61 697.894C996.781 697.892 996.108 698.562 996.106 699.39C996.103 700.219 996.773 700.892 997.601 700.894L1001.59 700.906C1002.42 700.908 1003.09 700.238 1003.09 699.41C1003.1 698.581 1002.43 697.908 1001.6 697.906L997.61 697.894Z" fill="#DEDEE7"/>
<path d="M1009.58 697.928C1008.75 697.925 1008.07 698.595 1008.07 699.424C1008.07 700.252 1008.74 700.925 1009.57 700.928L1013.56 700.939C1014.39 700.941 1015.06 700.271 1015.06 699.443C1015.06 698.615 1014.39 697.941 1013.57 697.939L1009.58 697.928Z" fill="#DEDEE7"/>
<path d="M1021.54 697.961C1020.71 697.959 1020.04 698.629 1020.04 699.457C1020.04 700.285 1020.71 700.959 1021.53 700.961L1025.52 700.972C1026.35 700.974 1027.03 700.305 1027.03 699.476C1027.03 698.648 1026.36 697.975 1025.53 697.972L1021.54 697.961Z" fill="#DEDEE7"/>
<path d="M1033.51 697.994C1032.68 697.992 1032.01 698.662 1032.01 699.49C1032 700.319 1032.67 700.992 1033.5 700.994L1037.49 701.006C1038.32 701.008 1038.99 700.338 1038.99 699.51C1039 698.681 1038.33 698.008 1037.5 698.006L1033.51 697.994Z" fill="#DEDEE7"/>
<path d="M1045.48 698.028C1044.65 698.026 1043.97 698.695 1043.97 699.524C1043.97 700.352 1044.64 701.025 1045.47 701.028L1049.46 701.039C1050.29 701.041 1050.96 700.371 1050.96 699.543C1050.96 698.715 1050.29 698.041 1049.47 698.039L1045.48 698.028Z" fill="#DEDEE7"/>
<path d="M1057.44 698.061C1056.61 698.059 1055.94 698.729 1055.94 699.557C1055.94 700.385 1056.61 701.059 1057.43 701.061L1061.42 701.072C1062.25 701.075 1062.93 700.405 1062.93 699.576C1062.93 698.748 1062.26 698.075 1061.43 698.072L1057.44 698.061Z" fill="#DEDEE7"/>
<path d="M1069.41 698.094C1068.58 698.092 1067.91 698.762 1067.91 699.59C1067.9 700.419 1068.57 701.092 1069.4 701.094L1073.39 701.106C1074.22 701.108 1074.89 700.438 1074.89 699.61C1074.9 698.781 1074.23 698.108 1073.4 698.106L1069.41 698.094Z" fill="#DEDEE7"/>
<path d="M752 555.5C751.172 555.5 750.5 556.172 750.5 557V559.104C750.5 559.933 751.172 560.604 752 560.604C752.828 560.604 753.5 559.933 753.5 559.104V558.5H754C754.828 558.5 755.5 557.828 755.5 557C755.5 556.172 754.828 555.5 754 555.5H752Z" fill="#DEDEE7"/>
<path d="M762 555.5C761.172 555.5 760.5 556.172 760.5 557C760.5 557.828 761.172 558.5 762 558.5H766C766.828 558.5 767.5 557.828 767.5 557C767.5 556.172 766.828 555.5 766 555.5H762Z" fill="#DEDEE7"/>
<path d="M774 555.5C773.172 555.5 772.5 556.172 772.5 557C772.5 557.828 773.172 558.5 774 558.5H778C778.828 558.5 779.5 557.828 779.5 557C779.5 556.172 778.828 555.5 778 555.5H774Z" fill="#DEDEE7"/>
<path d="M786 555.5C785.172 555.5 784.5 556.172 784.5 557C784.5 557.828 785.172 558.5 786 558.5H790C790.828 558.5 791.5 557.828 791.5 557C791.5 556.172 790.828 555.5 790 555.5H786Z" fill="#DEDEE7"/>
<path d="M798 555.5C797.172 555.5 796.5 556.172 796.5 557C796.5 557.828 797.172 558.5 798 558.5H800C800.828 558.5 801.5 557.828 801.5 557C801.5 556.172 800.828 555.5 800 555.5H798Z" fill="#DEDEE7"/>
<path d="M753.5 567.521C753.5 566.692 752.828 566.021 752 566.021C751.172 566.021 750.5 566.692 750.5 567.521V571.729C750.5 572.558 751.172 573.229 752 573.229C752.828 573.229 753.5 572.558 753.5 571.729V567.521Z" fill="#DEDEE7"/>
<path d="M753.5 580.146C753.5 579.317 752.828 578.646 752 578.646C751.172 578.646 750.5 579.317 750.5 580.146V584.354C750.5 585.183 751.172 585.854 752 585.854C752.828 585.854 753.5 585.183 753.5 584.354V580.146Z" fill="#DEDEE7"/>
<path d="M753.5 592.771C753.5 591.942 752.828 591.271 752 591.271C751.172 591.271 750.5 591.942 750.5 592.771V596.979C750.5 597.808 751.172 598.479 752 598.479C752.828 598.479 753.5 597.808 753.5 596.979V592.771Z" fill="#DEDEE7"/>
<path d="M753.5 605.396C753.5 604.567 752.828 603.896 752 603.896C751.172 603.896 750.5 604.567 750.5 605.396V609.604C750.5 610.433 751.172 611.104 752 611.104C752.828 611.104 753.5 610.433 753.5 609.604V605.396Z" fill="#DEDEE7"/>
<path d="M753.5 618.021C753.5 617.192 752.828 616.521 752 616.521C751.172 616.521 750.5 617.192 750.5 618.021V622.229C750.5 623.058 751.172 623.729 752 623.729C752.828 623.729 753.5 623.058 753.5 622.229V618.021Z" fill="#DEDEE7"/>
<path d="M753.5 630.646C753.5 629.817 752.828 629.146 752 629.146C751.172 629.146 750.5 629.817 750.5 630.646V634.854C750.5 635.683 751.172 636.354 752 636.354C752.828 636.354 753.5 635.683 753.5 634.854V630.646Z" fill="#DEDEE7"/>
<path d="M753.5 643.271C753.5 642.442 752.828 641.771 752 641.771C751.172 641.771 750.5 642.442 750.5 643.271V647.479C750.5 648.308 751.172 648.979 752 648.979C752.828 648.979 753.5 648.308 753.5 647.479V643.271Z" fill="#DEDEE7"/>
<path d="M753.5 655.896C753.5 655.067 752.828 654.396 752 654.396C751.172 654.396 750.5 655.067 750.5 655.896V656.5H750.095C749.267 656.5 748.595 657.172 748.595 658C748.595 658.828 749.267 659.5 750.095 659.5H752C752.828 659.5 753.5 658.828 753.5 658V655.896Z" fill="#DEDEE7"/>
<path d="M672 656.5C671.172 656.5 670.5 657.172 670.5 658C670.5 658.828 671.172 659.5 672 659.5H673.905C674.733 659.5 675.405 658.828 675.405 658C675.405 657.172 674.733 656.5 673.905 656.5H672Z" fill="#DEDEE7"/>
<path d="M681.524 656.5C680.695 656.5 680.024 657.172 680.024 658C680.024 658.828 680.695 659.5 681.524 659.5H685.333C686.162 659.5 686.833 658.828 686.833 658C686.833 657.172 686.162 656.5 685.333 656.5H681.524Z" fill="#DEDEE7"/>
<path d="M692.952 656.5C692.124 656.5 691.452 657.172 691.452 658C691.452 658.828 692.124 659.5 692.952 659.5H696.762C697.59 659.5 698.262 658.828 698.262 658C698.262 657.172 697.59 656.5 696.762 656.5H692.952Z" fill="#DEDEE7"/>
<path d="M704.381 656.5C703.553 656.5 702.881 657.172 702.881 658C702.881 658.828 703.553 659.5 704.381 659.5H708.19C709.019 659.5 709.69 658.828 709.69 658C709.69 657.172 709.019 656.5 708.19 656.5H704.381Z" fill="#DEDEE7"/>
<path d="M715.81 656.5C714.981 656.5 714.31 657.172 714.31 658C714.31 658.828 714.981 659.5 715.81 659.5H719.619C720.447 659.5 721.119 658.828 721.119 658C721.119 657.172 720.447 656.5 719.619 656.5H715.81Z" fill="#DEDEE7"/>
<path d="M727.238 656.5C726.41 656.5 725.738 657.172 725.738 658C725.738 658.828 726.41 659.5 727.238 659.5H731.048C731.876 659.5 732.548 658.828 732.548 658C732.548 657.172 731.876 656.5 731.048 656.5H727.238Z" fill="#DEDEE7"/>
<path d="M738.667 656.5C737.838 656.5 737.167 657.172 737.167 658C737.167 658.828 737.838 659.5 738.667 659.5H742.476C743.305 659.5 743.976 658.828 743.976 658C743.976 657.172 743.305 656.5 742.476 656.5H738.667Z" fill="#DEDEE7"/>
<path d="M748.5 418.5C749.328 418.5 750 419.172 750 420C750 420.828 749.328 421.5 748.5 421.5H746.271C745.442 421.5 744.771 420.828 744.771 420C744.771 419.172 745.442 418.5 746.271 418.5H748.5Z" fill="#DEDEE7"/>
<path d="M737.354 418.5C738.183 418.5 738.854 419.172 738.854 420C738.854 420.828 738.183 421.5 737.354 421.5H732.896C732.067 421.5 731.396 420.828 731.396 420C731.396 419.172 732.067 418.5 732.896 418.5H737.354Z" fill="#DEDEE7"/>
<path d="M723.979 418.5C724.808 418.5 725.479 419.172 725.479 420C725.479 420.828 724.808 421.5 723.979 421.5H719.521C718.692 421.5 718.021 420.828 718.021 420C718.021 419.172 718.692 418.5 719.521 418.5H723.979Z" fill="#DEDEE7"/>
<path d="M710.604 418.5C711.433 418.5 712.104 419.172 712.104 420C712.104 420.828 711.433 421.5 710.604 421.5H706.146C705.317 421.5 704.646 420.828 704.646 420C704.646 419.172 705.317 418.5 706.146 418.5H710.604Z" fill="#DEDEE7"/>
<path d="M697.229 418.5C698.058 418.5 698.729 419.172 698.729 420C698.729 420.828 698.058 421.5 697.229 421.5H696.5V422.042C696.5 422.87 695.828 423.542 695 423.542C694.172 423.542 693.5 422.87 693.5 422.042V420C693.5 419.172 694.172 418.5 695 418.5H697.229Z" fill="#DEDEE7"/>
<path d="M693.5 430.208C693.5 429.38 694.172 428.708 695 428.708C695.828 428.708 696.5 429.38 696.5 430.208V434.292C696.5 435.12 695.828 435.792 695 435.792C694.172 435.792 693.5 435.12 693.5 434.292V430.208Z" fill="#DEDEE7"/>
<path d="M693.5 442.458C693.5 441.63 694.172 440.958 695 440.958C695.828 440.958 696.5 441.63 696.5 442.458V446.542C696.5 447.37 695.828 448.042 695 448.042C694.172 448.042 693.5 447.37 693.5 446.542V442.458Z" fill="#DEDEE7"/>
<path d="M693.5 454.708C693.5 453.88 694.172 453.208 695 453.208C695.828 453.208 696.5 453.88 696.5 454.708V458.792C696.5 459.62 695.828 460.292 695 460.292C694.172 460.292 693.5 459.62 693.5 458.792V454.708Z" fill="#DEDEE7"/>
<path d="M693.5 466.958C693.5 466.13 694.172 465.458 695 465.458C695.828 465.458 696.5 466.13 696.5 466.958V471.042C696.5 471.87 695.828 472.542 695 472.542C694.172 472.542 693.5 471.87 693.5 471.042V466.958Z" fill="#DEDEE7"/>
<path d="M693.5 479.208C693.5 478.38 694.172 477.708 695 477.708C695.828 477.708 696.5 478.38 696.5 479.208V483.292C696.5 484.12 695.828 484.792 695 484.792C694.172 484.792 693.5 484.12 693.5 483.292V479.208Z" fill="#DEDEE7"/>
<path d="M693.5 491.458C693.5 490.63 694.172 489.958 695 489.958C695.828 489.958 696.5 490.63 696.5 491.458V493.5C696.5 494.328 695.828 495 695 495H692.861C692.033 495 691.361 494.328 691.361 493.5C691.361 492.672 692.033 492 692.861 492H693.5V491.458Z" fill="#DEDEE7"/>
<path d="M684.306 492C685.134 492 685.806 492.672 685.806 493.5C685.806 494.328 685.134 495 684.306 495H680.028C679.199 495 678.528 494.328 678.528 493.5C678.528 492.672 679.199 492 680.028 492H684.306Z" fill="#DEDEE7"/>
<path d="M671.472 492C672.301 492 672.972 492.672 672.972 493.5C672.972 494.328 672.301 495 671.472 495H667.194C666.366 495 665.694 494.328 665.694 493.5C665.694 492.672 666.366 492 667.194 492H671.472Z" fill="#DEDEE7"/>
<path d="M658.639 492C659.467 492 660.139 492.672 660.139 493.5C660.139 494.328 659.467 495 658.639 495H656.5C655.672 495 655 494.328 655 493.5C655 492.672 655.672 492 656.5 492H658.639Z" fill="#DEDEE7"/>
<path d="M781 298C781 297.172 780.328 296.5 779.5 296.5H777.44C776.612 296.5 775.94 297.172 775.94 298C775.94 298.828 776.612 299.5 777.44 299.5H779.5C780.328 299.5 781 298.828 781 298Z" fill="#DEDEE7"/>
<path d="M770.702 298C770.702 297.172 770.031 296.5 769.202 296.5H765.083C764.255 296.5 763.583 297.172 763.583 298C763.583 298.828 764.255 299.5 765.083 299.5H769.202C770.031 299.5 770.702 298.828 770.702 298Z" fill="#DEDEE7"/>
<path d="M758.345 298C758.345 297.172 757.674 296.5 756.845 296.5H752.726C751.898 296.5 751.226 297.172 751.226 298C751.226 298.828 751.898 299.5 752.726 299.5H756.845C757.674 299.5 758.345 298.828 758.345 298Z" fill="#DEDEE7"/>
<path d="M745.988 298C745.988 297.172 745.317 296.5 744.488 296.5H740.369C739.541 296.5 738.869 297.172 738.869 298C738.869 298.828 739.541 299.5 740.369 299.5H744.488C745.317 299.5 745.988 298.828 745.988 298Z" fill="#DEDEE7"/>
<path d="M733.631 298C733.631 297.172 732.959 296.5 732.131 296.5H728.012C727.183 296.5 726.512 297.172 726.512 298C726.512 298.828 727.183 299.5 728.012 299.5H732.131C732.959 299.5 733.631 298.828 733.631 298Z" fill="#DEDEE7"/>
<path d="M721.274 298C721.274 297.172 720.602 296.5 719.774 296.5H715.655C714.826 296.5 714.155 297.172 714.155 298C714.155 298.828 714.826 299.5 715.655 299.5H719.774C720.602 299.5 721.274 298.828 721.274 298Z" fill="#DEDEE7"/>
<path d="M708.917 298C708.917 297.172 708.245 296.5 707.417 296.5H703.298C702.469 296.5 701.798 297.172 701.798 298C701.798 298.828 702.469 299.5 703.298 299.5H707.417C708.245 299.5 708.917 298.828 708.917 298Z" fill="#DEDEE7"/>
<path d="M696.56 298C696.56 297.172 695.888 296.5 695.06 296.5H693C692.172 296.5 691.5 297.172 691.5 298V299.896C691.5 300.724 692.172 301.396 693 301.396C693.828 301.396 694.5 300.724 694.5 299.896V299.5H695.06C695.888 299.5 696.56 298.828 696.56 298Z" fill="#DEDEE7"/>
<path d="M693 305.979C692.172 305.979 691.5 306.651 691.5 307.479V311.271C691.5 312.099 692.172 312.771 693 312.771C693.828 312.771 694.5 312.099 694.5 311.271V307.479C694.5 306.651 693.828 305.979 693 305.979Z" fill="#DEDEE7"/>
<path d="M693 317.354C692.172 317.354 691.5 318.026 691.5 318.854V322.646C691.5 323.474 692.172 324.146 693 324.146C693.828 324.146 694.5 323.474 694.5 322.646V318.854C694.5 318.026 693.828 317.354 693 317.354Z" fill="#DEDEE7"/>
<path d="M693 328.729C692.172 328.729 691.5 329.401 691.5 330.229V334.021C691.5 334.849 692.172 335.521 693 335.521C693.828 335.521 694.5 334.849 694.5 334.021V330.229C694.5 329.401 693.828 328.729 693 328.729Z" fill="#DEDEE7"/>
<path d="M693 340.104C692.172 340.104 691.5 340.776 691.5 341.604V342H691.067C690.238 342 689.567 342.672 689.567 343.5C689.567 344.328 690.238 345 691.067 345H693C693.828 345 694.5 344.328 694.5 343.5V341.604C694.5 340.776 693.828 340.104 693 340.104Z" fill="#DEDEE7"/>
<path d="M684.833 343.5C684.833 342.672 684.162 342 683.333 342H679.467C678.638 342 677.967 342.672 677.967 343.5C677.967 344.328 678.638 345 679.467 345H683.333C684.162 345 684.833 344.328 684.833 343.5Z" fill="#DEDEE7"/>
<path d="M673.233 343.5C673.233 342.672 672.562 342 671.733 342H667.867C667.038 342 666.367 342.672 666.367 343.5C666.367 344.328 667.038 345 667.867 345H671.733C672.562 345 673.233 344.328 673.233 343.5Z" fill="#DEDEE7"/>
<path d="M661.633 343.5C661.633 342.672 660.962 342 660.133 342H656.267C655.438 342 654.767 342.672 654.767 343.5C654.767 344.328 655.438 345 656.267 345H660.133C660.962 345 661.633 344.328 661.633 343.5Z" fill="#DEDEE7"/>
<path d="M650.033 343.5C650.033 342.672 649.362 342 648.533 342H644.667C643.838 342 643.167 342.672 643.167 343.5C643.167 344.328 643.838 345 644.667 345H648.533C649.362 345 650.033 344.328 650.033 343.5Z" fill="#DEDEE7"/>
<path d="M638.433 343.5C638.433 342.672 637.762 342 636.933 342H635C634.172 342 633.5 342.672 633.5 343.5C633.5 344.328 634.172 345 635 345H636.933C637.762 345 638.433 344.328 638.433 343.5Z" fill="#DEDEE7"/>
<path d="M1058.5 330C1058.5 329.172 1059.17 328.5 1060 328.5H1062.23C1063.06 328.5 1063.73 329.172 1063.73 330C1063.73 330.828 1063.06 331.5 1062.23 331.5H1060C1059.17 331.5 1058.5 330.828 1058.5 330Z" fill="#DEDEE7"/>
<path d="M1069.65 330C1069.65 329.172 1070.32 328.5 1071.15 328.5H1075.6C1076.43 328.5 1077.1 329.172 1077.1 330C1077.1 330.828 1076.43 331.5 1075.6 331.5H1071.15C1070.32 331.5 1069.65 330.828 1069.65 330Z" fill="#DEDEE7"/>
<path d="M1083.02 330C1083.02 329.172 1083.69 328.5 1084.52 328.5H1088.98C1089.81 328.5 1090.48 329.172 1090.48 330C1090.48 330.828 1089.81 331.5 1088.98 331.5H1084.52C1083.69 331.5 1083.02 330.828 1083.02 330Z" fill="#DEDEE7"/>
<path d="M1096.4 330C1096.4 329.172 1097.07 328.5 1097.9 328.5H1102.35C1103.18 328.5 1103.85 329.172 1103.85 330C1103.85 330.828 1103.18 331.5 1102.35 331.5H1097.9C1097.07 331.5 1096.4 330.828 1096.4 330Z" fill="#DEDEE7"/>
<path d="M1109.77 330C1109.77 329.172 1110.44 328.5 1111.27 328.5H1113.5C1114.33 328.5 1115 329.172 1115 330V332.104C1115 332.933 1114.33 333.604 1113.5 333.604C1112.67 333.604 1112 332.933 1112 332.104V331.5H1111.27C1110.44 331.5 1109.77 330.828 1109.77 330Z" fill="#DEDEE7"/>
<path d="M1113.5 339.021C1114.33 339.021 1115 339.692 1115 340.521V344.729C1115 345.558 1114.33 346.229 1113.5 346.229C1112.67 346.229 1112 345.558 1112 344.729V340.521C1112 339.692 1112.67 339.021 1113.5 339.021Z" fill="#DEDEE7"/>
<path d="M1113.5 351.646C1114.33 351.646 1115 352.317 1115 353.146V357.354C1115 358.183 1114.33 358.854 1113.5 358.854C1112.67 358.854 1112 358.183 1112 357.354V353.146C1112 352.317 1112.67 351.646 1113.5 351.646Z" fill="#DEDEE7"/>
<path d="M1113.5 364.271C1114.33 364.271 1115 364.942 1115 365.771V369.979C1115 370.808 1114.33 371.479 1113.5 371.479C1112.67 371.479 1112 370.808 1112 369.979V365.771C1112 364.942 1112.67 364.271 1113.5 364.271Z" fill="#DEDEE7"/>
<path d="M1113.5 376.896C1114.33 376.896 1115 377.567 1115 378.396V379H1115.46C1116.28 379 1116.96 379.672 1116.96 380.5C1116.96 381.328 1116.28 382 1115.46 382H1113.5C1112.67 382 1112 381.328 1112 380.5V378.396C1112 377.567 1112.67 376.896 1113.5 376.896Z" fill="#DEDEE7"/>
<path d="M1121.78 380.5C1121.78 379.672 1122.45 379 1123.28 379H1127.19C1128.01 379 1128.69 379.672 1128.69 380.5C1128.69 381.328 1128.01 382 1127.19 382H1123.28C1122.45 382 1121.78 381.328 1121.78 380.5Z" fill="#DEDEE7"/>
<path d="M1133.51 380.5C1133.51 379.672 1134.18 379 1135.01 379H1138.92C1139.75 379 1140.42 379.672 1140.42 380.5C1140.42 381.328 1139.75 382 1138.92 382H1135.01C1134.18 382 1133.51 381.328 1133.51 380.5Z" fill="#DEDEE7"/>
<path d="M1145.24 380.5C1145.24 379.672 1145.91 379 1146.74 379H1150.65C1151.48 379 1152.15 379.672 1152.15 380.5C1152.15 381.328 1151.48 382 1150.65 382H1146.74C1145.91 382 1145.24 381.328 1145.24 380.5Z" fill="#DEDEE7"/>
<path d="M1156.97 380.5C1156.97 379.672 1157.64 379 1158.47 379H1162.38C1163.21 379 1163.88 379.672 1163.88 380.5C1163.88 381.328 1163.21 382 1162.38 382H1158.47C1157.64 382 1156.97 381.328 1156.97 380.5Z" fill="#DEDEE7"/>
<path d="M1168.7 380.5C1168.7 379.672 1169.37 379 1170.2 379H1174.11C1174.94 379 1175.61 379.672 1175.61 380.5C1175.61 381.328 1174.94 382 1174.11 382H1170.2C1169.37 382 1168.7 381.328 1168.7 380.5Z" fill="#DEDEE7"/>
<path d="M1180.43 380.5C1180.43 379.672 1181.1 379 1181.93 379H1185.84C1186.67 379 1187.34 379.672 1187.34 380.5C1187.34 381.328 1186.67 382 1185.84 382H1181.93C1181.1 382 1180.43 381.328 1180.43 380.5Z" fill="#DEDEE7"/>
<path d="M1192.16 380.5C1192.16 379.672 1192.83 379 1193.66 379H1197.57C1198.4 379 1199.07 379.672 1199.07 380.5C1199.07 381.328 1198.4 382 1197.57 382H1193.66C1192.83 382 1192.16 381.328 1192.16 380.5Z" fill="#DEDEE7"/>
<path d="M1203.89 380.5C1203.89 379.672 1204.56 379 1205.39 379H1209.3C1210.13 379 1210.8 379.672 1210.8 380.5C1210.8 381.328 1210.13 382 1209.3 382H1205.39C1204.56 382 1203.89 381.328 1203.89 380.5Z" fill="#DEDEE7"/>
<path d="M1215.62 380.5C1215.62 379.672 1216.29 379 1217.12 379H1221.03C1221.86 379 1222.53 379.672 1222.53 380.5C1222.53 381.328 1221.86 382 1221.03 382H1217.12C1216.29 382 1215.62 381.328 1215.62 380.5Z" fill="#DEDEE7"/>
<path d="M1227.35 380.5C1227.35 379.672 1228.02 379 1228.85 379H1232.76C1233.59 379 1234.26 379.672 1234.26 380.5C1234.26 381.328 1233.59 382 1232.76 382H1228.85C1228.02 382 1227.35 381.328 1227.35 380.5Z" fill="#DEDEE7"/>
<path d="M1110.38 457.5C1109.55 457.5 1108.88 458.172 1108.88 459V460.923C1108.88 461.751 1109.55 462.423 1110.38 462.423C1111.21 462.423 1111.88 461.751 1111.88 460.923V460.5H1112.42C1113.24 460.5 1113.92 459.828 1113.92 459C1113.92 458.172 1113.24 457.5 1112.42 457.5H1110.38Z" fill="#DEDEE7"/>
<path d="M1120.55 457.5C1119.72 457.5 1119.05 458.172 1119.05 459C1119.05 459.828 1119.72 460.5 1120.55 460.5H1124.62C1125.45 460.5 1126.12 459.828 1126.12 459C1126.12 458.172 1125.45 457.5 1124.62 457.5H1120.55Z" fill="#DEDEE7"/>
<path d="M1132.75 457.5C1131.92 457.5 1131.25 458.172 1131.25 459C1131.25 459.828 1131.92 460.5 1132.75 460.5H1136.82C1137.65 460.5 1138.32 459.828 1138.32 459C1138.32 458.172 1137.65 457.5 1136.82 457.5H1132.75Z" fill="#DEDEE7"/>
<path d="M1144.95 457.5C1144.12 457.5 1143.45 458.172 1143.45 459C1143.45 459.828 1144.12 460.5 1144.95 460.5H1149.02C1149.85 460.5 1150.52 459.828 1150.52 459C1150.52 458.172 1149.85 457.5 1149.02 457.5H1144.95Z" fill="#DEDEE7"/>
<path d="M1157.15 457.5C1156.33 457.5 1155.65 458.172 1155.65 459C1155.65 459.828 1156.33 460.5 1157.15 460.5H1161.22C1162.05 460.5 1162.72 459.828 1162.72 459C1162.72 458.172 1162.05 457.5 1161.22 457.5H1157.15Z" fill="#DEDEE7"/>
<path d="M1169.36 457.5C1168.53 457.5 1167.86 458.172 1167.86 459C1167.86 459.828 1168.53 460.5 1169.36 460.5H1173.42C1174.25 460.5 1174.92 459.828 1174.92 459C1174.92 458.172 1174.25 457.5 1173.42 457.5H1169.36Z" fill="#DEDEE7"/>
<path d="M1181.56 457.5C1180.73 457.5 1180.06 458.172 1180.06 459C1180.06 459.828 1180.73 460.5 1181.56 460.5H1185.62C1186.45 460.5 1187.12 459.828 1187.12 459C1187.12 458.172 1186.45 457.5 1185.62 457.5H1181.56Z" fill="#DEDEE7"/>
<path d="M1193.76 457.5C1192.93 457.5 1192.26 458.172 1192.26 459C1192.26 459.828 1192.93 460.5 1193.76 460.5H1197.83C1198.65 460.5 1199.33 459.828 1199.33 459C1199.33 458.172 1198.65 457.5 1197.83 457.5H1193.76Z" fill="#DEDEE7"/>
<path d="M1205.96 457.5C1205.13 457.5 1204.46 458.172 1204.46 459C1204.46 459.828 1205.13 460.5 1205.96 460.5H1210.03C1210.85 460.5 1211.53 459.828 1211.53 459C1211.53 458.172 1210.85 457.5 1210.03 457.5H1205.96Z" fill="#DEDEE7"/>
<path d="M1218.16 457.5C1217.33 457.5 1216.66 458.172 1216.66 459C1216.66 459.828 1217.33 460.5 1218.16 460.5H1222.23C1223.06 460.5 1223.73 459.828 1223.73 459C1223.73 458.172 1223.06 457.5 1222.23 457.5H1218.16Z" fill="#DEDEE7"/>
<path d="M1230.36 457.5C1229.53 457.5 1228.86 458.172 1228.86 459C1228.86 459.828 1229.53 460.5 1230.36 460.5H1234.43C1235.26 460.5 1235.93 459.828 1235.93 459C1235.93 458.172 1235.26 457.5 1234.43 457.5H1230.36Z" fill="#DEDEE7"/>
<path d="M1111.88 468.615C1111.88 467.787 1111.21 467.115 1110.38 467.115C1109.55 467.115 1108.88 467.787 1108.88 468.615V472.462C1108.88 473.29 1109.55 473.962 1110.38 473.962C1111.21 473.962 1111.88 473.29 1111.88 472.462V468.615Z" fill="#DEDEE7"/>
<path d="M1111.88 480.154C1111.88 479.325 1111.21 478.654 1110.38 478.654C1109.55 478.654 1108.88 479.325 1108.88 480.154V484C1108.88 484.828 1109.55 485.5 1110.38 485.5C1111.21 485.5 1111.88 484.828 1111.88 484V480.154Z" fill="#DEDEE7"/>
<path d="M1111.88 491.692C1111.88 490.864 1111.21 490.192 1110.38 490.192C1109.55 490.192 1108.88 490.864 1108.88 491.692V495.538C1108.88 496.367 1109.55 497.038 1110.38 497.038C1111.21 497.038 1111.88 496.367 1111.88 495.538V491.692Z" fill="#DEDEE7"/>
<path d="M1111.88 503.231C1111.88 502.402 1111.21 501.731 1110.38 501.731C1109.55 501.731 1108.88 502.402 1108.88 503.231V507.077C1108.88 507.905 1109.55 508.577 1110.38 508.577C1111.21 508.577 1111.88 507.905 1111.88 507.077V503.231Z" fill="#DEDEE7"/>
<path d="M1111.88 514.769C1111.88 513.941 1111.21 513.269 1110.38 513.269C1109.55 513.269 1108.88 513.941 1108.88 514.769V518.615C1108.88 519.444 1109.55 520.115 1110.38 520.115C1111.21 520.115 1111.88 519.444 1111.88 518.615V514.769Z" fill="#DEDEE7"/>
<path d="M1111.88 526.308C1111.88 525.479 1111.21 524.808 1110.38 524.808C1109.55 524.808 1108.88 525.479 1108.88 526.308V530.154C1108.88 530.982 1109.55 531.654 1110.38 531.654C1111.21 531.654 1111.88 530.982 1111.88 530.154V526.308Z" fill="#DEDEE7"/>
<path d="M1111.88 537.846C1111.88 537.018 1111.21 536.346 1110.38 536.346C1109.55 536.346 1108.88 537.018 1108.88 537.846V541.692C1108.88 542.521 1109.55 543.192 1110.38 543.192C1111.21 543.192 1111.88 542.521 1111.88 541.692V537.846Z" fill="#DEDEE7"/>
<path d="M1111.88 549.385C1111.88 548.556 1111.21 547.885 1110.38 547.885C1109.55 547.885 1108.88 548.556 1108.88 549.385V553.231C1108.88 554.059 1109.55 554.731 1110.38 554.731C1111.21 554.731 1111.88 554.059 1111.88 553.231V549.385Z" fill="#DEDEE7"/>
<path d="M1111.88 560.923C1111.88 560.095 1111.21 559.423 1110.38 559.423C1109.55 559.423 1108.88 560.095 1108.88 560.923V564.769C1108.88 565.598 1109.55 566.269 1110.38 566.269C1111.21 566.269 1111.88 565.598 1111.88 564.769V560.923Z" fill="#DEDEE7"/>
<path d="M1111.88 572.462C1111.88 571.633 1111.21 570.962 1110.38 570.962C1109.55 570.962 1108.88 571.633 1108.88 572.462V576.308C1108.88 577.136 1109.55 577.808 1110.38 577.808C1111.21 577.808 1111.88 577.136 1111.88 576.308V572.462Z" fill="#DEDEE7"/>
<path d="M1111.88 584C1111.88 583.172 1111.21 582.5 1110.38 582.5C1109.55 582.5 1108.88 583.172 1108.88 584V587.846C1108.88 588.675 1109.55 589.346 1110.38 589.346C1111.21 589.346 1111.88 588.675 1111.88 587.846V584Z" fill="#DEDEE7"/>
<path d="M1111.88 595.538C1111.88 594.71 1111.21 594.038 1110.38 594.038C1109.55 594.038 1108.88 594.71 1108.88 595.538V599.385C1108.88 600.213 1109.55 600.885 1110.38 600.885C1111.21 600.885 1111.88 600.213 1111.88 599.385V595.538Z" fill="#DEDEE7"/>
<path d="M1111.88 607.077C1111.88 606.248 1111.21 605.577 1110.38 605.577C1109.55 605.577 1108.88 606.248 1108.88 607.077V607.5H1108.53C1107.7 607.5 1107.03 608.172 1107.03 609C1107.03 609.828 1107.7 610.5 1108.53 610.5H1110.38C1111.21 610.5 1111.88 609.828 1111.88 609V607.077Z" fill="#DEDEE7"/>
<path d="M1077 607.5C1076.17 607.5 1075.5 608.172 1075.5 609C1075.5 609.828 1076.17 610.5 1077 610.5H1078.85C1079.68 610.5 1080.35 609.828 1080.35 609C1080.35 608.172 1079.68 607.5 1078.85 607.5H1077Z" fill="#DEDEE7"/>
<path d="M1086.27 607.5C1085.44 607.5 1084.77 608.172 1084.77 609C1084.77 609.828 1085.44 610.5 1086.27 610.5H1089.98C1090.81 610.5 1091.48 609.828 1091.48 609C1091.48 608.172 1090.81 607.5 1089.98 607.5H1086.27Z" fill="#DEDEE7"/>
<path d="M1097.4 607.5C1096.57 607.5 1095.9 608.172 1095.9 609C1095.9 609.828 1096.57 610.5 1097.4 610.5H1101.11C1101.94 610.5 1102.61 609.828 1102.61 609C1102.61 608.172 1101.94 607.5 1101.11 607.5H1097.4Z" fill="#DEDEE7"/>
<mask id="path-3-inside-1" fill="white">
<path d="M653 1020.5C653 1021.88 651.881 1023 650.5 1023C649.119 1023 648 1021.88 648 1020.5C648 1019.12 649.119 1018 650.5 1018C651.881 1018 653 1019.12 653 1020.5Z"/>
<path d="M653 975.5C653 976.881 651.881 978 650.5 978C649.119 978 648 976.881 648 975.5C648 974.119 649.119 973 650.5 973C651.881 973 653 974.119 653 975.5Z"/>
<path d="M653 930.5C653 931.881 651.881 933 650.5 933C649.119 933 648 931.881 648 930.5C648 929.119 649.119 928 650.5 928C651.881 928 653 929.119 653 930.5Z"/>
<path d="M653 885.5C653 886.881 651.881 888 650.5 888C649.119 888 648 886.881 648 885.5C648 884.119 649.119 883 650.5 883C651.881 883 653 884.119 653 885.5Z"/>
<path d="M653 840.5C653 841.881 651.881 843 650.5 843C649.119 843 648 841.881 648 840.5C648 839.119 649.119 838 650.5 838C651.881 838 653 839.119 653 840.5Z"/>
<path d="M653 795.5C653 796.881 651.881 798 650.5 798C649.119 798 648 796.881 648 795.5C648 794.119 649.119 793 650.5 793C651.881 793 653 794.119 653 795.5Z"/>
<path d="M653 750.5C653 751.881 651.881 753 650.5 753C649.119 753 648 751.881 648 750.5C648 749.119 649.119 748 650.5 748C651.881 748 653 749.119 653 750.5Z"/>
<path d="M698 1020.5C698 1021.88 696.881 1023 695.5 1023C694.119 1023 693 1021.88 693 1020.5C693 1019.12 694.119 1018 695.5 1018C696.881 1018 698 1019.12 698 1020.5Z"/>
<path d="M698 975.5C698 976.881 696.881 978 695.5 978C694.119 978 693 976.881 693 975.5C693 974.119 694.119 973 695.5 973C696.881 973 698 974.119 698 975.5Z"/>
<path d="M698 930.5C698 931.881 696.881 933 695.5 933C694.119 933 693 931.881 693 930.5C693 929.119 694.119 928 695.5 928C696.881 928 698 929.119 698 930.5Z"/>
<path d="M698 885.5C698 886.881 696.881 888 695.5 888C694.119 888 693 886.881 693 885.5C693 884.119 694.119 883 695.5 883C696.881 883 698 884.119 698 885.5Z"/>
<path d="M698 840.5C698 841.881 696.881 843 695.5 843C694.119 843 693 841.881 693 840.5C693 839.119 694.119 838 695.5 838C696.881 838 698 839.119 698 840.5Z"/>
<path d="M698 795.5C698 796.881 696.881 798 695.5 798C694.119 798 693 796.881 693 795.5C693 794.119 694.119 793 695.5 793C696.881 793 698 794.119 698 795.5Z"/>
<path d="M698 750.5C698 751.881 696.881 753 695.5 753C694.119 753 693 751.881 693 750.5C693 749.119 694.119 748 695.5 748C696.881 748 698 749.119 698 750.5Z"/>
<path d="M743 1020.5C743 1021.88 741.881 1023 740.5 1023C739.119 1023 738 1021.88 738 1020.5C738 1019.12 739.119 1018 740.5 1018C741.881 1018 743 1019.12 743 1020.5Z"/>
<path d="M743 975.5C743 976.881 741.881 978 740.5 978C739.119 978 738 976.881 738 975.5C738 974.119 739.119 973 740.5 973C741.881 973 743 974.119 743 975.5Z"/>
<path d="M743 930.5C743 931.881 741.881 933 740.5 933C739.119 933 738 931.881 738 930.5C738 929.119 739.119 928 740.5 928C741.881 928 743 929.119 743 930.5Z"/>
<path d="M743 885.5C743 886.881 741.881 888 740.5 888C739.119 888 738 886.881 738 885.5C738 884.119 739.119 883 740.5 883C741.881 883 743 884.119 743 885.5Z"/>
<path d="M743 840.5C743 841.881 741.881 843 740.5 843C739.119 843 738 841.881 738 840.5C738 839.119 739.119 838 740.5 838C741.881 838 743 839.119 743 840.5Z"/>
<path d="M743 795.5C743 796.881 741.881 798 740.5 798C739.119 798 738 796.881 738 795.5C738 794.119 739.119 793 740.5 793C741.881 793 743 794.119 743 795.5Z"/>
<path d="M743 750.5C743 751.881 741.881 753 740.5 753C739.119 753 738 751.881 738 750.5C738 749.119 739.119 748 740.5 748C741.881 748 743 749.119 743 750.5Z"/>
<path d="M788 1020.5C788 1021.88 786.881 1023 785.5 1023C784.119 1023 783 1021.88 783 1020.5C783 1019.12 784.119 1018 785.5 1018C786.881 1018 788 1019.12 788 1020.5Z"/>
<path d="M788 975.5C788 976.881 786.881 978 785.5 978C784.119 978 783 976.881 783 975.5C783 974.119 784.119 973 785.5 973C786.881 973 788 974.119 788 975.5Z"/>
<path d="M788 930.5C788 931.881 786.881 933 785.5 933C784.119 933 783 931.881 783 930.5C783 929.119 784.119 928 785.5 928C786.881 928 788 929.119 788 930.5Z"/>
<path d="M788 885.5C788 886.881 786.881 888 785.5 888C784.119 888 783 886.881 783 885.5C783 884.119 784.119 883 785.5 883C786.881 883 788 884.119 788 885.5Z"/>
<path d="M788 840.5C788 841.881 786.881 843 785.5 843C784.119 843 783 841.881 783 840.5C783 839.119 784.119 838 785.5 838C786.881 838 788 839.119 788 840.5Z"/>
<path d="M788 795.5C788 796.881 786.881 798 785.5 798C784.119 798 783 796.881 783 795.5C783 794.119 784.119 793 785.5 793C786.881 793 788 794.119 788 795.5Z"/>
<path d="M788 750.5C788 751.881 786.881 753 785.5 753C784.119 753 783 751.881 783 750.5C783 749.119 784.119 748 785.5 748C786.881 748 788 749.119 788 750.5Z"/>
<path d="M833 1020.5C833 1021.88 831.881 1023 830.5 1023C829.119 1023 828 1021.88 828 1020.5C828 1019.12 829.119 1018 830.5 1018C831.881 1018 833 1019.12 833 1020.5Z"/>
<path d="M833 975.5C833 976.881 831.881 978 830.5 978C829.119 978 828 976.881 828 975.5C828 974.119 829.119 973 830.5 973C831.881 973 833 974.119 833 975.5Z"/>
<path d="M833 930.5C833 931.881 831.881 933 830.5 933C829.119 933 828 931.881 828 930.5C828 929.119 829.119 928 830.5 928C831.881 928 833 929.119 833 930.5Z"/>
<path d="M833 885.5C833 886.881 831.881 888 830.5 888C829.119 888 828 886.881 828 885.5C828 884.119 829.119 883 830.5 883C831.881 883 833 884.119 833 885.5Z"/>
<path d="M833 840.5C833 841.881 831.881 843 830.5 843C829.119 843 828 841.881 828 840.5C828 839.119 829.119 838 830.5 838C831.881 838 833 839.119 833 840.5Z"/>
<path d="M833 795.5C833 796.881 831.881 798 830.5 798C829.119 798 828 796.881 828 795.5C828 794.119 829.119 793 830.5 793C831.881 793 833 794.119 833 795.5Z"/>
<path d="M833 750.5C833 751.881 831.881 753 830.5 753C829.119 753 828 751.881 828 750.5C828 749.119 829.119 748 830.5 748C831.881 748 833 749.119 833 750.5Z"/>
<path d="M878 1020.5C878 1021.88 876.881 1023 875.5 1023C874.119 1023 873 1021.88 873 1020.5C873 1019.12 874.119 1018 875.5 1018C876.881 1018 878 1019.12 878 1020.5Z"/>
<path d="M878 975.5C878 976.881 876.881 978 875.5 978C874.119 978 873 976.881 873 975.5C873 974.119 874.119 973 875.5 973C876.881 973 878 974.119 878 975.5Z"/>
<path d="M878 930.5C878 931.881 876.881 933 875.5 933C874.119 933 873 931.881 873 930.5C873 929.119 874.119 928 875.5 928C876.881 928 878 929.119 878 930.5Z"/>
<path d="M878 885.5C878 886.881 876.881 888 875.5 888C874.119 888 873 886.881 873 885.5C873 884.119 874.119 883 875.5 883C876.881 883 878 884.119 878 885.5Z"/>
<path d="M878 840.5C878 841.881 876.881 843 875.5 843C874.119 843 873 841.881 873 840.5C873 839.119 874.119 838 875.5 838C876.881 838 878 839.119 878 840.5Z"/>
<path d="M878 795.5C878 796.881 876.881 798 875.5 798C874.119 798 873 796.881 873 795.5C873 794.119 874.119 793 875.5 793C876.881 793 878 794.119 878 795.5Z"/>
<path d="M878 750.5C878 751.881 876.881 753 875.5 753C874.119 753 873 751.881 873 750.5C873 749.119 874.119 748 875.5 748C876.881 748 878 749.119 878 750.5Z"/>
<path d="M923 1020.5C923 1021.88 921.881 1023 920.5 1023C919.119 1023 918 1021.88 918 1020.5C918 1019.12 919.119 1018 920.5 1018C921.881 1018 923 1019.12 923 1020.5Z"/>
<path d="M923 975.5C923 976.881 921.881 978 920.5 978C919.119 978 918 976.881 918 975.5C918 974.119 919.119 973 920.5 973C921.881 973 923 974.119 923 975.5Z"/>
<path d="M923 930.5C923 931.881 921.881 933 920.5 933C919.119 933 918 931.881 918 930.5C918 929.119 919.119 928 920.5 928C921.881 928 923 929.119 923 930.5Z"/>
<path d="M923 885.5C923 886.881 921.881 888 920.5 888C919.119 888 918 886.881 918 885.5C918 884.119 919.119 883 920.5 883C921.881 883 923 884.119 923 885.5Z"/>
<path d="M923 840.5C923 841.881 921.881 843 920.5 843C919.119 843 918 841.881 918 840.5C918 839.119 919.119 838 920.5 838C921.881 838 923 839.119 923 840.5Z"/>
<path d="M923 795.5C923 796.881 921.881 798 920.5 798C919.119 798 918 796.881 918 795.5C918 794.119 919.119 793 920.5 793C921.881 793 923 794.119 923 795.5Z"/>
<path d="M923 750.5C923 751.881 921.881 753 920.5 753C919.119 753 918 751.881 918 750.5C918 749.119 919.119 748 920.5 748C921.881 748 923 749.119 923 750.5Z"/>
</mask>
<path d="M653 1020.5C653 1021.88 651.881 1023 650.5 1023C649.119 1023 648 1021.88 648 1020.5C648 1019.12 649.119 1018 650.5 1018C651.881 1018 653 1019.12 653 1020.5Z" stroke="#3360FF" stroke-width="2" mask="url(#path-3-inside-1)"/>
<path d="M653 975.5C653 976.881 651.881 978 650.5 978C649.119 978 648 976.881 648 975.5C648 974.119 649.119 973 650.5 973C651.881 973 653 974.119 653 975.5Z" stroke="#3360FF" stroke-width="2" mask="url(#path-3-inside-1)"/>
<path d="M653 930.5C653 931.881 651.881 933 650.5 933C649.119 933 648 931.881 648 930.5C648 929.119 649.119 928 650.5 928C651.881 928 653 929.119 653 930.5Z" stroke="#3360FF" stroke-width="2" mask="url(#path-3-inside-1)"/>
<path d="M653 885.5C653 886.881 651.881 888 650.5 888C649.119 888 648 886.881 648 885.5C648 884.119 649.119 883 650.5 883C651.881 883 653 884.119 653 885.5Z" stroke="#3360FF" stroke-width="2" mask="url(#path-3-inside-1)"/>
<path d="M653 840.5C653 841.881 651.881 843 650.5 843C649.119 843 648 841.881 648 840.5C648 839.119 649.119 838 650.5 838C651.881 838 653 839.119 653 840.5Z" stroke="#3360FF" stroke-width="2" mask="url(#path-3-inside-1)"/>
<path d="M653 795.5C653 796.881 651.881 798 650.5 798C649.119 798 648 796.881 648 795.5C648 794.119 649.119 793 650.5 793C651.881 793 653 794.119 653 795.5Z" stroke="#3360FF" stroke-width="2" mask="url(#path-3-inside-1)"/>
<path d="M653 750.5C653 751.881 651.881 753 650.5 753C649.119 753 648 751.881 648 750.5C648 749.119 649.119 748 650.5 748C651.881 748 653 749.119 653 750.5Z" stroke="#3360FF" stroke-width="2" mask="url(#path-3-inside-1)"/>
<path d="M698 1020.5C698 1021.88 696.881 1023 695.5 1023C694.119 1023 693 1021.88 693 1020.5C693 1019.12 694.119 1018 695.5 1018C696.881 1018 698 1019.12 698 1020.5Z" stroke="#3360FF" stroke-width="2" mask="url(#path-3-inside-1)"/>
<path d="M698 975.5C698 976.881 696.881 978 695.5 978C694.119 978 693 976.881 693 975.5C693 974.119 694.119 973 695.5 973C696.881 973 698 974.119 698 975.5Z" stroke="#3360FF" stroke-width="2" mask="url(#path-3-inside-1)"/>
<path d="M698 930.5C698 931.881 696.881 933 695.5 933C694.119 933 693 931.881 693 930.5C693 929.119 694.119 928 695.5 928C696.881 928 698 929.119 698 930.5Z" stroke="#3360FF" stroke-width="2" mask="url(#path-3-inside-1)"/>
<path d="M698 885.5C698 886.881 696.881 888 695.5 888C694.119 888 693 886.881 693 885.5C693 884.119 694.119 883 695.5 883C696.881 883 698 884.119 698 885.5Z" stroke="#3360FF" stroke-width="2" mask="url(#path-3-inside-1)"/>
<path d="M698 840.5C698 841.881 696.881 843 695.5 843C694.119 843 693 841.881 693 840.5C693 839.119 694.119 838 695.5 838C696.881 838 698 839.119 698 840.5Z" stroke="#3360FF" stroke-width="2" mask="url(#path-3-inside-1)"/>
<path d="M698 795.5C698 796.881 696.881 798 695.5 798C694.119 798 693 796.881 693 795.5C693 794.119 694.119 793 695.5 793C696.881 793 698 794.119 698 795.5Z" stroke="#3360FF" stroke-width="2" mask="url(#path-3-inside-1)"/>
<path d="M698 750.5C698 751.881 696.881 753 695.5 753C694.119 753 693 751.881 693 750.5C693 749.119 694.119 748 695.5 748C696.881 748 698 749.119 698 750.5Z" stroke="#3360FF" stroke-width="2" mask="url(#path-3-inside-1)"/>
<path d="M743 1020.5C743 1021.88 741.881 1023 740.5 1023C739.119 1023 738 1021.88 738 1020.5C738 1019.12 739.119 1018 740.5 1018C741.881 1018 743 1019.12 743 1020.5Z" stroke="#3360FF" stroke-width="2" mask="url(#path-3-inside-1)"/>
<path d="M743 975.5C743 976.881 741.881 978 740.5 978C739.119 978 738 976.881 738 975.5C738 974.119 739.119 973 740.5 973C741.881 973 743 974.119 743 975.5Z" stroke="#3360FF" stroke-width="2" mask="url(#path-3-inside-1)"/>
<path d="M743 930.5C743 931.881 741.881 933 740.5 933C739.119 933 738 931.881 738 930.5C738 929.119 739.119 928 740.5 928C741.881 928 743 929.119 743 930.5Z" stroke="#3360FF" stroke-width="2" mask="url(#path-3-inside-1)"/>
<path d="M743 885.5C743 886.881 741.881 888 740.5 888C739.119 888 738 886.881 738 885.5C738 884.119 739.119 883 740.5 883C741.881 883 743 884.119 743 885.5Z" stroke="#3360FF" stroke-width="2" mask="url(#path-3-inside-1)"/>
<path d="M743 840.5C743 841.881 741.881 843 740.5 843C739.119 843 738 841.881 738 840.5C738 839.119 739.119 838 740.5 838C741.881 838 743 839.119 743 840.5Z" stroke="#3360FF" stroke-width="2" mask="url(#path-3-inside-1)"/>
<path d="M743 795.5C743 796.881 741.881 798 740.5 798C739.119 798 738 796.881 738 795.5C738 794.119 739.119 793 740.5 793C741.881 793 743 794.119 743 795.5Z" stroke="#3360FF" stroke-width="2" mask="url(#path-3-inside-1)"/>
<path d="M743 750.5C743 751.881 741.881 753 740.5 753C739.119 753 738 751.881 738 750.5C738 749.119 739.119 748 740.5 748C741.881 748 743 749.119 743 750.5Z" stroke="#3360FF" stroke-width="2" mask="url(#path-3-inside-1)"/>
<path d="M788 1020.5C788 1021.88 786.881 1023 785.5 1023C784.119 1023 783 1021.88 783 1020.5C783 1019.12 784.119 1018 785.5 1018C786.881 1018 788 1019.12 788 1020.5Z" stroke="#3360FF" stroke-width="2" mask="url(#path-3-inside-1)"/>
<path d="M788 975.5C788 976.881 786.881 978 785.5 978C784.119 978 783 976.881 783 975.5C783 974.119 784.119 973 785.5 973C786.881 973 788 974.119 788 975.5Z" stroke="#3360FF" stroke-width="2" mask="url(#path-3-inside-1)"/>
<path d="M788 930.5C788 931.881 786.881 933 785.5 933C784.119 933 783 931.881 783 930.5C783 929.119 784.119 928 785.5 928C786.881 928 788 929.119 788 930.5Z" stroke="#3360FF" stroke-width="2" mask="url(#path-3-inside-1)"/>
<path d="M788 885.5C788 886.881 786.881 888 785.5 888C784.119 888 783 886.881 783 885.5C783 884.119 784.119 883 785.5 883C786.881 883 788 884.119 788 885.5Z" stroke="#3360FF" stroke-width="2" mask="url(#path-3-inside-1)"/>
<path d="M788 840.5C788 841.881 786.881 843 785.5 843C784.119 843 783 841.881 783 840.5C783 839.119 784.119 838 785.5 838C786.881 838 788 839.119 788 840.5Z" stroke="#3360FF" stroke-width="2" mask="url(#path-3-inside-1)"/>
<path d="M788 795.5C788 796.881 786.881 798 785.5 798C784.119 798 783 796.881 783 795.5C783 794.119 784.119 793 785.5 793C786.881 793 788 794.119 788 795.5Z" stroke="#3360FF" stroke-width="2" mask="url(#path-3-inside-1)"/>
<path d="M788 750.5C788 751.881 786.881 753 785.5 753C784.119 753 783 751.881 783 750.5C783 749.119 784.119 748 785.5 748C786.881 748 788 749.119 788 750.5Z" stroke="#3360FF" stroke-width="2" mask="url(#path-3-inside-1)"/>
<path d="M833 1020.5C833 1021.88 831.881 1023 830.5 1023C829.119 1023 828 1021.88 828 1020.5C828 1019.12 829.119 1018 830.5 1018C831.881 1018 833 1019.12 833 1020.5Z" stroke="#3360FF" stroke-width="2" mask="url(#path-3-inside-1)"/>
<path d="M833 975.5C833 976.881 831.881 978 830.5 978C829.119 978 828 976.881 828 975.5C828 974.119 829.119 973 830.5 973C831.881 973 833 974.119 833 975.5Z" stroke="#3360FF" stroke-width="2" mask="url(#path-3-inside-1)"/>
<path d="M833 930.5C833 931.881 831.881 933 830.5 933C829.119 933 828 931.881 828 930.5C828 929.119 829.119 928 830.5 928C831.881 928 833 929.119 833 930.5Z" stroke="#3360FF" stroke-width="2" mask="url(#path-3-inside-1)"/>
<path d="M833 885.5C833 886.881 831.881 888 830.5 888C829.119 888 828 886.881 828 885.5C828 884.119 829.119 883 830.5 883C831.881 883 833 884.119 833 885.5Z" stroke="#3360FF" stroke-width="2" mask="url(#path-3-inside-1)"/>
<path d="M833 840.5C833 841.881 831.881 843 830.5 843C829.119 843 828 841.881 828 840.5C828 839.119 829.119 838 830.5 838C831.881 838 833 839.119 833 840.5Z" stroke="#3360FF" stroke-width="2" mask="url(#path-3-inside-1)"/>
<path d="M833 795.5C833 796.881 831.881 798 830.5 798C829.119 798 828 796.881 828 795.5C828 794.119 829.119 793 830.5 793C831.881 793 833 794.119 833 795.5Z" stroke="#3360FF" stroke-width="2" mask="url(#path-3-inside-1)"/>
<path d="M833 750.5C833 751.881 831.881 753 830.5 753C829.119 753 828 751.881 828 750.5C828 749.119 829.119 748 830.5 748C831.881 748 833 749.119 833 750.5Z" stroke="#3360FF" stroke-width="2" mask="url(#path-3-inside-1)"/>
<path d="M878 1020.5C878 1021.88 876.881 1023 875.5 1023C874.119 1023 873 1021.88 873 1020.5C873 1019.12 874.119 1018 875.5 1018C876.881 1018 878 1019.12 878 1020.5Z" stroke="#3360FF" stroke-width="2" mask="url(#path-3-inside-1)"/>
<path d="M878 975.5C878 976.881 876.881 978 875.5 978C874.119 978 873 976.881 873 975.5C873 974.119 874.119 973 875.5 973C876.881 973 878 974.119 878 975.5Z" stroke="#3360FF" stroke-width="2" mask="url(#path-3-inside-1)"/>
<path d="M878 930.5C878 931.881 876.881 933 875.5 933C874.119 933 873 931.881 873 930.5C873 929.119 874.119 928 875.5 928C876.881 928 878 929.119 878 930.5Z" stroke="#3360FF" stroke-width="2" mask="url(#path-3-inside-1)"/>
<path d="M878 885.5C878 886.881 876.881 888 875.5 888C874.119 888 873 886.881 873 885.5C873 884.119 874.119 883 875.5 883C876.881 883 878 884.119 878 885.5Z" stroke="#3360FF" stroke-width="2" mask="url(#path-3-inside-1)"/>
<path d="M878 840.5C878 841.881 876.881 843 875.5 843C874.119 843 873 841.881 873 840.5C873 839.119 874.119 838 875.5 838C876.881 838 878 839.119 878 840.5Z" stroke="#3360FF" stroke-width="2" mask="url(#path-3-inside-1)"/>
<path d="M878 795.5C878 796.881 876.881 798 875.5 798C874.119 798 873 796.881 873 795.5C873 794.119 874.119 793 875.5 793C876.881 793 878 794.119 878 795.5Z" stroke="#3360FF" stroke-width="2" mask="url(#path-3-inside-1)"/>
<path d="M878 750.5C878 751.881 876.881 753 875.5 753C874.119 753 873 751.881 873 750.5C873 749.119 874.119 748 875.5 748C876.881 748 878 749.119 878 750.5Z" stroke="#3360FF" stroke-width="2" mask="url(#path-3-inside-1)"/>
<path d="M923 1020.5C923 1021.88 921.881 1023 920.5 1023C919.119 1023 918 1021.88 918 1020.5C918 1019.12 919.119 1018 920.5 1018C921.881 1018 923 1019.12 923 1020.5Z" stroke="#3360FF" stroke-width="2" mask="url(#path-3-inside-1)"/>
<path d="M923 975.5C923 976.881 921.881 978 920.5 978C919.119 978 918 976.881 918 975.5C918 974.119 919.119 973 920.5 973C921.881 973 923 974.119 923 975.5Z" stroke="#3360FF" stroke-width="2" mask="url(#path-3-inside-1)"/>
<path d="M923 930.5C923 931.881 921.881 933 920.5 933C919.119 933 918 931.881 918 930.5C918 929.119 919.119 928 920.5 928C921.881 928 923 929.119 923 930.5Z" stroke="#3360FF" stroke-width="2" mask="url(#path-3-inside-1)"/>
<path d="M923 885.5C923 886.881 921.881 888 920.5 888C919.119 888 918 886.881 918 885.5C918 884.119 919.119 883 920.5 883C921.881 883 923 884.119 923 885.5Z" stroke="#3360FF" stroke-width="2" mask="url(#path-3-inside-1)"/>
<path d="M923 840.5C923 841.881 921.881 843 920.5 843C919.119 843 918 841.881 918 840.5C918 839.119 919.119 838 920.5 838C921.881 838 923 839.119 923 840.5Z" stroke="#3360FF" stroke-width="2" mask="url(#path-3-inside-1)"/>
<path d="M923 795.5C923 796.881 921.881 798 920.5 798C919.119 798 918 796.881 918 795.5C918 794.119 919.119 793 920.5 793C921.881 793 923 794.119 923 795.5Z" stroke="#3360FF" stroke-width="2" mask="url(#path-3-inside-1)"/>
<path d="M923 750.5C923 751.881 921.881 753 920.5 753C919.119 753 918 751.881 918 750.5C918 749.119 919.119 748 920.5 748C921.881 748 923 749.119 923 750.5Z" stroke="#3360FF" stroke-width="2" mask="url(#path-3-inside-1)"/>
<circle cx="210" cy="860" r="210" fill="#3360FF"/>
<circle cx="946" cy="999" r="140" fill="#3360FF"/>
<path d="M832.5 1020.5C832.5 1021.6 831.605 1022.5 830.5 1022.5C829.395 1022.5 828.5 1021.6 828.5 1020.5C828.5 1019.4 829.395 1018.5 830.5 1018.5C831.605 1018.5 832.5 1019.4 832.5 1020.5ZM832.5 975.5C832.5 976.605 831.605 977.5 830.5 977.5C829.395 977.5 828.5 976.605 828.5 975.5C828.5 974.395 829.395 973.5 830.5 973.5C831.605 973.5 832.5 974.395 832.5 975.5ZM832.5 930.5C832.5 931.605 831.605 932.5 830.5 932.5C829.395 932.5 828.5 931.605 828.5 930.5C828.5 929.395 829.395 928.5 830.5 928.5C831.605 928.5 832.5 929.395 832.5 930.5ZM877.5 1020.5C877.5 1021.6 876.605 1022.5 875.5 1022.5C874.395 1022.5 873.5 1021.6 873.5 1020.5C873.5 1019.4 874.395 1018.5 875.5 1018.5C876.605 1018.5 877.5 1019.4 877.5 1020.5ZM877.5 975.5C877.5 976.605 876.605 977.5 875.5 977.5C874.395 977.5 873.5 976.605 873.5 975.5C873.5 974.395 874.395 973.5 875.5 973.5C876.605 973.5 877.5 974.395 877.5 975.5ZM877.5 930.5C877.5 931.605 876.605 932.5 875.5 932.5C874.395 932.5 873.5 931.605 873.5 930.5C873.5 929.395 874.395 928.5 875.5 928.5C876.605 928.5 877.5 929.395 877.5 930.5ZM877.5 885.5C877.5 886.605 876.605 887.5 875.5 887.5C874.395 887.5 873.5 886.605 873.5 885.5C873.5 884.395 874.395 883.5 875.5 883.5C876.605 883.5 877.5 884.395 877.5 885.5ZM922.5 1020.5C922.5 1021.6 921.605 1022.5 920.5 1022.5C919.395 1022.5 918.5 1021.6 918.5 1020.5C918.5 1019.4 919.395 1018.5 920.5 1018.5C921.605 1018.5 922.5 1019.4 922.5 1020.5ZM922.5 975.5C922.5 976.605 921.605 977.5 920.5 977.5C919.395 977.5 918.5 976.605 918.5 975.5C918.5 974.395 919.395 973.5 920.5 973.5C921.605 973.5 922.5 974.395 922.5 975.5ZM922.5 930.5C922.5 931.605 921.605 932.5 920.5 932.5C919.395 932.5 918.5 931.605 918.5 930.5C918.5 929.395 919.395 928.5 920.5 928.5C921.605 928.5 922.5 929.395 922.5 930.5ZM922.5 885.5C922.5 886.605 921.605 887.5 920.5 887.5C919.395 887.5 918.5 886.605 918.5 885.5C918.5 884.395 919.395 883.5 920.5 883.5C921.605 883.5 922.5 884.395 922.5 885.5Z" stroke="#DEDEE7"/>
</svg>
