<svg width="600" height="1211" viewBox="0 0 600 1211" fill="none" xmlns="http://www.w3.org/2000/svg">
<mask id="path-1-inside-1" fill="white">
<path d="M125 830.5C125 831.881 123.881 833 122.5 833C121.119 833 120 831.881 120 830.5C120 829.119 121.119 828 122.5 828C123.881 828 125 829.119 125 830.5Z"/>
<path d="M125 785.5C125 786.881 123.881 788 122.5 788C121.119 788 120 786.881 120 785.5C120 784.119 121.119 783 122.5 783C123.881 783 125 784.119 125 785.5Z"/>
<path d="M125 740.5C125 741.881 123.881 743 122.5 743C121.119 743 120 741.881 120 740.5C120 739.119 121.119 738 122.5 738C123.881 738 125 739.119 125 740.5Z"/>
<path d="M125 695.5C125 696.881 123.881 698 122.5 698C121.119 698 120 696.881 120 695.5C120 694.119 121.119 693 122.5 693C123.881 693 125 694.119 125 695.5Z"/>
<path d="M125 650.5C125 651.881 123.881 653 122.5 653C121.119 653 120 651.881 120 650.5C120 649.119 121.119 648 122.5 648C123.881 648 125 649.119 125 650.5Z"/>
<path d="M125 605.5C125 606.881 123.881 608 122.5 608C121.119 608 120 606.881 120 605.5C120 604.119 121.119 603 122.5 603C123.881 603 125 604.119 125 605.5Z"/>
<path d="M125 560.5C125 561.881 123.881 563 122.5 563C121.119 563 120 561.881 120 560.5C120 559.119 121.119 558 122.5 558C123.881 558 125 559.119 125 560.5Z"/>
<path d="M170 830.5C170 831.881 168.881 833 167.5 833C166.119 833 165 831.881 165 830.5C165 829.119 166.119 828 167.5 828C168.881 828 170 829.119 170 830.5Z"/>
<path d="M170 785.5C170 786.881 168.881 788 167.5 788C166.119 788 165 786.881 165 785.5C165 784.119 166.119 783 167.5 783C168.881 783 170 784.119 170 785.5Z"/>
<path d="M170 740.5C170 741.881 168.881 743 167.5 743C166.119 743 165 741.881 165 740.5C165 739.119 166.119 738 167.5 738C168.881 738 170 739.119 170 740.5Z"/>
<path d="M170 695.5C170 696.881 168.881 698 167.5 698C166.119 698 165 696.881 165 695.5C165 694.119 166.119 693 167.5 693C168.881 693 170 694.119 170 695.5Z"/>
<path d="M170 650.5C170 651.881 168.881 653 167.5 653C166.119 653 165 651.881 165 650.5C165 649.119 166.119 648 167.5 648C168.881 648 170 649.119 170 650.5Z"/>
<path d="M170 605.5C170 606.881 168.881 608 167.5 608C166.119 608 165 606.881 165 605.5C165 604.119 166.119 603 167.5 603C168.881 603 170 604.119 170 605.5Z"/>
<path d="M170 560.5C170 561.881 168.881 563 167.5 563C166.119 563 165 561.881 165 560.5C165 559.119 166.119 558 167.5 558C168.881 558 170 559.119 170 560.5Z"/>
<path d="M215 830.5C215 831.881 213.881 833 212.5 833C211.119 833 210 831.881 210 830.5C210 829.119 211.119 828 212.5 828C213.881 828 215 829.119 215 830.5Z"/>
<path d="M215 785.5C215 786.881 213.881 788 212.5 788C211.119 788 210 786.881 210 785.5C210 784.119 211.119 783 212.5 783C213.881 783 215 784.119 215 785.5Z"/>
<path d="M215 740.5C215 741.881 213.881 743 212.5 743C211.119 743 210 741.881 210 740.5C210 739.119 211.119 738 212.5 738C213.881 738 215 739.119 215 740.5Z"/>
<path d="M215 695.5C215 696.881 213.881 698 212.5 698C211.119 698 210 696.881 210 695.5C210 694.119 211.119 693 212.5 693C213.881 693 215 694.119 215 695.5Z"/>
<path d="M215 650.5C215 651.881 213.881 653 212.5 653C211.119 653 210 651.881 210 650.5C210 649.119 211.119 648 212.5 648C213.881 648 215 649.119 215 650.5Z"/>
<path d="M215 605.5C215 606.881 213.881 608 212.5 608C211.119 608 210 606.881 210 605.5C210 604.119 211.119 603 212.5 603C213.881 603 215 604.119 215 605.5Z"/>
<path d="M215 560.5C215 561.881 213.881 563 212.5 563C211.119 563 210 561.881 210 560.5C210 559.119 211.119 558 212.5 558C213.881 558 215 559.119 215 560.5Z"/>
<path d="M260 830.5C260 831.881 258.881 833 257.5 833C256.119 833 255 831.881 255 830.5C255 829.119 256.119 828 257.5 828C258.881 828 260 829.119 260 830.5Z"/>
<path d="M260 785.5C260 786.881 258.881 788 257.5 788C256.119 788 255 786.881 255 785.5C255 784.119 256.119 783 257.5 783C258.881 783 260 784.119 260 785.5Z"/>
<path d="M260 740.5C260 741.881 258.881 743 257.5 743C256.119 743 255 741.881 255 740.5C255 739.119 256.119 738 257.5 738C258.881 738 260 739.119 260 740.5Z"/>
<path d="M260 695.5C260 696.881 258.881 698 257.5 698C256.119 698 255 696.881 255 695.5C255 694.119 256.119 693 257.5 693C258.881 693 260 694.119 260 695.5Z"/>
<path d="M260 650.5C260 651.881 258.881 653 257.5 653C256.119 653 255 651.881 255 650.5C255 649.119 256.119 648 257.5 648C258.881 648 260 649.119 260 650.5Z"/>
<path d="M260 605.5C260 606.881 258.881 608 257.5 608C256.119 608 255 606.881 255 605.5C255 604.119 256.119 603 257.5 603C258.881 603 260 604.119 260 605.5Z"/>
<path d="M260 560.5C260 561.881 258.881 563 257.5 563C256.119 563 255 561.881 255 560.5C255 559.119 256.119 558 257.5 558C258.881 558 260 559.119 260 560.5Z"/>
<path d="M305 830.5C305 831.881 303.881 833 302.5 833C301.119 833 300 831.881 300 830.5C300 829.119 301.119 828 302.5 828C303.881 828 305 829.119 305 830.5Z"/>
<path d="M305 785.5C305 786.881 303.881 788 302.5 788C301.119 788 300 786.881 300 785.5C300 784.119 301.119 783 302.5 783C303.881 783 305 784.119 305 785.5Z"/>
<path d="M305 740.5C305 741.881 303.881 743 302.5 743C301.119 743 300 741.881 300 740.5C300 739.119 301.119 738 302.5 738C303.881 738 305 739.119 305 740.5Z"/>
<path d="M305 695.5C305 696.881 303.881 698 302.5 698C301.119 698 300 696.881 300 695.5C300 694.119 301.119 693 302.5 693C303.881 693 305 694.119 305 695.5Z"/>
<path d="M305 650.5C305 651.881 303.881 653 302.5 653C301.119 653 300 651.881 300 650.5C300 649.119 301.119 648 302.5 648C303.881 648 305 649.119 305 650.5Z"/>
<path d="M305 605.5C305 606.881 303.881 608 302.5 608C301.119 608 300 606.881 300 605.5C300 604.119 301.119 603 302.5 603C303.881 603 305 604.119 305 605.5Z"/>
<path d="M305 560.5C305 561.881 303.881 563 302.5 563C301.119 563 300 561.881 300 560.5C300 559.119 301.119 558 302.5 558C303.881 558 305 559.119 305 560.5Z"/>
<path d="M350 830.5C350 831.881 348.881 833 347.5 833C346.119 833 345 831.881 345 830.5C345 829.119 346.119 828 347.5 828C348.881 828 350 829.119 350 830.5Z"/>
<path d="M350 785.5C350 786.881 348.881 788 347.5 788C346.119 788 345 786.881 345 785.5C345 784.119 346.119 783 347.5 783C348.881 783 350 784.119 350 785.5Z"/>
<path d="M350 740.5C350 741.881 348.881 743 347.5 743C346.119 743 345 741.881 345 740.5C345 739.119 346.119 738 347.5 738C348.881 738 350 739.119 350 740.5Z"/>
<path d="M350 695.5C350 696.881 348.881 698 347.5 698C346.119 698 345 696.881 345 695.5C345 694.119 346.119 693 347.5 693C348.881 693 350 694.119 350 695.5Z"/>
<path d="M350 650.5C350 651.881 348.881 653 347.5 653C346.119 653 345 651.881 345 650.5C345 649.119 346.119 648 347.5 648C348.881 648 350 649.119 350 650.5Z"/>
<path d="M350 605.5C350 606.881 348.881 608 347.5 608C346.119 608 345 606.881 345 605.5C345 604.119 346.119 603 347.5 603C348.881 603 350 604.119 350 605.5Z"/>
<path d="M350 560.5C350 561.881 348.881 563 347.5 563C346.119 563 345 561.881 345 560.5C345 559.119 346.119 558 347.5 558C348.881 558 350 559.119 350 560.5Z"/>
<path d="M395 830.5C395 831.881 393.881 833 392.5 833C391.119 833 390 831.881 390 830.5C390 829.119 391.119 828 392.5 828C393.881 828 395 829.119 395 830.5Z"/>
<path d="M395 785.5C395 786.881 393.881 788 392.5 788C391.119 788 390 786.881 390 785.5C390 784.119 391.119 783 392.5 783C393.881 783 395 784.119 395 785.5Z"/>
<path d="M395 740.5C395 741.881 393.881 743 392.5 743C391.119 743 390 741.881 390 740.5C390 739.119 391.119 738 392.5 738C393.881 738 395 739.119 395 740.5Z"/>
<path d="M395 695.5C395 696.881 393.881 698 392.5 698C391.119 698 390 696.881 390 695.5C390 694.119 391.119 693 392.5 693C393.881 693 395 694.119 395 695.5Z"/>
<path d="M395 650.5C395 651.881 393.881 653 392.5 653C391.119 653 390 651.881 390 650.5C390 649.119 391.119 648 392.5 648C393.881 648 395 649.119 395 650.5Z"/>
<path d="M395 605.5C395 606.881 393.881 608 392.5 608C391.119 608 390 606.881 390 605.5C390 604.119 391.119 603 392.5 603C393.881 603 395 604.119 395 605.5Z"/>
<path d="M395 560.5C395 561.881 393.881 563 392.5 563C391.119 563 390 561.881 390 560.5C390 559.119 391.119 558 392.5 558C393.881 558 395 559.119 395 560.5Z"/>
</mask>
<path d="M125 830.5C125 831.881 123.881 833 122.5 833C121.119 833 120 831.881 120 830.5C120 829.119 121.119 828 122.5 828C123.881 828 125 829.119 125 830.5Z" stroke="#3360FF" stroke-width="2" mask="url(#path-1-inside-1)"/>
<path d="M125 785.5C125 786.881 123.881 788 122.5 788C121.119 788 120 786.881 120 785.5C120 784.119 121.119 783 122.5 783C123.881 783 125 784.119 125 785.5Z" stroke="#3360FF" stroke-width="2" mask="url(#path-1-inside-1)"/>
<path d="M125 740.5C125 741.881 123.881 743 122.5 743C121.119 743 120 741.881 120 740.5C120 739.119 121.119 738 122.5 738C123.881 738 125 739.119 125 740.5Z" stroke="#3360FF" stroke-width="2" mask="url(#path-1-inside-1)"/>
<path d="M125 695.5C125 696.881 123.881 698 122.5 698C121.119 698 120 696.881 120 695.5C120 694.119 121.119 693 122.5 693C123.881 693 125 694.119 125 695.5Z" stroke="#3360FF" stroke-width="2" mask="url(#path-1-inside-1)"/>
<path d="M125 650.5C125 651.881 123.881 653 122.5 653C121.119 653 120 651.881 120 650.5C120 649.119 121.119 648 122.5 648C123.881 648 125 649.119 125 650.5Z" stroke="#3360FF" stroke-width="2" mask="url(#path-1-inside-1)"/>
<path d="M125 605.5C125 606.881 123.881 608 122.5 608C121.119 608 120 606.881 120 605.5C120 604.119 121.119 603 122.5 603C123.881 603 125 604.119 125 605.5Z" stroke="#3360FF" stroke-width="2" mask="url(#path-1-inside-1)"/>
<path d="M125 560.5C125 561.881 123.881 563 122.5 563C121.119 563 120 561.881 120 560.5C120 559.119 121.119 558 122.5 558C123.881 558 125 559.119 125 560.5Z" stroke="#3360FF" stroke-width="2" mask="url(#path-1-inside-1)"/>
<path d="M170 830.5C170 831.881 168.881 833 167.5 833C166.119 833 165 831.881 165 830.5C165 829.119 166.119 828 167.5 828C168.881 828 170 829.119 170 830.5Z" stroke="#3360FF" stroke-width="2" mask="url(#path-1-inside-1)"/>
<path d="M170 785.5C170 786.881 168.881 788 167.5 788C166.119 788 165 786.881 165 785.5C165 784.119 166.119 783 167.5 783C168.881 783 170 784.119 170 785.5Z" stroke="#3360FF" stroke-width="2" mask="url(#path-1-inside-1)"/>
<path d="M170 740.5C170 741.881 168.881 743 167.5 743C166.119 743 165 741.881 165 740.5C165 739.119 166.119 738 167.5 738C168.881 738 170 739.119 170 740.5Z" stroke="#3360FF" stroke-width="2" mask="url(#path-1-inside-1)"/>
<path d="M170 695.5C170 696.881 168.881 698 167.5 698C166.119 698 165 696.881 165 695.5C165 694.119 166.119 693 167.5 693C168.881 693 170 694.119 170 695.5Z" stroke="#3360FF" stroke-width="2" mask="url(#path-1-inside-1)"/>
<path d="M170 650.5C170 651.881 168.881 653 167.5 653C166.119 653 165 651.881 165 650.5C165 649.119 166.119 648 167.5 648C168.881 648 170 649.119 170 650.5Z" stroke="#3360FF" stroke-width="2" mask="url(#path-1-inside-1)"/>
<path d="M170 605.5C170 606.881 168.881 608 167.5 608C166.119 608 165 606.881 165 605.5C165 604.119 166.119 603 167.5 603C168.881 603 170 604.119 170 605.5Z" stroke="#3360FF" stroke-width="2" mask="url(#path-1-inside-1)"/>
<path d="M170 560.5C170 561.881 168.881 563 167.5 563C166.119 563 165 561.881 165 560.5C165 559.119 166.119 558 167.5 558C168.881 558 170 559.119 170 560.5Z" stroke="#3360FF" stroke-width="2" mask="url(#path-1-inside-1)"/>
<path d="M215 830.5C215 831.881 213.881 833 212.5 833C211.119 833 210 831.881 210 830.5C210 829.119 211.119 828 212.5 828C213.881 828 215 829.119 215 830.5Z" stroke="#3360FF" stroke-width="2" mask="url(#path-1-inside-1)"/>
<path d="M215 785.5C215 786.881 213.881 788 212.5 788C211.119 788 210 786.881 210 785.5C210 784.119 211.119 783 212.5 783C213.881 783 215 784.119 215 785.5Z" stroke="#3360FF" stroke-width="2" mask="url(#path-1-inside-1)"/>
<path d="M215 740.5C215 741.881 213.881 743 212.5 743C211.119 743 210 741.881 210 740.5C210 739.119 211.119 738 212.5 738C213.881 738 215 739.119 215 740.5Z" stroke="#3360FF" stroke-width="2" mask="url(#path-1-inside-1)"/>
<path d="M215 695.5C215 696.881 213.881 698 212.5 698C211.119 698 210 696.881 210 695.5C210 694.119 211.119 693 212.5 693C213.881 693 215 694.119 215 695.5Z" stroke="#3360FF" stroke-width="2" mask="url(#path-1-inside-1)"/>
<path d="M215 650.5C215 651.881 213.881 653 212.5 653C211.119 653 210 651.881 210 650.5C210 649.119 211.119 648 212.5 648C213.881 648 215 649.119 215 650.5Z" stroke="#3360FF" stroke-width="2" mask="url(#path-1-inside-1)"/>
<path d="M215 605.5C215 606.881 213.881 608 212.5 608C211.119 608 210 606.881 210 605.5C210 604.119 211.119 603 212.5 603C213.881 603 215 604.119 215 605.5Z" stroke="#3360FF" stroke-width="2" mask="url(#path-1-inside-1)"/>
<path d="M215 560.5C215 561.881 213.881 563 212.5 563C211.119 563 210 561.881 210 560.5C210 559.119 211.119 558 212.5 558C213.881 558 215 559.119 215 560.5Z" stroke="#3360FF" stroke-width="2" mask="url(#path-1-inside-1)"/>
<path d="M260 830.5C260 831.881 258.881 833 257.5 833C256.119 833 255 831.881 255 830.5C255 829.119 256.119 828 257.5 828C258.881 828 260 829.119 260 830.5Z" stroke="#3360FF" stroke-width="2" mask="url(#path-1-inside-1)"/>
<path d="M260 785.5C260 786.881 258.881 788 257.5 788C256.119 788 255 786.881 255 785.5C255 784.119 256.119 783 257.5 783C258.881 783 260 784.119 260 785.5Z" stroke="#3360FF" stroke-width="2" mask="url(#path-1-inside-1)"/>
<path d="M260 740.5C260 741.881 258.881 743 257.5 743C256.119 743 255 741.881 255 740.5C255 739.119 256.119 738 257.5 738C258.881 738 260 739.119 260 740.5Z" stroke="#3360FF" stroke-width="2" mask="url(#path-1-inside-1)"/>
<path d="M260 695.5C260 696.881 258.881 698 257.5 698C256.119 698 255 696.881 255 695.5C255 694.119 256.119 693 257.5 693C258.881 693 260 694.119 260 695.5Z" stroke="#3360FF" stroke-width="2" mask="url(#path-1-inside-1)"/>
<path d="M260 650.5C260 651.881 258.881 653 257.5 653C256.119 653 255 651.881 255 650.5C255 649.119 256.119 648 257.5 648C258.881 648 260 649.119 260 650.5Z" stroke="#3360FF" stroke-width="2" mask="url(#path-1-inside-1)"/>
<path d="M260 605.5C260 606.881 258.881 608 257.5 608C256.119 608 255 606.881 255 605.5C255 604.119 256.119 603 257.5 603C258.881 603 260 604.119 260 605.5Z" stroke="#3360FF" stroke-width="2" mask="url(#path-1-inside-1)"/>
<path d="M260 560.5C260 561.881 258.881 563 257.5 563C256.119 563 255 561.881 255 560.5C255 559.119 256.119 558 257.5 558C258.881 558 260 559.119 260 560.5Z" stroke="#3360FF" stroke-width="2" mask="url(#path-1-inside-1)"/>
<path d="M305 830.5C305 831.881 303.881 833 302.5 833C301.119 833 300 831.881 300 830.5C300 829.119 301.119 828 302.5 828C303.881 828 305 829.119 305 830.5Z" stroke="#3360FF" stroke-width="2" mask="url(#path-1-inside-1)"/>
<path d="M305 785.5C305 786.881 303.881 788 302.5 788C301.119 788 300 786.881 300 785.5C300 784.119 301.119 783 302.5 783C303.881 783 305 784.119 305 785.5Z" stroke="#3360FF" stroke-width="2" mask="url(#path-1-inside-1)"/>
<path d="M305 740.5C305 741.881 303.881 743 302.5 743C301.119 743 300 741.881 300 740.5C300 739.119 301.119 738 302.5 738C303.881 738 305 739.119 305 740.5Z" stroke="#3360FF" stroke-width="2" mask="url(#path-1-inside-1)"/>
<path d="M305 695.5C305 696.881 303.881 698 302.5 698C301.119 698 300 696.881 300 695.5C300 694.119 301.119 693 302.5 693C303.881 693 305 694.119 305 695.5Z" stroke="#3360FF" stroke-width="2" mask="url(#path-1-inside-1)"/>
<path d="M305 650.5C305 651.881 303.881 653 302.5 653C301.119 653 300 651.881 300 650.5C300 649.119 301.119 648 302.5 648C303.881 648 305 649.119 305 650.5Z" stroke="#3360FF" stroke-width="2" mask="url(#path-1-inside-1)"/>
<path d="M305 605.5C305 606.881 303.881 608 302.5 608C301.119 608 300 606.881 300 605.5C300 604.119 301.119 603 302.5 603C303.881 603 305 604.119 305 605.5Z" stroke="#3360FF" stroke-width="2" mask="url(#path-1-inside-1)"/>
<path d="M305 560.5C305 561.881 303.881 563 302.5 563C301.119 563 300 561.881 300 560.5C300 559.119 301.119 558 302.5 558C303.881 558 305 559.119 305 560.5Z" stroke="#3360FF" stroke-width="2" mask="url(#path-1-inside-1)"/>
<path d="M350 830.5C350 831.881 348.881 833 347.5 833C346.119 833 345 831.881 345 830.5C345 829.119 346.119 828 347.5 828C348.881 828 350 829.119 350 830.5Z" stroke="#3360FF" stroke-width="2" mask="url(#path-1-inside-1)"/>
<path d="M350 785.5C350 786.881 348.881 788 347.5 788C346.119 788 345 786.881 345 785.5C345 784.119 346.119 783 347.5 783C348.881 783 350 784.119 350 785.5Z" stroke="#3360FF" stroke-width="2" mask="url(#path-1-inside-1)"/>
<path d="M350 740.5C350 741.881 348.881 743 347.5 743C346.119 743 345 741.881 345 740.5C345 739.119 346.119 738 347.5 738C348.881 738 350 739.119 350 740.5Z" stroke="#3360FF" stroke-width="2" mask="url(#path-1-inside-1)"/>
<path d="M350 695.5C350 696.881 348.881 698 347.5 698C346.119 698 345 696.881 345 695.5C345 694.119 346.119 693 347.5 693C348.881 693 350 694.119 350 695.5Z" stroke="#3360FF" stroke-width="2" mask="url(#path-1-inside-1)"/>
<path d="M350 650.5C350 651.881 348.881 653 347.5 653C346.119 653 345 651.881 345 650.5C345 649.119 346.119 648 347.5 648C348.881 648 350 649.119 350 650.5Z" stroke="#3360FF" stroke-width="2" mask="url(#path-1-inside-1)"/>
<path d="M350 605.5C350 606.881 348.881 608 347.5 608C346.119 608 345 606.881 345 605.5C345 604.119 346.119 603 347.5 603C348.881 603 350 604.119 350 605.5Z" stroke="#3360FF" stroke-width="2" mask="url(#path-1-inside-1)"/>
<path d="M350 560.5C350 561.881 348.881 563 347.5 563C346.119 563 345 561.881 345 560.5C345 559.119 346.119 558 347.5 558C348.881 558 350 559.119 350 560.5Z" stroke="#3360FF" stroke-width="2" mask="url(#path-1-inside-1)"/>
<path d="M395 830.5C395 831.881 393.881 833 392.5 833C391.119 833 390 831.881 390 830.5C390 829.119 391.119 828 392.5 828C393.881 828 395 829.119 395 830.5Z" stroke="#3360FF" stroke-width="2" mask="url(#path-1-inside-1)"/>
<path d="M395 785.5C395 786.881 393.881 788 392.5 788C391.119 788 390 786.881 390 785.5C390 784.119 391.119 783 392.5 783C393.881 783 395 784.119 395 785.5Z" stroke="#3360FF" stroke-width="2" mask="url(#path-1-inside-1)"/>
<path d="M395 740.5C395 741.881 393.881 743 392.5 743C391.119 743 390 741.881 390 740.5C390 739.119 391.119 738 392.5 738C393.881 738 395 739.119 395 740.5Z" stroke="#3360FF" stroke-width="2" mask="url(#path-1-inside-1)"/>
<path d="M395 695.5C395 696.881 393.881 698 392.5 698C391.119 698 390 696.881 390 695.5C390 694.119 391.119 693 392.5 693C393.881 693 395 694.119 395 695.5Z" stroke="#3360FF" stroke-width="2" mask="url(#path-1-inside-1)"/>
<path d="M395 650.5C395 651.881 393.881 653 392.5 653C391.119 653 390 651.881 390 650.5C390 649.119 391.119 648 392.5 648C393.881 648 395 649.119 395 650.5Z" stroke="#3360FF" stroke-width="2" mask="url(#path-1-inside-1)"/>
<path d="M395 605.5C395 606.881 393.881 608 392.5 608C391.119 608 390 606.881 390 605.5C390 604.119 391.119 603 392.5 603C393.881 603 395 604.119 395 605.5Z" stroke="#3360FF" stroke-width="2" mask="url(#path-1-inside-1)"/>
<path d="M395 560.5C395 561.881 393.881 563 392.5 563C391.119 563 390 561.881 390 560.5C390 559.119 391.119 558 392.5 558C393.881 558 395 559.119 395 560.5Z" stroke="#3360FF" stroke-width="2" mask="url(#path-1-inside-1)"/>
<circle cx="204.5" cy="875.5" r="130.5" fill="#3360FF"/>
<path fill-rule="evenodd" clip-rule="evenodd" d="M174.251 415.369C116.676 375.248 79 308.552 79 233.056C79 110.418 178.418 11 301.056 11C405.137 11 492.492 82.6063 516.547 179.242C516.368 179.167 516.173 179.126 515.967 179.126H511.752C510.924 179.126 510.252 179.797 510.252 180.626C510.252 181.454 510.924 182.126 511.752 182.126H515.967C516.429 182.126 516.842 181.917 517.117 181.589C521.037 198.107 523.112 215.339 523.112 233.056C523.112 253.689 520.298 273.666 515.032 292.622H514.502C513.673 292.622 513.002 293.293 513.002 294.122C513.002 294.842 513.509 295.443 514.186 295.588C494.208 363.791 442.382 418.387 375.902 442.183C375.795 441.461 375.174 440.907 374.422 440.904L370.321 440.893C369.493 440.891 368.819 441.56 368.817 442.389C368.815 443.217 369.485 443.891 370.313 443.893L370.932 443.895C348.961 451.173 325.469 455.112 301.056 455.112C254.81 455.112 211.867 440.975 176.311 416.787C176.268 415.997 175.614 415.369 174.813 415.369H174.251ZM282.818 77.6167C282.818 76.7883 282.146 76.1167 281.318 76.1167H279.39C278.562 76.1167 277.89 76.7883 277.89 77.6167C277.89 78.4451 278.562 79.1167 279.39 79.1167H279.818V79.7756C279.818 80.604 280.489 81.2756 281.318 81.2756C282.146 81.2756 282.818 80.604 282.818 79.7756V77.6167ZM273.18 77.6167C273.18 76.7883 272.508 76.1167 271.68 76.1167H267.825C266.996 76.1167 266.325 76.7883 266.325 77.6167C266.325 78.4451 266.996 79.1167 267.825 79.1167H271.68C272.508 79.1167 273.18 78.4451 273.18 77.6167ZM261.614 77.6167C261.614 76.7883 260.943 76.1167 260.114 76.1167H256.259C255.431 76.1167 254.759 76.7883 254.759 77.6167C254.759 78.4451 255.431 79.1167 256.259 79.1167H260.114C260.943 79.1167 261.614 78.4451 261.614 77.6167ZM250.049 77.6167C250.049 76.7883 249.377 76.1167 248.549 76.1167H244.694C243.865 76.1167 243.194 76.7883 243.194 77.6167C243.194 78.4451 243.865 79.1167 244.694 79.1167H248.549C249.377 79.1167 250.049 78.4451 250.049 77.6167ZM238.484 77.6167C238.484 76.7883 237.812 76.1167 236.984 76.1167H233.128C232.3 76.1167 231.628 76.7883 231.628 77.6167C231.628 78.4451 232.3 79.1167 233.128 79.1167H236.984C237.812 79.1167 238.484 78.4451 238.484 77.6167ZM226.918 77.6167C226.918 76.7883 226.247 76.1167 225.418 76.1167H221.563C220.735 76.1167 220.063 76.7883 220.063 77.6167C220.063 78.4451 220.735 79.1167 221.563 79.1167H225.418C226.247 79.1167 226.918 78.4451 226.918 77.6167ZM215.353 77.6167C215.353 76.7883 214.681 76.1167 213.853 76.1167H211.925C211.097 76.1167 210.425 76.7883 210.425 77.6167V79.8013C210.425 80.6297 211.097 81.3013 211.925 81.3013C212.754 81.3013 213.425 80.6297 213.425 79.8013V79.1167H213.853C214.681 79.1167 215.353 78.4451 215.353 77.6167ZM281.318 86.9111C280.489 86.9111 279.818 87.5827 279.818 88.4111V90.57C279.818 91.3984 280.489 92.07 281.318 92.07C282.146 92.07 282.818 91.3984 282.818 90.57V88.4111C282.818 87.5827 282.146 86.9111 281.318 86.9111ZM211.925 87.0396C211.097 87.0396 210.425 87.7112 210.425 88.5396V92.9088C210.425 93.7372 211.097 94.4088 211.925 94.4088C212.754 94.4088 213.425 93.7372 213.425 92.9088V88.5396C213.425 87.7112 212.754 87.0396 211.925 87.0396ZM211.925 100.147C211.097 100.147 210.425 100.819 210.425 101.647V106.016C210.425 106.845 211.097 107.516 211.925 107.516C212.754 107.516 213.425 106.845 213.425 106.016V101.647C213.425 100.819 212.754 100.147 211.925 100.147ZM211.925 113.255C211.097 113.255 210.425 113.926 210.425 114.755V119.124C210.425 119.952 211.097 120.624 211.925 120.624C212.754 120.624 213.425 119.952 213.425 119.124V114.755C213.425 113.926 212.754 113.255 211.925 113.255ZM211.925 126.362C211.097 126.362 210.425 127.034 210.425 127.862V128.547H209.834C209.006 128.547 208.334 129.218 208.334 130.047C208.334 130.875 209.006 131.547 209.834 131.547H211.925C212.754 131.547 213.425 130.875 213.425 130.047V127.862C213.425 127.034 212.754 126.362 211.925 126.362ZM202.969 130.047C202.969 129.218 202.298 128.547 201.469 128.547H197.287C196.458 128.547 195.787 129.218 195.787 130.047C195.787 130.875 196.458 131.547 197.287 131.547H201.469C202.298 131.547 202.969 130.875 202.969 130.047ZM190.422 130.047C190.422 129.218 189.75 128.547 188.922 128.547H184.739C183.911 128.547 183.239 129.218 183.239 130.047C183.239 130.875 183.911 131.547 184.739 131.547H188.922C189.75 131.547 190.422 130.875 190.422 130.047ZM177.875 130.047C177.875 129.218 177.203 128.547 176.375 128.547H172.192C171.364 128.547 170.692 129.218 170.692 130.047C170.692 130.875 171.364 131.547 172.192 131.547H176.375C177.203 131.547 177.875 130.875 177.875 130.047ZM165.327 130.047C165.327 129.218 164.656 128.547 163.827 128.547H159.645C158.817 128.547 158.145 129.218 158.145 130.047C158.145 130.875 158.817 131.547 159.645 131.547H163.827C164.656 131.547 165.327 130.875 165.327 130.047ZM152.78 130.047C152.78 129.218 152.109 128.547 151.28 128.547H147.098C146.269 128.547 145.598 129.218 145.598 130.047C145.598 130.875 146.269 131.547 147.098 131.547H151.28C152.109 131.547 152.78 130.875 152.78 130.047ZM140.233 130.047C140.233 129.218 139.561 128.547 138.733 128.547H134.551C133.722 128.547 133.051 129.218 133.051 130.047C133.051 130.875 133.722 131.547 134.551 131.547H138.733C139.561 131.547 140.233 130.875 140.233 130.047ZM127.686 130.047C127.686 129.218 127.014 128.547 126.186 128.547H122.003C121.175 128.547 120.503 129.218 120.503 130.047C120.503 130.875 121.175 131.547 122.003 131.547H126.186C127.014 131.547 127.686 130.875 127.686 130.047ZM115.138 130.047C115.138 129.218 114.467 128.547 113.638 128.547H109.456C108.628 128.547 107.956 129.218 107.956 130.047C107.956 130.875 108.628 131.547 109.456 131.547H113.638C114.467 131.547 115.138 130.875 115.138 130.047ZM312.776 98.939C312.378 98.939 311.996 99.097 311.715 99.3783C311.434 99.6596 311.276 100.041 311.276 100.439V102.264C311.276 103.092 311.947 103.764 312.776 103.764C313.604 103.764 314.276 103.092 314.276 102.264V101.939H314.705C315.534 101.939 316.205 101.267 316.205 100.439C316.205 99.6105 315.534 98.939 314.705 98.939H312.776ZM320.923 100.439C320.923 101.267 321.595 101.939 322.423 101.939H326.283C327.111 101.939 327.783 101.267 327.783 100.439C327.783 99.6105 327.111 98.939 326.283 98.939H322.423C321.595 98.939 320.923 99.6105 320.923 100.439ZM332.501 100.439C332.501 101.267 333.172 101.939 334.001 101.939H337.86C338.688 101.939 339.36 101.267 339.36 100.439C339.36 99.6105 338.688 98.939 337.86 98.939H334.001C333.172 98.939 332.501 99.6105 332.501 100.439ZM349.437 98.939H345.578C344.75 98.939 344.078 99.6105 344.078 100.439C344.078 101.267 344.75 101.939 345.578 101.939H349.437C350.266 101.939 350.937 101.267 350.937 100.439C350.937 99.6105 350.266 98.939 349.437 98.939ZM355.655 100.439C355.655 101.267 356.327 101.939 357.155 101.939H361.014C361.843 101.939 362.514 101.267 362.514 100.439C362.514 99.6105 361.843 98.939 361.014 98.939H357.155C356.327 98.939 355.655 99.6105 355.655 100.439ZM367.233 100.439C367.233 101.267 367.904 101.939 368.733 101.939H372.592C373.42 101.939 374.092 101.267 374.092 100.439C374.092 99.6105 373.42 98.939 372.592 98.939H368.733C367.904 98.939 367.233 99.6105 367.233 100.439ZM384.169 98.939H380.31C379.481 98.939 378.81 99.6105 378.81 100.439C378.81 101.267 379.481 101.939 380.31 101.939H384.169C384.997 101.939 385.669 101.267 385.669 100.439C385.669 99.6105 384.997 98.939 384.169 98.939ZM390.387 100.439C390.387 101.267 391.059 101.939 391.887 101.939H395.746C396.575 101.939 397.246 101.267 397.246 100.439C397.246 99.6105 396.575 98.939 395.746 98.939H391.887C391.059 98.939 390.387 99.6105 390.387 100.439ZM401.964 100.439C401.964 101.267 402.636 101.939 403.464 101.939H407.324C408.152 101.939 408.824 101.267 408.824 100.439C408.824 99.6105 408.152 98.939 407.324 98.939H403.464C402.636 98.939 401.964 99.6105 401.964 100.439ZM413.542 100.439C413.542 101.267 414.213 101.939 415.042 101.939H418.901C419.729 101.939 420.401 101.267 420.401 100.439C420.401 99.6105 419.729 98.939 418.901 98.939H415.042C414.213 98.939 413.542 99.6105 413.542 100.439ZM430.478 98.939H426.619C425.791 98.939 425.119 99.6105 425.119 100.439C425.119 101.267 425.791 101.939 426.619 101.939H430.478C431.306 101.939 431.978 101.267 431.978 100.439C431.978 99.6105 431.306 98.939 430.478 98.939ZM436.696 100.439C436.696 101.267 437.368 101.939 438.196 101.939H442.055C442.884 101.939 443.555 101.267 443.555 100.439C443.555 99.6105 442.884 98.939 442.055 98.939H438.196C437.368 98.939 436.696 99.6105 436.696 100.439ZM448.274 100.439C448.274 101.267 448.945 101.939 449.774 101.939H453.633C454.461 101.939 455.133 101.267 455.133 100.439C455.133 99.6105 454.461 98.939 453.633 98.939H449.774C448.945 98.939 448.274 99.6105 448.274 100.439ZM459.851 100.439C459.851 101.267 460.522 101.939 461.351 101.939H461.78V102.348C461.78 103.177 462.452 103.848 463.28 103.848C464.109 103.848 464.78 103.177 464.78 102.348V100.439C464.78 99.6105 464.109 98.939 463.28 98.939H461.351C460.522 98.939 459.851 99.6105 459.851 100.439ZM314.276 109.563C314.276 108.734 313.604 108.063 312.776 108.063C311.947 108.063 311.276 108.734 311.276 109.563V113.212C311.276 114.041 311.947 114.712 312.776 114.712C313.604 114.712 314.276 114.041 314.276 113.212V109.563ZM464.78 109.985C464.78 109.157 464.109 108.485 463.28 108.485C462.452 108.485 461.78 109.157 461.78 109.985V113.803C461.78 114.632 462.452 115.303 463.28 115.303C464.109 115.303 464.78 114.632 464.78 113.803V109.985ZM314.276 120.511C314.276 119.683 313.604 119.011 312.776 119.011C311.947 119.011 311.276 119.683 311.276 120.511V122.336C311.276 123.165 311.947 123.836 312.776 123.836C313.604 123.836 314.276 123.165 314.276 122.336V120.511ZM464.78 121.44C464.78 120.612 464.109 119.94 463.28 119.94C462.452 119.94 461.78 120.612 461.78 121.44V125.259C461.78 126.087 462.452 126.759 463.28 126.759C464.109 126.759 464.78 126.087 464.78 125.259V121.44ZM464.78 132.896C464.78 132.067 464.109 131.396 463.28 131.396C462.452 131.396 461.78 132.067 461.78 132.896V136.714C461.78 137.542 462.452 138.214 463.28 138.214C464.109 138.214 464.78 137.542 464.78 136.714V132.896ZM464.78 144.351C464.78 143.522 464.109 142.851 463.28 142.851C462.452 142.851 461.78 143.522 461.78 144.351V148.169C461.78 148.998 462.452 149.669 463.28 149.669C464.109 149.669 464.78 148.998 464.78 148.169V144.351ZM464.78 155.806C464.78 154.978 464.109 154.306 463.28 154.306C462.452 154.306 461.78 154.978 461.78 155.806V159.625C461.78 160.453 462.452 161.125 463.28 161.125C464.109 161.125 464.78 160.453 464.78 159.625V155.806ZM464.78 167.261C464.78 166.433 464.109 165.761 463.28 165.761C462.452 165.761 461.78 166.433 461.78 167.261V171.08C461.78 171.908 462.452 172.58 463.28 172.58C464.109 172.58 464.78 171.908 464.78 171.08V167.261ZM464.78 178.717C464.78 177.888 464.109 177.217 463.28 177.217C462.452 177.217 461.78 177.888 461.78 178.717V180.626C461.78 181.454 462.452 182.126 463.28 182.126H465.388C466.216 182.126 466.888 181.454 466.888 180.626C466.888 179.797 466.216 179.126 465.388 179.126H464.78V178.717ZM473.818 179.126C472.989 179.126 472.318 179.797 472.318 180.626C472.318 181.454 472.989 182.126 473.818 182.126H478.033C478.861 182.126 479.533 181.454 479.533 180.626C479.533 179.797 478.861 179.126 478.033 179.126H473.818ZM486.463 179.126C485.634 179.126 484.963 179.797 484.963 180.626C484.963 181.454 485.634 182.126 486.463 182.126H490.678C491.506 182.126 492.178 181.454 492.178 180.626C492.178 179.797 491.506 179.126 490.678 179.126H486.463ZM499.108 179.126C498.279 179.126 497.608 179.797 497.608 180.626C497.608 181.454 498.279 182.126 499.108 182.126H503.322C504.151 182.126 504.822 181.454 504.822 180.626C504.822 179.797 504.151 179.126 503.322 179.126H499.108ZM286.252 370.033C287.081 370.033 287.752 370.704 287.752 371.533V373.495C287.752 374.323 287.081 374.995 286.252 374.995C285.424 374.995 284.752 374.323 284.752 373.495V371.533C284.752 370.704 285.424 370.033 286.252 370.033ZM286.252 379.842C287.081 379.842 287.752 380.513 287.752 381.342V385.266C287.752 386.094 287.081 386.766 286.252 386.766C285.424 386.766 284.752 386.094 284.752 385.266V381.342C284.752 380.513 285.424 379.842 286.252 379.842ZM286.252 391.613C287.081 391.613 287.752 392.284 287.752 393.113V397.037C287.752 397.865 287.081 398.537 286.252 398.537C285.424 398.537 284.752 397.865 284.752 397.037V393.113C284.752 392.284 285.424 391.613 286.252 391.613ZM286.252 403.384C287.081 403.384 287.752 404.056 287.752 404.884V408.808C287.752 409.636 287.081 410.308 286.252 410.308C285.424 410.308 284.752 409.636 284.752 408.808V404.884C284.752 404.056 285.424 403.384 286.252 403.384ZM286.252 415.155C287.081 415.155 287.752 415.827 287.752 416.655V420.579C287.752 421.407 287.081 422.079 286.252 422.079C285.424 422.079 284.752 421.407 284.752 420.579V416.655C284.752 415.827 285.424 415.155 286.252 415.155ZM286.252 426.926C287.081 426.926 287.752 427.598 287.752 428.426V432.35C287.752 433.178 287.081 433.85 286.252 433.85C285.424 433.85 284.752 433.178 284.752 432.35V428.426C284.752 427.598 285.424 426.926 286.252 426.926ZM286.252 438.697C287.081 438.697 287.752 439.369 287.752 440.197V440.663L288.307 440.665C289.135 440.667 289.805 441.34 289.803 442.169C289.8 442.997 289.127 443.667 288.298 443.665L286.248 443.659C285.421 443.657 284.752 442.986 284.752 442.159V440.197C284.752 439.369 285.424 438.697 286.252 438.697ZM295.004 442.183C295.006 441.355 295.68 440.685 296.508 440.687L300.609 440.699C301.437 440.701 302.107 441.375 302.105 442.203C302.103 443.031 301.429 443.701 300.601 443.699L296.5 443.687C295.672 443.685 295.002 443.012 295.004 442.183ZM307.306 442.218C307.309 441.389 307.982 440.719 308.81 440.722L312.911 440.733C313.74 440.735 314.409 441.409 314.407 442.237C314.405 443.066 313.731 443.735 312.903 443.733L308.802 443.722C307.974 443.719 307.304 443.046 307.306 442.218ZM319.608 442.252C319.611 441.423 320.284 440.754 321.113 440.756L325.213 440.767C326.042 440.77 326.711 441.443 326.709 442.272C326.707 443.1 326.033 443.77 325.205 443.767L321.104 443.756C320.276 443.754 319.606 443.08 319.608 442.252ZM331.911 442.286C331.913 441.458 332.586 440.788 333.415 440.79L337.516 440.802C338.344 440.804 339.014 441.477 339.011 442.306C339.009 443.134 338.336 443.804 337.507 443.802L333.406 443.79C332.578 443.788 331.908 443.114 331.911 442.286ZM344.213 442.32C344.215 441.492 344.889 440.822 345.717 440.825L349.818 440.836C350.646 440.838 351.316 441.512 351.314 442.34C351.311 443.169 350.638 443.838 349.809 443.836L345.709 443.824C344.88 443.822 344.211 443.149 344.213 442.32ZM356.515 442.355C356.517 441.526 357.191 440.856 358.019 440.859L362.12 440.87C362.948 440.872 363.618 441.546 363.616 442.374C363.613 443.203 362.94 443.872 362.112 443.87L358.011 443.859C357.182 443.856 356.513 443.183 356.515 442.355ZM220.602 354.57C220.602 353.741 221.274 353.07 222.102 353.07H224.57C225.398 353.07 226.07 353.741 226.07 354.57C226.07 355.398 225.398 356.07 224.57 356.07H223.602V356.646C223.602 357.475 222.931 358.146 222.102 358.146C221.274 358.146 220.602 357.475 220.602 356.646V354.57ZM232.939 354.57C232.939 353.741 233.611 353.07 234.439 353.07H239.374C240.202 353.07 240.874 353.741 240.874 354.57C240.874 355.398 240.202 356.07 239.374 356.07H234.439C233.611 356.07 232.939 355.398 232.939 354.57ZM247.743 354.57C247.743 353.741 248.414 353.07 249.243 353.07H251.71C252.538 353.07 253.21 353.741 253.21 354.57C253.21 355.398 252.538 356.07 251.71 356.07H249.243C248.414 356.07 247.743 355.398 247.743 354.57ZM222.102 363.453C222.931 363.453 223.602 364.125 223.602 364.953V369.106C223.602 369.935 222.931 370.606 222.102 370.606C221.274 370.606 220.602 369.935 220.602 369.106V364.953C220.602 364.125 221.274 363.453 222.102 363.453ZM222.102 375.913C222.931 375.913 223.602 376.584 223.602 377.413V381.566C223.602 382.395 222.931 383.066 222.102 383.066C221.274 383.066 220.602 382.395 220.602 381.566V377.413C220.602 376.584 221.274 375.913 222.102 375.913ZM222.102 388.373C222.931 388.373 223.602 389.044 223.602 389.873V394.026C223.602 394.854 222.931 395.526 222.102 395.526C221.274 395.526 220.602 394.854 220.602 394.026V389.873C220.602 389.044 221.274 388.373 222.102 388.373ZM222.102 400.832C222.931 400.832 223.602 401.504 223.602 402.332V406.486C223.602 407.314 222.931 407.986 222.102 407.986C221.274 407.986 220.602 407.314 220.602 406.486V402.332C220.602 401.504 221.274 400.832 222.102 400.832ZM222.102 413.292C222.931 413.292 223.602 413.964 223.602 414.792V416.869C223.602 417.697 222.931 418.369 222.102 418.369H220.046C219.218 418.369 218.546 417.697 218.546 416.869C218.546 416.04 219.218 415.369 220.046 415.369H220.602V414.792C220.602 413.964 221.274 413.292 222.102 413.292ZM181.537 416.869C181.537 416.04 182.209 415.369 183.037 415.369H187.149C187.978 415.369 188.649 416.04 188.649 416.869C188.649 417.697 187.978 418.369 187.149 418.369H183.037C182.209 418.369 181.537 417.697 181.537 416.869ZM193.874 416.869C193.874 416.04 194.545 415.369 195.374 415.369H199.486C200.314 415.369 200.986 416.04 200.986 416.869C200.986 417.697 200.314 418.369 199.486 418.369H195.374C194.545 418.369 193.874 417.697 193.874 416.869ZM206.21 416.869C206.21 416.04 206.882 415.369 207.71 415.369H211.822C212.651 415.369 213.322 416.04 213.322 416.869C213.322 417.697 212.651 418.369 211.822 418.369H207.71C206.882 418.369 206.21 417.697 206.21 416.869ZM221.444 270.065C221.444 269.237 220.772 268.565 219.944 268.565H218.11C217.282 268.565 216.61 269.237 216.61 270.065C216.61 270.894 217.282 271.565 218.11 271.565H219.944C220.772 271.565 221.444 270.894 221.444 270.065ZM212.277 270.065C212.277 269.237 211.605 268.565 210.777 268.565H207.11C206.282 268.565 205.61 269.237 205.61 270.065C205.61 270.894 206.282 271.565 207.11 271.565H210.777C211.605 271.565 212.277 270.894 212.277 270.065ZM201.277 270.065C201.277 269.237 200.605 268.565 199.777 268.565H196.11C195.282 268.565 194.61 269.237 194.61 270.065C194.61 270.894 195.282 271.565 196.11 271.565H199.777C200.605 271.565 201.277 270.894 201.277 270.065ZM190.277 270.065C190.277 269.237 189.605 268.565 188.777 268.565H186.944C186.115 268.565 185.444 269.237 185.444 270.065V271.954C185.444 272.783 186.115 273.454 186.944 273.454C187.772 273.454 188.444 272.783 188.444 271.954V271.565H188.777C189.605 271.565 190.277 270.894 190.277 270.065ZM186.944 278.011C186.115 278.011 185.444 278.682 185.444 279.511V283.289C185.444 284.117 186.115 284.789 186.944 284.789C187.772 284.789 188.444 284.117 188.444 283.289V279.511C188.444 278.682 187.772 278.011 186.944 278.011ZM186.944 289.345C186.115 289.345 185.444 290.016 185.444 290.845V294.623C185.444 295.451 186.115 296.123 186.944 296.123C187.772 296.123 188.444 295.451 188.444 294.623V290.845C188.444 290.016 187.772 289.345 186.944 289.345ZM186.944 300.679C186.115 300.679 185.444 301.35 185.444 302.179V305.957C185.444 306.785 186.115 307.457 186.944 307.457C187.772 307.457 188.444 306.785 188.444 305.957V302.179C188.444 301.35 187.772 300.679 186.944 300.679ZM186.944 312.013C186.115 312.013 185.444 312.684 185.444 313.513V313.902H184.851C184.023 313.902 183.351 314.573 183.351 315.402C183.351 316.23 184.023 316.902 184.851 316.902H186.944C187.772 316.902 188.444 316.23 188.444 315.402V313.513C188.444 312.684 187.772 312.013 186.944 312.013ZM177.981 315.402C177.981 314.573 177.309 313.902 176.481 313.902H172.296C171.467 313.902 170.796 314.573 170.796 315.402C170.796 316.23 171.467 316.902 172.296 316.902H176.481C177.309 316.902 177.981 316.23 177.981 315.402ZM165.425 315.402C165.425 314.573 164.754 313.902 163.925 313.902H159.74C158.912 313.902 158.24 314.573 158.24 315.402C158.24 316.23 158.912 316.902 159.74 316.902H163.925C164.754 316.902 165.425 316.23 165.425 315.402ZM152.87 315.402C152.87 314.573 152.198 313.902 151.37 313.902H147.185C146.356 313.902 145.685 314.573 145.685 315.402C145.685 316.23 146.356 316.902 147.185 316.902H151.37C152.198 316.902 152.87 316.23 152.87 315.402ZM140.314 315.402C140.314 314.573 139.643 313.902 138.814 313.902H134.629C133.801 313.902 133.129 314.573 133.129 315.402C133.129 316.23 133.801 316.902 134.629 316.902H138.814C139.643 316.902 140.314 316.23 140.314 315.402ZM127.759 315.402C127.759 314.573 127.087 313.902 126.259 313.902H122.074C121.245 313.902 120.574 314.573 120.574 315.402C120.574 316.23 121.245 316.902 122.074 316.902H126.259C127.087 316.902 127.759 316.23 127.759 315.402ZM115.203 315.402C115.203 314.573 114.532 313.902 113.703 313.902H109.518C108.69 313.902 108.018 314.573 108.018 315.402C108.018 316.23 108.69 316.902 109.518 316.902H113.703C114.532 316.902 115.203 316.23 115.203 315.402ZM102.648 315.402C102.648 314.573 101.976 313.902 101.148 313.902H96.9627C96.1343 313.902 95.4627 314.573 95.4627 315.402C95.4627 316.23 96.1343 316.902 96.9627 316.902H101.148C101.976 316.902 102.648 316.23 102.648 315.402ZM239 193.5C239.828 193.5 240.5 194.172 240.5 195C240.5 195.828 239.828 196.5 239 196.5H236.93C236.101 196.5 235.43 195.828 235.43 195C235.43 194.172 236.101 193.5 236.93 193.5H239ZM228.649 193.5C229.477 193.5 230.149 194.172 230.149 195C230.149 195.828 229.477 196.5 228.649 196.5H224.508C223.68 196.5 223.008 195.828 223.008 195C223.008 194.172 223.68 193.5 224.508 193.5H228.649ZM216.227 193.5C217.056 193.5 217.727 194.172 217.727 195C217.727 195.828 217.056 196.5 216.227 196.5H212.087C211.259 196.5 210.587 195.828 210.587 195C210.587 194.172 211.259 193.5 212.087 193.5H216.227ZM203.806 193.5C204.635 193.5 205.306 194.172 205.306 195C205.306 195.828 204.635 196.5 203.806 196.5H199.666C198.837 196.5 198.166 195.828 198.166 195C198.166 194.172 198.837 193.5 199.666 193.5H203.806ZM191.385 193.5C192.213 193.5 192.885 194.172 192.885 195C192.885 195.828 192.213 196.5 191.385 196.5H187.245C186.416 196.5 185.745 195.828 185.745 195C185.745 194.172 186.416 193.5 187.245 193.5H191.385ZM178.964 193.5C179.792 193.5 180.464 194.172 180.464 195C180.464 195.828 179.792 196.5 178.964 196.5H174.823C173.995 196.5 173.323 195.828 173.323 195C173.323 194.172 173.995 193.5 174.823 193.5H178.964ZM166.542 193.5C167.371 193.5 168.042 194.172 168.042 195C168.042 195.828 167.371 196.5 166.542 196.5H162.402C161.574 196.5 160.902 195.828 160.902 195C160.902 194.172 161.574 193.5 162.402 193.5H166.542ZM154.121 193.5C154.95 193.5 155.621 194.172 155.621 195C155.621 195.828 154.95 196.5 154.121 196.5H149.981C149.152 196.5 148.481 195.828 148.481 195C148.481 194.172 149.152 193.5 149.981 193.5H154.121ZM141.7 193.5C142.528 193.5 143.2 194.172 143.2 195C143.2 195.828 142.528 196.5 141.7 196.5H141.13V197.333C141.13 198.162 140.458 198.833 139.63 198.833C138.801 198.833 138.13 198.162 138.13 197.333V195C138.13 194.172 138.801 193.5 139.63 193.5H141.7ZM138.13 206.667C138.13 205.838 138.801 205.167 139.63 205.167C140.458 205.167 141.13 205.838 141.13 206.667V211.333C141.13 212.162 140.458 212.833 139.63 212.833C138.801 212.833 138.13 212.162 138.13 211.333V206.667ZM138.13 220.667C138.13 219.838 138.801 219.167 139.63 219.167C140.458 219.167 141.13 219.838 141.13 220.667V223C141.13 223.828 140.458 224.5 139.63 224.5H137.779C136.95 224.5 136.279 223.828 136.279 223C136.279 222.172 136.95 221.5 137.779 221.5H138.13V220.667ZM130.375 221.5C131.204 221.5 131.875 222.172 131.875 223C131.875 223.828 131.204 224.5 130.375 224.5H126.674C125.845 224.5 125.174 223.828 125.174 223C125.174 222.172 125.845 221.5 126.674 221.5H130.375ZM119.271 221.5C120.099 221.5 120.771 222.172 120.771 223C120.771 223.828 120.099 224.5 119.271 224.5H115.569C114.74 224.5 114.069 223.828 114.069 223C114.069 222.172 114.74 221.5 115.569 221.5H119.271ZM108.166 221.5C108.994 221.5 109.666 222.172 109.666 223C109.666 223.828 108.994 224.5 108.166 224.5H104.464C103.635 224.5 102.964 223.828 102.964 223C102.964 222.172 103.635 221.5 104.464 221.5H108.166ZM97.0606 221.5C97.889 221.5 98.5606 222.172 98.5606 223C98.5606 223.828 97.889 224.5 97.0606 224.5H93.3589C92.5305 224.5 91.8589 223.828 91.8589 223C91.8589 222.172 92.5305 221.5 93.3589 221.5H97.0606ZM85.9556 221.5C86.7841 221.5 87.4556 222.172 87.4556 223C87.4556 223.828 86.7841 224.5 85.9556 224.5H82.254C81.4256 224.5 80.754 223.828 80.754 223C80.754 222.172 81.4256 221.5 82.254 221.5H85.9556ZM356.5 213.051C355.671 213.051 355 213.723 355 214.551C355 215.38 355.671 216.051 356.5 216.051H358.609C359.437 216.051 360.109 215.38 360.109 214.551C360.109 213.723 359.437 213.051 358.609 213.051H356.5ZM367.046 213.051C366.217 213.051 365.546 213.723 365.546 214.551C365.546 215.38 366.217 216.051 367.046 216.051H371.264C372.092 216.051 372.764 215.38 372.764 214.551C372.764 213.723 372.092 213.051 371.264 213.051H367.046ZM379.7 213.051C378.872 213.051 378.2 213.723 378.2 214.551C378.2 215.38 378.872 216.051 379.7 216.051H383.919C384.747 216.051 385.419 215.38 385.419 214.551C385.419 213.723 384.747 213.051 383.919 213.051H379.7ZM392.355 213.051C391.527 213.051 390.855 213.723 390.855 214.551C390.855 215.38 391.527 216.051 392.355 216.051H396.574C397.402 216.051 398.074 215.38 398.074 214.551C398.074 213.723 397.402 213.051 396.574 213.051H392.355ZM405.01 213.051C404.182 213.051 403.51 213.723 403.51 214.551C403.51 215.38 404.182 216.051 405.01 216.051H409.228C410.057 216.051 410.728 215.38 410.728 214.551C410.728 213.723 410.057 213.051 409.228 213.051H405.01ZM417.665 213.051C416.837 213.051 416.165 213.723 416.165 214.551C416.165 215.38 416.837 216.051 417.665 216.051H421.883C422.712 216.051 423.383 215.38 423.383 214.551C423.383 213.723 422.712 213.051 421.883 213.051H417.665ZM430.32 213.051C429.491 213.051 428.82 213.723 428.82 214.551C428.82 215.38 429.491 216.051 430.32 216.051H434.538C435.367 216.051 436.038 215.38 436.038 214.551C436.038 213.723 435.367 213.051 434.538 213.051H430.32ZM442.975 213.051C442.146 213.051 441.475 213.723 441.475 214.551C441.475 215.38 442.146 216.051 442.975 216.051H443.584V216.282C443.584 217.11 444.255 217.782 445.084 217.782C445.912 217.782 446.584 217.11 446.584 216.282V214.551C446.584 213.723 445.912 213.051 445.084 213.051H442.975ZM446.584 223.204C446.584 222.375 445.912 221.704 445.084 221.704C444.255 221.704 443.584 222.375 443.584 223.204V226.665C443.584 227.493 444.255 228.165 445.084 228.165C445.912 228.165 446.584 227.493 446.584 226.665V223.204ZM446.584 233.587C446.584 232.759 445.912 232.087 445.084 232.087C444.255 232.087 443.584 232.759 443.584 233.587V237.048C443.584 237.877 444.255 238.548 445.084 238.548C445.912 238.548 446.584 237.877 446.584 237.048V233.587ZM446.584 243.97C446.584 243.142 445.912 242.47 445.084 242.47C444.255 242.47 443.584 243.142 443.584 243.97V245.701C443.584 246.529 444.255 247.201 445.084 247.201H447.044C447.872 247.201 448.544 246.529 448.544 245.701C448.544 244.872 447.872 244.201 447.044 244.201H446.584V243.97ZM454.882 244.201C454.054 244.201 453.382 244.872 453.382 245.701C453.382 246.529 454.054 247.201 454.882 247.201H458.802C459.63 247.201 460.302 246.529 460.302 245.701C460.302 244.872 459.63 244.201 458.802 244.201H454.882ZM466.641 244.201C465.812 244.201 465.141 244.872 465.141 245.701C465.141 246.529 465.812 247.201 466.641 247.201H470.56C471.388 247.201 472.06 246.529 472.06 245.701C472.06 244.872 471.388 244.201 470.56 244.201H466.641ZM478.399 244.201C477.57 244.201 476.899 244.872 476.899 245.701C476.899 246.529 477.57 247.201 478.399 247.201H482.318C483.146 247.201 483.818 246.529 483.818 245.701C483.818 244.872 483.146 244.201 482.318 244.201H478.399ZM490.157 244.201C489.328 244.201 488.657 244.872 488.657 245.701C488.657 246.529 489.328 247.201 490.157 247.201H494.076C494.905 247.201 495.576 246.529 495.576 245.701C495.576 244.872 494.905 244.201 494.076 244.201H490.157ZM501.915 244.201C501.087 244.201 500.415 244.872 500.415 245.701C500.415 246.529 501.087 247.201 501.915 247.201H505.834C506.663 247.201 507.334 246.529 507.334 245.701C507.334 244.872 506.663 244.201 505.834 244.201H501.915ZM513.673 244.201C512.845 244.201 512.173 244.872 512.173 245.701C512.173 246.529 512.845 247.201 513.673 247.201H517.593C518.421 247.201 519.093 246.529 519.093 245.701C519.093 244.872 518.421 244.201 517.593 244.201H513.673ZM441.661 294.122C441.661 293.293 442.332 292.622 443.161 292.622H445.199C446.027 292.622 446.699 293.293 446.699 294.122C446.699 294.95 446.027 295.622 445.199 295.622H444.661V296.049C444.661 296.878 443.989 297.549 443.161 297.549C442.332 297.549 441.661 296.878 441.661 296.049V294.122ZM451.852 294.122C451.852 293.293 452.524 292.622 453.352 292.622H457.429C458.257 292.622 458.929 293.293 458.929 294.122C458.929 294.95 458.257 295.622 457.429 295.622H453.352C452.524 295.622 451.852 294.95 451.852 294.122ZM464.082 294.122C464.082 293.293 464.754 292.622 465.582 292.622H469.659C470.487 292.622 471.159 293.293 471.159 294.122C471.159 294.95 470.487 295.622 469.659 295.622H465.582C464.754 295.622 464.082 294.95 464.082 294.122ZM476.312 294.122C476.312 293.293 476.984 292.622 477.812 292.622H481.889C482.717 292.622 483.389 293.293 483.389 294.122C483.389 294.95 482.717 295.622 481.889 295.622H477.812C476.984 295.622 476.312 294.95 476.312 294.122ZM488.542 294.122C488.542 293.293 489.214 292.622 490.042 292.622H494.119C494.947 292.622 495.619 293.293 495.619 294.122C495.619 294.95 494.947 295.622 494.119 295.622H490.042C489.214 295.622 488.542 294.95 488.542 294.122ZM500.772 294.122C500.772 293.293 501.444 292.622 502.272 292.622H506.349C507.177 292.622 507.849 293.293 507.849 294.122C507.849 294.95 507.177 295.622 506.349 295.622H502.272C501.444 295.622 500.772 294.95 500.772 294.122ZM443.161 302.259C443.989 302.259 444.661 302.931 444.661 303.759V307.615C444.661 308.443 443.989 309.115 443.161 309.115C442.332 309.115 441.661 308.443 441.661 307.615V303.759C441.661 302.931 442.332 302.259 443.161 302.259ZM443.161 313.825C443.989 313.825 444.661 314.496 444.661 315.325V319.18C444.661 320.008 443.989 320.68 443.161 320.68C442.332 320.68 441.661 320.008 441.661 319.18V315.325C441.661 314.496 442.332 313.825 443.161 313.825ZM443.161 325.39C443.989 325.39 444.661 326.062 444.661 326.89V330.745C444.661 331.574 443.989 332.245 443.161 332.245C442.332 332.245 441.661 331.574 441.661 330.745V326.89C441.661 326.062 442.332 325.39 443.161 325.39ZM443.161 336.956C443.989 336.956 444.661 337.627 444.661 338.456V342.311C444.661 343.139 443.989 343.811 443.161 343.811C442.332 343.811 441.661 343.139 441.661 342.311V338.456C441.661 337.627 442.332 336.956 443.161 336.956ZM443.161 348.521C443.989 348.521 444.661 349.193 444.661 350.021V353.876C444.661 354.705 443.989 355.376 443.161 355.376C442.332 355.376 441.661 354.705 441.661 353.876V350.021C441.661 349.193 442.332 348.521 443.161 348.521ZM443.161 360.087C443.989 360.087 444.661 360.758 444.661 361.587V365.442C444.661 366.27 443.989 366.942 443.161 366.942C442.332 366.942 441.661 366.27 441.661 365.442V361.587C441.661 360.758 442.332 360.087 443.161 360.087ZM443.161 371.652C443.989 371.652 444.661 372.324 444.661 373.152V377.007C444.661 377.836 443.989 378.507 443.161 378.507C442.332 378.507 441.661 377.836 441.661 377.007V373.152C441.661 372.324 442.332 371.652 443.161 371.652ZM443.161 383.217C443.989 383.217 444.661 383.889 444.661 384.717V386.645C444.661 387.473 443.989 388.145 443.161 388.145H441.24C440.412 388.145 439.74 387.473 439.74 386.645C439.74 385.817 440.412 385.145 441.24 385.145H441.661V384.717C441.661 383.889 442.332 383.217 443.161 383.217ZM361 386.645C361 385.817 361.671 385.145 362.5 385.145H364.42C365.249 385.145 365.92 385.817 365.92 386.645C365.92 387.473 365.249 388.145 364.42 388.145H362.5C361.671 388.145 361 387.473 361 386.645ZM370.602 386.645C370.602 385.817 371.274 385.145 372.102 385.145H375.943C376.772 385.145 377.443 385.817 377.443 386.645C377.443 387.473 376.772 388.145 375.943 388.145H372.102C371.274 388.145 370.602 387.473 370.602 386.645ZM382.125 386.645C382.125 385.817 382.797 385.145 383.625 385.145H387.466C388.295 385.145 388.966 385.817 388.966 386.645C388.966 387.473 388.295 388.145 387.466 388.145H383.625C382.797 388.145 382.125 387.473 382.125 386.645ZM393.648 386.645C393.648 385.817 394.32 385.145 395.148 385.145H398.989C399.818 385.145 400.489 385.817 400.489 386.645C400.489 387.473 399.818 388.145 398.989 388.145H395.148C394.32 388.145 393.648 387.473 393.648 386.645ZM405.171 386.645C405.171 385.817 405.843 385.145 406.671 385.145H410.512C411.341 385.145 412.012 385.817 412.012 386.645C412.012 387.473 411.341 388.145 410.512 388.145H406.671C405.843 388.145 405.171 387.473 405.171 386.645ZM416.694 386.645C416.694 385.817 417.366 385.145 418.194 385.145H422.035C422.864 385.145 423.535 385.817 423.535 386.645C423.535 387.473 422.864 388.145 422.035 388.145H418.194C417.366 388.145 416.694 387.473 416.694 386.645ZM428.217 386.645C428.217 385.817 428.889 385.145 429.717 385.145H433.558C434.387 385.145 435.058 385.817 435.058 386.645C435.058 387.473 434.387 388.145 433.558 388.145H429.717C428.889 388.145 428.217 387.473 428.217 386.645Z" fill="#3360FF"/>
</svg>
