<svg width="1240" height="595" viewBox="0 0 1240 595" fill="none" xmlns="http://www.w3.org/2000/svg">
<mask id="path-1-inside-1" fill="white">
<path d="M732 592.5C732 593.881 730.881 595 729.5 595C728.119 595 727 593.881 727 592.5C727 591.119 728.119 590 729.5 590C730.881 590 732 591.119 732 592.5Z"/>
<path d="M732 547.5C732 548.881 730.881 550 729.5 550C728.119 550 727 548.881 727 547.5C727 546.119 728.119 545 729.5 545C730.881 545 732 546.119 732 547.5Z"/>
<path d="M732 502.5C732 503.881 730.881 505 729.5 505C728.119 505 727 503.881 727 502.5C727 501.119 728.119 500 729.5 500C730.881 500 732 501.119 732 502.5Z"/>
<path d="M732 457.5C732 458.881 730.881 460 729.5 460C728.119 460 727 458.881 727 457.5C727 456.119 728.119 455 729.5 455C730.881 455 732 456.119 732 457.5Z"/>
<path d="M732 412.5C732 413.881 730.881 415 729.5 415C728.119 415 727 413.881 727 412.5C727 411.119 728.119 410 729.5 410C730.881 410 732 411.119 732 412.5Z"/>
<path d="M732 367.5C732 368.881 730.881 370 729.5 370C728.119 370 727 368.881 727 367.5C727 366.119 728.119 365 729.5 365C730.881 365 732 366.119 732 367.5Z"/>
<path d="M732 322.5C732 323.881 730.881 325 729.5 325C728.119 325 727 323.881 727 322.5C727 321.119 728.119 320 729.5 320C730.881 320 732 321.119 732 322.5Z"/>
<path d="M777 592.5C777 593.881 775.881 595 774.5 595C773.119 595 772 593.881 772 592.5C772 591.119 773.119 590 774.5 590C775.881 590 777 591.119 777 592.5Z"/>
<path d="M777 547.5C777 548.881 775.881 550 774.5 550C773.119 550 772 548.881 772 547.5C772 546.119 773.119 545 774.5 545C775.881 545 777 546.119 777 547.5Z"/>
<path d="M777 502.5C777 503.881 775.881 505 774.5 505C773.119 505 772 503.881 772 502.5C772 501.119 773.119 500 774.5 500C775.881 500 777 501.119 777 502.5Z"/>
<path d="M777 457.5C777 458.881 775.881 460 774.5 460C773.119 460 772 458.881 772 457.5C772 456.119 773.119 455 774.5 455C775.881 455 777 456.119 777 457.5Z"/>
<path d="M777 412.5C777 413.881 775.881 415 774.5 415C773.119 415 772 413.881 772 412.5C772 411.119 773.119 410 774.5 410C775.881 410 777 411.119 777 412.5Z"/>
<path d="M777 367.5C777 368.881 775.881 370 774.5 370C773.119 370 772 368.881 772 367.5C772 366.119 773.119 365 774.5 365C775.881 365 777 366.119 777 367.5Z"/>
<path d="M777 322.5C777 323.881 775.881 325 774.5 325C773.119 325 772 323.881 772 322.5C772 321.119 773.119 320 774.5 320C775.881 320 777 321.119 777 322.5Z"/>
<path d="M822 592.5C822 593.881 820.881 595 819.5 595C818.119 595 817 593.881 817 592.5C817 591.119 818.119 590 819.5 590C820.881 590 822 591.119 822 592.5Z"/>
<path d="M822 547.5C822 548.881 820.881 550 819.5 550C818.119 550 817 548.881 817 547.5C817 546.119 818.119 545 819.5 545C820.881 545 822 546.119 822 547.5Z"/>
<path d="M822 502.5C822 503.881 820.881 505 819.5 505C818.119 505 817 503.881 817 502.5C817 501.119 818.119 500 819.5 500C820.881 500 822 501.119 822 502.5Z"/>
<path d="M822 457.5C822 458.881 820.881 460 819.5 460C818.119 460 817 458.881 817 457.5C817 456.119 818.119 455 819.5 455C820.881 455 822 456.119 822 457.5Z"/>
<path d="M822 412.5C822 413.881 820.881 415 819.5 415C818.119 415 817 413.881 817 412.5C817 411.119 818.119 410 819.5 410C820.881 410 822 411.119 822 412.5Z"/>
<path d="M822 367.5C822 368.881 820.881 370 819.5 370C818.119 370 817 368.881 817 367.5C817 366.119 818.119 365 819.5 365C820.881 365 822 366.119 822 367.5Z"/>
<path d="M822 322.5C822 323.881 820.881 325 819.5 325C818.119 325 817 323.881 817 322.5C817 321.119 818.119 320 819.5 320C820.881 320 822 321.119 822 322.5Z"/>
<path d="M867 592.5C867 593.881 865.881 595 864.5 595C863.119 595 862 593.881 862 592.5C862 591.119 863.119 590 864.5 590C865.881 590 867 591.119 867 592.5Z"/>
<path d="M867 547.5C867 548.881 865.881 550 864.5 550C863.119 550 862 548.881 862 547.5C862 546.119 863.119 545 864.5 545C865.881 545 867 546.119 867 547.5Z"/>
<path d="M867 502.5C867 503.881 865.881 505 864.5 505C863.119 505 862 503.881 862 502.5C862 501.119 863.119 500 864.5 500C865.881 500 867 501.119 867 502.5Z"/>
<path d="M867 457.5C867 458.881 865.881 460 864.5 460C863.119 460 862 458.881 862 457.5C862 456.119 863.119 455 864.5 455C865.881 455 867 456.119 867 457.5Z"/>
<path d="M867 412.5C867 413.881 865.881 415 864.5 415C863.119 415 862 413.881 862 412.5C862 411.119 863.119 410 864.5 410C865.881 410 867 411.119 867 412.5Z"/>
<path d="M867 367.5C867 368.881 865.881 370 864.5 370C863.119 370 862 368.881 862 367.5C862 366.119 863.119 365 864.5 365C865.881 365 867 366.119 867 367.5Z"/>
<path d="M867 322.5C867 323.881 865.881 325 864.5 325C863.119 325 862 323.881 862 322.5C862 321.119 863.119 320 864.5 320C865.881 320 867 321.119 867 322.5Z"/>
<path d="M912 592.5C912 593.881 910.881 595 909.5 595C908.119 595 907 593.881 907 592.5C907 591.119 908.119 590 909.5 590C910.881 590 912 591.119 912 592.5Z"/>
<path d="M912 547.5C912 548.881 910.881 550 909.5 550C908.119 550 907 548.881 907 547.5C907 546.119 908.119 545 909.5 545C910.881 545 912 546.119 912 547.5Z"/>
<path d="M912 502.5C912 503.881 910.881 505 909.5 505C908.119 505 907 503.881 907 502.5C907 501.119 908.119 500 909.5 500C910.881 500 912 501.119 912 502.5Z"/>
<path d="M912 457.5C912 458.881 910.881 460 909.5 460C908.119 460 907 458.881 907 457.5C907 456.119 908.119 455 909.5 455C910.881 455 912 456.119 912 457.5Z"/>
<path d="M912 412.5C912 413.881 910.881 415 909.5 415C908.119 415 907 413.881 907 412.5C907 411.119 908.119 410 909.5 410C910.881 410 912 411.119 912 412.5Z"/>
<path d="M912 367.5C912 368.881 910.881 370 909.5 370C908.119 370 907 368.881 907 367.5C907 366.119 908.119 365 909.5 365C910.881 365 912 366.119 912 367.5Z"/>
<path d="M912 322.5C912 323.881 910.881 325 909.5 325C908.119 325 907 323.881 907 322.5C907 321.119 908.119 320 909.5 320C910.881 320 912 321.119 912 322.5Z"/>
<path d="M957 592.5C957 593.881 955.881 595 954.5 595C953.119 595 952 593.881 952 592.5C952 591.119 953.119 590 954.5 590C955.881 590 957 591.119 957 592.5Z"/>
<path d="M957 547.5C957 548.881 955.881 550 954.5 550C953.119 550 952 548.881 952 547.5C952 546.119 953.119 545 954.5 545C955.881 545 957 546.119 957 547.5Z"/>
<path d="M957 502.5C957 503.881 955.881 505 954.5 505C953.119 505 952 503.881 952 502.5C952 501.119 953.119 500 954.5 500C955.881 500 957 501.119 957 502.5Z"/>
<path d="M957 457.5C957 458.881 955.881 460 954.5 460C953.119 460 952 458.881 952 457.5C952 456.119 953.119 455 954.5 455C955.881 455 957 456.119 957 457.5Z"/>
<path d="M957 412.5C957 413.881 955.881 415 954.5 415C953.119 415 952 413.881 952 412.5C952 411.119 953.119 410 954.5 410C955.881 410 957 411.119 957 412.5Z"/>
<path d="M957 367.5C957 368.881 955.881 370 954.5 370C953.119 370 952 368.881 952 367.5C952 366.119 953.119 365 954.5 365C955.881 365 957 366.119 957 367.5Z"/>
<path d="M957 322.5C957 323.881 955.881 325 954.5 325C953.119 325 952 323.881 952 322.5C952 321.119 953.119 320 954.5 320C955.881 320 957 321.119 957 322.5Z"/>
<path d="M1002 592.5C1002 593.881 1000.88 595 999.5 595C998.119 595 997 593.881 997 592.5C997 591.119 998.119 590 999.5 590C1000.88 590 1002 591.119 1002 592.5Z"/>
<path d="M1002 547.5C1002 548.881 1000.88 550 999.5 550C998.119 550 997 548.881 997 547.5C997 546.119 998.119 545 999.5 545C1000.88 545 1002 546.119 1002 547.5Z"/>
<path d="M1002 502.5C1002 503.881 1000.88 505 999.5 505C998.119 505 997 503.881 997 502.5C997 501.119 998.119 500 999.5 500C1000.88 500 1002 501.119 1002 502.5Z"/>
<path d="M1002 457.5C1002 458.881 1000.88 460 999.5 460C998.119 460 997 458.881 997 457.5C997 456.119 998.119 455 999.5 455C1000.88 455 1002 456.119 1002 457.5Z"/>
<path d="M1002 412.5C1002 413.881 1000.88 415 999.5 415C998.119 415 997 413.881 997 412.5C997 411.119 998.119 410 999.5 410C1000.88 410 1002 411.119 1002 412.5Z"/>
<path d="M1002 367.5C1002 368.881 1000.88 370 999.5 370C998.119 370 997 368.881 997 367.5C997 366.119 998.119 365 999.5 365C1000.88 365 1002 366.119 1002 367.5Z"/>
<path d="M1002 322.5C1002 323.881 1000.88 325 999.5 325C998.119 325 997 323.881 997 322.5C997 321.119 998.119 320 999.5 320C1000.88 320 1002 321.119 1002 322.5Z"/>
</mask>
<path d="M732 592.5C732 593.881 730.881 595 729.5 595C728.119 595 727 593.881 727 592.5C727 591.119 728.119 590 729.5 590C730.881 590 732 591.119 732 592.5Z" stroke="#3360FF" stroke-width="2" mask="url(#path-1-inside-1)"/>
<path d="M732 547.5C732 548.881 730.881 550 729.5 550C728.119 550 727 548.881 727 547.5C727 546.119 728.119 545 729.5 545C730.881 545 732 546.119 732 547.5Z" stroke="#3360FF" stroke-width="2" mask="url(#path-1-inside-1)"/>
<path d="M732 502.5C732 503.881 730.881 505 729.5 505C728.119 505 727 503.881 727 502.5C727 501.119 728.119 500 729.5 500C730.881 500 732 501.119 732 502.5Z" stroke="#3360FF" stroke-width="2" mask="url(#path-1-inside-1)"/>
<path d="M732 457.5C732 458.881 730.881 460 729.5 460C728.119 460 727 458.881 727 457.5C727 456.119 728.119 455 729.5 455C730.881 455 732 456.119 732 457.5Z" stroke="#3360FF" stroke-width="2" mask="url(#path-1-inside-1)"/>
<path d="M732 412.5C732 413.881 730.881 415 729.5 415C728.119 415 727 413.881 727 412.5C727 411.119 728.119 410 729.5 410C730.881 410 732 411.119 732 412.5Z" stroke="#3360FF" stroke-width="2" mask="url(#path-1-inside-1)"/>
<path d="M732 367.5C732 368.881 730.881 370 729.5 370C728.119 370 727 368.881 727 367.5C727 366.119 728.119 365 729.5 365C730.881 365 732 366.119 732 367.5Z" stroke="#3360FF" stroke-width="2" mask="url(#path-1-inside-1)"/>
<path d="M732 322.5C732 323.881 730.881 325 729.5 325C728.119 325 727 323.881 727 322.5C727 321.119 728.119 320 729.5 320C730.881 320 732 321.119 732 322.5Z" stroke="#3360FF" stroke-width="2" mask="url(#path-1-inside-1)"/>
<path d="M777 592.5C777 593.881 775.881 595 774.5 595C773.119 595 772 593.881 772 592.5C772 591.119 773.119 590 774.5 590C775.881 590 777 591.119 777 592.5Z" stroke="#3360FF" stroke-width="2" mask="url(#path-1-inside-1)"/>
<path d="M777 547.5C777 548.881 775.881 550 774.5 550C773.119 550 772 548.881 772 547.5C772 546.119 773.119 545 774.5 545C775.881 545 777 546.119 777 547.5Z" stroke="#3360FF" stroke-width="2" mask="url(#path-1-inside-1)"/>
<path d="M777 502.5C777 503.881 775.881 505 774.5 505C773.119 505 772 503.881 772 502.5C772 501.119 773.119 500 774.5 500C775.881 500 777 501.119 777 502.5Z" stroke="#3360FF" stroke-width="2" mask="url(#path-1-inside-1)"/>
<path d="M777 457.5C777 458.881 775.881 460 774.5 460C773.119 460 772 458.881 772 457.5C772 456.119 773.119 455 774.5 455C775.881 455 777 456.119 777 457.5Z" stroke="#3360FF" stroke-width="2" mask="url(#path-1-inside-1)"/>
<path d="M777 412.5C777 413.881 775.881 415 774.5 415C773.119 415 772 413.881 772 412.5C772 411.119 773.119 410 774.5 410C775.881 410 777 411.119 777 412.5Z" stroke="#3360FF" stroke-width="2" mask="url(#path-1-inside-1)"/>
<path d="M777 367.5C777 368.881 775.881 370 774.5 370C773.119 370 772 368.881 772 367.5C772 366.119 773.119 365 774.5 365C775.881 365 777 366.119 777 367.5Z" stroke="#3360FF" stroke-width="2" mask="url(#path-1-inside-1)"/>
<path d="M777 322.5C777 323.881 775.881 325 774.5 325C773.119 325 772 323.881 772 322.5C772 321.119 773.119 320 774.5 320C775.881 320 777 321.119 777 322.5Z" stroke="#3360FF" stroke-width="2" mask="url(#path-1-inside-1)"/>
<path d="M822 592.5C822 593.881 820.881 595 819.5 595C818.119 595 817 593.881 817 592.5C817 591.119 818.119 590 819.5 590C820.881 590 822 591.119 822 592.5Z" stroke="#3360FF" stroke-width="2" mask="url(#path-1-inside-1)"/>
<path d="M822 547.5C822 548.881 820.881 550 819.5 550C818.119 550 817 548.881 817 547.5C817 546.119 818.119 545 819.5 545C820.881 545 822 546.119 822 547.5Z" stroke="#3360FF" stroke-width="2" mask="url(#path-1-inside-1)"/>
<path d="M822 502.5C822 503.881 820.881 505 819.5 505C818.119 505 817 503.881 817 502.5C817 501.119 818.119 500 819.5 500C820.881 500 822 501.119 822 502.5Z" stroke="#3360FF" stroke-width="2" mask="url(#path-1-inside-1)"/>
<path d="M822 457.5C822 458.881 820.881 460 819.5 460C818.119 460 817 458.881 817 457.5C817 456.119 818.119 455 819.5 455C820.881 455 822 456.119 822 457.5Z" stroke="#3360FF" stroke-width="2" mask="url(#path-1-inside-1)"/>
<path d="M822 412.5C822 413.881 820.881 415 819.5 415C818.119 415 817 413.881 817 412.5C817 411.119 818.119 410 819.5 410C820.881 410 822 411.119 822 412.5Z" stroke="#3360FF" stroke-width="2" mask="url(#path-1-inside-1)"/>
<path d="M822 367.5C822 368.881 820.881 370 819.5 370C818.119 370 817 368.881 817 367.5C817 366.119 818.119 365 819.5 365C820.881 365 822 366.119 822 367.5Z" stroke="#3360FF" stroke-width="2" mask="url(#path-1-inside-1)"/>
<path d="M822 322.5C822 323.881 820.881 325 819.5 325C818.119 325 817 323.881 817 322.5C817 321.119 818.119 320 819.5 320C820.881 320 822 321.119 822 322.5Z" stroke="#3360FF" stroke-width="2" mask="url(#path-1-inside-1)"/>
<path d="M867 592.5C867 593.881 865.881 595 864.5 595C863.119 595 862 593.881 862 592.5C862 591.119 863.119 590 864.5 590C865.881 590 867 591.119 867 592.5Z" stroke="#3360FF" stroke-width="2" mask="url(#path-1-inside-1)"/>
<path d="M867 547.5C867 548.881 865.881 550 864.5 550C863.119 550 862 548.881 862 547.5C862 546.119 863.119 545 864.5 545C865.881 545 867 546.119 867 547.5Z" stroke="#3360FF" stroke-width="2" mask="url(#path-1-inside-1)"/>
<path d="M867 502.5C867 503.881 865.881 505 864.5 505C863.119 505 862 503.881 862 502.5C862 501.119 863.119 500 864.5 500C865.881 500 867 501.119 867 502.5Z" stroke="#3360FF" stroke-width="2" mask="url(#path-1-inside-1)"/>
<path d="M867 457.5C867 458.881 865.881 460 864.5 460C863.119 460 862 458.881 862 457.5C862 456.119 863.119 455 864.5 455C865.881 455 867 456.119 867 457.5Z" stroke="#3360FF" stroke-width="2" mask="url(#path-1-inside-1)"/>
<path d="M867 412.5C867 413.881 865.881 415 864.5 415C863.119 415 862 413.881 862 412.5C862 411.119 863.119 410 864.5 410C865.881 410 867 411.119 867 412.5Z" stroke="#3360FF" stroke-width="2" mask="url(#path-1-inside-1)"/>
<path d="M867 367.5C867 368.881 865.881 370 864.5 370C863.119 370 862 368.881 862 367.5C862 366.119 863.119 365 864.5 365C865.881 365 867 366.119 867 367.5Z" stroke="#3360FF" stroke-width="2" mask="url(#path-1-inside-1)"/>
<path d="M867 322.5C867 323.881 865.881 325 864.5 325C863.119 325 862 323.881 862 322.5C862 321.119 863.119 320 864.5 320C865.881 320 867 321.119 867 322.5Z" stroke="#3360FF" stroke-width="2" mask="url(#path-1-inside-1)"/>
<path d="M912 592.5C912 593.881 910.881 595 909.5 595C908.119 595 907 593.881 907 592.5C907 591.119 908.119 590 909.5 590C910.881 590 912 591.119 912 592.5Z" stroke="#3360FF" stroke-width="2" mask="url(#path-1-inside-1)"/>
<path d="M912 547.5C912 548.881 910.881 550 909.5 550C908.119 550 907 548.881 907 547.5C907 546.119 908.119 545 909.5 545C910.881 545 912 546.119 912 547.5Z" stroke="#3360FF" stroke-width="2" mask="url(#path-1-inside-1)"/>
<path d="M912 502.5C912 503.881 910.881 505 909.5 505C908.119 505 907 503.881 907 502.5C907 501.119 908.119 500 909.5 500C910.881 500 912 501.119 912 502.5Z" stroke="#3360FF" stroke-width="2" mask="url(#path-1-inside-1)"/>
<path d="M912 457.5C912 458.881 910.881 460 909.5 460C908.119 460 907 458.881 907 457.5C907 456.119 908.119 455 909.5 455C910.881 455 912 456.119 912 457.5Z" stroke="#3360FF" stroke-width="2" mask="url(#path-1-inside-1)"/>
<path d="M912 412.5C912 413.881 910.881 415 909.5 415C908.119 415 907 413.881 907 412.5C907 411.119 908.119 410 909.5 410C910.881 410 912 411.119 912 412.5Z" stroke="#3360FF" stroke-width="2" mask="url(#path-1-inside-1)"/>
<path d="M912 367.5C912 368.881 910.881 370 909.5 370C908.119 370 907 368.881 907 367.5C907 366.119 908.119 365 909.5 365C910.881 365 912 366.119 912 367.5Z" stroke="#3360FF" stroke-width="2" mask="url(#path-1-inside-1)"/>
<path d="M912 322.5C912 323.881 910.881 325 909.5 325C908.119 325 907 323.881 907 322.5C907 321.119 908.119 320 909.5 320C910.881 320 912 321.119 912 322.5Z" stroke="#3360FF" stroke-width="2" mask="url(#path-1-inside-1)"/>
<path d="M957 592.5C957 593.881 955.881 595 954.5 595C953.119 595 952 593.881 952 592.5C952 591.119 953.119 590 954.5 590C955.881 590 957 591.119 957 592.5Z" stroke="#3360FF" stroke-width="2" mask="url(#path-1-inside-1)"/>
<path d="M957 547.5C957 548.881 955.881 550 954.5 550C953.119 550 952 548.881 952 547.5C952 546.119 953.119 545 954.5 545C955.881 545 957 546.119 957 547.5Z" stroke="#3360FF" stroke-width="2" mask="url(#path-1-inside-1)"/>
<path d="M957 502.5C957 503.881 955.881 505 954.5 505C953.119 505 952 503.881 952 502.5C952 501.119 953.119 500 954.5 500C955.881 500 957 501.119 957 502.5Z" stroke="#3360FF" stroke-width="2" mask="url(#path-1-inside-1)"/>
<path d="M957 457.5C957 458.881 955.881 460 954.5 460C953.119 460 952 458.881 952 457.5C952 456.119 953.119 455 954.5 455C955.881 455 957 456.119 957 457.5Z" stroke="#3360FF" stroke-width="2" mask="url(#path-1-inside-1)"/>
<path d="M957 412.5C957 413.881 955.881 415 954.5 415C953.119 415 952 413.881 952 412.5C952 411.119 953.119 410 954.5 410C955.881 410 957 411.119 957 412.5Z" stroke="#3360FF" stroke-width="2" mask="url(#path-1-inside-1)"/>
<path d="M957 367.5C957 368.881 955.881 370 954.5 370C953.119 370 952 368.881 952 367.5C952 366.119 953.119 365 954.5 365C955.881 365 957 366.119 957 367.5Z" stroke="#3360FF" stroke-width="2" mask="url(#path-1-inside-1)"/>
<path d="M957 322.5C957 323.881 955.881 325 954.5 325C953.119 325 952 323.881 952 322.5C952 321.119 953.119 320 954.5 320C955.881 320 957 321.119 957 322.5Z" stroke="#3360FF" stroke-width="2" mask="url(#path-1-inside-1)"/>
<path d="M1002 592.5C1002 593.881 1000.88 595 999.5 595C998.119 595 997 593.881 997 592.5C997 591.119 998.119 590 999.5 590C1000.88 590 1002 591.119 1002 592.5Z" stroke="#3360FF" stroke-width="2" mask="url(#path-1-inside-1)"/>
<path d="M1002 547.5C1002 548.881 1000.88 550 999.5 550C998.119 550 997 548.881 997 547.5C997 546.119 998.119 545 999.5 545C1000.88 545 1002 546.119 1002 547.5Z" stroke="#3360FF" stroke-width="2" mask="url(#path-1-inside-1)"/>
<path d="M1002 502.5C1002 503.881 1000.88 505 999.5 505C998.119 505 997 503.881 997 502.5C997 501.119 998.119 500 999.5 500C1000.88 500 1002 501.119 1002 502.5Z" stroke="#3360FF" stroke-width="2" mask="url(#path-1-inside-1)"/>
<path d="M1002 457.5C1002 458.881 1000.88 460 999.5 460C998.119 460 997 458.881 997 457.5C997 456.119 998.119 455 999.5 455C1000.88 455 1002 456.119 1002 457.5Z" stroke="#3360FF" stroke-width="2" mask="url(#path-1-inside-1)"/>
<path d="M1002 412.5C1002 413.881 1000.88 415 999.5 415C998.119 415 997 413.881 997 412.5C997 411.119 998.119 410 999.5 410C1000.88 410 1002 411.119 1002 412.5Z" stroke="#3360FF" stroke-width="2" mask="url(#path-1-inside-1)"/>
<path d="M1002 367.5C1002 368.881 1000.88 370 999.5 370C998.119 370 997 368.881 997 367.5C997 366.119 998.119 365 999.5 365C1000.88 365 1002 366.119 1002 367.5Z" stroke="#3360FF" stroke-width="2" mask="url(#path-1-inside-1)"/>
<path d="M1002 322.5C1002 323.881 1000.88 325 999.5 325C998.119 325 997 323.881 997 322.5C997 321.119 998.119 320 999.5 320C1000.88 320 1002 321.119 1002 322.5Z" stroke="#3360FF" stroke-width="2" mask="url(#path-1-inside-1)"/>
<mask id="path-2-inside-2" fill="white">
<path d="M240 272.5C240 273.881 238.881 275 237.5 275C236.119 275 235 273.881 235 272.5C235 271.119 236.119 270 237.5 270C238.881 270 240 271.119 240 272.5Z"/>
<path d="M240 227.5C240 228.881 238.881 230 237.5 230C236.119 230 235 228.881 235 227.5C235 226.119 236.119 225 237.5 225C238.881 225 240 226.119 240 227.5Z"/>
<path d="M240 182.5C240 183.881 238.881 185 237.5 185C236.119 185 235 183.881 235 182.5C235 181.119 236.119 180 237.5 180C238.881 180 240 181.119 240 182.5Z"/>
<path d="M240 137.5C240 138.881 238.881 140 237.5 140C236.119 140 235 138.881 235 137.5C235 136.119 236.119 135 237.5 135C238.881 135 240 136.119 240 137.5Z"/>
<path d="M240 92.5C240 93.8807 238.881 95 237.5 95C236.119 95 235 93.8807 235 92.5C235 91.1193 236.119 90 237.5 90C238.881 90 240 91.1193 240 92.5Z"/>
<path d="M285 272.5C285 273.881 283.881 275 282.5 275C281.119 275 280 273.881 280 272.5C280 271.119 281.119 270 282.5 270C283.881 270 285 271.119 285 272.5Z"/>
<path d="M285 227.5C285 228.881 283.881 230 282.5 230C281.119 230 280 228.881 280 227.5C280 226.119 281.119 225 282.5 225C283.881 225 285 226.119 285 227.5Z"/>
<path d="M285 182.5C285 183.881 283.881 185 282.5 185C281.119 185 280 183.881 280 182.5C280 181.119 281.119 180 282.5 180C283.881 180 285 181.119 285 182.5Z"/>
<path d="M285 137.5C285 138.881 283.881 140 282.5 140C281.119 140 280 138.881 280 137.5C280 136.119 281.119 135 282.5 135C283.881 135 285 136.119 285 137.5Z"/>
<path d="M285 92.5C285 93.8807 283.881 95 282.5 95C281.119 95 280 93.8807 280 92.5C280 91.1193 281.119 90 282.5 90C283.881 90 285 91.1193 285 92.5Z"/>
<path d="M330 272.5C330 273.881 328.881 275 327.5 275C326.119 275 325 273.881 325 272.5C325 271.119 326.119 270 327.5 270C328.881 270 330 271.119 330 272.5Z"/>
<path d="M330 227.5C330 228.881 328.881 230 327.5 230C326.119 230 325 228.881 325 227.5C325 226.119 326.119 225 327.5 225C328.881 225 330 226.119 330 227.5Z"/>
<path d="M330 182.5C330 183.881 328.881 185 327.5 185C326.119 185 325 183.881 325 182.5C325 181.119 326.119 180 327.5 180C328.881 180 330 181.119 330 182.5Z"/>
<path d="M330 137.5C330 138.881 328.881 140 327.5 140C326.119 140 325 138.881 325 137.5C325 136.119 326.119 135 327.5 135C328.881 135 330 136.119 330 137.5Z"/>
<path d="M330 92.5C330 93.8807 328.881 95 327.5 95C326.119 95 325 93.8807 325 92.5C325 91.1193 326.119 90 327.5 90C328.881 90 330 91.1193 330 92.5Z"/>
<path d="M375 272.5C375 273.881 373.881 275 372.5 275C371.119 275 370 273.881 370 272.5C370 271.119 371.119 270 372.5 270C373.881 270 375 271.119 375 272.5Z"/>
<path d="M375 227.5C375 228.881 373.881 230 372.5 230C371.119 230 370 228.881 370 227.5C370 226.119 371.119 225 372.5 225C373.881 225 375 226.119 375 227.5Z"/>
<path d="M375 182.5C375 183.881 373.881 185 372.5 185C371.119 185 370 183.881 370 182.5C370 181.119 371.119 180 372.5 180C373.881 180 375 181.119 375 182.5Z"/>
<path d="M375 137.5C375 138.881 373.881 140 372.5 140C371.119 140 370 138.881 370 137.5C370 136.119 371.119 135 372.5 135C373.881 135 375 136.119 375 137.5Z"/>
<path d="M375 92.5C375 93.8807 373.881 95 372.5 95C371.119 95 370 93.8807 370 92.5C370 91.1193 371.119 90 372.5 90C373.881 90 375 91.1193 375 92.5Z"/>
<path d="M420 272.5C420 273.881 418.881 275 417.5 275C416.119 275 415 273.881 415 272.5C415 271.119 416.119 270 417.5 270C418.881 270 420 271.119 420 272.5Z"/>
<path d="M420 227.5C420 228.881 418.881 230 417.5 230C416.119 230 415 228.881 415 227.5C415 226.119 416.119 225 417.5 225C418.881 225 420 226.119 420 227.5Z"/>
<path d="M420 182.5C420 183.881 418.881 185 417.5 185C416.119 185 415 183.881 415 182.5C415 181.119 416.119 180 417.5 180C418.881 180 420 181.119 420 182.5Z"/>
<path d="M420 137.5C420 138.881 418.881 140 417.5 140C416.119 140 415 138.881 415 137.5C415 136.119 416.119 135 417.5 135C418.881 135 420 136.119 420 137.5Z"/>
<path d="M420 92.5C420 93.8807 418.881 95 417.5 95C416.119 95 415 93.8807 415 92.5C415 91.1193 416.119 90 417.5 90C418.881 90 420 91.1193 420 92.5Z"/>
</mask>
<path d="M240 272.5C240 273.881 238.881 275 237.5 275C236.119 275 235 273.881 235 272.5C235 271.119 236.119 270 237.5 270C238.881 270 240 271.119 240 272.5Z" stroke="#3360FF" stroke-width="2" mask="url(#path-2-inside-2)"/>
<path d="M240 227.5C240 228.881 238.881 230 237.5 230C236.119 230 235 228.881 235 227.5C235 226.119 236.119 225 237.5 225C238.881 225 240 226.119 240 227.5Z" stroke="#3360FF" stroke-width="2" mask="url(#path-2-inside-2)"/>
<path d="M240 182.5C240 183.881 238.881 185 237.5 185C236.119 185 235 183.881 235 182.5C235 181.119 236.119 180 237.5 180C238.881 180 240 181.119 240 182.5Z" stroke="#3360FF" stroke-width="2" mask="url(#path-2-inside-2)"/>
<path d="M240 137.5C240 138.881 238.881 140 237.5 140C236.119 140 235 138.881 235 137.5C235 136.119 236.119 135 237.5 135C238.881 135 240 136.119 240 137.5Z" stroke="#3360FF" stroke-width="2" mask="url(#path-2-inside-2)"/>
<path d="M240 92.5C240 93.8807 238.881 95 237.5 95C236.119 95 235 93.8807 235 92.5C235 91.1193 236.119 90 237.5 90C238.881 90 240 91.1193 240 92.5Z" stroke="#3360FF" stroke-width="2" mask="url(#path-2-inside-2)"/>
<path d="M285 272.5C285 273.881 283.881 275 282.5 275C281.119 275 280 273.881 280 272.5C280 271.119 281.119 270 282.5 270C283.881 270 285 271.119 285 272.5Z" stroke="#3360FF" stroke-width="2" mask="url(#path-2-inside-2)"/>
<path d="M285 227.5C285 228.881 283.881 230 282.5 230C281.119 230 280 228.881 280 227.5C280 226.119 281.119 225 282.5 225C283.881 225 285 226.119 285 227.5Z" stroke="#3360FF" stroke-width="2" mask="url(#path-2-inside-2)"/>
<path d="M285 182.5C285 183.881 283.881 185 282.5 185C281.119 185 280 183.881 280 182.5C280 181.119 281.119 180 282.5 180C283.881 180 285 181.119 285 182.5Z" stroke="#3360FF" stroke-width="2" mask="url(#path-2-inside-2)"/>
<path d="M285 137.5C285 138.881 283.881 140 282.5 140C281.119 140 280 138.881 280 137.5C280 136.119 281.119 135 282.5 135C283.881 135 285 136.119 285 137.5Z" stroke="#3360FF" stroke-width="2" mask="url(#path-2-inside-2)"/>
<path d="M285 92.5C285 93.8807 283.881 95 282.5 95C281.119 95 280 93.8807 280 92.5C280 91.1193 281.119 90 282.5 90C283.881 90 285 91.1193 285 92.5Z" stroke="#3360FF" stroke-width="2" mask="url(#path-2-inside-2)"/>
<path d="M330 272.5C330 273.881 328.881 275 327.5 275C326.119 275 325 273.881 325 272.5C325 271.119 326.119 270 327.5 270C328.881 270 330 271.119 330 272.5Z" stroke="#3360FF" stroke-width="2" mask="url(#path-2-inside-2)"/>
<path d="M330 227.5C330 228.881 328.881 230 327.5 230C326.119 230 325 228.881 325 227.5C325 226.119 326.119 225 327.5 225C328.881 225 330 226.119 330 227.5Z" stroke="#3360FF" stroke-width="2" mask="url(#path-2-inside-2)"/>
<path d="M330 182.5C330 183.881 328.881 185 327.5 185C326.119 185 325 183.881 325 182.5C325 181.119 326.119 180 327.5 180C328.881 180 330 181.119 330 182.5Z" stroke="#3360FF" stroke-width="2" mask="url(#path-2-inside-2)"/>
<path d="M330 137.5C330 138.881 328.881 140 327.5 140C326.119 140 325 138.881 325 137.5C325 136.119 326.119 135 327.5 135C328.881 135 330 136.119 330 137.5Z" stroke="#3360FF" stroke-width="2" mask="url(#path-2-inside-2)"/>
<path d="M330 92.5C330 93.8807 328.881 95 327.5 95C326.119 95 325 93.8807 325 92.5C325 91.1193 326.119 90 327.5 90C328.881 90 330 91.1193 330 92.5Z" stroke="#3360FF" stroke-width="2" mask="url(#path-2-inside-2)"/>
<path d="M375 272.5C375 273.881 373.881 275 372.5 275C371.119 275 370 273.881 370 272.5C370 271.119 371.119 270 372.5 270C373.881 270 375 271.119 375 272.5Z" stroke="#3360FF" stroke-width="2" mask="url(#path-2-inside-2)"/>
<path d="M375 227.5C375 228.881 373.881 230 372.5 230C371.119 230 370 228.881 370 227.5C370 226.119 371.119 225 372.5 225C373.881 225 375 226.119 375 227.5Z" stroke="#3360FF" stroke-width="2" mask="url(#path-2-inside-2)"/>
<path d="M375 182.5C375 183.881 373.881 185 372.5 185C371.119 185 370 183.881 370 182.5C370 181.119 371.119 180 372.5 180C373.881 180 375 181.119 375 182.5Z" stroke="#3360FF" stroke-width="2" mask="url(#path-2-inside-2)"/>
<path d="M375 137.5C375 138.881 373.881 140 372.5 140C371.119 140 370 138.881 370 137.5C370 136.119 371.119 135 372.5 135C373.881 135 375 136.119 375 137.5Z" stroke="#3360FF" stroke-width="2" mask="url(#path-2-inside-2)"/>
<path d="M375 92.5C375 93.8807 373.881 95 372.5 95C371.119 95 370 93.8807 370 92.5C370 91.1193 371.119 90 372.5 90C373.881 90 375 91.1193 375 92.5Z" stroke="#3360FF" stroke-width="2" mask="url(#path-2-inside-2)"/>
<path d="M420 272.5C420 273.881 418.881 275 417.5 275C416.119 275 415 273.881 415 272.5C415 271.119 416.119 270 417.5 270C418.881 270 420 271.119 420 272.5Z" stroke="#3360FF" stroke-width="2" mask="url(#path-2-inside-2)"/>
<path d="M420 227.5C420 228.881 418.881 230 417.5 230C416.119 230 415 228.881 415 227.5C415 226.119 416.119 225 417.5 225C418.881 225 420 226.119 420 227.5Z" stroke="#3360FF" stroke-width="2" mask="url(#path-2-inside-2)"/>
<path d="M420 182.5C420 183.881 418.881 185 417.5 185C416.119 185 415 183.881 415 182.5C415 181.119 416.119 180 417.5 180C418.881 180 420 181.119 420 182.5Z" stroke="#3360FF" stroke-width="2" mask="url(#path-2-inside-2)"/>
<path d="M420 137.5C420 138.881 418.881 140 417.5 140C416.119 140 415 138.881 415 137.5C415 136.119 416.119 135 417.5 135C418.881 135 420 136.119 420 137.5Z" stroke="#3360FF" stroke-width="2" mask="url(#path-2-inside-2)"/>
<path d="M420 92.5C420 93.8807 418.881 95 417.5 95C416.119 95 415 93.8807 415 92.5C415 91.1193 416.119 90 417.5 90C418.881 90 420 91.1193 420 92.5Z" stroke="#3360FF" stroke-width="2" mask="url(#path-2-inside-2)"/>
</svg>
