<svg width="600" height="1022" viewBox="0 0 600 1022" fill="none" xmlns="http://www.w3.org/2000/svg">
<mask id="path-1-inside-1" fill="white">
<path d="M198 495.5C198 496.881 196.881 498 195.5 498C194.119 498 193 496.881 193 495.5C193 494.119 194.119 493 195.5 493C196.881 493 198 494.119 198 495.5Z"/>
<path d="M198 450.5C198 451.881 196.881 453 195.5 453C194.119 453 193 451.881 193 450.5C193 449.119 194.119 448 195.5 448C196.881 448 198 449.119 198 450.5Z"/>
<path d="M198 405.5C198 406.881 196.881 408 195.5 408C194.119 408 193 406.881 193 405.5C193 404.119 194.119 403 195.5 403C196.881 403 198 404.119 198 405.5Z"/>
<path d="M198 360.5C198 361.881 196.881 363 195.5 363C194.119 363 193 361.881 193 360.5C193 359.119 194.119 358 195.5 358C196.881 358 198 359.119 198 360.5Z"/>
<path d="M198 315.5C198 316.881 196.881 318 195.5 318C194.119 318 193 316.881 193 315.5C193 314.119 194.119 313 195.5 313C196.881 313 198 314.119 198 315.5Z"/>
<path d="M198 270.5C198 271.881 196.881 273 195.5 273C194.119 273 193 271.881 193 270.5C193 269.119 194.119 268 195.5 268C196.881 268 198 269.119 198 270.5Z"/>
<path d="M198 225.5C198 226.881 196.881 228 195.5 228C194.119 228 193 226.881 193 225.5C193 224.119 194.119 223 195.5 223C196.881 223 198 224.119 198 225.5Z"/>
<path d="M243 495.5C243 496.881 241.881 498 240.5 498C239.119 498 238 496.881 238 495.5C238 494.119 239.119 493 240.5 493C241.881 493 243 494.119 243 495.5Z"/>
<path d="M243 450.5C243 451.881 241.881 453 240.5 453C239.119 453 238 451.881 238 450.5C238 449.119 239.119 448 240.5 448C241.881 448 243 449.119 243 450.5Z"/>
<path d="M243 405.5C243 406.881 241.881 408 240.5 408C239.119 408 238 406.881 238 405.5C238 404.119 239.119 403 240.5 403C241.881 403 243 404.119 243 405.5Z"/>
<path d="M243 360.5C243 361.881 241.881 363 240.5 363C239.119 363 238 361.881 238 360.5C238 359.119 239.119 358 240.5 358C241.881 358 243 359.119 243 360.5Z"/>
<path d="M243 315.5C243 316.881 241.881 318 240.5 318C239.119 318 238 316.881 238 315.5C238 314.119 239.119 313 240.5 313C241.881 313 243 314.119 243 315.5Z"/>
<path d="M243 270.5C243 271.881 241.881 273 240.5 273C239.119 273 238 271.881 238 270.5C238 269.119 239.119 268 240.5 268C241.881 268 243 269.119 243 270.5Z"/>
<path d="M243 225.5C243 226.881 241.881 228 240.5 228C239.119 228 238 226.881 238 225.5C238 224.119 239.119 223 240.5 223C241.881 223 243 224.119 243 225.5Z"/>
<path d="M288 495.5C288 496.881 286.881 498 285.5 498C284.119 498 283 496.881 283 495.5C283 494.119 284.119 493 285.5 493C286.881 493 288 494.119 288 495.5Z"/>
<path d="M288 450.5C288 451.881 286.881 453 285.5 453C284.119 453 283 451.881 283 450.5C283 449.119 284.119 448 285.5 448C286.881 448 288 449.119 288 450.5Z"/>
<path d="M288 405.5C288 406.881 286.881 408 285.5 408C284.119 408 283 406.881 283 405.5C283 404.119 284.119 403 285.5 403C286.881 403 288 404.119 288 405.5Z"/>
<path d="M288 360.5C288 361.881 286.881 363 285.5 363C284.119 363 283 361.881 283 360.5C283 359.119 284.119 358 285.5 358C286.881 358 288 359.119 288 360.5Z"/>
<path d="M288 315.5C288 316.881 286.881 318 285.5 318C284.119 318 283 316.881 283 315.5C283 314.119 284.119 313 285.5 313C286.881 313 288 314.119 288 315.5Z"/>
<path d="M288 270.5C288 271.881 286.881 273 285.5 273C284.119 273 283 271.881 283 270.5C283 269.119 284.119 268 285.5 268C286.881 268 288 269.119 288 270.5Z"/>
<path d="M288 225.5C288 226.881 286.881 228 285.5 228C284.119 228 283 226.881 283 225.5C283 224.119 284.119 223 285.5 223C286.881 223 288 224.119 288 225.5Z"/>
<path d="M333 495.5C333 496.881 331.881 498 330.5 498C329.119 498 328 496.881 328 495.5C328 494.119 329.119 493 330.5 493C331.881 493 333 494.119 333 495.5Z"/>
<path d="M333 450.5C333 451.881 331.881 453 330.5 453C329.119 453 328 451.881 328 450.5C328 449.119 329.119 448 330.5 448C331.881 448 333 449.119 333 450.5Z"/>
<path d="M333 405.5C333 406.881 331.881 408 330.5 408C329.119 408 328 406.881 328 405.5C328 404.119 329.119 403 330.5 403C331.881 403 333 404.119 333 405.5Z"/>
<path d="M333 360.5C333 361.881 331.881 363 330.5 363C329.119 363 328 361.881 328 360.5C328 359.119 329.119 358 330.5 358C331.881 358 333 359.119 333 360.5Z"/>
<path d="M333 315.5C333 316.881 331.881 318 330.5 318C329.119 318 328 316.881 328 315.5C328 314.119 329.119 313 330.5 313C331.881 313 333 314.119 333 315.5Z"/>
<path d="M333 270.5C333 271.881 331.881 273 330.5 273C329.119 273 328 271.881 328 270.5C328 269.119 329.119 268 330.5 268C331.881 268 333 269.119 333 270.5Z"/>
<path d="M333 225.5C333 226.881 331.881 228 330.5 228C329.119 228 328 226.881 328 225.5C328 224.119 329.119 223 330.5 223C331.881 223 333 224.119 333 225.5Z"/>
<path d="M378 495.5C378 496.881 376.881 498 375.5 498C374.119 498 373 496.881 373 495.5C373 494.119 374.119 493 375.5 493C376.881 493 378 494.119 378 495.5Z"/>
<path d="M378 450.5C378 451.881 376.881 453 375.5 453C374.119 453 373 451.881 373 450.5C373 449.119 374.119 448 375.5 448C376.881 448 378 449.119 378 450.5Z"/>
<path d="M378 405.5C378 406.881 376.881 408 375.5 408C374.119 408 373 406.881 373 405.5C373 404.119 374.119 403 375.5 403C376.881 403 378 404.119 378 405.5Z"/>
<path d="M378 360.5C378 361.881 376.881 363 375.5 363C374.119 363 373 361.881 373 360.5C373 359.119 374.119 358 375.5 358C376.881 358 378 359.119 378 360.5Z"/>
<path d="M378 315.5C378 316.881 376.881 318 375.5 318C374.119 318 373 316.881 373 315.5C373 314.119 374.119 313 375.5 313C376.881 313 378 314.119 378 315.5Z"/>
<path d="M378 270.5C378 271.881 376.881 273 375.5 273C374.119 273 373 271.881 373 270.5C373 269.119 374.119 268 375.5 268C376.881 268 378 269.119 378 270.5Z"/>
<path d="M378 225.5C378 226.881 376.881 228 375.5 228C374.119 228 373 226.881 373 225.5C373 224.119 374.119 223 375.5 223C376.881 223 378 224.119 378 225.5Z"/>
<path d="M423 495.5C423 496.881 421.881 498 420.5 498C419.119 498 418 496.881 418 495.5C418 494.119 419.119 493 420.5 493C421.881 493 423 494.119 423 495.5Z"/>
<path d="M423 450.5C423 451.881 421.881 453 420.5 453C419.119 453 418 451.881 418 450.5C418 449.119 419.119 448 420.5 448C421.881 448 423 449.119 423 450.5Z"/>
<path d="M423 405.5C423 406.881 421.881 408 420.5 408C419.119 408 418 406.881 418 405.5C418 404.119 419.119 403 420.5 403C421.881 403 423 404.119 423 405.5Z"/>
<path d="M423 360.5C423 361.881 421.881 363 420.5 363C419.119 363 418 361.881 418 360.5C418 359.119 419.119 358 420.5 358C421.881 358 423 359.119 423 360.5Z"/>
<path d="M423 315.5C423 316.881 421.881 318 420.5 318C419.119 318 418 316.881 418 315.5C418 314.119 419.119 313 420.5 313C421.881 313 423 314.119 423 315.5Z"/>
<path d="M423 270.5C423 271.881 421.881 273 420.5 273C419.119 273 418 271.881 418 270.5C418 269.119 419.119 268 420.5 268C421.881 268 423 269.119 423 270.5Z"/>
<path d="M423 225.5C423 226.881 421.881 228 420.5 228C419.119 228 418 226.881 418 225.5C418 224.119 419.119 223 420.5 223C421.881 223 423 224.119 423 225.5Z"/>
<path d="M468 495.5C468 496.881 466.881 498 465.5 498C464.119 498 463 496.881 463 495.5C463 494.119 464.119 493 465.5 493C466.881 493 468 494.119 468 495.5Z"/>
<path d="M468 450.5C468 451.881 466.881 453 465.5 453C464.119 453 463 451.881 463 450.5C463 449.119 464.119 448 465.5 448C466.881 448 468 449.119 468 450.5Z"/>
<path d="M468 405.5C468 406.881 466.881 408 465.5 408C464.119 408 463 406.881 463 405.5C463 404.119 464.119 403 465.5 403C466.881 403 468 404.119 468 405.5Z"/>
<path d="M468 360.5C468 361.881 466.881 363 465.5 363C464.119 363 463 361.881 463 360.5C463 359.119 464.119 358 465.5 358C466.881 358 468 359.119 468 360.5Z"/>
<path d="M468 315.5C468 316.881 466.881 318 465.5 318C464.119 318 463 316.881 463 315.5C463 314.119 464.119 313 465.5 313C466.881 313 468 314.119 468 315.5Z"/>
<path d="M468 270.5C468 271.881 466.881 273 465.5 273C464.119 273 463 271.881 463 270.5C463 269.119 464.119 268 465.5 268C466.881 268 468 269.119 468 270.5Z"/>
<path d="M468 225.5C468 226.881 466.881 228 465.5 228C464.119 228 463 226.881 463 225.5C463 224.119 464.119 223 465.5 223C466.881 223 468 224.119 468 225.5Z"/>
</mask>
<path d="M198 495.5C198 496.881 196.881 498 195.5 498C194.119 498 193 496.881 193 495.5C193 494.119 194.119 493 195.5 493C196.881 493 198 494.119 198 495.5Z" stroke="#3360FF" stroke-width="2" mask="url(#path-1-inside-1)"/>
<path d="M198 450.5C198 451.881 196.881 453 195.5 453C194.119 453 193 451.881 193 450.5C193 449.119 194.119 448 195.5 448C196.881 448 198 449.119 198 450.5Z" stroke="#3360FF" stroke-width="2" mask="url(#path-1-inside-1)"/>
<path d="M198 405.5C198 406.881 196.881 408 195.5 408C194.119 408 193 406.881 193 405.5C193 404.119 194.119 403 195.5 403C196.881 403 198 404.119 198 405.5Z" stroke="#3360FF" stroke-width="2" mask="url(#path-1-inside-1)"/>
<path d="M198 360.5C198 361.881 196.881 363 195.5 363C194.119 363 193 361.881 193 360.5C193 359.119 194.119 358 195.5 358C196.881 358 198 359.119 198 360.5Z" stroke="#3360FF" stroke-width="2" mask="url(#path-1-inside-1)"/>
<path d="M198 315.5C198 316.881 196.881 318 195.5 318C194.119 318 193 316.881 193 315.5C193 314.119 194.119 313 195.5 313C196.881 313 198 314.119 198 315.5Z" stroke="#3360FF" stroke-width="2" mask="url(#path-1-inside-1)"/>
<path d="M198 270.5C198 271.881 196.881 273 195.5 273C194.119 273 193 271.881 193 270.5C193 269.119 194.119 268 195.5 268C196.881 268 198 269.119 198 270.5Z" stroke="#3360FF" stroke-width="2" mask="url(#path-1-inside-1)"/>
<path d="M198 225.5C198 226.881 196.881 228 195.5 228C194.119 228 193 226.881 193 225.5C193 224.119 194.119 223 195.5 223C196.881 223 198 224.119 198 225.5Z" stroke="#3360FF" stroke-width="2" mask="url(#path-1-inside-1)"/>
<path d="M243 495.5C243 496.881 241.881 498 240.5 498C239.119 498 238 496.881 238 495.5C238 494.119 239.119 493 240.5 493C241.881 493 243 494.119 243 495.5Z" stroke="#3360FF" stroke-width="2" mask="url(#path-1-inside-1)"/>
<path d="M243 450.5C243 451.881 241.881 453 240.5 453C239.119 453 238 451.881 238 450.5C238 449.119 239.119 448 240.5 448C241.881 448 243 449.119 243 450.5Z" stroke="#3360FF" stroke-width="2" mask="url(#path-1-inside-1)"/>
<path d="M243 405.5C243 406.881 241.881 408 240.5 408C239.119 408 238 406.881 238 405.5C238 404.119 239.119 403 240.5 403C241.881 403 243 404.119 243 405.5Z" stroke="#3360FF" stroke-width="2" mask="url(#path-1-inside-1)"/>
<path d="M243 360.5C243 361.881 241.881 363 240.5 363C239.119 363 238 361.881 238 360.5C238 359.119 239.119 358 240.5 358C241.881 358 243 359.119 243 360.5Z" stroke="#3360FF" stroke-width="2" mask="url(#path-1-inside-1)"/>
<path d="M243 315.5C243 316.881 241.881 318 240.5 318C239.119 318 238 316.881 238 315.5C238 314.119 239.119 313 240.5 313C241.881 313 243 314.119 243 315.5Z" stroke="#3360FF" stroke-width="2" mask="url(#path-1-inside-1)"/>
<path d="M243 270.5C243 271.881 241.881 273 240.5 273C239.119 273 238 271.881 238 270.5C238 269.119 239.119 268 240.5 268C241.881 268 243 269.119 243 270.5Z" stroke="#3360FF" stroke-width="2" mask="url(#path-1-inside-1)"/>
<path d="M243 225.5C243 226.881 241.881 228 240.5 228C239.119 228 238 226.881 238 225.5C238 224.119 239.119 223 240.5 223C241.881 223 243 224.119 243 225.5Z" stroke="#3360FF" stroke-width="2" mask="url(#path-1-inside-1)"/>
<path d="M288 495.5C288 496.881 286.881 498 285.5 498C284.119 498 283 496.881 283 495.5C283 494.119 284.119 493 285.5 493C286.881 493 288 494.119 288 495.5Z" stroke="#3360FF" stroke-width="2" mask="url(#path-1-inside-1)"/>
<path d="M288 450.5C288 451.881 286.881 453 285.5 453C284.119 453 283 451.881 283 450.5C283 449.119 284.119 448 285.5 448C286.881 448 288 449.119 288 450.5Z" stroke="#3360FF" stroke-width="2" mask="url(#path-1-inside-1)"/>
<path d="M288 405.5C288 406.881 286.881 408 285.5 408C284.119 408 283 406.881 283 405.5C283 404.119 284.119 403 285.5 403C286.881 403 288 404.119 288 405.5Z" stroke="#3360FF" stroke-width="2" mask="url(#path-1-inside-1)"/>
<path d="M288 360.5C288 361.881 286.881 363 285.5 363C284.119 363 283 361.881 283 360.5C283 359.119 284.119 358 285.5 358C286.881 358 288 359.119 288 360.5Z" stroke="#3360FF" stroke-width="2" mask="url(#path-1-inside-1)"/>
<path d="M288 315.5C288 316.881 286.881 318 285.5 318C284.119 318 283 316.881 283 315.5C283 314.119 284.119 313 285.5 313C286.881 313 288 314.119 288 315.5Z" stroke="#3360FF" stroke-width="2" mask="url(#path-1-inside-1)"/>
<path d="M288 270.5C288 271.881 286.881 273 285.5 273C284.119 273 283 271.881 283 270.5C283 269.119 284.119 268 285.5 268C286.881 268 288 269.119 288 270.5Z" stroke="#3360FF" stroke-width="2" mask="url(#path-1-inside-1)"/>
<path d="M288 225.5C288 226.881 286.881 228 285.5 228C284.119 228 283 226.881 283 225.5C283 224.119 284.119 223 285.5 223C286.881 223 288 224.119 288 225.5Z" stroke="#3360FF" stroke-width="2" mask="url(#path-1-inside-1)"/>
<path d="M333 495.5C333 496.881 331.881 498 330.5 498C329.119 498 328 496.881 328 495.5C328 494.119 329.119 493 330.5 493C331.881 493 333 494.119 333 495.5Z" stroke="#3360FF" stroke-width="2" mask="url(#path-1-inside-1)"/>
<path d="M333 450.5C333 451.881 331.881 453 330.5 453C329.119 453 328 451.881 328 450.5C328 449.119 329.119 448 330.5 448C331.881 448 333 449.119 333 450.5Z" stroke="#3360FF" stroke-width="2" mask="url(#path-1-inside-1)"/>
<path d="M333 405.5C333 406.881 331.881 408 330.5 408C329.119 408 328 406.881 328 405.5C328 404.119 329.119 403 330.5 403C331.881 403 333 404.119 333 405.5Z" stroke="#3360FF" stroke-width="2" mask="url(#path-1-inside-1)"/>
<path d="M333 360.5C333 361.881 331.881 363 330.5 363C329.119 363 328 361.881 328 360.5C328 359.119 329.119 358 330.5 358C331.881 358 333 359.119 333 360.5Z" stroke="#3360FF" stroke-width="2" mask="url(#path-1-inside-1)"/>
<path d="M333 315.5C333 316.881 331.881 318 330.5 318C329.119 318 328 316.881 328 315.5C328 314.119 329.119 313 330.5 313C331.881 313 333 314.119 333 315.5Z" stroke="#3360FF" stroke-width="2" mask="url(#path-1-inside-1)"/>
<path d="M333 270.5C333 271.881 331.881 273 330.5 273C329.119 273 328 271.881 328 270.5C328 269.119 329.119 268 330.5 268C331.881 268 333 269.119 333 270.5Z" stroke="#3360FF" stroke-width="2" mask="url(#path-1-inside-1)"/>
<path d="M333 225.5C333 226.881 331.881 228 330.5 228C329.119 228 328 226.881 328 225.5C328 224.119 329.119 223 330.5 223C331.881 223 333 224.119 333 225.5Z" stroke="#3360FF" stroke-width="2" mask="url(#path-1-inside-1)"/>
<path d="M378 495.5C378 496.881 376.881 498 375.5 498C374.119 498 373 496.881 373 495.5C373 494.119 374.119 493 375.5 493C376.881 493 378 494.119 378 495.5Z" stroke="#3360FF" stroke-width="2" mask="url(#path-1-inside-1)"/>
<path d="M378 450.5C378 451.881 376.881 453 375.5 453C374.119 453 373 451.881 373 450.5C373 449.119 374.119 448 375.5 448C376.881 448 378 449.119 378 450.5Z" stroke="#3360FF" stroke-width="2" mask="url(#path-1-inside-1)"/>
<path d="M378 405.5C378 406.881 376.881 408 375.5 408C374.119 408 373 406.881 373 405.5C373 404.119 374.119 403 375.5 403C376.881 403 378 404.119 378 405.5Z" stroke="#3360FF" stroke-width="2" mask="url(#path-1-inside-1)"/>
<path d="M378 360.5C378 361.881 376.881 363 375.5 363C374.119 363 373 361.881 373 360.5C373 359.119 374.119 358 375.5 358C376.881 358 378 359.119 378 360.5Z" stroke="#3360FF" stroke-width="2" mask="url(#path-1-inside-1)"/>
<path d="M378 315.5C378 316.881 376.881 318 375.5 318C374.119 318 373 316.881 373 315.5C373 314.119 374.119 313 375.5 313C376.881 313 378 314.119 378 315.5Z" stroke="#3360FF" stroke-width="2" mask="url(#path-1-inside-1)"/>
<path d="M378 270.5C378 271.881 376.881 273 375.5 273C374.119 273 373 271.881 373 270.5C373 269.119 374.119 268 375.5 268C376.881 268 378 269.119 378 270.5Z" stroke="#3360FF" stroke-width="2" mask="url(#path-1-inside-1)"/>
<path d="M378 225.5C378 226.881 376.881 228 375.5 228C374.119 228 373 226.881 373 225.5C373 224.119 374.119 223 375.5 223C376.881 223 378 224.119 378 225.5Z" stroke="#3360FF" stroke-width="2" mask="url(#path-1-inside-1)"/>
<path d="M423 495.5C423 496.881 421.881 498 420.5 498C419.119 498 418 496.881 418 495.5C418 494.119 419.119 493 420.5 493C421.881 493 423 494.119 423 495.5Z" stroke="#3360FF" stroke-width="2" mask="url(#path-1-inside-1)"/>
<path d="M423 450.5C423 451.881 421.881 453 420.5 453C419.119 453 418 451.881 418 450.5C418 449.119 419.119 448 420.5 448C421.881 448 423 449.119 423 450.5Z" stroke="#3360FF" stroke-width="2" mask="url(#path-1-inside-1)"/>
<path d="M423 405.5C423 406.881 421.881 408 420.5 408C419.119 408 418 406.881 418 405.5C418 404.119 419.119 403 420.5 403C421.881 403 423 404.119 423 405.5Z" stroke="#3360FF" stroke-width="2" mask="url(#path-1-inside-1)"/>
<path d="M423 360.5C423 361.881 421.881 363 420.5 363C419.119 363 418 361.881 418 360.5C418 359.119 419.119 358 420.5 358C421.881 358 423 359.119 423 360.5Z" stroke="#3360FF" stroke-width="2" mask="url(#path-1-inside-1)"/>
<path d="M423 315.5C423 316.881 421.881 318 420.5 318C419.119 318 418 316.881 418 315.5C418 314.119 419.119 313 420.5 313C421.881 313 423 314.119 423 315.5Z" stroke="#3360FF" stroke-width="2" mask="url(#path-1-inside-1)"/>
<path d="M423 270.5C423 271.881 421.881 273 420.5 273C419.119 273 418 271.881 418 270.5C418 269.119 419.119 268 420.5 268C421.881 268 423 269.119 423 270.5Z" stroke="#3360FF" stroke-width="2" mask="url(#path-1-inside-1)"/>
<path d="M423 225.5C423 226.881 421.881 228 420.5 228C419.119 228 418 226.881 418 225.5C418 224.119 419.119 223 420.5 223C421.881 223 423 224.119 423 225.5Z" stroke="#3360FF" stroke-width="2" mask="url(#path-1-inside-1)"/>
<path d="M468 495.5C468 496.881 466.881 498 465.5 498C464.119 498 463 496.881 463 495.5C463 494.119 464.119 493 465.5 493C466.881 493 468 494.119 468 495.5Z" stroke="#3360FF" stroke-width="2" mask="url(#path-1-inside-1)"/>
<path d="M468 450.5C468 451.881 466.881 453 465.5 453C464.119 453 463 451.881 463 450.5C463 449.119 464.119 448 465.5 448C466.881 448 468 449.119 468 450.5Z" stroke="#3360FF" stroke-width="2" mask="url(#path-1-inside-1)"/>
<path d="M468 405.5C468 406.881 466.881 408 465.5 408C464.119 408 463 406.881 463 405.5C463 404.119 464.119 403 465.5 403C466.881 403 468 404.119 468 405.5Z" stroke="#3360FF" stroke-width="2" mask="url(#path-1-inside-1)"/>
<path d="M468 360.5C468 361.881 466.881 363 465.5 363C464.119 363 463 361.881 463 360.5C463 359.119 464.119 358 465.5 358C466.881 358 468 359.119 468 360.5Z" stroke="#3360FF" stroke-width="2" mask="url(#path-1-inside-1)"/>
<path d="M468 315.5C468 316.881 466.881 318 465.5 318C464.119 318 463 316.881 463 315.5C463 314.119 464.119 313 465.5 313C466.881 313 468 314.119 468 315.5Z" stroke="#3360FF" stroke-width="2" mask="url(#path-1-inside-1)"/>
<path d="M468 270.5C468 271.881 466.881 273 465.5 273C464.119 273 463 271.881 463 270.5C463 269.119 464.119 268 465.5 268C466.881 268 468 269.119 468 270.5Z" stroke="#3360FF" stroke-width="2" mask="url(#path-1-inside-1)"/>
<path d="M468 225.5C468 226.881 466.881 228 465.5 228C464.119 228 463 226.881 463 225.5C463 224.119 464.119 223 465.5 223C466.881 223 468 224.119 468 225.5Z" stroke="#3360FF" stroke-width="2" mask="url(#path-1-inside-1)"/>
<mask id="path-2-inside-2" fill="white">
<path d="M152 802.5C152 803.881 150.881 805 149.5 805C148.119 805 147 803.881 147 802.5C147 801.119 148.119 800 149.5 800C150.881 800 152 801.119 152 802.5Z"/>
<path d="M152 757.5C152 758.881 150.881 760 149.5 760C148.119 760 147 758.881 147 757.5C147 756.119 148.119 755 149.5 755C150.881 755 152 756.119 152 757.5Z"/>
<path d="M152 712.5C152 713.881 150.881 715 149.5 715C148.119 715 147 713.881 147 712.5C147 711.119 148.119 710 149.5 710C150.881 710 152 711.119 152 712.5Z"/>
<path d="M152 667.5C152 668.881 150.881 670 149.5 670C148.119 670 147 668.881 147 667.5C147 666.119 148.119 665 149.5 665C150.881 665 152 666.119 152 667.5Z"/>
<path d="M152 622.5C152 623.881 150.881 625 149.5 625C148.119 625 147 623.881 147 622.5C147 621.119 148.119 620 149.5 620C150.881 620 152 621.119 152 622.5Z"/>
<path d="M152 577.5C152 578.881 150.881 580 149.5 580C148.119 580 147 578.881 147 577.5C147 576.119 148.119 575 149.5 575C150.881 575 152 576.119 152 577.5Z"/>
<path d="M152 532.5C152 533.881 150.881 535 149.5 535C148.119 535 147 533.881 147 532.5C147 531.119 148.119 530 149.5 530C150.881 530 152 531.119 152 532.5Z"/>
<path d="M197 802.5C197 803.881 195.881 805 194.5 805C193.119 805 192 803.881 192 802.5C192 801.119 193.119 800 194.5 800C195.881 800 197 801.119 197 802.5Z"/>
<path d="M197 757.5C197 758.881 195.881 760 194.5 760C193.119 760 192 758.881 192 757.5C192 756.119 193.119 755 194.5 755C195.881 755 197 756.119 197 757.5Z"/>
<path d="M197 712.5C197 713.881 195.881 715 194.5 715C193.119 715 192 713.881 192 712.5C192 711.119 193.119 710 194.5 710C195.881 710 197 711.119 197 712.5Z"/>
<path d="M197 667.5C197 668.881 195.881 670 194.5 670C193.119 670 192 668.881 192 667.5C192 666.119 193.119 665 194.5 665C195.881 665 197 666.119 197 667.5Z"/>
<path d="M197 622.5C197 623.881 195.881 625 194.5 625C193.119 625 192 623.881 192 622.5C192 621.119 193.119 620 194.5 620C195.881 620 197 621.119 197 622.5Z"/>
<path d="M197 577.5C197 578.881 195.881 580 194.5 580C193.119 580 192 578.881 192 577.5C192 576.119 193.119 575 194.5 575C195.881 575 197 576.119 197 577.5Z"/>
<path d="M197 532.5C197 533.881 195.881 535 194.5 535C193.119 535 192 533.881 192 532.5C192 531.119 193.119 530 194.5 530C195.881 530 197 531.119 197 532.5Z"/>
<path d="M242 802.5C242 803.881 240.881 805 239.5 805C238.119 805 237 803.881 237 802.5C237 801.119 238.119 800 239.5 800C240.881 800 242 801.119 242 802.5Z"/>
<path d="M242 757.5C242 758.881 240.881 760 239.5 760C238.119 760 237 758.881 237 757.5C237 756.119 238.119 755 239.5 755C240.881 755 242 756.119 242 757.5Z"/>
<path d="M242 712.5C242 713.881 240.881 715 239.5 715C238.119 715 237 713.881 237 712.5C237 711.119 238.119 710 239.5 710C240.881 710 242 711.119 242 712.5Z"/>
<path d="M242 667.5C242 668.881 240.881 670 239.5 670C238.119 670 237 668.881 237 667.5C237 666.119 238.119 665 239.5 665C240.881 665 242 666.119 242 667.5Z"/>
<path d="M242 622.5C242 623.881 240.881 625 239.5 625C238.119 625 237 623.881 237 622.5C237 621.119 238.119 620 239.5 620C240.881 620 242 621.119 242 622.5Z"/>
<path d="M242 577.5C242 578.881 240.881 580 239.5 580C238.119 580 237 578.881 237 577.5C237 576.119 238.119 575 239.5 575C240.881 575 242 576.119 242 577.5Z"/>
<path d="M242 532.5C242 533.881 240.881 535 239.5 535C238.119 535 237 533.881 237 532.5C237 531.119 238.119 530 239.5 530C240.881 530 242 531.119 242 532.5Z"/>
<path d="M287 802.5C287 803.881 285.881 805 284.5 805C283.119 805 282 803.881 282 802.5C282 801.119 283.119 800 284.5 800C285.881 800 287 801.119 287 802.5Z"/>
<path d="M287 757.5C287 758.881 285.881 760 284.5 760C283.119 760 282 758.881 282 757.5C282 756.119 283.119 755 284.5 755C285.881 755 287 756.119 287 757.5Z"/>
<path d="M287 712.5C287 713.881 285.881 715 284.5 715C283.119 715 282 713.881 282 712.5C282 711.119 283.119 710 284.5 710C285.881 710 287 711.119 287 712.5Z"/>
<path d="M287 667.5C287 668.881 285.881 670 284.5 670C283.119 670 282 668.881 282 667.5C282 666.119 283.119 665 284.5 665C285.881 665 287 666.119 287 667.5Z"/>
<path d="M287 622.5C287 623.881 285.881 625 284.5 625C283.119 625 282 623.881 282 622.5C282 621.119 283.119 620 284.5 620C285.881 620 287 621.119 287 622.5Z"/>
<path d="M287 577.5C287 578.881 285.881 580 284.5 580C283.119 580 282 578.881 282 577.5C282 576.119 283.119 575 284.5 575C285.881 575 287 576.119 287 577.5Z"/>
<path d="M287 532.5C287 533.881 285.881 535 284.5 535C283.119 535 282 533.881 282 532.5C282 531.119 283.119 530 284.5 530C285.881 530 287 531.119 287 532.5Z"/>
<path d="M332 802.5C332 803.881 330.881 805 329.5 805C328.119 805 327 803.881 327 802.5C327 801.119 328.119 800 329.5 800C330.881 800 332 801.119 332 802.5Z"/>
<path d="M332 757.5C332 758.881 330.881 760 329.5 760C328.119 760 327 758.881 327 757.5C327 756.119 328.119 755 329.5 755C330.881 755 332 756.119 332 757.5Z"/>
<path d="M332 712.5C332 713.881 330.881 715 329.5 715C328.119 715 327 713.881 327 712.5C327 711.119 328.119 710 329.5 710C330.881 710 332 711.119 332 712.5Z"/>
<path d="M332 667.5C332 668.881 330.881 670 329.5 670C328.119 670 327 668.881 327 667.5C327 666.119 328.119 665 329.5 665C330.881 665 332 666.119 332 667.5Z"/>
<path d="M332 622.5C332 623.881 330.881 625 329.5 625C328.119 625 327 623.881 327 622.5C327 621.119 328.119 620 329.5 620C330.881 620 332 621.119 332 622.5Z"/>
<path d="M332 577.5C332 578.881 330.881 580 329.5 580C328.119 580 327 578.881 327 577.5C327 576.119 328.119 575 329.5 575C330.881 575 332 576.119 332 577.5Z"/>
<path d="M332 532.5C332 533.881 330.881 535 329.5 535C328.119 535 327 533.881 327 532.5C327 531.119 328.119 530 329.5 530C330.881 530 332 531.119 332 532.5Z"/>
<path d="M377 802.5C377 803.881 375.881 805 374.5 805C373.119 805 372 803.881 372 802.5C372 801.119 373.119 800 374.5 800C375.881 800 377 801.119 377 802.5Z"/>
<path d="M377 757.5C377 758.881 375.881 760 374.5 760C373.119 760 372 758.881 372 757.5C372 756.119 373.119 755 374.5 755C375.881 755 377 756.119 377 757.5Z"/>
<path d="M377 712.5C377 713.881 375.881 715 374.5 715C373.119 715 372 713.881 372 712.5C372 711.119 373.119 710 374.5 710C375.881 710 377 711.119 377 712.5Z"/>
<path d="M377 667.5C377 668.881 375.881 670 374.5 670C373.119 670 372 668.881 372 667.5C372 666.119 373.119 665 374.5 665C375.881 665 377 666.119 377 667.5Z"/>
<path d="M377 622.5C377 623.881 375.881 625 374.5 625C373.119 625 372 623.881 372 622.5C372 621.119 373.119 620 374.5 620C375.881 620 377 621.119 377 622.5Z"/>
<path d="M377 577.5C377 578.881 375.881 580 374.5 580C373.119 580 372 578.881 372 577.5C372 576.119 373.119 575 374.5 575C375.881 575 377 576.119 377 577.5Z"/>
<path d="M377 532.5C377 533.881 375.881 535 374.5 535C373.119 535 372 533.881 372 532.5C372 531.119 373.119 530 374.5 530C375.881 530 377 531.119 377 532.5Z"/>
<path d="M422 802.5C422 803.881 420.881 805 419.5 805C418.119 805 417 803.881 417 802.5C417 801.119 418.119 800 419.5 800C420.881 800 422 801.119 422 802.5Z"/>
<path d="M422 757.5C422 758.881 420.881 760 419.5 760C418.119 760 417 758.881 417 757.5C417 756.119 418.119 755 419.5 755C420.881 755 422 756.119 422 757.5Z"/>
<path d="M422 712.5C422 713.881 420.881 715 419.5 715C418.119 715 417 713.881 417 712.5C417 711.119 418.119 710 419.5 710C420.881 710 422 711.119 422 712.5Z"/>
<path d="M422 667.5C422 668.881 420.881 670 419.5 670C418.119 670 417 668.881 417 667.5C417 666.119 418.119 665 419.5 665C420.881 665 422 666.119 422 667.5Z"/>
<path d="M422 622.5C422 623.881 420.881 625 419.5 625C418.119 625 417 623.881 417 622.5C417 621.119 418.119 620 419.5 620C420.881 620 422 621.119 422 622.5Z"/>
<path d="M422 577.5C422 578.881 420.881 580 419.5 580C418.119 580 417 578.881 417 577.5C417 576.119 418.119 575 419.5 575C420.881 575 422 576.119 422 577.5Z"/>
<path d="M422 532.5C422 533.881 420.881 535 419.5 535C418.119 535 417 533.881 417 532.5C417 531.119 418.119 530 419.5 530C420.881 530 422 531.119 422 532.5Z"/>
</mask>
<path d="M152 802.5C152 803.881 150.881 805 149.5 805C148.119 805 147 803.881 147 802.5C147 801.119 148.119 800 149.5 800C150.881 800 152 801.119 152 802.5Z" stroke="#3360FF" stroke-width="2" mask="url(#path-2-inside-2)"/>
<path d="M152 757.5C152 758.881 150.881 760 149.5 760C148.119 760 147 758.881 147 757.5C147 756.119 148.119 755 149.5 755C150.881 755 152 756.119 152 757.5Z" stroke="#3360FF" stroke-width="2" mask="url(#path-2-inside-2)"/>
<path d="M152 712.5C152 713.881 150.881 715 149.5 715C148.119 715 147 713.881 147 712.5C147 711.119 148.119 710 149.5 710C150.881 710 152 711.119 152 712.5Z" stroke="#3360FF" stroke-width="2" mask="url(#path-2-inside-2)"/>
<path d="M152 667.5C152 668.881 150.881 670 149.5 670C148.119 670 147 668.881 147 667.5C147 666.119 148.119 665 149.5 665C150.881 665 152 666.119 152 667.5Z" stroke="#3360FF" stroke-width="2" mask="url(#path-2-inside-2)"/>
<path d="M152 622.5C152 623.881 150.881 625 149.5 625C148.119 625 147 623.881 147 622.5C147 621.119 148.119 620 149.5 620C150.881 620 152 621.119 152 622.5Z" stroke="#3360FF" stroke-width="2" mask="url(#path-2-inside-2)"/>
<path d="M152 577.5C152 578.881 150.881 580 149.5 580C148.119 580 147 578.881 147 577.5C147 576.119 148.119 575 149.5 575C150.881 575 152 576.119 152 577.5Z" stroke="#3360FF" stroke-width="2" mask="url(#path-2-inside-2)"/>
<path d="M152 532.5C152 533.881 150.881 535 149.5 535C148.119 535 147 533.881 147 532.5C147 531.119 148.119 530 149.5 530C150.881 530 152 531.119 152 532.5Z" stroke="#3360FF" stroke-width="2" mask="url(#path-2-inside-2)"/>
<path d="M197 802.5C197 803.881 195.881 805 194.5 805C193.119 805 192 803.881 192 802.5C192 801.119 193.119 800 194.5 800C195.881 800 197 801.119 197 802.5Z" stroke="#3360FF" stroke-width="2" mask="url(#path-2-inside-2)"/>
<path d="M197 757.5C197 758.881 195.881 760 194.5 760C193.119 760 192 758.881 192 757.5C192 756.119 193.119 755 194.5 755C195.881 755 197 756.119 197 757.5Z" stroke="#3360FF" stroke-width="2" mask="url(#path-2-inside-2)"/>
<path d="M197 712.5C197 713.881 195.881 715 194.5 715C193.119 715 192 713.881 192 712.5C192 711.119 193.119 710 194.5 710C195.881 710 197 711.119 197 712.5Z" stroke="#3360FF" stroke-width="2" mask="url(#path-2-inside-2)"/>
<path d="M197 667.5C197 668.881 195.881 670 194.5 670C193.119 670 192 668.881 192 667.5C192 666.119 193.119 665 194.5 665C195.881 665 197 666.119 197 667.5Z" stroke="#3360FF" stroke-width="2" mask="url(#path-2-inside-2)"/>
<path d="M197 622.5C197 623.881 195.881 625 194.5 625C193.119 625 192 623.881 192 622.5C192 621.119 193.119 620 194.5 620C195.881 620 197 621.119 197 622.5Z" stroke="#3360FF" stroke-width="2" mask="url(#path-2-inside-2)"/>
<path d="M197 577.5C197 578.881 195.881 580 194.5 580C193.119 580 192 578.881 192 577.5C192 576.119 193.119 575 194.5 575C195.881 575 197 576.119 197 577.5Z" stroke="#3360FF" stroke-width="2" mask="url(#path-2-inside-2)"/>
<path d="M197 532.5C197 533.881 195.881 535 194.5 535C193.119 535 192 533.881 192 532.5C192 531.119 193.119 530 194.5 530C195.881 530 197 531.119 197 532.5Z" stroke="#3360FF" stroke-width="2" mask="url(#path-2-inside-2)"/>
<path d="M242 802.5C242 803.881 240.881 805 239.5 805C238.119 805 237 803.881 237 802.5C237 801.119 238.119 800 239.5 800C240.881 800 242 801.119 242 802.5Z" stroke="#3360FF" stroke-width="2" mask="url(#path-2-inside-2)"/>
<path d="M242 757.5C242 758.881 240.881 760 239.5 760C238.119 760 237 758.881 237 757.5C237 756.119 238.119 755 239.5 755C240.881 755 242 756.119 242 757.5Z" stroke="#3360FF" stroke-width="2" mask="url(#path-2-inside-2)"/>
<path d="M242 712.5C242 713.881 240.881 715 239.5 715C238.119 715 237 713.881 237 712.5C237 711.119 238.119 710 239.5 710C240.881 710 242 711.119 242 712.5Z" stroke="#3360FF" stroke-width="2" mask="url(#path-2-inside-2)"/>
<path d="M242 667.5C242 668.881 240.881 670 239.5 670C238.119 670 237 668.881 237 667.5C237 666.119 238.119 665 239.5 665C240.881 665 242 666.119 242 667.5Z" stroke="#3360FF" stroke-width="2" mask="url(#path-2-inside-2)"/>
<path d="M242 622.5C242 623.881 240.881 625 239.5 625C238.119 625 237 623.881 237 622.5C237 621.119 238.119 620 239.5 620C240.881 620 242 621.119 242 622.5Z" stroke="#3360FF" stroke-width="2" mask="url(#path-2-inside-2)"/>
<path d="M242 577.5C242 578.881 240.881 580 239.5 580C238.119 580 237 578.881 237 577.5C237 576.119 238.119 575 239.5 575C240.881 575 242 576.119 242 577.5Z" stroke="#3360FF" stroke-width="2" mask="url(#path-2-inside-2)"/>
<path d="M242 532.5C242 533.881 240.881 535 239.5 535C238.119 535 237 533.881 237 532.5C237 531.119 238.119 530 239.5 530C240.881 530 242 531.119 242 532.5Z" stroke="#3360FF" stroke-width="2" mask="url(#path-2-inside-2)"/>
<path d="M287 802.5C287 803.881 285.881 805 284.5 805C283.119 805 282 803.881 282 802.5C282 801.119 283.119 800 284.5 800C285.881 800 287 801.119 287 802.5Z" stroke="#3360FF" stroke-width="2" mask="url(#path-2-inside-2)"/>
<path d="M287 757.5C287 758.881 285.881 760 284.5 760C283.119 760 282 758.881 282 757.5C282 756.119 283.119 755 284.5 755C285.881 755 287 756.119 287 757.5Z" stroke="#3360FF" stroke-width="2" mask="url(#path-2-inside-2)"/>
<path d="M287 712.5C287 713.881 285.881 715 284.5 715C283.119 715 282 713.881 282 712.5C282 711.119 283.119 710 284.5 710C285.881 710 287 711.119 287 712.5Z" stroke="#3360FF" stroke-width="2" mask="url(#path-2-inside-2)"/>
<path d="M287 667.5C287 668.881 285.881 670 284.5 670C283.119 670 282 668.881 282 667.5C282 666.119 283.119 665 284.5 665C285.881 665 287 666.119 287 667.5Z" stroke="#3360FF" stroke-width="2" mask="url(#path-2-inside-2)"/>
<path d="M287 622.5C287 623.881 285.881 625 284.5 625C283.119 625 282 623.881 282 622.5C282 621.119 283.119 620 284.5 620C285.881 620 287 621.119 287 622.5Z" stroke="#3360FF" stroke-width="2" mask="url(#path-2-inside-2)"/>
<path d="M287 577.5C287 578.881 285.881 580 284.5 580C283.119 580 282 578.881 282 577.5C282 576.119 283.119 575 284.5 575C285.881 575 287 576.119 287 577.5Z" stroke="#3360FF" stroke-width="2" mask="url(#path-2-inside-2)"/>
<path d="M287 532.5C287 533.881 285.881 535 284.5 535C283.119 535 282 533.881 282 532.5C282 531.119 283.119 530 284.5 530C285.881 530 287 531.119 287 532.5Z" stroke="#3360FF" stroke-width="2" mask="url(#path-2-inside-2)"/>
<path d="M332 802.5C332 803.881 330.881 805 329.5 805C328.119 805 327 803.881 327 802.5C327 801.119 328.119 800 329.5 800C330.881 800 332 801.119 332 802.5Z" stroke="#3360FF" stroke-width="2" mask="url(#path-2-inside-2)"/>
<path d="M332 757.5C332 758.881 330.881 760 329.5 760C328.119 760 327 758.881 327 757.5C327 756.119 328.119 755 329.5 755C330.881 755 332 756.119 332 757.5Z" stroke="#3360FF" stroke-width="2" mask="url(#path-2-inside-2)"/>
<path d="M332 712.5C332 713.881 330.881 715 329.5 715C328.119 715 327 713.881 327 712.5C327 711.119 328.119 710 329.5 710C330.881 710 332 711.119 332 712.5Z" stroke="#3360FF" stroke-width="2" mask="url(#path-2-inside-2)"/>
<path d="M332 667.5C332 668.881 330.881 670 329.5 670C328.119 670 327 668.881 327 667.5C327 666.119 328.119 665 329.5 665C330.881 665 332 666.119 332 667.5Z" stroke="#3360FF" stroke-width="2" mask="url(#path-2-inside-2)"/>
<path d="M332 622.5C332 623.881 330.881 625 329.5 625C328.119 625 327 623.881 327 622.5C327 621.119 328.119 620 329.5 620C330.881 620 332 621.119 332 622.5Z" stroke="#3360FF" stroke-width="2" mask="url(#path-2-inside-2)"/>
<path d="M332 577.5C332 578.881 330.881 580 329.5 580C328.119 580 327 578.881 327 577.5C327 576.119 328.119 575 329.5 575C330.881 575 332 576.119 332 577.5Z" stroke="#3360FF" stroke-width="2" mask="url(#path-2-inside-2)"/>
<path d="M332 532.5C332 533.881 330.881 535 329.5 535C328.119 535 327 533.881 327 532.5C327 531.119 328.119 530 329.5 530C330.881 530 332 531.119 332 532.5Z" stroke="#3360FF" stroke-width="2" mask="url(#path-2-inside-2)"/>
<path d="M377 802.5C377 803.881 375.881 805 374.5 805C373.119 805 372 803.881 372 802.5C372 801.119 373.119 800 374.5 800C375.881 800 377 801.119 377 802.5Z" stroke="#3360FF" stroke-width="2" mask="url(#path-2-inside-2)"/>
<path d="M377 757.5C377 758.881 375.881 760 374.5 760C373.119 760 372 758.881 372 757.5C372 756.119 373.119 755 374.5 755C375.881 755 377 756.119 377 757.5Z" stroke="#3360FF" stroke-width="2" mask="url(#path-2-inside-2)"/>
<path d="M377 712.5C377 713.881 375.881 715 374.5 715C373.119 715 372 713.881 372 712.5C372 711.119 373.119 710 374.5 710C375.881 710 377 711.119 377 712.5Z" stroke="#3360FF" stroke-width="2" mask="url(#path-2-inside-2)"/>
<path d="M377 667.5C377 668.881 375.881 670 374.5 670C373.119 670 372 668.881 372 667.5C372 666.119 373.119 665 374.5 665C375.881 665 377 666.119 377 667.5Z" stroke="#3360FF" stroke-width="2" mask="url(#path-2-inside-2)"/>
<path d="M377 622.5C377 623.881 375.881 625 374.5 625C373.119 625 372 623.881 372 622.5C372 621.119 373.119 620 374.5 620C375.881 620 377 621.119 377 622.5Z" stroke="#3360FF" stroke-width="2" mask="url(#path-2-inside-2)"/>
<path d="M377 577.5C377 578.881 375.881 580 374.5 580C373.119 580 372 578.881 372 577.5C372 576.119 373.119 575 374.5 575C375.881 575 377 576.119 377 577.5Z" stroke="#3360FF" stroke-width="2" mask="url(#path-2-inside-2)"/>
<path d="M377 532.5C377 533.881 375.881 535 374.5 535C373.119 535 372 533.881 372 532.5C372 531.119 373.119 530 374.5 530C375.881 530 377 531.119 377 532.5Z" stroke="#3360FF" stroke-width="2" mask="url(#path-2-inside-2)"/>
<path d="M422 802.5C422 803.881 420.881 805 419.5 805C418.119 805 417 803.881 417 802.5C417 801.119 418.119 800 419.5 800C420.881 800 422 801.119 422 802.5Z" stroke="#3360FF" stroke-width="2" mask="url(#path-2-inside-2)"/>
<path d="M422 757.5C422 758.881 420.881 760 419.5 760C418.119 760 417 758.881 417 757.5C417 756.119 418.119 755 419.5 755C420.881 755 422 756.119 422 757.5Z" stroke="#3360FF" stroke-width="2" mask="url(#path-2-inside-2)"/>
<path d="M422 712.5C422 713.881 420.881 715 419.5 715C418.119 715 417 713.881 417 712.5C417 711.119 418.119 710 419.5 710C420.881 710 422 711.119 422 712.5Z" stroke="#3360FF" stroke-width="2" mask="url(#path-2-inside-2)"/>
<path d="M422 667.5C422 668.881 420.881 670 419.5 670C418.119 670 417 668.881 417 667.5C417 666.119 418.119 665 419.5 665C420.881 665 422 666.119 422 667.5Z" stroke="#3360FF" stroke-width="2" mask="url(#path-2-inside-2)"/>
<path d="M422 622.5C422 623.881 420.881 625 419.5 625C418.119 625 417 623.881 417 622.5C417 621.119 418.119 620 419.5 620C420.881 620 422 621.119 422 622.5Z" stroke="#3360FF" stroke-width="2" mask="url(#path-2-inside-2)"/>
<path d="M422 577.5C422 578.881 420.881 580 419.5 580C418.119 580 417 578.881 417 577.5C417 576.119 418.119 575 419.5 575C420.881 575 422 576.119 422 577.5Z" stroke="#3360FF" stroke-width="2" mask="url(#path-2-inside-2)"/>
<path d="M422 532.5C422 533.881 420.881 535 419.5 535C418.119 535 417 533.881 417 532.5C417 531.119 418.119 530 419.5 530C420.881 530 422 531.119 422 532.5Z" stroke="#3360FF" stroke-width="2" mask="url(#path-2-inside-2)"/>
</svg>
