<svg width="1240" height="640" viewBox="0 0 1240 640" fill="none" xmlns="http://www.w3.org/2000/svg">
<path d="M365 207.5C365 294.485 294.485 365 207.5 365C120.515 365 50 294.485 50 207.5C50 120.515 120.515 50 207.5 50C294.485 50 365 120.515 365 207.5Z" fill="#3360FF"/>
<mask id="path-2-inside-1" fill="white">
<path d="M140 556.5C140 557.881 138.881 559 137.5 559C136.119 559 135 557.881 135 556.5C135 555.119 136.119 554 137.5 554C138.881 554 140 555.119 140 556.5Z"/>
<path d="M140 511.5C140 512.881 138.881 514 137.5 514C136.119 514 135 512.881 135 511.5C135 510.119 136.119 509 137.5 509C138.881 509 140 510.119 140 511.5Z"/>
<path d="M140 466.5C140 467.881 138.881 469 137.5 469C136.119 469 135 467.881 135 466.5C135 465.119 136.119 464 137.5 464C138.881 464 140 465.119 140 466.5Z"/>
<path d="M140 421.5C140 422.881 138.881 424 137.5 424C136.119 424 135 422.881 135 421.5C135 420.119 136.119 419 137.5 419C138.881 419 140 420.119 140 421.5Z"/>
<path d="M140 376.5C140 377.881 138.881 379 137.5 379C136.119 379 135 377.881 135 376.5C135 375.119 136.119 374 137.5 374C138.881 374 140 375.119 140 376.5Z"/>
<path d="M140 331.5C140 332.881 138.881 334 137.5 334C136.119 334 135 332.881 135 331.5C135 330.119 136.119 329 137.5 329C138.881 329 140 330.119 140 331.5Z"/>
<path d="M140 286.5C140 287.881 138.881 289 137.5 289C136.119 289 135 287.881 135 286.5C135 285.119 136.119 284 137.5 284C138.881 284 140 285.119 140 286.5Z"/>
<path d="M185 556.5C185 557.881 183.881 559 182.5 559C181.119 559 180 557.881 180 556.5C180 555.119 181.119 554 182.5 554C183.881 554 185 555.119 185 556.5Z"/>
<path d="M185 511.5C185 512.881 183.881 514 182.5 514C181.119 514 180 512.881 180 511.5C180 510.119 181.119 509 182.5 509C183.881 509 185 510.119 185 511.5Z"/>
<path d="M185 466.5C185 467.881 183.881 469 182.5 469C181.119 469 180 467.881 180 466.5C180 465.119 181.119 464 182.5 464C183.881 464 185 465.119 185 466.5Z"/>
<path d="M185 421.5C185 422.881 183.881 424 182.5 424C181.119 424 180 422.881 180 421.5C180 420.119 181.119 419 182.5 419C183.881 419 185 420.119 185 421.5Z"/>
<path d="M185 376.5C185 377.881 183.881 379 182.5 379C181.119 379 180 377.881 180 376.5C180 375.119 181.119 374 182.5 374C183.881 374 185 375.119 185 376.5Z"/>
<path d="M185 331.5C185 332.881 183.881 334 182.5 334C181.119 334 180 332.881 180 331.5C180 330.119 181.119 329 182.5 329C183.881 329 185 330.119 185 331.5Z"/>
<path d="M185 286.5C185 287.881 183.881 289 182.5 289C181.119 289 180 287.881 180 286.5C180 285.119 181.119 284 182.5 284C183.881 284 185 285.119 185 286.5Z"/>
<path d="M230 556.5C230 557.881 228.881 559 227.5 559C226.119 559 225 557.881 225 556.5C225 555.119 226.119 554 227.5 554C228.881 554 230 555.119 230 556.5Z"/>
<path d="M230 511.5C230 512.881 228.881 514 227.5 514C226.119 514 225 512.881 225 511.5C225 510.119 226.119 509 227.5 509C228.881 509 230 510.119 230 511.5Z"/>
<path d="M230 466.5C230 467.881 228.881 469 227.5 469C226.119 469 225 467.881 225 466.5C225 465.119 226.119 464 227.5 464C228.881 464 230 465.119 230 466.5Z"/>
<path d="M230 421.5C230 422.881 228.881 424 227.5 424C226.119 424 225 422.881 225 421.5C225 420.119 226.119 419 227.5 419C228.881 419 230 420.119 230 421.5Z"/>
<path d="M230 376.5C230 377.881 228.881 379 227.5 379C226.119 379 225 377.881 225 376.5C225 375.119 226.119 374 227.5 374C228.881 374 230 375.119 230 376.5Z"/>
<path d="M230 331.5C230 332.881 228.881 334 227.5 334C226.119 334 225 332.881 225 331.5C225 330.119 226.119 329 227.5 329C228.881 329 230 330.119 230 331.5Z"/>
<path d="M230 286.5C230 287.881 228.881 289 227.5 289C226.119 289 225 287.881 225 286.5C225 285.119 226.119 284 227.5 284C228.881 284 230 285.119 230 286.5Z"/>
<path d="M275 556.5C275 557.881 273.881 559 272.5 559C271.119 559 270 557.881 270 556.5C270 555.119 271.119 554 272.5 554C273.881 554 275 555.119 275 556.5Z"/>
<path d="M275 511.5C275 512.881 273.881 514 272.5 514C271.119 514 270 512.881 270 511.5C270 510.119 271.119 509 272.5 509C273.881 509 275 510.119 275 511.5Z"/>
<path d="M275 466.5C275 467.881 273.881 469 272.5 469C271.119 469 270 467.881 270 466.5C270 465.119 271.119 464 272.5 464C273.881 464 275 465.119 275 466.5Z"/>
<path d="M275 421.5C275 422.881 273.881 424 272.5 424C271.119 424 270 422.881 270 421.5C270 420.119 271.119 419 272.5 419C273.881 419 275 420.119 275 421.5Z"/>
<path d="M275 376.5C275 377.881 273.881 379 272.5 379C271.119 379 270 377.881 270 376.5C270 375.119 271.119 374 272.5 374C273.881 374 275 375.119 275 376.5Z"/>
<path d="M275 331.5C275 332.881 273.881 334 272.5 334C271.119 334 270 332.881 270 331.5C270 330.119 271.119 329 272.5 329C273.881 329 275 330.119 275 331.5Z"/>
<path d="M275 286.5C275 287.881 273.881 289 272.5 289C271.119 289 270 287.881 270 286.5C270 285.119 271.119 284 272.5 284C273.881 284 275 285.119 275 286.5Z"/>
<path d="M320 556.5C320 557.881 318.881 559 317.5 559C316.119 559 315 557.881 315 556.5C315 555.119 316.119 554 317.5 554C318.881 554 320 555.119 320 556.5Z"/>
<path d="M320 511.5C320 512.881 318.881 514 317.5 514C316.119 514 315 512.881 315 511.5C315 510.119 316.119 509 317.5 509C318.881 509 320 510.119 320 511.5Z"/>
<path d="M320 466.5C320 467.881 318.881 469 317.5 469C316.119 469 315 467.881 315 466.5C315 465.119 316.119 464 317.5 464C318.881 464 320 465.119 320 466.5Z"/>
<path d="M320 421.5C320 422.881 318.881 424 317.5 424C316.119 424 315 422.881 315 421.5C315 420.119 316.119 419 317.5 419C318.881 419 320 420.119 320 421.5Z"/>
<path d="M320 376.5C320 377.881 318.881 379 317.5 379C316.119 379 315 377.881 315 376.5C315 375.119 316.119 374 317.5 374C318.881 374 320 375.119 320 376.5Z"/>
<path d="M320 331.5C320 332.881 318.881 334 317.5 334C316.119 334 315 332.881 315 331.5C315 330.119 316.119 329 317.5 329C318.881 329 320 330.119 320 331.5Z"/>
<path d="M320 286.5C320 287.881 318.881 289 317.5 289C316.119 289 315 287.881 315 286.5C315 285.119 316.119 284 317.5 284C318.881 284 320 285.119 320 286.5Z"/>
<path d="M365 556.5C365 557.881 363.881 559 362.5 559C361.119 559 360 557.881 360 556.5C360 555.119 361.119 554 362.5 554C363.881 554 365 555.119 365 556.5Z"/>
<path d="M365 511.5C365 512.881 363.881 514 362.5 514C361.119 514 360 512.881 360 511.5C360 510.119 361.119 509 362.5 509C363.881 509 365 510.119 365 511.5Z"/>
<path d="M365 466.5C365 467.881 363.881 469 362.5 469C361.119 469 360 467.881 360 466.5C360 465.119 361.119 464 362.5 464C363.881 464 365 465.119 365 466.5Z"/>
<path d="M365 421.5C365 422.881 363.881 424 362.5 424C361.119 424 360 422.881 360 421.5C360 420.119 361.119 419 362.5 419C363.881 419 365 420.119 365 421.5Z"/>
<path d="M365 376.5C365 377.881 363.881 379 362.5 379C361.119 379 360 377.881 360 376.5C360 375.119 361.119 374 362.5 374C363.881 374 365 375.119 365 376.5Z"/>
<path d="M365 331.5C365 332.881 363.881 334 362.5 334C361.119 334 360 332.881 360 331.5C360 330.119 361.119 329 362.5 329C363.881 329 365 330.119 365 331.5Z"/>
<path d="M365 286.5C365 287.881 363.881 289 362.5 289C361.119 289 360 287.881 360 286.5C360 285.119 361.119 284 362.5 284C363.881 284 365 285.119 365 286.5Z"/>
<path d="M410 556.5C410 557.881 408.881 559 407.5 559C406.119 559 405 557.881 405 556.5C405 555.119 406.119 554 407.5 554C408.881 554 410 555.119 410 556.5Z"/>
<path d="M410 511.5C410 512.881 408.881 514 407.5 514C406.119 514 405 512.881 405 511.5C405 510.119 406.119 509 407.5 509C408.881 509 410 510.119 410 511.5Z"/>
<path d="M410 466.5C410 467.881 408.881 469 407.5 469C406.119 469 405 467.881 405 466.5C405 465.119 406.119 464 407.5 464C408.881 464 410 465.119 410 466.5Z"/>
<path d="M410 421.5C410 422.881 408.881 424 407.5 424C406.119 424 405 422.881 405 421.5C405 420.119 406.119 419 407.5 419C408.881 419 410 420.119 410 421.5Z"/>
<path d="M410 376.5C410 377.881 408.881 379 407.5 379C406.119 379 405 377.881 405 376.5C405 375.119 406.119 374 407.5 374C408.881 374 410 375.119 410 376.5Z"/>
<path d="M410 331.5C410 332.881 408.881 334 407.5 334C406.119 334 405 332.881 405 331.5C405 330.119 406.119 329 407.5 329C408.881 329 410 330.119 410 331.5Z"/>
<path d="M410 286.5C410 287.881 408.881 289 407.5 289C406.119 289 405 287.881 405 286.5C405 285.119 406.119 284 407.5 284C408.881 284 410 285.119 410 286.5Z"/>
</mask>
<path d="M140 556.5C140 557.881 138.881 559 137.5 559C136.119 559 135 557.881 135 556.5C135 555.119 136.119 554 137.5 554C138.881 554 140 555.119 140 556.5Z" stroke="#3360FF" stroke-width="2" mask="url(#path-2-inside-1)"/>
<path d="M140 511.5C140 512.881 138.881 514 137.5 514C136.119 514 135 512.881 135 511.5C135 510.119 136.119 509 137.5 509C138.881 509 140 510.119 140 511.5Z" stroke="#3360FF" stroke-width="2" mask="url(#path-2-inside-1)"/>
<path d="M140 466.5C140 467.881 138.881 469 137.5 469C136.119 469 135 467.881 135 466.5C135 465.119 136.119 464 137.5 464C138.881 464 140 465.119 140 466.5Z" stroke="#3360FF" stroke-width="2" mask="url(#path-2-inside-1)"/>
<path d="M140 421.5C140 422.881 138.881 424 137.5 424C136.119 424 135 422.881 135 421.5C135 420.119 136.119 419 137.5 419C138.881 419 140 420.119 140 421.5Z" stroke="#3360FF" stroke-width="2" mask="url(#path-2-inside-1)"/>
<path d="M140 376.5C140 377.881 138.881 379 137.5 379C136.119 379 135 377.881 135 376.5C135 375.119 136.119 374 137.5 374C138.881 374 140 375.119 140 376.5Z" stroke="#3360FF" stroke-width="2" mask="url(#path-2-inside-1)"/>
<path d="M140 331.5C140 332.881 138.881 334 137.5 334C136.119 334 135 332.881 135 331.5C135 330.119 136.119 329 137.5 329C138.881 329 140 330.119 140 331.5Z" stroke="#3360FF" stroke-width="2" mask="url(#path-2-inside-1)"/>
<path d="M140 286.5C140 287.881 138.881 289 137.5 289C136.119 289 135 287.881 135 286.5C135 285.119 136.119 284 137.5 284C138.881 284 140 285.119 140 286.5Z" stroke="#3360FF" stroke-width="2" mask="url(#path-2-inside-1)"/>
<path d="M185 556.5C185 557.881 183.881 559 182.5 559C181.119 559 180 557.881 180 556.5C180 555.119 181.119 554 182.5 554C183.881 554 185 555.119 185 556.5Z" stroke="#3360FF" stroke-width="2" mask="url(#path-2-inside-1)"/>
<path d="M185 511.5C185 512.881 183.881 514 182.5 514C181.119 514 180 512.881 180 511.5C180 510.119 181.119 509 182.5 509C183.881 509 185 510.119 185 511.5Z" stroke="#3360FF" stroke-width="2" mask="url(#path-2-inside-1)"/>
<path d="M185 466.5C185 467.881 183.881 469 182.5 469C181.119 469 180 467.881 180 466.5C180 465.119 181.119 464 182.5 464C183.881 464 185 465.119 185 466.5Z" stroke="#3360FF" stroke-width="2" mask="url(#path-2-inside-1)"/>
<path d="M185 421.5C185 422.881 183.881 424 182.5 424C181.119 424 180 422.881 180 421.5C180 420.119 181.119 419 182.5 419C183.881 419 185 420.119 185 421.5Z" stroke="#3360FF" stroke-width="2" mask="url(#path-2-inside-1)"/>
<path d="M185 376.5C185 377.881 183.881 379 182.5 379C181.119 379 180 377.881 180 376.5C180 375.119 181.119 374 182.5 374C183.881 374 185 375.119 185 376.5Z" stroke="#3360FF" stroke-width="2" mask="url(#path-2-inside-1)"/>
<path d="M185 331.5C185 332.881 183.881 334 182.5 334C181.119 334 180 332.881 180 331.5C180 330.119 181.119 329 182.5 329C183.881 329 185 330.119 185 331.5Z" stroke="#3360FF" stroke-width="2" mask="url(#path-2-inside-1)"/>
<path d="M185 286.5C185 287.881 183.881 289 182.5 289C181.119 289 180 287.881 180 286.5C180 285.119 181.119 284 182.5 284C183.881 284 185 285.119 185 286.5Z" stroke="#3360FF" stroke-width="2" mask="url(#path-2-inside-1)"/>
<path d="M230 556.5C230 557.881 228.881 559 227.5 559C226.119 559 225 557.881 225 556.5C225 555.119 226.119 554 227.5 554C228.881 554 230 555.119 230 556.5Z" stroke="#3360FF" stroke-width="2" mask="url(#path-2-inside-1)"/>
<path d="M230 511.5C230 512.881 228.881 514 227.5 514C226.119 514 225 512.881 225 511.5C225 510.119 226.119 509 227.5 509C228.881 509 230 510.119 230 511.5Z" stroke="#3360FF" stroke-width="2" mask="url(#path-2-inside-1)"/>
<path d="M230 466.5C230 467.881 228.881 469 227.5 469C226.119 469 225 467.881 225 466.5C225 465.119 226.119 464 227.5 464C228.881 464 230 465.119 230 466.5Z" stroke="#3360FF" stroke-width="2" mask="url(#path-2-inside-1)"/>
<path d="M230 421.5C230 422.881 228.881 424 227.5 424C226.119 424 225 422.881 225 421.5C225 420.119 226.119 419 227.5 419C228.881 419 230 420.119 230 421.5Z" stroke="#3360FF" stroke-width="2" mask="url(#path-2-inside-1)"/>
<path d="M230 376.5C230 377.881 228.881 379 227.5 379C226.119 379 225 377.881 225 376.5C225 375.119 226.119 374 227.5 374C228.881 374 230 375.119 230 376.5Z" stroke="#3360FF" stroke-width="2" mask="url(#path-2-inside-1)"/>
<path d="M230 331.5C230 332.881 228.881 334 227.5 334C226.119 334 225 332.881 225 331.5C225 330.119 226.119 329 227.5 329C228.881 329 230 330.119 230 331.5Z" stroke="#3360FF" stroke-width="2" mask="url(#path-2-inside-1)"/>
<path d="M230 286.5C230 287.881 228.881 289 227.5 289C226.119 289 225 287.881 225 286.5C225 285.119 226.119 284 227.5 284C228.881 284 230 285.119 230 286.5Z" stroke="#3360FF" stroke-width="2" mask="url(#path-2-inside-1)"/>
<path d="M275 556.5C275 557.881 273.881 559 272.5 559C271.119 559 270 557.881 270 556.5C270 555.119 271.119 554 272.5 554C273.881 554 275 555.119 275 556.5Z" stroke="#3360FF" stroke-width="2" mask="url(#path-2-inside-1)"/>
<path d="M275 511.5C275 512.881 273.881 514 272.5 514C271.119 514 270 512.881 270 511.5C270 510.119 271.119 509 272.5 509C273.881 509 275 510.119 275 511.5Z" stroke="#3360FF" stroke-width="2" mask="url(#path-2-inside-1)"/>
<path d="M275 466.5C275 467.881 273.881 469 272.5 469C271.119 469 270 467.881 270 466.5C270 465.119 271.119 464 272.5 464C273.881 464 275 465.119 275 466.5Z" stroke="#3360FF" stroke-width="2" mask="url(#path-2-inside-1)"/>
<path d="M275 421.5C275 422.881 273.881 424 272.5 424C271.119 424 270 422.881 270 421.5C270 420.119 271.119 419 272.5 419C273.881 419 275 420.119 275 421.5Z" stroke="#3360FF" stroke-width="2" mask="url(#path-2-inside-1)"/>
<path d="M275 376.5C275 377.881 273.881 379 272.5 379C271.119 379 270 377.881 270 376.5C270 375.119 271.119 374 272.5 374C273.881 374 275 375.119 275 376.5Z" stroke="#3360FF" stroke-width="2" mask="url(#path-2-inside-1)"/>
<path d="M275 331.5C275 332.881 273.881 334 272.5 334C271.119 334 270 332.881 270 331.5C270 330.119 271.119 329 272.5 329C273.881 329 275 330.119 275 331.5Z" stroke="#3360FF" stroke-width="2" mask="url(#path-2-inside-1)"/>
<path d="M275 286.5C275 287.881 273.881 289 272.5 289C271.119 289 270 287.881 270 286.5C270 285.119 271.119 284 272.5 284C273.881 284 275 285.119 275 286.5Z" stroke="#3360FF" stroke-width="2" mask="url(#path-2-inside-1)"/>
<path d="M320 556.5C320 557.881 318.881 559 317.5 559C316.119 559 315 557.881 315 556.5C315 555.119 316.119 554 317.5 554C318.881 554 320 555.119 320 556.5Z" stroke="#3360FF" stroke-width="2" mask="url(#path-2-inside-1)"/>
<path d="M320 511.5C320 512.881 318.881 514 317.5 514C316.119 514 315 512.881 315 511.5C315 510.119 316.119 509 317.5 509C318.881 509 320 510.119 320 511.5Z" stroke="#3360FF" stroke-width="2" mask="url(#path-2-inside-1)"/>
<path d="M320 466.5C320 467.881 318.881 469 317.5 469C316.119 469 315 467.881 315 466.5C315 465.119 316.119 464 317.5 464C318.881 464 320 465.119 320 466.5Z" stroke="#3360FF" stroke-width="2" mask="url(#path-2-inside-1)"/>
<path d="M320 421.5C320 422.881 318.881 424 317.5 424C316.119 424 315 422.881 315 421.5C315 420.119 316.119 419 317.5 419C318.881 419 320 420.119 320 421.5Z" stroke="#3360FF" stroke-width="2" mask="url(#path-2-inside-1)"/>
<path d="M320 376.5C320 377.881 318.881 379 317.5 379C316.119 379 315 377.881 315 376.5C315 375.119 316.119 374 317.5 374C318.881 374 320 375.119 320 376.5Z" stroke="#3360FF" stroke-width="2" mask="url(#path-2-inside-1)"/>
<path d="M320 331.5C320 332.881 318.881 334 317.5 334C316.119 334 315 332.881 315 331.5C315 330.119 316.119 329 317.5 329C318.881 329 320 330.119 320 331.5Z" stroke="#3360FF" stroke-width="2" mask="url(#path-2-inside-1)"/>
<path d="M320 286.5C320 287.881 318.881 289 317.5 289C316.119 289 315 287.881 315 286.5C315 285.119 316.119 284 317.5 284C318.881 284 320 285.119 320 286.5Z" stroke="#3360FF" stroke-width="2" mask="url(#path-2-inside-1)"/>
<path d="M365 556.5C365 557.881 363.881 559 362.5 559C361.119 559 360 557.881 360 556.5C360 555.119 361.119 554 362.5 554C363.881 554 365 555.119 365 556.5Z" stroke="#3360FF" stroke-width="2" mask="url(#path-2-inside-1)"/>
<path d="M365 511.5C365 512.881 363.881 514 362.5 514C361.119 514 360 512.881 360 511.5C360 510.119 361.119 509 362.5 509C363.881 509 365 510.119 365 511.5Z" stroke="#3360FF" stroke-width="2" mask="url(#path-2-inside-1)"/>
<path d="M365 466.5C365 467.881 363.881 469 362.5 469C361.119 469 360 467.881 360 466.5C360 465.119 361.119 464 362.5 464C363.881 464 365 465.119 365 466.5Z" stroke="#3360FF" stroke-width="2" mask="url(#path-2-inside-1)"/>
<path d="M365 421.5C365 422.881 363.881 424 362.5 424C361.119 424 360 422.881 360 421.5C360 420.119 361.119 419 362.5 419C363.881 419 365 420.119 365 421.5Z" stroke="#3360FF" stroke-width="2" mask="url(#path-2-inside-1)"/>
<path d="M365 376.5C365 377.881 363.881 379 362.5 379C361.119 379 360 377.881 360 376.5C360 375.119 361.119 374 362.5 374C363.881 374 365 375.119 365 376.5Z" stroke="#3360FF" stroke-width="2" mask="url(#path-2-inside-1)"/>
<path d="M365 331.5C365 332.881 363.881 334 362.5 334C361.119 334 360 332.881 360 331.5C360 330.119 361.119 329 362.5 329C363.881 329 365 330.119 365 331.5Z" stroke="#3360FF" stroke-width="2" mask="url(#path-2-inside-1)"/>
<path d="M365 286.5C365 287.881 363.881 289 362.5 289C361.119 289 360 287.881 360 286.5C360 285.119 361.119 284 362.5 284C363.881 284 365 285.119 365 286.5Z" stroke="#3360FF" stroke-width="2" mask="url(#path-2-inside-1)"/>
<path d="M410 556.5C410 557.881 408.881 559 407.5 559C406.119 559 405 557.881 405 556.5C405 555.119 406.119 554 407.5 554C408.881 554 410 555.119 410 556.5Z" stroke="#3360FF" stroke-width="2" mask="url(#path-2-inside-1)"/>
<path d="M410 511.5C410 512.881 408.881 514 407.5 514C406.119 514 405 512.881 405 511.5C405 510.119 406.119 509 407.5 509C408.881 509 410 510.119 410 511.5Z" stroke="#3360FF" stroke-width="2" mask="url(#path-2-inside-1)"/>
<path d="M410 466.5C410 467.881 408.881 469 407.5 469C406.119 469 405 467.881 405 466.5C405 465.119 406.119 464 407.5 464C408.881 464 410 465.119 410 466.5Z" stroke="#3360FF" stroke-width="2" mask="url(#path-2-inside-1)"/>
<path d="M410 421.5C410 422.881 408.881 424 407.5 424C406.119 424 405 422.881 405 421.5C405 420.119 406.119 419 407.5 419C408.881 419 410 420.119 410 421.5Z" stroke="#3360FF" stroke-width="2" mask="url(#path-2-inside-1)"/>
<path d="M410 376.5C410 377.881 408.881 379 407.5 379C406.119 379 405 377.881 405 376.5C405 375.119 406.119 374 407.5 374C408.881 374 410 375.119 410 376.5Z" stroke="#3360FF" stroke-width="2" mask="url(#path-2-inside-1)"/>
<path d="M410 331.5C410 332.881 408.881 334 407.5 334C406.119 334 405 332.881 405 331.5C405 330.119 406.119 329 407.5 329C408.881 329 410 330.119 410 331.5Z" stroke="#3360FF" stroke-width="2" mask="url(#path-2-inside-1)"/>
<path d="M410 286.5C410 287.881 408.881 289 407.5 289C406.119 289 405 287.881 405 286.5C405 285.119 406.119 284 407.5 284C408.881 284 410 285.119 410 286.5Z" stroke="#3360FF" stroke-width="2" mask="url(#path-2-inside-1)"/>
<path d="M900 52C900 63.0457 891.046 72 880 72C868.954 72 860 63.0457 860 52C860 40.9543 868.954 32 880 32C891.046 32 900 40.9543 900 52Z" fill="#3360FF"/>
<path d="M881.5 78.625C881.5 77.7966 880.828 77.125 880 77.125C879.172 77.125 878.5 77.7966 878.5 78.625V82.875C878.5 83.7034 879.172 84.375 880 84.375C880.828 84.375 881.5 83.7034 881.5 82.875V78.625Z" fill="#3360FF"/>
<path d="M994.5 83C993.672 83 993 83.6716 993 84.5V86.5667C993 87.3951 993.672 88.0667 994.5 88.0667C995.328 88.0667 996 87.3951 996 86.5667V86H996.542C997.37 86 998.042 85.3284 998.042 84.5C998.042 83.6716 997.37 83 996.542 83H994.5Z" fill="#3360FF"/>
<path d="M1004.71 83C1003.88 83 1003.21 83.6716 1003.21 84.5C1003.21 85.3284 1003.88 86 1004.71 86H1008.79C1009.62 86 1010.29 85.3284 1010.29 84.5C1010.29 83.6716 1009.62 83 1008.79 83H1004.71Z" fill="#3360FF"/>
<path d="M1016.96 83C1016.13 83 1015.46 83.6716 1015.46 84.5C1015.46 85.3284 1016.13 86 1016.96 86H1021.04C1021.87 86 1022.54 85.3284 1022.54 84.5C1022.54 83.6716 1021.87 83 1021.04 83H1016.96Z" fill="#3360FF"/>
<path d="M1029.21 83C1028.38 83 1027.71 83.6716 1027.71 84.5C1027.71 85.3284 1028.38 86 1029.21 86H1033.29C1034.12 86 1034.79 85.3284 1034.79 84.5C1034.79 83.6716 1034.12 83 1033.29 83H1029.21Z" fill="#3360FF"/>
<path d="M1041.46 83C1040.63 83 1039.96 83.6716 1039.96 84.5C1039.96 85.3284 1040.63 86 1041.46 86H1045.54C1046.37 86 1047.04 85.3284 1047.04 84.5C1047.04 83.6716 1046.37 83 1045.54 83H1041.46Z" fill="#3360FF"/>
<path d="M1053.71 83C1052.88 83 1052.21 83.6716 1052.21 84.5C1052.21 85.3284 1052.88 86 1053.71 86H1057.79C1058.62 86 1059.29 85.3284 1059.29 84.5C1059.29 83.6716 1058.62 83 1057.79 83H1053.71Z" fill="#3360FF"/>
<path d="M1065.96 83C1065.13 83 1064.46 83.6716 1064.46 84.5C1064.46 85.3284 1065.13 86 1065.96 86H1066.5V86.9167C1066.5 87.7451 1067.17 88.4167 1068 88.4167C1068.83 88.4167 1069.5 87.7451 1069.5 86.9167V84.5C1069.5 83.6716 1068.83 83 1068 83H1065.96Z" fill="#3360FF"/>
<path d="M881.5 91.375C881.5 90.5466 880.828 89.875 880 89.875C879.172 89.875 878.5 90.5466 878.5 91.375V92H878.017C877.188 92 876.517 92.6716 876.517 93.5C876.517 94.3284 877.188 95 878.017 95H880C880.828 95 881.5 94.3284 881.5 93.5V91.375Z" fill="#3360FF"/>
<path d="M820.5 92C819.672 92 819 92.6716 819 93.5V95.2778C819 96.1062 819.672 96.7778 820.5 96.7778C821.328 96.7778 822 96.1062 822 95.2778V95H822.483C823.312 95 823.983 94.3284 823.983 93.5C823.983 92.6716 823.312 92 822.483 92H820.5Z" fill="#3360FF"/>
<path d="M830.417 92C829.588 92 828.917 92.6716 828.917 93.5C828.917 94.3284 829.588 95 830.417 95H834.383C835.212 95 835.883 94.3284 835.883 93.5C835.883 92.6716 835.212 92 834.383 92H830.417Z" fill="#3360FF"/>
<path d="M842.317 92C841.488 92 840.817 92.6716 840.817 93.5C840.817 94.3284 841.488 95 842.317 95H846.283C847.112 95 847.783 94.3284 847.783 93.5C847.783 92.6716 847.112 92 846.283 92H842.317Z" fill="#3360FF"/>
<path d="M854.217 92C853.388 92 852.717 92.6716 852.717 93.5C852.717 94.3284 853.388 95 854.217 95H858.183C859.012 95 859.683 94.3284 859.683 93.5C859.683 92.6716 859.012 92 858.183 92H854.217Z" fill="#3360FF"/>
<path d="M866.117 92C865.288 92 864.617 92.6716 864.617 93.5C864.617 94.3284 865.288 95 866.117 95H870.083C870.912 95 871.583 94.3284 871.583 93.5C871.583 92.6716 870.912 92 870.083 92H866.117Z" fill="#3360FF"/>
<path d="M996 94.8334C996 94.0049 995.328 93.3334 994.5 93.3334C993.672 93.3334 993 94.0049 993 94.8334V98.9667C993 99.7951 993.672 100.467 994.5 100.467C995.328 100.467 996 99.7951 996 98.9667V94.8334Z" fill="#3360FF"/>
<path d="M1069.5 96.5833C1069.5 95.7549 1068.83 95.0833 1068 95.0833C1067.17 95.0833 1066.5 95.7549 1066.5 96.5833V101.417C1066.5 102.245 1067.17 102.917 1068 102.917C1068.83 102.917 1069.5 102.245 1069.5 101.417V96.5833Z" fill="#3360FF"/>
<path d="M822 102.389C822 101.56 821.328 100.889 820.5 100.889C819.672 100.889 819 101.56 819 102.389V105.944C819 106.773 819.672 107.444 820.5 107.444C821.328 107.444 822 106.773 822 105.944V102.389Z" fill="#3360FF"/>
<path d="M996 107.233C996 106.405 995.328 105.733 994.5 105.733C993.672 105.733 993 106.405 993 107.233V111.367C993 112.195 993.672 112.867 994.5 112.867C995.328 112.867 996 112.195 996 111.367V107.233Z" fill="#3360FF"/>
<path fill-rule="evenodd" clip-rule="evenodd" d="M1044.34 135.398C1044.34 133.565 1045.82 132.08 1047.65 132.08H1087.35C1089.18 132.08 1090.66 133.565 1090.66 135.398V148.67C1090.66 150.503 1089.18 151.989 1087.35 151.989H1047.65C1045.82 151.989 1044.34 150.503 1044.34 148.67V135.398ZM1050.95 138.716V145.352H1084.05V138.716H1050.95Z" fill="#3360FF"/>
<path d="M1052.61 156.966C1050.78 156.966 1049.3 158.452 1049.3 160.284V164.432C1049.3 166.264 1050.78 167.75 1052.61 167.75H1082.39C1084.22 167.75 1085.7 166.264 1085.7 164.432V160.284C1085.7 158.452 1084.22 156.966 1082.39 156.966H1052.61Z" fill="#3360FF"/>
<path fill-rule="evenodd" clip-rule="evenodd" d="M1069.5 111.083C1069.5 110.255 1068.83 109.583 1068 109.583C1067.17 109.583 1066.5 110.255 1066.5 111.083V113.014C1051.19 113.428 1038.24 123.323 1033.27 137.057H1025.31C1023.48 137.057 1022 138.542 1022 140.375V158.625C1022 160.458 1023.48 161.943 1025.31 161.943H1033.27C1038.34 175.975 1051.75 186 1067.5 186C1083.25 186 1096.66 175.975 1101.73 161.943H1109.69C1111.52 161.943 1113 160.458 1113 158.625V140.375C1113 138.542 1111.52 137.057 1109.69 137.057H1101.73C1096.87 123.623 1084.37 113.862 1069.5 113.054V111.083ZM1067.5 119.636C1051.05 119.636 1037.72 133.007 1037.72 149.5C1037.72 165.993 1051.05 179.364 1067.5 179.364C1083.95 179.364 1097.28 165.993 1097.28 149.5C1097.28 133.007 1083.95 119.636 1067.5 119.636ZM1106.38 155.307H1103.9V143.693H1106.38V155.307ZM1028.62 155.307H1031.1V143.693H1028.62V155.307Z" fill="#3360FF"/>
<path d="M822 113.056C822 112.227 821.328 111.556 820.5 111.556C819.672 111.556 819 112.227 819 113.056V116.611C819 117.44 819.672 118.111 820.5 118.111C821.328 118.111 822 117.44 822 116.611V113.056Z" fill="#3360FF"/>
<path d="M996 119.633C996 118.805 995.328 118.133 994.5 118.133C993.672 118.133 993 118.805 993 119.633V123.767C993 124.595 993.672 125.267 994.5 125.267C995.328 125.267 996 124.595 996 123.767V119.633Z" fill="#3360FF"/>
<path d="M822 123.722C822 122.894 821.328 122.222 820.5 122.222C819.672 122.222 819 122.894 819 123.722V125.5C819 126.328 819.672 127 820.5 127H822.552C823.38 127 824.052 126.328 824.052 125.5C824.052 124.672 823.38 124 822.552 124H822V123.722Z" fill="#3360FF"/>
<path d="M830.76 124C829.932 124 829.26 124.672 829.26 125.5C829.26 126.328 829.932 127 830.76 127H834.865C835.693 127 836.365 126.328 836.365 125.5C836.365 124.672 835.693 124 834.865 124H830.76Z" fill="#3360FF"/>
<path d="M843.073 124C842.245 124 841.573 124.672 841.573 125.5C841.573 126.328 842.245 127 843.073 127H847.177C848.005 127 848.677 126.328 848.677 125.5C848.677 124.672 848.005 124 847.177 124H843.073Z" fill="#3360FF"/>
<path d="M855.385 124C854.557 124 853.885 124.672 853.885 125.5C853.885 126.328 854.557 127 855.385 127H859.49C860.318 127 860.99 126.328 860.99 125.5C860.99 124.672 860.318 124 859.49 124H855.385Z" fill="#3360FF"/>
<path d="M867.698 124C866.869 124 866.198 124.672 866.198 125.5C866.198 126.328 866.869 127 867.698 127H871.802C872.631 127 873.302 126.328 873.302 125.5C873.302 124.672 872.631 124 871.802 124H867.698Z" fill="#3360FF"/>
<path d="M880.01 124C879.182 124 878.51 124.672 878.51 125.5C878.51 126.328 879.182 127 880.01 127H884.115C884.943 127 885.615 126.328 885.615 125.5C885.615 124.672 884.943 124 884.115 124H880.01Z" fill="#3360FF"/>
<path d="M892.323 124C891.494 124 890.823 124.672 890.823 125.5C890.823 126.328 891.494 127 892.323 127H896.427C897.255 127 897.927 126.328 897.927 125.5C897.927 124.672 897.255 124 896.427 124H892.323Z" fill="#3360FF"/>
<path d="M904.635 124C903.807 124 903.135 124.672 903.135 125.5C903.135 126.328 903.807 127 904.635 127H908.74C909.568 127 910.24 126.328 910.24 125.5C910.24 124.672 909.568 124 908.74 124H904.635Z" fill="#3360FF"/>
<path d="M916.948 124C916.119 124 915.448 124.672 915.448 125.5C915.448 126.328 916.119 127 916.948 127H917.5V127.278C917.5 128.106 918.172 128.778 919 128.778C919.828 128.778 920.5 128.106 920.5 127.278V125.5C920.5 124.672 919.828 124 919 124H916.948Z" fill="#3360FF"/>
<path d="M996 132.033C996 131.205 995.328 130.533 994.5 130.533C993.672 130.533 993 131.205 993 132.033V136.167C993 136.995 993.672 137.667 994.5 137.667C995.328 137.667 996 136.995 996 136.167V132.033Z" fill="#3360FF"/>
<path d="M920.5 134.389C920.5 133.56 919.828 132.889 919 132.889C918.172 132.889 917.5 133.56 917.5 134.389V137.944C917.5 138.773 918.172 139.444 919 139.444C919.828 139.444 920.5 138.773 920.5 137.944V134.389Z" fill="#3360FF"/>
<path d="M996 144.433C996 143.605 995.328 142.933 994.5 142.933C993.672 142.933 993 143.605 993 144.433V148.567C993 149.395 993.672 150.067 994.5 150.067C995.328 150.067 996 149.395 996 148.567V144.433Z" fill="#3360FF"/>
<path d="M920.5 145.056C920.5 144.227 919.828 143.556 919 143.556C918.172 143.556 917.5 144.227 917.5 145.056V148.611C917.5 149.44 918.172 150.111 919 150.111C919.828 150.111 920.5 149.44 920.5 148.611V145.056Z" fill="#3360FF"/>
<path d="M920.5 155.722C920.5 154.894 919.828 154.222 919 154.222C918.172 154.222 917.5 154.894 917.5 155.722V157.5C917.5 158.328 918.172 159 919 159C919.828 159 920.5 158.328 920.5 157.5V155.722Z" fill="#3360FF"/>
<path d="M996 156.833C996 156.005 995.328 155.333 994.5 155.333C993.672 155.333 993 156.005 993 156.833V160.967C993 161.795 993.672 162.467 994.5 162.467C995.328 162.467 996 161.795 996 160.967V156.833Z" fill="#3360FF"/>
<path d="M996 169.233C996 168.405 995.328 167.733 994.5 167.733C993.672 167.733 993 168.405 993 169.233V173.367C993 174.195 993.672 174.867 994.5 174.867C995.328 174.867 996 174.195 996 173.367V169.233Z" fill="#3360FF"/>
<path d="M996 181.633C996 180.805 995.328 180.133 994.5 180.133C993.672 180.133 993 180.805 993 181.633V185.767C993 186.595 993.672 187.267 994.5 187.267C995.328 187.267 996 186.595 996 185.767V181.633Z" fill="#3360FF"/>
<path d="M693.609 127.102C691.782 127.102 690.3 128.588 690.3 130.42V134.568C690.3 136.401 691.782 137.886 693.609 137.886H723.391C725.218 137.886 726.7 136.401 726.7 134.568V130.42C726.7 128.588 725.218 127.102 723.391 127.102H693.609Z" fill="#3360FF"/>
<path fill-rule="evenodd" clip-rule="evenodd" d="M693.609 156.966C691.782 156.966 690.3 158.452 690.3 160.284V169.409C690.3 171.242 691.782 172.727 693.609 172.727H723.391C725.218 172.727 726.7 171.242 726.7 169.409V160.284C726.7 158.452 725.218 156.966 723.391 156.966H693.609ZM696.918 166.091V163.602H720.082V166.091H696.918Z" fill="#3360FF"/>
<path fill-rule="evenodd" clip-rule="evenodd" d="M704.364 149.5C704.364 146.751 706.586 144.523 709.327 144.523C712.069 144.523 714.291 146.751 714.291 149.5C714.291 152.249 712.069 154.477 709.327 154.477C706.586 154.477 704.364 152.249 704.364 149.5ZM709.327 151.159C710.241 151.159 710.982 150.416 710.982 149.5C710.982 148.584 710.241 147.841 709.327 147.841C708.413 147.841 707.673 148.584 707.673 149.5C707.673 150.416 708.413 151.159 709.327 151.159Z" fill="#3360FF"/>
<path fill-rule="evenodd" clip-rule="evenodd" d="M709 185.997C708.834 185.999 708.667 186 708.5 186C692.754 186 679.344 175.975 674.27 161.943H666.309C664.482 161.943 663 160.458 663 158.625V140.375C663 138.542 664.482 137.057 666.309 137.057H674.27C679.344 123.025 692.754 113 708.5 113C724.246 113 737.656 123.025 742.73 137.057H750.691C752.518 137.057 754 138.542 754 140.375V158.625C754 160.458 752.518 161.943 750.691 161.943H742.73C738.037 174.923 726.21 184.474 712 185.833V186.25C712 187.078 711.328 187.75 710.5 187.75C709.672 187.75 709 187.078 709 186.25V185.997ZM708.5 119.636C692.052 119.636 678.718 133.007 678.718 149.5C678.718 165.993 692.052 179.364 708.5 179.364C724.948 179.364 738.282 165.993 738.282 149.5C738.282 133.007 724.948 119.636 708.5 119.636ZM744.9 143.693H747.382V155.307H744.9V143.693ZM672.1 143.693V155.307H669.618V143.693H672.1Z" fill="#3360FF"/>
<path d="M770.5 186.5C769.672 186.5 769 187.172 769 188V190.139C769 190.967 769.672 191.639 770.5 191.639C771.328 191.639 772 190.967 772 190.139V189.5H772.333C773.162 189.5 773.833 188.828 773.833 188C773.833 187.172 773.162 186.5 772.333 186.5H770.5Z" fill="#3360FF"/>
<path d="M779.667 186.5C778.838 186.5 778.167 187.172 778.167 188C778.167 188.828 778.838 189.5 779.667 189.5H783.333C784.162 189.5 784.833 188.828 784.833 188C784.833 187.172 784.162 186.5 783.333 186.5H779.667Z" fill="#3360FF"/>
<path d="M790.667 186.5C789.838 186.5 789.167 187.172 789.167 188C789.167 188.828 789.838 189.5 790.667 189.5H794.333C795.162 189.5 795.833 188.828 795.833 188C795.833 187.172 795.162 186.5 794.333 186.5H790.667Z" fill="#3360FF"/>
<path d="M801.667 186.5C800.838 186.5 800.167 187.172 800.167 188C800.167 188.828 800.838 189.5 801.667 189.5H803.5C804.328 189.5 805 188.828 805 188C805 187.172 804.328 186.5 803.5 186.5H801.667Z" fill="#3360FF"/>
<path d="M712 193.25C712 192.422 711.328 191.75 710.5 191.75C709.672 191.75 709 192.422 709 193.25V196.75C709 197.578 709.672 198.25 710.5 198.25C711.328 198.25 712 197.578 712 196.75V193.25Z" fill="#3360FF"/>
<path d="M996 194.033C996 193.205 995.328 192.533 994.5 192.533C993.672 192.533 993 193.205 993 194.033V198.167C993 198.995 993.672 199.667 994.5 199.667C995.328 199.667 996 198.995 996 198.167V194.033Z" fill="#3360FF"/>
<path d="M772 198.694C772 197.866 771.328 197.194 770.5 197.194C769.672 197.194 769 197.866 769 198.694V202.972C769 203.801 769.672 204.472 770.5 204.472C771.328 204.472 772 203.801 772 202.972V198.694Z" fill="#3360FF"/>
<path d="M712 203.75C712 202.922 711.328 202.25 710.5 202.25C709.672 202.25 709 202.922 709 203.75V207.25C709 208.078 709.672 208.75 710.5 208.75C711.328 208.75 712 208.078 712 207.25V203.75Z" fill="#3360FF"/>
<path d="M996 206.433C996 205.605 995.328 204.933 994.5 204.933C993.672 204.933 993 205.605 993 206.433V207H992.688C991.859 207 991.188 207.672 991.188 208.5C991.188 209.328 991.859 210 992.688 210H994.5C995.328 210 996 209.328 996 208.5V206.433Z" fill="#3360FF"/>
<path d="M951 207C950.172 207 949.5 207.672 949.5 208.5C949.5 209.328 950.172 210 951 210H952.812C953.641 210 954.312 209.328 954.312 208.5C954.312 207.672 953.641 207 952.812 207H951Z" fill="#3360FF"/>
<path d="M960.062 207C959.234 207 958.562 207.672 958.562 208.5C958.562 209.328 959.234 210 960.062 210H963.688C964.516 210 965.188 209.328 965.188 208.5C965.188 207.672 964.516 207 963.688 207H960.062Z" fill="#3360FF"/>
<path d="M970.938 207C970.109 207 969.438 207.672 969.438 208.5C969.438 209.328 970.109 210 970.938 210H974.562C975.391 210 976.062 209.328 976.062 208.5C976.062 207.672 975.391 207 974.562 207H970.938Z" fill="#3360FF"/>
<path d="M981.812 207C980.984 207 980.312 207.672 980.312 208.5C980.312 209.328 980.984 210 981.812 210H985.438C986.266 210 986.938 209.328 986.938 208.5C986.938 207.672 986.266 207 985.438 207H981.812Z" fill="#3360FF"/>
<path d="M772 211.528C772 210.699 771.328 210.028 770.5 210.028C769.672 210.028 769 210.699 769 211.528V215.806C769 216.634 769.672 217.306 770.5 217.306C771.328 217.306 772 216.634 772 215.806V211.528Z" fill="#3360FF"/>
<path d="M712 214.25C712 213.422 711.328 212.75 710.5 212.75C709.672 212.75 709 213.422 709 214.25V217.75C709 218.578 709.672 219.25 710.5 219.25C711.328 219.25 712 218.578 712 217.75V214.25Z" fill="#3360FF"/>
<path d="M772 224.361C772 223.533 771.328 222.861 770.5 222.861C769.672 222.861 769 223.533 769 224.361V225H768.5C767.672 225 767 225.672 767 226.5C767 227.328 767.672 228 768.5 228H770.5C771.328 228 772 227.328 772 226.5V224.361Z" fill="#3360FF"/>
<path d="M712 224.75C712 223.922 711.328 223.25 710.5 223.25C709.672 223.25 709 223.922 709 224.75V226.5C709 227.328 709.672 228 710.5 228H712.5C713.328 228 714 227.328 714 226.5C714 225.672 713.328 225 712.5 225H712V224.75Z" fill="#3360FF"/>
<path d="M720.5 225C719.672 225 719 225.672 719 226.5C719 227.328 719.672 228 720.5 228H724.5C725.328 228 726 227.328 726 226.5C726 225.672 725.328 225 724.5 225H720.5Z" fill="#3360FF"/>
<path d="M732.5 225C731.672 225 731 225.672 731 226.5C731 227.328 731.672 228 732.5 228H736.5C737.328 228 738 227.328 738 226.5C738 225.672 737.328 225 736.5 225H732.5Z" fill="#3360FF"/>
<path d="M744.5 225C743.672 225 743 225.672 743 226.5C743 227.328 743.672 228 744.5 228H748.5C749.328 228 750 227.328 750 226.5C750 225.672 749.328 225 748.5 225H744.5Z" fill="#3360FF"/>
<path d="M756.5 225C755.672 225 755 225.672 755 226.5C755 227.328 755.672 228 756.5 228H760.5C761.328 228 762 227.328 762 226.5C762 225.672 761.328 225 760.5 225H756.5Z" fill="#3360FF"/>
<path d="M1048 261C1047.17 261 1046.5 261.672 1046.5 262.5V264.306C1046.5 265.134 1047.17 265.806 1048 265.806C1048.83 265.806 1049.5 265.134 1049.5 264.306V264H1049.89C1050.72 264 1051.39 263.328 1051.39 262.5C1051.39 261.672 1050.72 261 1049.89 261H1048Z" fill="#3360FF"/>
<path d="M1057.44 261C1056.62 261 1055.94 261.672 1055.94 262.5C1055.94 263.328 1056.62 264 1057.44 264H1061.22C1062.05 264 1062.72 263.328 1062.72 262.5C1062.72 261.672 1062.05 261 1061.22 261H1057.44Z" fill="#3360FF"/>
<path d="M1068.78 261C1067.95 261 1067.28 261.672 1067.28 262.5C1067.28 263.328 1067.95 264 1068.78 264H1072.56C1073.38 264 1074.06 263.328 1074.06 262.5C1074.06 261.672 1073.38 261 1072.56 261H1068.78Z" fill="#3360FF"/>
<path d="M1080.11 261C1079.28 261 1078.61 261.672 1078.61 262.5C1078.61 263.328 1079.28 264 1080.11 264H1080.5V264.548C1080.5 265.376 1081.17 266.048 1082 266.048C1082.83 266.048 1083.5 265.376 1083.5 264.548V262.5C1083.5 261.672 1082.83 261 1082 261H1080.11Z" fill="#3360FF"/>
<path d="M646.646 264C645.817 264 645.146 264.672 645.146 265.5C645.146 266.328 645.817 267 646.646 267H651.104C651.933 267 652.604 266.328 652.604 265.5C652.604 264.672 651.933 264 651.104 264H646.646Z" fill="#3360FF"/>
<path d="M660.021 264C659.192 264 658.521 264.672 658.521 265.5C658.521 266.328 659.192 267 660.021 267H664.479C665.308 267 665.979 266.328 665.979 265.5C665.979 264.672 665.308 264 664.479 264H660.021Z" fill="#3360FF"/>
<path d="M673.396 264C672.567 264 671.896 264.672 671.896 265.5C671.896 266.328 672.567 267 673.396 267H677.854C678.683 267 679.354 266.328 679.354 265.5C679.354 264.672 678.683 264 677.854 264H673.396Z" fill="#3360FF"/>
<path d="M686.771 264C685.942 264 685.271 264.672 685.271 265.5C685.271 266.328 685.942 267 686.771 267H687.5V267.521C687.5 268.349 688.172 269.021 689 269.021C689.828 269.021 690.5 268.349 690.5 267.521V265.5C690.5 264.672 689.828 264 689 264H686.771Z" fill="#3360FF"/>
<path d="M1049.5 271.528C1049.5 270.699 1048.83 270.028 1048 270.028C1047.17 270.028 1046.5 270.699 1046.5 271.528V275.139C1046.5 275.967 1047.17 276.639 1048 276.639C1048.83 276.639 1049.5 275.967 1049.5 275.139V271.528Z" fill="#3360FF"/>
<path d="M1083.5 272.738C1083.5 271.91 1082.83 271.238 1082 271.238C1081.17 271.238 1080.5 271.91 1080.5 272.738V276.833C1080.5 277.662 1081.17 278.333 1082 278.333C1082.83 278.333 1083.5 277.662 1083.5 276.833V272.738Z" fill="#3360FF"/>
<path d="M690.5 275.604C690.5 274.776 689.828 274.104 689 274.104C688.172 274.104 687.5 274.776 687.5 275.604V279.646C687.5 280.474 688.172 281.146 689 281.146C689.828 281.146 690.5 280.474 690.5 279.646V275.604Z" fill="#3360FF"/>
<path d="M1049.5 282.361C1049.5 281.533 1048.83 280.861 1048 280.861C1047.17 280.861 1046.5 281.533 1046.5 282.361V285.972C1046.5 286.801 1047.17 287.472 1048 287.472C1048.83 287.472 1049.5 286.801 1049.5 285.972V282.361Z" fill="#3360FF"/>
<path d="M1083.5 285.024C1083.5 284.195 1082.83 283.524 1082 283.524C1081.17 283.524 1080.5 284.195 1080.5 285.024V289.119C1080.5 289.947 1081.17 290.619 1082 290.619C1082.83 290.619 1083.5 289.947 1083.5 289.119V285.024Z" fill="#3360FF"/>
<path d="M690.5 287.729C690.5 286.901 689.828 286.229 689 286.229C688.172 286.229 687.5 286.901 687.5 287.729V291.771C687.5 292.599 688.172 293.271 689 293.271C689.828 293.271 690.5 292.599 690.5 291.771V287.729Z" fill="#3360FF"/>
<path d="M1049.5 293.194C1049.5 292.366 1048.83 291.694 1048 291.694C1047.17 291.694 1046.5 292.366 1046.5 293.194V293.5H1045.88C1045.05 293.5 1044.38 294.172 1044.38 295C1044.38 295.828 1045.05 296.5 1045.88 296.5H1048C1048.83 296.5 1049.5 295.828 1049.5 295V293.194Z" fill="#3360FF"/>
<path d="M959 293.5C958.172 293.5 957.5 294.172 957.5 295C957.5 295.828 958.172 296.5 959 296.5H961.119C961.947 296.5 962.619 295.828 962.619 295C962.619 294.172 961.947 293.5 961.119 293.5H959Z" fill="#3360FF"/>
<path d="M969.595 293.5C968.767 293.5 968.095 294.172 968.095 295C968.095 295.828 968.767 296.5 969.595 296.5H973.833C974.662 296.5 975.333 295.828 975.333 295C975.333 294.172 974.662 293.5 973.833 293.5H969.595Z" fill="#3360FF"/>
<path d="M982.31 293.5C981.481 293.5 980.81 294.172 980.81 295C980.81 295.828 981.481 296.5 982.31 296.5H986.548C987.376 296.5 988.048 295.828 988.048 295C988.048 294.172 987.376 293.5 986.548 293.5H982.31Z" fill="#3360FF"/>
<path d="M995.024 293.5C994.195 293.5 993.524 294.172 993.524 295C993.524 295.828 994.195 296.5 995.024 296.5H999.262C1000.09 296.5 1000.76 295.828 1000.76 295C1000.76 294.172 1000.09 293.5 999.262 293.5H995.024Z" fill="#3360FF"/>
<path d="M1007.74 293.5C1006.91 293.5 1006.24 294.172 1006.24 295C1006.24 295.828 1006.91 296.5 1007.74 296.5H1011.98C1012.8 296.5 1013.48 295.828 1013.48 295C1013.48 294.172 1012.8 293.5 1011.98 293.5H1007.74Z" fill="#3360FF"/>
<path d="M1020.45 293.5C1019.62 293.5 1018.95 294.172 1018.95 295C1018.95 295.828 1019.62 296.5 1020.45 296.5H1024.69C1025.52 296.5 1026.19 295.828 1026.19 295C1026.19 294.172 1025.52 293.5 1024.69 293.5H1020.45Z" fill="#3360FF"/>
<path d="M1033.17 293.5C1032.34 293.5 1031.67 294.172 1031.67 295C1031.67 295.828 1032.34 296.5 1033.17 296.5H1037.4C1038.23 296.5 1038.9 295.828 1038.9 295C1038.9 294.172 1038.23 293.5 1037.4 293.5H1033.17Z" fill="#3360FF"/>
<path d="M1083.5 297.31C1083.5 296.481 1082.83 295.81 1082 295.81C1081.17 295.81 1080.5 296.481 1080.5 297.31V301.405C1080.5 302.233 1081.17 302.905 1082 302.905C1082.83 302.905 1083.5 302.233 1083.5 301.405V297.31Z" fill="#3360FF"/>
<path d="M690.5 299.854C690.5 299.026 689.828 298.354 689 298.354C688.172 298.354 687.5 299.026 687.5 299.854V303.896C687.5 304.724 688.172 305.396 689 305.396C689.828 305.396 690.5 304.724 690.5 303.896V299.854Z" fill="#3360FF"/>
<path d="M1083.5 309.595C1083.5 308.767 1082.83 308.095 1082 308.095C1081.17 308.095 1080.5 308.767 1080.5 309.595V313.69C1080.5 314.519 1081.17 315.19 1082 315.19C1082.83 315.19 1083.5 314.519 1083.5 313.69V309.595Z" fill="#3360FF"/>
<path d="M690.5 311.979C690.5 311.151 689.828 310.479 689 310.479C688.172 310.479 687.5 311.151 687.5 311.979V314C687.5 314.828 688.172 315.5 689 315.5H691.065C691.893 315.5 692.565 314.828 692.565 314C692.565 313.172 691.893 312.5 691.065 312.5H690.5V311.979Z" fill="#3360FF"/>
<path d="M699.324 312.5C698.496 312.5 697.824 313.172 697.824 314C697.824 314.828 698.496 315.5 699.324 315.5H703.454C704.282 315.5 704.954 314.828 704.954 314C704.954 313.172 704.282 312.5 703.454 312.5H699.324Z" fill="#3360FF"/>
<path d="M711.713 312.5C710.885 312.5 710.213 313.172 710.213 314C710.213 314.828 710.885 315.5 711.713 315.5H715.843C716.671 315.5 717.343 314.828 717.343 314C717.343 313.172 716.671 312.5 715.843 312.5H711.713Z" fill="#3360FF"/>
<path d="M724.102 312.5C723.273 312.5 722.602 313.172 722.602 314C722.602 314.828 723.273 315.5 724.102 315.5H728.231C729.06 315.5 729.731 314.828 729.731 314C729.731 313.172 729.06 312.5 728.231 312.5H724.102Z" fill="#3360FF"/>
<path d="M736.491 312.5C735.662 312.5 734.991 313.172 734.991 314C734.991 314.828 735.662 315.5 736.491 315.5H740.62C741.449 315.5 742.12 314.828 742.12 314C742.12 313.172 741.449 312.5 740.62 312.5H736.491Z" fill="#3360FF"/>
<path d="M748.88 312.5C748.051 312.5 747.38 313.172 747.38 314C747.38 314.828 748.051 315.5 748.88 315.5H753.009C753.838 315.5 754.509 314.828 754.509 314C754.509 313.172 753.838 312.5 753.009 312.5H748.88Z" fill="#3360FF"/>
<path d="M761.269 312.5C760.44 312.5 759.769 313.172 759.769 314C759.769 314.828 760.44 315.5 761.269 315.5H765.398C766.227 315.5 766.898 314.828 766.898 314C766.898 313.172 766.227 312.5 765.398 312.5H761.269Z" fill="#3360FF"/>
<path d="M773.657 312.5C772.829 312.5 772.157 313.172 772.157 314C772.157 314.828 772.829 315.5 773.657 315.5H777.787C778.615 315.5 779.287 314.828 779.287 314C779.287 313.172 778.615 312.5 777.787 312.5H773.657Z" fill="#3360FF"/>
<path d="M786.046 312.5C785.218 312.5 784.546 313.172 784.546 314C784.546 314.828 785.218 315.5 786.046 315.5H790.176C791.004 315.5 791.676 314.828 791.676 314C791.676 313.172 791.004 312.5 790.176 312.5H786.046Z" fill="#3360FF"/>
<path d="M798.435 312.5C797.607 312.5 796.935 313.172 796.935 314C796.935 314.828 797.607 315.5 798.435 315.5H800.5C801.328 315.5 802 314.828 802 314C802 313.172 801.328 312.5 800.5 312.5H798.435Z" fill="#3360FF"/>
<path d="M1129.67 270.739C1129.67 268.906 1131.16 267.42 1133 267.42H1149.67C1151.51 267.42 1153 268.906 1153 270.739V272.398C1153 274.23 1151.51 275.716 1149.67 275.716H1133C1131.16 275.716 1129.67 274.23 1129.67 272.398V270.739Z" fill="#3360FF"/>
<path fill-rule="evenodd" clip-rule="evenodd" d="M1124.67 259.125C1122.83 259.125 1121.33 260.611 1121.33 262.443V286.5C1121.33 288.333 1122.83 289.818 1124.67 289.818H1171.33C1173.17 289.818 1174.67 288.333 1174.67 286.5V262.443C1174.67 260.611 1173.17 259.125 1171.33 259.125H1124.67ZM1128 283.182V265.761H1168V283.182H1128Z" fill="#3360FF"/>
<path fill-rule="evenodd" clip-rule="evenodd" d="M1148 323H1116.33C1114.49 323 1113 321.514 1113 319.682V253.318C1113 251.486 1114.49 250 1116.33 250H1179.67C1181.51 250 1183 251.486 1183 253.318V319.682C1183 321.514 1181.51 323 1179.67 323H1151V323.292C1151 324.12 1150.33 324.792 1149.5 324.792C1148.67 324.792 1148 324.12 1148 323.292V323ZM1176.33 292.307V256.636H1119.67V292.307H1176.33ZM1119.67 298.943V316.364H1176.33V298.943H1119.67Z" fill="#3360FF"/>
<path d="M1083.5 321.881C1083.5 321.053 1082.83 320.381 1082 320.381C1081.17 320.381 1080.5 321.053 1080.5 321.881V325.976C1080.5 326.805 1081.17 327.476 1082 327.476C1082.83 327.476 1083.5 326.805 1083.5 325.976V321.881Z" fill="#3360FF"/>
<path d="M1151 332.458C1151 331.63 1150.33 330.958 1149.5 330.958C1148.67 330.958 1148 331.63 1148 332.458V337.042C1148 337.87 1148.67 338.542 1149.5 338.542C1150.33 338.542 1151 337.87 1151 337.042V332.458Z" fill="#3360FF"/>
<path d="M1083.5 334.167C1083.5 333.338 1082.83 332.667 1082 332.667C1081.17 332.667 1080.5 333.338 1080.5 334.167V338.262C1080.5 339.09 1081.17 339.762 1082 339.762C1082.83 339.762 1083.5 339.09 1083.5 338.262V334.167Z" fill="#3360FF"/>
<path d="M1151 346.208C1151 345.38 1150.33 344.708 1149.5 344.708C1148.67 344.708 1148 345.38 1148 346.208V347H1147.62C1146.8 347 1146.12 347.672 1146.12 348.5C1146.12 349.328 1146.8 350 1147.62 350H1149.5C1150.33 350 1151 349.328 1151 348.5V346.208Z" fill="#3360FF"/>
<path d="M1083.5 346.452C1083.5 345.624 1082.83 344.952 1082 344.952C1081.17 344.952 1080.5 345.624 1080.5 346.452V348.5C1080.5 349.328 1081.17 350 1082 350H1083.88C1084.7 350 1085.38 349.328 1085.38 348.5C1085.38 347.672 1084.7 347 1083.88 347H1083.5V346.452Z" fill="#3360FF"/>
<path d="M1091.38 347C1090.55 347 1089.88 347.672 1089.88 348.5C1089.88 349.328 1090.55 350 1091.38 350H1095.12C1095.95 350 1096.62 349.328 1096.62 348.5C1096.62 347.672 1095.95 347 1095.12 347H1091.38Z" fill="#3360FF"/>
<path d="M1102.62 347C1101.8 347 1101.12 347.672 1101.12 348.5C1101.12 349.328 1101.8 350 1102.62 350H1106.38C1107.2 350 1107.88 349.328 1107.88 348.5C1107.88 347.672 1107.2 347 1106.38 347H1102.62Z" fill="#3360FF"/>
<path d="M1113.88 347C1113.05 347 1112.38 347.672 1112.38 348.5C1112.38 349.328 1113.05 350 1113.88 350H1117.62C1118.45 350 1119.12 349.328 1119.12 348.5C1119.12 347.672 1118.45 347 1117.62 347H1113.88Z" fill="#3360FF"/>
<path d="M1125.12 347C1124.3 347 1123.62 347.672 1123.62 348.5C1123.62 349.328 1124.3 350 1125.12 350H1128.88C1129.7 350 1130.38 349.328 1130.38 348.5C1130.38 347.672 1129.7 347 1128.88 347H1125.12Z" fill="#3360FF"/>
<path d="M1136.38 347C1135.55 347 1134.88 347.672 1134.88 348.5C1134.88 349.328 1135.55 350 1136.38 350H1140.12C1140.95 350 1141.62 349.328 1141.62 348.5C1141.62 347.672 1140.95 347 1140.12 347H1136.38Z" fill="#3360FF"/>
<path d="M959 373.5C958.172 373.5 957.5 374.172 957.5 375C957.5 375.828 958.172 376.5 959 376.5H960.85C961.678 376.5 962.35 375.828 962.35 375C962.35 374.172 961.678 373.5 960.85 373.5H959Z" fill="#3360FF"/>
<path d="M968.25 373.5C967.422 373.5 966.75 374.172 966.75 375C966.75 375.828 967.422 376.5 968.25 376.5H971.95C972.778 376.5 973.45 375.828 973.45 375C973.45 374.172 972.778 373.5 971.95 373.5H968.25Z" fill="#3360FF"/>
<path d="M979.35 373.5C978.522 373.5 977.85 374.172 977.85 375C977.85 375.828 978.522 376.5 979.35 376.5H983.05C983.878 376.5 984.55 375.828 984.55 375C984.55 374.172 983.878 373.5 983.05 373.5H979.35Z" fill="#3360FF"/>
<path d="M990.45 373.5C989.622 373.5 988.95 374.172 988.95 375C988.95 375.828 989.622 376.5 990.45 376.5H994.15C994.978 376.5 995.65 375.828 995.65 375C995.65 374.172 994.978 373.5 994.15 373.5H990.45Z" fill="#3360FF"/>
<path d="M1001.55 373.5C1000.72 373.5 1000.05 374.172 1000.05 375C1000.05 375.828 1000.72 376.5 1001.55 376.5H1005.25C1006.08 376.5 1006.75 375.828 1006.75 375C1006.75 374.172 1006.08 373.5 1005.25 373.5H1001.55Z" fill="#3360FF"/>
<path d="M1012.65 373.5C1011.82 373.5 1011.15 374.172 1011.15 375C1011.15 375.828 1011.82 376.5 1012.65 376.5H1013V377C1013 377.828 1013.67 378.5 1014.5 378.5C1015.33 378.5 1016 377.828 1016 377V375C1016 374.172 1015.33 373.5 1014.5 373.5H1012.65Z" fill="#3360FF"/>
<path d="M1016 385C1016 384.172 1015.33 383.5 1014.5 383.5C1013.67 383.5 1013 384.172 1013 385V389C1013 389.828 1013.67 390.5 1014.5 390.5C1015.33 390.5 1016 389.828 1016 389V385Z" fill="#3360FF"/>
<path d="M1016 397C1016 396.172 1015.33 395.5 1014.5 395.5C1013.67 395.5 1013 396.172 1013 397V401C1013 401.828 1013.67 402.5 1014.5 402.5C1015.33 402.5 1016 401.828 1016 401V397Z" fill="#3360FF"/>
<path d="M663.5 397C662.672 397 662 397.672 662 398.5V400.389C662 401.217 662.672 401.889 663.5 401.889C664.328 401.889 665 401.217 665 400.389V400H665.417C666.245 400 666.917 399.328 666.917 398.5C666.917 397.672 666.245 397 665.417 397H663.5Z" fill="#3360FF"/>
<path d="M673.083 397C672.255 397 671.583 397.672 671.583 398.5C671.583 399.328 672.255 400 673.083 400H676.917C677.745 400 678.417 399.328 678.417 398.5C678.417 397.672 677.745 397 676.917 397H673.083Z" fill="#3360FF"/>
<path d="M684.583 397C683.755 397 683.083 397.672 683.083 398.5C683.083 399.328 683.755 400 684.583 400H688.417C689.245 400 689.917 399.328 689.917 398.5C689.917 397.672 689.245 397 688.417 397H684.583Z" fill="#3360FF"/>
<path d="M696.083 397C695.255 397 694.583 397.672 694.583 398.5C694.583 399.328 695.255 400 696.083 400H699.917C700.745 400 701.417 399.328 701.417 398.5C701.417 397.672 700.745 397 699.917 397H696.083Z" fill="#3360FF"/>
<path d="M707.583 397C706.755 397 706.083 397.672 706.083 398.5C706.083 399.328 706.755 400 707.583 400H711.417C712.245 400 712.917 399.328 712.917 398.5C712.917 397.672 712.245 397 711.417 397H707.583Z" fill="#3360FF"/>
<path d="M719.083 397C718.255 397 717.583 397.672 717.583 398.5C717.583 399.328 718.255 400 719.083 400H722.917C723.745 400 724.417 399.328 724.417 398.5C724.417 397.672 723.745 397 722.917 397H719.083Z" fill="#3360FF"/>
<path d="M730.583 397C729.755 397 729.083 397.672 729.083 398.5C729.083 399.328 729.755 400 730.583 400H734.417C735.245 400 735.917 399.328 735.917 398.5C735.917 397.672 735.245 397 734.417 397H730.583Z" fill="#3360FF"/>
<path d="M742.083 397C741.255 397 740.583 397.672 740.583 398.5C740.583 399.328 741.255 400 742.083 400H745.917C746.745 400 747.417 399.328 747.417 398.5C747.417 397.672 746.745 397 745.917 397H742.083Z" fill="#3360FF"/>
<path d="M753.583 397C752.755 397 752.083 397.672 752.083 398.5C752.083 399.328 752.755 400 753.583 400H754V400.806C754 401.634 754.672 402.306 755.5 402.306C756.328 402.306 757 401.634 757 400.806V398.5C757 397.672 756.328 397 755.5 397H753.583Z" fill="#3360FF"/>
<path d="M665 407.944C665 407.116 664.328 406.444 663.5 406.444C662.672 406.444 662 407.116 662 407.944V411.722C662 412.551 662.672 413.222 663.5 413.222C664.328 413.222 665 412.551 665 411.722V407.944Z" fill="#3360FF"/>
<path d="M1016 409C1016 408.172 1015.33 407.5 1014.5 407.5C1013.67 407.5 1013 408.172 1013 409V413C1013 413.828 1013.67 414.5 1014.5 414.5C1015.33 414.5 1016 413.828 1016 413V409Z" fill="#3360FF"/>
<path d="M757 410.028C757 409.199 756.328 408.528 755.5 408.528C754.672 408.528 754 409.199 754 410.028V414.639C754 415.467 754.672 416.139 755.5 416.139C756.328 416.139 757 415.467 757 414.639V410.028Z" fill="#3360FF"/>
<path d="M665 419.278C665 418.449 664.328 417.778 663.5 417.778C662.672 417.778 662 418.449 662 419.278V423.056C662 423.884 662.672 424.556 663.5 424.556C664.328 424.556 665 423.884 665 423.056V419.278Z" fill="#3360FF"/>
<path d="M1066 418C1065.17 418 1064.5 418.672 1064.5 419.5V421.792C1064.5 422.62 1065.17 423.292 1066 423.292C1066.83 423.292 1067.5 422.62 1067.5 421.792V421H1068C1068.83 421 1069.5 420.328 1069.5 419.5C1069.5 418.672 1068.83 418 1068 418H1066Z" fill="#3360FF"/>
<path d="M1076 418C1075.17 418 1074.5 418.672 1074.5 419.5C1074.5 420.328 1075.17 421 1076 421H1080C1080.83 421 1081.5 420.328 1081.5 419.5C1081.5 418.672 1080.83 418 1080 418H1076Z" fill="#3360FF"/>
<path d="M1088 418C1087.17 418 1086.5 418.672 1086.5 419.5C1086.5 420.328 1087.17 421 1088 421H1092C1092.83 421 1093.5 420.328 1093.5 419.5C1093.5 418.672 1092.83 418 1092 418H1088Z" fill="#3360FF"/>
<path d="M1100 418C1099.17 418 1098.5 418.672 1098.5 419.5C1098.5 420.328 1099.17 421 1100 421H1104C1104.83 421 1105.5 420.328 1105.5 419.5C1105.5 418.672 1104.83 418 1104 418H1100Z" fill="#3360FF"/>
<path d="M1112 418C1111.17 418 1110.5 418.672 1110.5 419.5C1110.5 420.328 1111.17 421 1112 421H1116C1116.83 421 1117.5 420.328 1117.5 419.5C1117.5 418.672 1116.83 418 1116 418H1112Z" fill="#3360FF"/>
<path d="M1016 421C1016 420.172 1015.33 419.5 1014.5 419.5C1013.67 419.5 1013 420.172 1013 421V425C1013 425.828 1013.67 426.5 1014.5 426.5C1015.33 426.5 1016 425.828 1016 425V421Z" fill="#3360FF"/>
<path d="M757 423.861C757 423.033 756.328 422.361 755.5 422.361C754.672 422.361 754 423.033 754 423.861V428.472C754 429.301 754.672 429.972 755.5 429.972C756.328 429.972 757 429.301 757 428.472V423.861Z" fill="#3360FF"/>
<path d="M665 430.611C665 429.783 664.328 429.111 663.5 429.111C662.672 429.111 662 429.783 662 430.611V434.389C662 435.217 662.672 435.889 663.5 435.889C664.328 435.889 665 435.217 665 434.389V430.611Z" fill="#3360FF"/>
<path d="M1067.5 430.958C1067.5 430.13 1066.83 429.458 1066 429.458C1065.17 429.458 1064.5 430.13 1064.5 430.958V435.542C1064.5 436.37 1065.17 437.042 1066 437.042C1066.83 437.042 1067.5 436.37 1067.5 435.542V430.958Z" fill="#3360FF"/>
<path d="M1016 433C1016 432.172 1015.33 431.5 1014.5 431.5C1013.67 431.5 1013 432.172 1013 433V437C1013 437.828 1013.67 438.5 1014.5 438.5C1015.33 438.5 1016 437.828 1016 437V433Z" fill="#3360FF"/>
<path d="M757 437.694C757 436.866 756.328 436.194 755.5 436.194C754.672 436.194 754 436.866 754 437.694V440C754 440.828 754.672 441.5 755.5 441.5H757.375C758.203 441.5 758.875 440.828 758.875 440C758.875 439.172 758.203 438.5 757.375 438.5H757V437.694Z" fill="#3360FF"/>
<path d="M764.875 438.5C764.047 438.5 763.375 439.172 763.375 440C763.375 440.828 764.047 441.5 764.875 441.5H768.625C769.453 441.5 770.125 440.828 770.125 440C770.125 439.172 769.453 438.5 768.625 438.5H764.875Z" fill="#3360FF"/>
<path d="M776.125 438.5C775.297 438.5 774.625 439.172 774.625 440C774.625 440.828 775.297 441.5 776.125 441.5H779.875C780.703 441.5 781.375 440.828 781.375 440C781.375 439.172 780.703 438.5 779.875 438.5H776.125Z" fill="#3360FF"/>
<path d="M787.375 438.5C786.547 438.5 785.875 439.172 785.875 440C785.875 440.828 786.547 441.5 787.375 441.5H791.125C791.953 441.5 792.625 440.828 792.625 440C792.625 439.172 791.953 438.5 791.125 438.5H787.375Z" fill="#3360FF"/>
<path d="M798.625 438.5C797.797 438.5 797.125 439.172 797.125 440C797.125 440.828 797.797 441.5 798.625 441.5H800.5C801.328 441.5 802 440.828 802 440C802 439.172 801.328 438.5 800.5 438.5H798.625Z" fill="#3360FF"/>
<path d="M665 441.944C665 441.116 664.328 440.444 663.5 440.444C662.672 440.444 662 441.116 662 441.944V445.722C662 446.551 662.672 447.222 663.5 447.222C664.328 447.222 665 446.551 665 445.722V441.944Z" fill="#3360FF"/>
<path d="M1067.5 444.708C1067.5 443.88 1066.83 443.208 1066 443.208C1065.17 443.208 1064.5 443.88 1064.5 444.708V445.5H1063.85C1063.03 445.5 1062.35 446.172 1062.35 447C1062.35 447.828 1063.03 448.5 1063.85 448.5H1066C1066.83 448.5 1067.5 447.828 1067.5 447V444.708Z" fill="#3360FF"/>
<path d="M1016 445C1016 444.172 1015.33 443.5 1014.5 443.5C1013.67 443.5 1013 444.172 1013 445V447C1013 447.828 1013.67 448.5 1014.5 448.5H1016.65C1017.47 448.5 1018.15 447.828 1018.15 447C1018.15 446.172 1017.47 445.5 1016.65 445.5H1016V445Z" fill="#3360FF"/>
<path d="M580.667 394.739C580.667 392.906 582.159 391.42 584 391.42H600.667C602.508 391.42 604 392.906 604 394.739V396.398C604 398.23 602.508 399.716 600.667 399.716H584C582.159 399.716 580.667 398.23 580.667 396.398V394.739Z" fill="#3360FF"/>
<path fill-rule="evenodd" clip-rule="evenodd" d="M575.667 383.125C573.826 383.125 572.333 384.611 572.333 386.443V410.5C572.333 412.333 573.826 413.818 575.667 413.818H622.333C624.174 413.818 625.667 412.333 625.667 410.5V386.443C625.667 384.611 624.174 383.125 622.333 383.125H575.667ZM579 407.182V389.761H619V407.182H579Z" fill="#3360FF"/>
<path fill-rule="evenodd" clip-rule="evenodd" d="M597.5 447H567.333C565.492 447 564 445.514 564 443.682V377.318C564 375.486 565.492 374 567.333 374H630.667C632.508 374 634 375.486 634 377.318V443.682C634 445.514 632.508 447 630.667 447H600.5V447.708C600.5 448.537 599.828 449.208 599 449.208C598.172 449.208 597.5 448.537 597.5 447.708V447ZM627.333 416.307V380.636H570.667V416.307H627.333ZM570.667 422.943V440.364H627.333V422.943H570.667Z" fill="#3360FF"/>
<path d="M1025.23 445.5C1024.4 445.5 1023.73 446.172 1023.73 447C1023.73 447.828 1024.4 448.5 1025.23 448.5H1029.52C1030.35 448.5 1031.02 447.828 1031.02 447C1031.02 446.172 1030.35 445.5 1029.52 445.5H1025.23Z" fill="#3360FF"/>
<path d="M1038.1 445.5C1037.28 445.5 1036.6 446.172 1036.6 447C1036.6 447.828 1037.28 448.5 1038.1 448.5H1042.4C1043.22 448.5 1043.9 447.828 1043.9 447C1043.9 446.172 1043.22 445.5 1042.4 445.5H1038.1Z" fill="#3360FF"/>
<path d="M1050.98 445.5C1050.15 445.5 1049.48 446.172 1049.48 447C1049.48 447.828 1050.15 448.5 1050.98 448.5H1055.27C1056.1 448.5 1056.77 447.828 1056.77 447C1056.77 446.172 1056.1 445.5 1055.27 445.5H1050.98Z" fill="#3360FF"/>
<path d="M665 453.278C665 452.449 664.328 451.778 663.5 451.778C662.672 451.778 662 452.449 662 453.278V457.056C662 457.884 662.672 458.556 663.5 458.556C664.328 458.556 665 457.884 665 457.056V453.278Z" fill="#3360FF"/>
<path d="M600.5 454.542C600.5 453.713 599.828 453.042 599 453.042C598.172 453.042 597.5 453.713 597.5 454.542V457.958C597.5 458.787 598.172 459.458 599 459.458C599.828 459.458 600.5 458.787 600.5 457.958V454.542Z" fill="#3360FF"/>
<path d="M665 464.611C665 463.783 664.328 463.111 663.5 463.111C662.672 463.111 662 463.783 662 464.611V465H661.35C660.522 465 659.85 465.672 659.85 466.5C659.85 467.328 660.522 468 661.35 468H663.5C664.328 468 665 467.328 665 466.5V464.611Z" fill="#3360FF"/>
<path d="M600.5 464.792C600.5 463.963 599.828 463.292 599 463.292C598.172 463.292 597.5 463.963 597.5 464.792V466.5C597.5 467.328 598.172 468 599 468H601.15C601.978 468 602.65 467.328 602.65 466.5C602.65 465.672 601.978 465 601.15 465H600.5V464.792Z" fill="#3360FF"/>
<path d="M609.75 465C608.922 465 608.25 465.672 608.25 466.5C608.25 467.328 608.922 468 609.75 468H614.05C614.878 468 615.55 467.328 615.55 466.5C615.55 465.672 614.878 465 614.05 465H609.75Z" fill="#3360FF"/>
<path d="M622.65 465C621.822 465 621.15 465.672 621.15 466.5C621.15 467.328 621.822 468 622.65 468H626.95C627.778 468 628.45 467.328 628.45 466.5C628.45 465.672 627.778 465 626.95 465H622.65Z" fill="#3360FF"/>
<path d="M635.55 465C634.722 465 634.05 465.672 634.05 466.5C634.05 467.328 634.722 468 635.55 468H639.85C640.678 468 641.35 467.328 641.35 466.5C641.35 465.672 640.678 465 639.85 465H635.55Z" fill="#3360FF"/>
<path d="M648.45 465C647.622 465 646.95 465.672 646.95 466.5C646.95 467.328 647.622 468 648.45 468H652.75C653.578 468 654.25 467.328 654.25 466.5C654.25 465.672 653.578 465 652.75 465H648.45Z" fill="#3360FF"/>
<path d="M951 492.5C950.172 492.5 949.5 493.172 949.5 494C949.5 494.828 950.172 495.5 951 495.5H953.146C953.974 495.5 954.646 494.828 954.646 494C954.646 493.172 953.974 492.5 953.146 492.5H951Z" fill="#3360FF"/>
<path d="M961.729 492.5C960.901 492.5 960.229 493.172 960.229 494C960.229 494.828 960.901 495.5 961.729 495.5H966.021C966.849 495.5 967.521 494.828 967.521 494C967.521 493.172 966.849 492.5 966.021 492.5H961.729Z" fill="#3360FF"/>
<path d="M974.604 492.5C973.776 492.5 973.104 493.172 973.104 494C973.104 494.828 973.776 495.5 974.604 495.5H978.896C979.724 495.5 980.396 494.828 980.396 494C980.396 493.172 979.724 492.5 978.896 492.5H974.604Z" fill="#3360FF"/>
<path d="M987.479 492.5C986.651 492.5 985.979 493.172 985.979 494C985.979 494.828 986.651 495.5 987.479 495.5H991.771C992.599 495.5 993.271 494.828 993.271 494C993.271 493.172 992.599 492.5 991.771 492.5H987.479Z" fill="#3360FF"/>
<path d="M1000.35 492.5C999.526 492.5 998.854 493.172 998.854 494C998.854 494.828 999.526 495.5 1000.35 495.5H1001V496.056C1001 496.884 1001.67 497.556 1002.5 497.556C1003.33 497.556 1004 496.884 1004 496.056V494C1004 493.172 1003.33 492.5 1002.5 492.5H1000.35Z" fill="#3360FF"/>
<path d="M759.5 497C758.672 497 758 497.672 758 498.5V500.375C758 501.203 758.672 501.875 759.5 501.875C760.328 501.875 761 501.203 761 500.375V500H761.667C762.495 500 763.167 499.328 763.167 498.5C763.167 497.672 762.495 497 761.667 497H759.5Z" fill="#3360FF"/>
<path d="M770.333 497C769.505 497 768.833 497.672 768.833 498.5C768.833 499.328 769.505 500 770.333 500H774.667C775.495 500 776.167 499.328 776.167 498.5C776.167 497.672 775.495 497 774.667 497H770.333Z" fill="#3360FF"/>
<path d="M783.333 497C782.505 497 781.833 497.672 781.833 498.5C781.833 499.328 782.505 500 783.333 500H787.667C788.495 500 789.167 499.328 789.167 498.5C789.167 497.672 788.495 497 787.667 497H783.333Z" fill="#3360FF"/>
<path d="M796.333 497C795.505 497 794.833 497.672 794.833 498.5C794.833 499.328 795.505 500 796.333 500H800.667C801.495 500 802.167 499.328 802.167 498.5C802.167 497.672 801.495 497 800.667 497H796.333Z" fill="#3360FF"/>
<path d="M809.333 497C808.505 497 807.833 497.672 807.833 498.5C807.833 499.328 808.505 500 809.333 500H811.5C812.328 500 813 499.328 813 498.5C813 497.672 812.328 497 811.5 497H809.333Z" fill="#3360FF"/>
<path d="M1004 504.278C1004 503.449 1003.33 502.778 1002.5 502.778C1001.67 502.778 1001 503.449 1001 504.278V508.389C1001 509.217 1001.67 509.889 1002.5 509.889C1003.33 509.889 1004 509.217 1004 508.389V504.278Z" fill="#3360FF"/>
<path d="M761 507.875C761 507.047 760.328 506.375 759.5 506.375C758.672 506.375 758 507.047 758 507.875V511.625C758 512.453 758.672 513.125 759.5 513.125C760.328 513.125 761 512.453 761 511.625V507.875Z" fill="#3360FF"/>
<path d="M1004 516.611C1004 515.783 1003.33 515.111 1002.5 515.111C1001.67 515.111 1001 515.783 1001 516.611V520.722C1001 521.551 1001.67 522.222 1002.5 522.222C1003.33 522.222 1004 521.551 1004 520.722V516.611Z" fill="#3360FF"/>
<path d="M761 519.125C761 518.297 760.328 517.625 759.5 517.625C758.672 517.625 758 518.297 758 519.125V522.875C758 523.703 758.672 524.375 759.5 524.375C760.328 524.375 761 523.703 761 522.875V519.125Z" fill="#3360FF"/>
<path d="M1004 528.944C1004 528.116 1003.33 527.444 1002.5 527.444C1001.67 527.444 1001 528.116 1001 528.944V533.056C1001 533.884 1001.67 534.556 1002.5 534.556C1003.33 534.556 1004 533.884 1004 533.056V528.944Z" fill="#3360FF"/>
<path d="M761 530.375C761 529.547 760.328 528.875 759.5 528.875C758.672 528.875 758 529.547 758 530.375V534.125C758 534.953 758.672 535.625 759.5 535.625C760.328 535.625 761 534.953 761 534.125V530.375Z" fill="#3360FF"/>
<path d="M1004 541.278C1004 540.449 1003.33 539.778 1002.5 539.778C1001.67 539.778 1001 540.449 1001 541.278V545.389C1001 546.217 1001.67 546.889 1002.5 546.889C1003.33 546.889 1004 546.217 1004 545.389V541.278Z" fill="#3360FF"/>
<path d="M761 541.625C761 540.797 760.328 540.125 759.5 540.125C758.672 540.125 758 540.797 758 541.625V545.375C758 546.203 758.672 546.875 759.5 546.875C760.328 546.875 761 546.203 761 545.375V541.625Z" fill="#3360FF"/>
<path d="M913.5 544C913.5 543.172 912.828 542.5 912 542.5C911.172 542.5 910.5 543.172 910.5 544V545.812C910.5 546.641 911.172 547.312 912 547.312C912.828 547.312 913.5 546.641 913.5 545.812V544Z" fill="#3360FF"/>
<path d="M761 552.875C761 552.047 760.328 551.375 759.5 551.375C758.672 551.375 758 552.047 758 552.875V556.625C758 557.453 758.672 558.125 759.5 558.125C760.328 558.125 761 557.453 761 556.625V552.875Z" fill="#3360FF"/>
<path d="M913.5 553.062C913.5 552.234 912.828 551.562 912 551.562C911.172 551.562 910.5 552.234 910.5 553.062V556.688C910.5 557.516 911.172 558.188 912 558.188C912.828 558.188 913.5 557.516 913.5 556.688V553.062Z" fill="#3360FF"/>
<path d="M1004 553.611C1004 552.783 1003.33 552.111 1002.5 552.111C1001.67 552.111 1001 552.783 1001 553.611V557.722C1001 558.551 1001.67 559.222 1002.5 559.222C1003.33 559.222 1004 558.551 1004 557.722V553.611Z" fill="#3360FF"/>
<path d="M913.5 563.938C913.5 563.109 912.828 562.438 912 562.438C911.172 562.438 910.5 563.109 910.5 563.938V567.562C910.5 568.391 911.172 569.062 912 569.062C912.828 569.062 913.5 568.391 913.5 567.562V563.938Z" fill="#3360FF"/>
<path d="M761 564.125C761 563.297 760.328 562.625 759.5 562.625C758.672 562.625 758 563.297 758 564.125V567.875C758 568.703 758.672 569.375 759.5 569.375C760.328 569.375 761 568.703 761 567.875V564.125Z" fill="#3360FF"/>
<path d="M1004 565.944C1004 565.116 1003.33 564.444 1002.5 564.444C1001.67 564.444 1001 565.116 1001 565.944V570.056C1001 570.884 1001.67 571.556 1002.5 571.556C1003.33 571.556 1004 570.884 1004 570.056V565.944Z" fill="#3360FF"/>
<path d="M1056.3 517.182C1056.3 515.374 1057.78 513.909 1059.61 513.909H1089.39C1091.22 513.909 1092.7 515.374 1092.7 517.182V521.273C1092.7 523.08 1091.22 524.545 1089.39 524.545H1059.61C1057.78 524.545 1056.3 523.08 1056.3 521.273V517.182Z" fill="#3360FF"/>
<path fill-rule="evenodd" clip-rule="evenodd" d="M1056.3 546.636C1056.3 544.829 1057.78 543.364 1059.61 543.364H1089.39C1091.22 543.364 1092.7 544.829 1092.7 546.636V555.636C1092.7 557.444 1091.22 558.909 1089.39 558.909H1059.61C1057.78 558.909 1056.3 557.444 1056.3 555.636V546.636ZM1062.92 549.909V552.364H1086.08V549.909H1062.92Z" fill="#3360FF"/>
<path fill-rule="evenodd" clip-rule="evenodd" d="M1075.33 531.091C1072.59 531.091 1070.36 533.289 1070.36 536C1070.36 538.711 1072.59 540.909 1075.33 540.909C1078.07 540.909 1080.29 538.711 1080.29 536C1080.29 533.289 1078.07 531.091 1075.33 531.091ZM1076.98 536C1076.98 536.904 1076.24 537.636 1075.33 537.636C1074.41 537.636 1073.67 536.904 1073.67 536C1073.67 535.096 1074.41 534.364 1075.33 534.364C1076.24 534.364 1076.98 535.096 1076.98 536Z" fill="#3360FF"/>
<path fill-rule="evenodd" clip-rule="evenodd" d="M1074.71 571.999C1074.64 572 1074.57 572 1074.5 572C1058.75 572 1045.34 562.112 1040.27 548.273H1032.31C1030.48 548.273 1029 546.807 1029 545V527C1029 525.193 1030.48 523.727 1032.31 523.727H1040.27C1045.34 509.888 1058.75 500 1074.5 500C1090.25 500 1103.66 509.888 1108.73 523.727H1116.69C1118.52 523.727 1120 525.193 1120 527V545C1120 546.807 1118.52 548.273 1116.69 548.273H1108.73C1103.75 561.868 1090.72 571.649 1075.33 571.991C1075.28 572.003 1075.22 572.013 1075.16 572.019C1075.11 572.025 1075.06 572.028 1075 572.028C1074.9 572.028 1074.8 572.018 1074.71 571.999ZM1044.72 536C1044.72 519.733 1058.05 506.545 1074.5 506.545C1090.95 506.545 1104.28 519.733 1104.28 536C1104.28 552.267 1090.95 565.455 1074.5 565.455C1058.05 565.455 1044.72 552.267 1044.72 536ZM1113.38 530.273H1110.9V541.727H1113.38V530.273ZM1035.62 541.727H1038.1V530.273H1035.62V541.727Z" fill="#3360FF"/>
<path fill-rule="evenodd" clip-rule="evenodd" d="M674.645 518.818C672.818 518.818 671.336 520.283 671.336 522.091V535.182C671.336 536.989 672.818 538.455 674.645 538.455H714.355C716.182 538.455 717.664 536.989 717.664 535.182V522.091C717.664 520.283 716.182 518.818 714.355 518.818H674.645ZM677.955 531.909V525.364H711.045V531.909H677.955Z" fill="#3360FF"/>
<path d="M676.3 546.636C676.3 544.829 677.782 543.364 679.609 543.364H709.391C711.218 543.364 712.7 544.829 712.7 546.636V550.727C712.7 552.535 711.218 554 709.391 554H679.609C677.782 554 676.3 552.535 676.3 550.727V546.636Z" fill="#3360FF"/>
<path fill-rule="evenodd" clip-rule="evenodd" d="M695.796 571.978C695.366 571.992 694.934 572 694.5 572C678.754 572 665.344 562.112 660.27 548.273H652.309C650.482 548.273 649 546.807 649 545V527C649 525.193 650.482 523.727 652.309 523.727H660.27C665.344 509.888 678.754 500 694.5 500C710.246 500 723.656 509.888 728.73 523.727H736.691C738.518 523.727 740 525.193 740 527V545C740 546.807 738.518 548.273 736.691 548.273H728.73C724.071 560.98 712.385 570.355 698.316 571.805C698.061 572.269 697.567 572.583 697 572.583C696.507 572.583 696.069 572.345 695.796 571.978ZM664.718 536C664.718 519.733 678.052 506.545 694.5 506.545C710.948 506.545 724.282 519.733 724.282 536C724.282 552.267 710.948 565.455 694.5 565.455C678.052 565.455 664.718 552.267 664.718 536ZM730.9 541.727H733.382V530.273H730.9V541.727ZM658.1 541.727H655.618V530.273H658.1V541.727Z" fill="#3360FF"/>
<path d="M913.5 574.812C913.5 573.984 912.828 573.312 912 573.312C911.172 573.312 910.5 573.984 910.5 574.812V578.438C910.5 579.266 911.172 579.938 912 579.938C912.828 579.938 913.5 579.266 913.5 578.438V574.812Z" fill="#3360FF"/>
<path d="M761 575.375C761 574.547 760.328 573.875 759.5 573.875C758.672 573.875 758 574.547 758 575.375V579.125C758 579.953 758.672 580.625 759.5 580.625C760.328 580.625 761 579.953 761 579.125V575.375Z" fill="#3360FF"/>
<path d="M698.5 577.417C698.5 576.588 697.828 575.917 697 575.917C696.172 575.917 695.5 576.588 695.5 577.417V580.583C695.5 581.412 696.172 582.083 697 582.083C697.828 582.083 698.5 581.412 698.5 580.583V577.417Z" fill="#3360FF"/>
<path d="M1004 578.278C1004 577.449 1003.33 576.778 1002.5 576.778C1001.67 576.778 1001 577.449 1001 578.278V582.389C1001 583.217 1001.67 583.889 1002.5 583.889C1003.33 583.889 1004 583.217 1004 582.389V578.278Z" fill="#3360FF"/>
<path d="M1076.5 578.639C1076.5 577.81 1075.83 577.139 1075 577.139C1074.17 577.139 1073.5 577.81 1073.5 578.639V582.694C1073.5 583.523 1074.17 584.194 1075 584.194C1075.83 584.194 1076.5 583.523 1076.5 582.694V578.639Z" fill="#3360FF"/>
<path d="M913.5 585.688C913.5 584.859 912.828 584.188 912 584.188C911.172 584.188 910.5 584.859 910.5 585.688V586H909.903C909.074 586 908.403 586.672 908.403 587.5C908.403 588.328 909.074 589 909.903 589H912C912.828 589 913.5 588.328 913.5 587.5V585.688Z" fill="#3360FF"/>
<path d="M761 586.625C761 585.797 760.328 585.125 759.5 585.125C758.672 585.125 758 585.797 758 586.625V587H757.417C756.588 587 755.917 587.672 755.917 588.5C755.917 589.328 756.588 590 757.417 590H759.5C760.328 590 761 589.328 761 588.5V586.625Z" fill="#3360FF"/>
<path d="M698.5 586.917C698.5 586.088 697.828 585.417 697 585.417C696.172 585.417 695.5 586.088 695.5 586.917V588.5C695.5 589.328 696.172 590 697 590H699.083C699.912 590 700.583 589.328 700.583 588.5C700.583 587.672 699.912 587 699.083 587H698.5V586.917Z" fill="#3360FF"/>
<path d="M836.5 586C835.672 586 835 586.672 835 587.5V589.444C835 590.273 835.672 590.944 836.5 590.944C837.328 590.944 838 590.273 838 589.444V589H838.597C839.426 589 840.097 588.328 840.097 587.5C840.097 586.672 839.426 586 838.597 586H836.5Z" fill="#3360FF"/>
<path d="M846.986 586C846.158 586 845.486 586.672 845.486 587.5C845.486 588.328 846.158 589 846.986 589H851.181C852.009 589 852.681 588.328 852.681 587.5C852.681 586.672 852.009 586 851.181 586H846.986Z" fill="#3360FF"/>
<path d="M859.569 586C858.741 586 858.069 586.672 858.069 587.5C858.069 588.328 858.741 589 859.569 589H863.764C864.592 589 865.264 588.328 865.264 587.5C865.264 586.672 864.592 586 863.764 586H859.569Z" fill="#3360FF"/>
<path d="M872.153 586C871.324 586 870.653 586.672 870.653 587.5C870.653 588.328 871.324 589 872.153 589H876.347C877.176 589 877.847 588.328 877.847 587.5C877.847 586.672 877.176 586 876.347 586H872.153Z" fill="#3360FF"/>
<path d="M884.736 586C883.908 586 883.236 586.672 883.236 587.5C883.236 588.328 883.908 589 884.736 589H888.931C889.759 589 890.431 588.328 890.431 587.5C890.431 586.672 889.759 586 888.931 586H884.736Z" fill="#3360FF"/>
<path d="M897.319 586C896.491 586 895.819 586.672 895.819 587.5C895.819 588.328 896.491 589 897.319 589H901.514C902.342 589 903.014 588.328 903.014 587.5C903.014 586.672 902.342 586 901.514 586H897.319Z" fill="#3360FF"/>
<path d="M707.417 587C706.588 587 705.917 587.672 705.917 588.5C705.917 589.328 706.588 590 707.417 590H711.583C712.412 590 713.083 589.328 713.083 588.5C713.083 587.672 712.412 587 711.583 587H707.417Z" fill="#3360FF"/>
<path d="M719.917 587C719.088 587 718.417 587.672 718.417 588.5C718.417 589.328 719.088 590 719.917 590H724.083C724.912 590 725.583 589.328 725.583 588.5C725.583 587.672 724.912 587 724.083 587H719.917Z" fill="#3360FF"/>
<path d="M732.417 587C731.588 587 730.917 587.672 730.917 588.5C730.917 589.328 731.588 590 732.417 590H736.583C737.412 590 738.083 589.328 738.083 588.5C738.083 587.672 737.412 587 736.583 587H732.417Z" fill="#3360FF"/>
<path d="M744.917 587C744.088 587 743.417 587.672 743.417 588.5C743.417 589.328 744.088 590 744.917 590H749.083C749.912 590 750.583 589.328 750.583 588.5C750.583 587.672 749.912 587 749.083 587H744.917Z" fill="#3360FF"/>
<path d="M1004 590.611C1004 589.783 1003.33 589.111 1002.5 589.111C1001.67 589.111 1001 589.783 1001 590.611V594.722C1001 595.551 1001.67 596.222 1002.5 596.222C1003.33 596.222 1004 595.551 1004 594.722V590.611Z" fill="#3360FF"/>
<path d="M1076.5 590.806C1076.5 589.977 1075.83 589.306 1075 589.306C1074.17 589.306 1073.5 589.977 1073.5 590.806V594.861C1073.5 595.69 1074.17 596.361 1075 596.361C1075.83 596.361 1076.5 595.69 1076.5 594.861V590.806Z" fill="#3360FF"/>
<path d="M838 597.222C838 596.394 837.328 595.722 836.5 595.722C835.672 595.722 835 596.394 835 597.222V601.111C835 601.94 835.672 602.611 836.5 602.611C837.328 602.611 838 601.94 838 601.111V597.222Z" fill="#3360FF"/>
<path d="M1004 602.944C1004 602.116 1003.33 601.444 1002.5 601.444C1001.67 601.444 1001 602.116 1001 602.944V605C1001 605.828 1001.67 606.5 1002.5 606.5H1004.51C1005.34 606.5 1006.01 605.828 1006.01 605C1006.01 604.172 1005.34 603.5 1004.51 603.5H1004V602.944Z" fill="#3360FF"/>
<path d="M1076.5 602.972C1076.5 602.144 1075.83 601.472 1075 601.472C1074.17 601.472 1073.5 602.144 1073.5 602.972V603.5H1072.99C1072.16 603.5 1071.49 604.172 1071.49 605C1071.49 605.828 1072.16 606.5 1072.99 606.5H1075C1075.83 606.5 1076.5 605.828 1076.5 605V602.972Z" fill="#3360FF"/>
<path d="M1012.57 603.5C1011.74 603.5 1011.07 604.172 1011.07 605C1011.07 605.828 1011.74 606.5 1012.57 606.5H1016.6C1017.43 606.5 1018.1 605.828 1018.1 605C1018.1 604.172 1017.43 603.5 1016.6 603.5H1012.57Z" fill="#3360FF"/>
<path d="M1024.65 603.5C1023.82 603.5 1023.15 604.172 1023.15 605C1023.15 605.828 1023.82 606.5 1024.65 606.5H1028.68C1029.51 606.5 1030.18 605.828 1030.18 605C1030.18 604.172 1029.51 603.5 1028.68 603.5H1024.65Z" fill="#3360FF"/>
<path d="M1036.74 603.5C1035.91 603.5 1035.24 604.172 1035.24 605C1035.24 605.828 1035.91 606.5 1036.74 606.5H1040.76C1041.59 606.5 1042.26 605.828 1042.26 605C1042.26 604.172 1041.59 603.5 1040.76 603.5H1036.74Z" fill="#3360FF"/>
<path d="M1048.82 603.5C1047.99 603.5 1047.32 604.172 1047.32 605C1047.32 605.828 1047.99 606.5 1048.82 606.5H1052.85C1053.68 606.5 1054.35 605.828 1054.35 605C1054.35 604.172 1053.68 603.5 1052.85 603.5H1048.82Z" fill="#3360FF"/>
<path d="M1060.9 603.5C1060.07 603.5 1059.4 604.172 1059.4 605C1059.4 605.828 1060.07 606.5 1060.9 606.5H1064.93C1065.76 606.5 1066.43 605.828 1066.43 605C1066.43 604.172 1065.76 603.5 1064.93 603.5H1060.9Z" fill="#3360FF"/>
<path d="M838 608.889C838 608.06 837.328 607.389 836.5 607.389C835.672 607.389 835 608.06 835 608.889V612.778C835 613.606 835.672 614.278 836.5 614.278C837.328 614.278 838 613.606 838 612.778V608.889Z" fill="#3360FF"/>
<path d="M838 620.556C838 619.727 837.328 619.056 836.5 619.056C835.672 619.056 835 619.727 835 620.556V622.5C835 623.328 835.672 624 836.5 624H838.833C839.662 624 840.333 623.328 840.333 622.5C840.333 621.672 839.662 621 838.833 621H838V620.556Z" fill="#3360FF"/>
<path d="M848.167 621C847.338 621 846.667 621.672 846.667 622.5C846.667 623.328 847.338 624 848.167 624H852.833C853.662 624 854.333 623.328 854.333 622.5C854.333 621.672 853.662 621 852.833 621H848.167Z" fill="#3360FF"/>
<path d="M880 640C891.046 640 900 631.046 900 620C900 608.954 891.046 600 880 600C868.954 600 860 608.954 860 620C860 631.046 868.954 640 880 640Z" fill="#3360FF"/>
<path d="M640 264C640 275.046 631.046 284 620 284C608.954 284 600 275.046 600 264C600 252.954 608.954 244 620 244C631.046 244 640 252.954 640 264Z" fill="#3360FF"/>
<path d="M1140 440C1151.05 440 1160 431.046 1160 420C1160 408.954 1151.05 400 1140 400C1128.95 400 1120 408.954 1120 420C1120 431.046 1128.95 440 1140 440Z" fill="#3360FF"/>
</svg>
