<svg width="410" height="154" viewBox="0 0 410 154" fill="none" xmlns="http://www.w3.org/2000/svg">
<path d="M35.0001 0.5C34.1716 0.5 33.5001 1.17157 33.5001 2V3.92308C33.5001 4.75151 34.1716 5.42308 35.0001 5.42308C35.8285 5.42308 36.5001 4.75151 36.5001 3.92308V3.5H36.9723C37.8007 3.5 38.4723 2.82843 38.4723 2C38.4723 1.17157 37.8007 0.5 36.9723 0.5H35.0001Z" fill="#3360FF"/>
<path d="M44.8612 0.5C44.0327 0.5 43.3612 1.17157 43.3612 2C43.3612 2.82843 44.0327 3.5 44.8612 3.5H48.8056C49.634 3.5 50.3056 2.82843 50.3056 2C50.3056 1.17157 49.634 0.5 48.8056 0.5H44.8612Z" fill="#3360FF"/>
<path d="M56.6945 0.5C55.8661 0.5 55.1945 1.17157 55.1945 2C55.1945 2.82843 55.8661 3.5 56.6945 3.5H60.639C61.4674 3.5 62.139 2.82843 62.139 2C62.139 1.17157 61.4674 0.5 60.639 0.5H56.6945Z" fill="#3360FF"/>
<path d="M68.5278 0.5C67.6994 0.5 67.0278 1.17157 67.0278 2C67.0278 2.82843 67.6994 3.5 68.5278 3.5H72.4723C73.3007 3.5 73.9723 2.82843 73.9723 2C73.9723 1.17157 73.3007 0.5 72.4723 0.5H68.5278Z" fill="#3360FF"/>
<path d="M80.3612 0.5C79.5327 0.5 78.8612 1.17157 78.8612 2C78.8612 2.82843 79.5327 3.5 80.3612 3.5H84.3056C85.134 3.5 85.8056 2.82843 85.8056 2C85.8056 1.17157 85.134 0.5 84.3056 0.5H80.3612Z" fill="#3360FF"/>
<path d="M92.1945 0.5C91.3661 0.5 90.6945 1.17157 90.6945 2C90.6945 2.82843 91.3661 3.5 92.1945 3.5H96.1389C96.9674 3.5 97.6389 2.82843 97.6389 2C97.6389 1.17157 96.9674 0.5 96.1389 0.5H92.1945Z" fill="#3360FF"/>
<path d="M104.028 0.5C103.199 0.5 102.528 1.17157 102.528 2C102.528 2.82843 103.199 3.5 104.028 3.5H107.972C108.801 3.5 109.472 2.82843 109.472 2C109.472 1.17157 108.801 0.5 107.972 0.5H104.028Z" fill="#3360FF"/>
<path d="M115.861 0.5C115.033 0.5 114.361 1.17157 114.361 2C114.361 2.82843 115.033 3.5 115.861 3.5H119.806C120.634 3.5 121.306 2.82843 121.306 2C121.306 1.17157 120.634 0.5 119.806 0.5H115.861Z" fill="#3360FF"/>
<path d="M127.694 0.5C126.866 0.5 126.194 1.17157 126.194 2C126.194 2.82843 126.866 3.5 127.694 3.5H131.639C132.467 3.5 133.139 2.82843 133.139 2C133.139 1.17157 132.467 0.5 131.639 0.5H127.694Z" fill="#3360FF"/>
<path d="M139.528 0.5C138.699 0.5 138.028 1.17157 138.028 2C138.028 2.82843 138.699 3.5 139.528 3.5H143.472C144.301 3.5 144.972 2.82843 144.972 2C144.972 1.17157 144.301 0.5 143.472 0.5H139.528Z" fill="#3360FF"/>
<path d="M151.361 0.5C150.533 0.5 149.861 1.17157 149.861 2C149.861 2.82843 150.533 3.5 151.361 3.5H155.306C156.134 3.5 156.806 2.82843 156.806 2C156.806 1.17157 156.134 0.5 155.306 0.5H151.361Z" fill="#3360FF"/>
<path d="M163.194 0.5C162.366 0.5 161.694 1.17157 161.694 2C161.694 2.82843 162.366 3.5 163.194 3.5H167.139C167.967 3.5 168.639 2.82843 168.639 2C168.639 1.17157 167.967 0.5 167.139 0.5H163.194Z" fill="#3360FF"/>
<path d="M175.028 0.5C174.199 0.5 173.528 1.17157 173.528 2C173.528 2.82843 174.199 3.5 175.028 3.5H178.972C179.801 3.5 180.472 2.82843 180.472 2C180.472 1.17157 179.801 0.5 178.972 0.5H175.028Z" fill="#3360FF"/>
<path d="M186.861 0.5C186.033 0.5 185.361 1.17157 185.361 2C185.361 2.82843 186.033 3.5 186.861 3.5H190.806C191.634 3.5 192.306 2.82843 192.306 2C192.306 1.17157 191.634 0.5 190.806 0.5H186.861Z" fill="#3360FF"/>
<path d="M198.694 0.5C197.866 0.5 197.194 1.17157 197.194 2C197.194 2.82843 197.866 3.5 198.694 3.5H202.639C203.467 3.5 204.139 2.82843 204.139 2C204.139 1.17157 203.467 0.5 202.639 0.5H198.694Z" fill="#3360FF"/>
<path d="M210.528 0.5C209.699 0.5 209.028 1.17157 209.028 2C209.028 2.82843 209.699 3.5 210.528 3.5H214.472C215.301 3.5 215.972 2.82843 215.972 2C215.972 1.17157 215.301 0.5 214.472 0.5H210.528Z" fill="#3360FF"/>
<path d="M222.361 0.5C221.533 0.5 220.861 1.17157 220.861 2C220.861 2.82843 221.533 3.5 222.361 3.5H226.306C227.134 3.5 227.806 2.82843 227.806 2C227.806 1.17157 227.134 0.5 226.306 0.5H222.361Z" fill="#3360FF"/>
<path d="M234.194 0.5C233.366 0.5 232.694 1.17157 232.694 2C232.694 2.82843 233.366 3.5 234.194 3.5H238.139C238.967 3.5 239.639 2.82843 239.639 2C239.639 1.17157 238.967 0.5 238.139 0.5H234.194Z" fill="#3360FF"/>
<path d="M246.028 0.5C245.199 0.5 244.528 1.17157 244.528 2C244.528 2.82843 245.199 3.5 246.028 3.5H249.972C250.801 3.5 251.472 2.82843 251.472 2C251.472 1.17157 250.801 0.5 249.972 0.5H246.028Z" fill="#3360FF"/>
<path d="M257.861 0.5C257.033 0.5 256.361 1.17157 256.361 2C256.361 2.82843 257.033 3.5 257.861 3.5H261.806C262.634 3.5 263.306 2.82843 263.306 2C263.306 1.17157 262.634 0.5 261.806 0.5H257.861Z" fill="#3360FF"/>
<path d="M269.694 0.5C268.866 0.5 268.194 1.17157 268.194 2C268.194 2.82843 268.866 3.5 269.694 3.5H273.639C274.467 3.5 275.139 2.82843 275.139 2C275.139 1.17157 274.467 0.5 273.639 0.5H269.694Z" fill="#3360FF"/>
<path d="M281.528 0.5C280.699 0.5 280.028 1.17157 280.028 2C280.028 2.82843 280.699 3.5 281.528 3.5H285.472C286.301 3.5 286.972 2.82843 286.972 2C286.972 1.17157 286.301 0.5 285.472 0.5H281.528Z" fill="#3360FF"/>
<path d="M293.361 0.5C292.533 0.5 291.861 1.17157 291.861 2C291.861 2.82843 292.533 3.5 293.361 3.5H297.306C298.134 3.5 298.806 2.82843 298.806 2C298.806 1.17157 298.134 0.5 297.306 0.5H293.361Z" fill="#3360FF"/>
<path d="M305.194 0.5C304.366 0.5 303.694 1.17157 303.694 2C303.694 2.82843 304.366 3.5 305.194 3.5H309.139C309.967 3.5 310.639 2.82843 310.639 2C310.639 1.17157 309.967 0.5 309.139 0.5H305.194Z" fill="#3360FF"/>
<path d="M317.028 0.5C316.199 0.5 315.528 1.17157 315.528 2C315.528 2.82843 316.199 3.5 317.028 3.5H320.972C321.801 3.5 322.472 2.82843 322.472 2C322.472 1.17157 321.801 0.5 320.972 0.5H317.028Z" fill="#3360FF"/>
<path d="M328.861 0.5C328.033 0.5 327.361 1.17157 327.361 2C327.361 2.82843 328.033 3.5 328.861 3.5H332.806C333.634 3.5 334.306 2.82843 334.306 2C334.306 1.17157 333.634 0.5 332.806 0.5H328.861Z" fill="#3360FF"/>
<path d="M340.694 0.5C339.866 0.5 339.194 1.17157 339.194 2C339.194 2.82843 339.866 3.5 340.694 3.5H344.639C345.467 3.5 346.139 2.82843 346.139 2C346.139 1.17157 345.467 0.5 344.639 0.5H340.694Z" fill="#3360FF"/>
<path d="M352.528 0.5C351.699 0.5 351.028 1.17157 351.028 2C351.028 2.82843 351.699 3.5 352.528 3.5H356.472C357.301 3.5 357.972 2.82843 357.972 2C357.972 1.17157 357.301 0.5 356.472 0.5H352.528Z" fill="#3360FF"/>
<path d="M364.361 0.5C363.533 0.5 362.861 1.17157 362.861 2C362.861 2.82843 363.533 3.5 364.361 3.5H368.306C369.134 3.5 369.806 2.82843 369.806 2C369.806 1.17157 369.134 0.5 368.306 0.5H364.361Z" fill="#3360FF"/>
<path d="M376.194 0.5C375.366 0.5 374.694 1.17157 374.694 2C374.694 2.82843 375.366 3.5 376.194 3.5H380.139C380.967 3.5 381.639 2.82843 381.639 2C381.639 1.17157 380.967 0.5 380.139 0.5H376.194Z" fill="#3360FF"/>
<path d="M388.028 0.5C387.199 0.5 386.528 1.17157 386.528 2C386.528 2.82843 387.199 3.5 388.028 3.5H388.5V4.16667C388.5 4.99509 389.172 5.66667 390 5.66667C390.828 5.66667 391.5 4.99509 391.5 4.16667V2C391.5 1.17157 390.828 0.5 390 0.5H388.028Z" fill="#3360FF"/>
<path d="M36.5001 11.6154C36.5001 10.787 35.8285 10.1154 35.0001 10.1154C34.1716 10.1154 33.5001 10.787 33.5001 11.6154V15.4616C33.5001 16.29 34.1716 16.9616 35.0001 16.9616C35.8285 16.9616 36.5001 16.29 36.5001 15.4616V11.6154Z" fill="#3360FF"/>
<path d="M391.5 12.8333C391.5 12.0049 390.828 11.3333 390 11.3333C389.172 11.3333 388.5 12.0049 388.5 12.8333V17.1667C388.5 17.9951 389.172 18.6667 390 18.6667C390.828 18.6667 391.5 17.9951 391.5 17.1667V12.8333Z" fill="#3360FF"/>
<path d="M36.5001 23.1539C36.5001 22.3254 35.8285 21.6539 35.0001 21.6539C34.1716 21.6539 33.5001 22.3254 33.5001 23.1539V27C33.5001 27.8284 34.1716 28.5 35.0001 28.5C35.8285 28.5 36.5001 27.8284 36.5001 27V23.1539Z" fill="#3360FF"/>
<path d="M391.5 25.8333C391.5 25.0049 390.828 24.3333 390 24.3333C389.172 24.3333 388.5 25.0049 388.5 25.8333V30.1667C388.5 30.9951 389.172 31.6667 390 31.6667C390.828 31.6667 391.5 30.9951 391.5 30.1667V25.8333Z" fill="#3360FF"/>
<path d="M36.5001 34.6923C36.5001 33.8639 35.8285 33.1923 35.0001 33.1923C34.1716 33.1923 33.5001 33.8639 33.5001 34.6923V38.5385C33.5001 39.3669 34.1716 40.0385 35.0001 40.0385C35.8285 40.0385 36.5001 39.3669 36.5001 38.5385V34.6923Z" fill="#3360FF"/>
<path d="M36.5001 46.2308C36.5001 45.4024 35.8285 44.7308 35.0001 44.7308C34.1716 44.7308 33.5001 45.4024 33.5001 46.2308V50.0769C33.5001 50.9054 34.1716 51.5769 35.0001 51.5769C35.8285 51.5769 36.5001 50.9054 36.5001 50.0769V46.2308Z" fill="#3360FF"/>
<path d="M36.5001 57.7692C36.5001 56.9408 35.8285 56.2692 35.0001 56.2692C34.1716 56.2692 33.5001 56.9408 33.5001 57.7692V61.6154C33.5001 62.4438 34.1716 63.1154 35.0001 63.1154C35.8285 63.1154 36.5001 62.4438 36.5001 61.6154V57.7692Z" fill="#3360FF"/>
<path d="M36.5001 69.3077C36.5001 68.4793 35.8285 67.8077 35.0001 67.8077C34.1716 67.8077 33.5001 68.4793 33.5001 69.3077V73.1539C33.5001 73.9823 34.1716 74.6539 35.0001 74.6539C35.8285 74.6539 36.5001 73.9823 36.5001 73.1539V69.3077Z" fill="#3360FF"/>
<path d="M36.5001 80.8462C36.5001 80.0177 35.8285 79.3462 35.0001 79.3462C34.1716 79.3462 33.5001 80.0177 33.5001 80.8462V84.6923C33.5001 85.5207 34.1716 86.1923 35.0001 86.1923C35.8285 86.1923 36.5001 85.5207 36.5001 84.6923V80.8462Z" fill="#3360FF"/>
<path d="M36.5001 92.3846C36.5001 91.5562 35.8285 90.8846 35.0001 90.8846C34.1716 90.8846 33.5001 91.5562 33.5001 92.3846V96.2308C33.5001 97.0592 34.1716 97.7308 35.0001 97.7308C35.8285 97.7308 36.5001 97.0592 36.5001 96.2308V92.3846Z" fill="#3360FF"/>
<path d="M36.5001 103.923C36.5001 103.095 35.8285 102.423 35.0001 102.423C34.1716 102.423 33.5001 103.095 33.5001 103.923V107.769C33.5001 108.598 34.1716 109.269 35.0001 109.269C35.8285 109.269 36.5001 108.598 36.5001 107.769V103.923Z" fill="#3360FF"/>
<path d="M36.5001 115.462C36.5001 114.633 35.8285 113.962 35.0001 113.962C34.1716 113.962 33.5001 114.633 33.5001 115.462V119.308C33.5001 120.136 34.1716 120.808 35.0001 120.808C35.8285 120.808 36.5001 120.136 36.5001 119.308V115.462Z" fill="#3360FF"/>
<path d="M36.5001 127C36.5001 126.172 35.8285 125.5 35.0001 125.5C34.1716 125.5 33.5001 126.172 33.5001 127V130.846C33.5001 131.675 34.1716 132.346 35.0001 132.346C35.8285 132.346 36.5001 131.675 36.5001 130.846V127Z" fill="#3360FF"/>
<path d="M36.5001 138.538C36.5001 137.71 35.8285 137.038 35.0001 137.038C34.1716 137.038 33.5001 137.71 33.5001 138.538V142.385C33.5001 143.213 34.1716 143.885 35.0001 143.885C35.8285 143.885 36.5001 143.213 36.5001 142.385V138.538Z" fill="#3360FF"/>
<path d="M36.5001 150.077C36.5001 149.248 35.8285 148.577 35.0001 148.577C34.1716 148.577 33.5001 149.248 33.5001 150.077V150.5H33.1455C32.3171 150.5 31.6455 151.172 31.6455 152C31.6455 152.828 32.3171 153.5 33.1455 153.5H35.0001C35.8285 153.5 36.5001 152.828 36.5001 152V150.077Z" fill="#3360FF"/>
<path d="M1.61841 150.5C0.789981 150.5 0.118408 151.172 0.118408 152C0.118408 152.828 0.789981 153.5 1.61841 153.5H3.47294C4.30137 153.5 4.97294 152.828 4.97294 152C4.97294 151.172 4.30137 150.5 3.47294 150.5H1.61841Z" fill="#3360FF"/>
<path d="M10.8911 150.5C10.0627 150.5 9.39109 151.172 9.39109 152C9.39109 152.828 10.0627 153.5 10.8911 153.5H14.6002C15.4286 153.5 16.1002 152.828 16.1002 152C16.1002 151.172 15.4286 150.5 14.6002 150.5H10.8911Z" fill="#3360FF"/>
<path d="M22.0183 150.5C21.1899 150.5 20.5183 151.172 20.5183 152C20.5183 152.828 21.1899 153.5 22.0183 153.5H25.7274C26.5558 153.5 27.2274 152.828 27.2274 152C27.2274 151.172 26.5558 150.5 25.7274 150.5H22.0183Z" fill="#3360FF"/>
<path d="M390 72C401.046 72 410 63.0457 410 52C410 40.9543 401.046 32 390 32C378.954 32 370 40.9543 370 52C370 63.0457 378.954 72 390 72Z" fill="#3360FF"/>
</svg>
