<svg width="323" height="155" viewBox="0 0 323 155" fill="none" xmlns="http://www.w3.org/2000/svg">
<path d="M20.5 0.5C20.1022 0.5 19.7206 0.658035 19.4393 0.93934C19.158 1.22064 19 1.60218 19 2V4.30556C19 5.13398 19.6716 5.80556 20.5 5.80556C21.3284 5.80556 22 5.13398 22 4.30556V3.5H22.4958C23.3243 3.5 23.9958 2.82843 23.9958 2C23.9958 1.17157 23.3243 0.5 22.4958 0.5H20.5Z" fill="#3360FF"/>
<path d="M28.9792 2C28.9792 2.82843 29.6507 3.5 30.4792 3.5H34.4708C35.2993 3.5 35.9708 2.82843 35.9708 2C35.9708 1.17157 35.2993 0.5 34.4708 0.5H30.4792C29.6507 0.5 28.9792 1.17157 28.9792 2Z" fill="#3360FF"/>
<path d="M42.4542 0.5C41.6257 0.5 40.9542 1.17157 40.9542 2C40.9542 2.82843 41.6257 3.5 42.4542 3.5H46.4458C47.2743 3.5 47.9458 2.82843 47.9458 2C47.9458 1.17157 47.2743 0.5 46.4458 0.5H42.4542Z" fill="#3360FF"/>
<path d="M54.4292 0.5C53.6007 0.5 52.9292 1.17157 52.9292 2C52.9292 2.82843 53.6007 3.5 54.4292 3.5H58.4208C59.2493 3.5 59.9208 2.82843 59.9208 2C59.9208 1.17157 59.2493 0.5 58.4208 0.5H54.4292Z" fill="#3360FF"/>
<path d="M64.9042 2C64.9042 2.82843 65.5757 3.5 66.4042 3.5H70.3958C71.2243 3.5 71.8958 2.82843 71.8958 2C71.8958 1.17157 71.2243 0.5 70.3958 0.5H66.4042C65.5757 0.5 64.9042 1.17157 64.9042 2Z" fill="#3360FF"/>
<path d="M82.3708 0.5H78.3792C77.5507 0.5 76.8792 1.17157 76.8792 2C76.8792 2.82843 77.5507 3.5 78.3792 3.5H82.3708C83.1992 3.5 83.8708 2.82843 83.8708 2C83.8708 1.17157 83.1992 0.5 82.3708 0.5Z" fill="#3360FF"/>
<path d="M88.8542 2C88.8542 2.82843 89.5257 3.5 90.3542 3.5H94.3458C95.1743 3.5 95.8458 2.82843 95.8458 2C95.8458 1.17157 95.1743 0.5 94.3458 0.5H90.3542C89.5257 0.5 88.8542 1.17157 88.8542 2Z" fill="#3360FF"/>
<path d="M100.829 2C100.829 2.82843 101.501 3.5 102.329 3.5H106.321C107.149 3.5 107.821 2.82843 107.821 2C107.821 1.17157 107.149 0.5 106.321 0.5H102.329C101.501 0.5 100.829 1.17157 100.829 2Z" fill="#3360FF"/>
<path d="M114.304 0.5C113.476 0.5 112.804 1.17157 112.804 2C112.804 2.82843 113.476 3.5 114.304 3.5H118.296C119.124 3.5 119.796 2.82843 119.796 2C119.796 1.17157 119.124 0.5 118.296 0.5H114.304Z" fill="#3360FF"/>
<path d="M124.779 2C124.779 2.82843 125.451 3.5 126.279 3.5H130.271C131.099 3.5 131.771 2.82843 131.771 2C131.771 1.17157 131.099 0.5 130.271 0.5H126.279C125.451 0.5 124.779 1.17157 124.779 2Z" fill="#3360FF"/>
<path d="M136.754 2C136.754 2.82843 137.426 3.5 138.254 3.5H142.246C143.074 3.5 143.746 2.82843 143.746 2C143.746 1.17157 143.074 0.5 142.246 0.5H138.254C137.426 0.5 136.754 1.17157 136.754 2Z" fill="#3360FF"/>
<path d="M148.729 2C148.729 2.82843 149.401 3.5 150.229 3.5H154.221C155.049 3.5 155.721 2.82843 155.721 2C155.721 1.17157 155.049 0.5 154.221 0.5H150.229C149.401 0.5 148.729 1.17157 148.729 2Z" fill="#3360FF"/>
<path d="M160.704 2C160.704 2.82843 161.376 3.5 162.204 3.5H166.196C167.024 3.5 167.696 2.82843 167.696 2C167.696 1.17157 167.024 0.5 166.196 0.5H162.204C161.376 0.5 160.704 1.17157 160.704 2Z" fill="#3360FF"/>
<path d="M172.679 2C172.679 2.82843 173.351 3.5 174.179 3.5H178.171C178.999 3.5 179.671 2.82843 179.671 2C179.671 1.17157 178.999 0.5 178.171 0.5H174.179C173.351 0.5 172.679 1.17157 172.679 2Z" fill="#3360FF"/>
<path d="M186.154 0.5C185.326 0.5 184.654 1.17157 184.654 2C184.654 2.82843 185.326 3.5 186.154 3.5H190.146C190.974 3.5 191.646 2.82843 191.646 2C191.646 1.17157 190.974 0.5 190.146 0.5H186.154Z" fill="#3360FF"/>
<path d="M196.629 2C196.629 2.82843 197.301 3.5 198.129 3.5H202.121C202.949 3.5 203.621 2.82843 203.621 2C203.621 1.17157 202.949 0.5 202.121 0.5H198.129C197.301 0.5 196.629 1.17157 196.629 2Z" fill="#3360FF"/>
<path d="M208.604 2C208.604 2.82843 209.276 3.5 210.104 3.5H214.096C214.924 3.5 215.596 2.82843 215.596 2C215.596 1.17157 214.924 0.5 214.096 0.5H210.104C209.276 0.5 208.604 1.17157 208.604 2Z" fill="#3360FF"/>
<path d="M220.579 2C220.579 2.82843 221.251 3.5 222.079 3.5H226.071C226.899 3.5 227.571 2.82843 227.571 2C227.571 1.17157 226.899 0.5 226.071 0.5H222.079C221.251 0.5 220.579 1.17157 220.579 2Z" fill="#3360FF"/>
<path d="M234.054 0.5C233.226 0.5 232.554 1.17157 232.554 2C232.554 2.82843 233.226 3.5 234.054 3.5H238.046C238.874 3.5 239.546 2.82843 239.546 2C239.546 1.17157 238.874 0.5 238.046 0.5H234.054Z" fill="#3360FF"/>
<path d="M244.529 2C244.529 2.82843 245.201 3.5 246.029 3.5H250.021C250.849 3.5 251.521 2.82843 251.521 2C251.521 1.17157 250.849 0.5 250.021 0.5H246.029C245.201 0.5 244.529 1.17157 244.529 2Z" fill="#3360FF"/>
<path d="M256.504 2C256.504 2.82843 257.176 3.5 258.004 3.5H258.5V3.9359C258.5 4.76432 259.172 5.4359 260 5.4359C260.828 5.4359 261.5 4.76432 261.5 3.9359V2C261.5 1.17157 260.828 0.5 260 0.5H258.004C257.176 0.5 256.504 1.17157 256.504 2Z" fill="#3360FF"/>
<path d="M261.5 11.6795C261.5 10.8511 260.828 10.1795 260 10.1795C259.172 10.1795 258.5 10.8511 258.5 11.6795V15.5513C258.5 16.3797 259.172 17.0513 260 17.0513C260.828 17.0513 261.5 16.3797 261.5 15.5513V11.6795Z" fill="#3360FF"/>
<path d="M22 13.5278C22 12.6994 21.3284 12.0278 20.5 12.0278C19.6716 12.0278 19 12.6994 19 13.5278V15.0246C8.41889 15.5456 0 24.2896 0 35C0 46.0457 8.9543 55 20 55C31.0457 55 40 46.0457 40 35C40 24.6293 32.1066 16.1022 22 15.0988V13.5278Z" fill="#3360FF"/>
<path d="M261.5 23.2949C261.5 22.4664 260.828 21.7949 260 21.7949C259.172 21.7949 258.5 22.4664 258.5 23.2949V27.1667C258.5 27.9951 259.172 28.6667 260 28.6667C260.828 28.6667 261.5 27.9951 261.5 27.1667V23.2949Z" fill="#3360FF"/>
<path d="M261.5 34.9103C261.5 34.0818 260.828 33.4103 260 33.4103C259.172 33.4103 258.5 34.0818 258.5 34.9103V38.7821C258.5 39.6105 259.172 40.2821 260 40.2821C260.828 40.2821 261.5 39.6105 261.5 38.7821V34.9103Z" fill="#3360FF"/>
<path d="M261.5 46.5256C261.5 45.6972 260.828 45.0256 260 45.0256C259.172 45.0256 258.5 45.6972 258.5 46.5256V50.3974C258.5 51.2259 259.172 51.8974 260 51.8974C260.828 51.8974 261.5 51.2259 261.5 50.3974V46.5256Z" fill="#3360FF"/>
<path d="M261.5 58.141C261.5 57.3126 260.828 56.641 260 56.641C259.172 56.641 258.5 57.3126 258.5 58.141V62.0128C258.5 62.8413 259.172 63.5128 260 63.5128C260.828 63.5128 261.5 62.8413 261.5 62.0128V58.141Z" fill="#3360FF"/>
<path d="M261.5 69.7564C261.5 68.928 260.828 68.2564 260 68.2564C259.172 68.2564 258.5 68.928 258.5 69.7564V73.6282C258.5 74.4566 259.172 75.1282 260 75.1282C260.828 75.1282 261.5 74.4566 261.5 73.6282V69.7564Z" fill="#3360FF"/>
<path d="M261.5 81.3718C261.5 80.5434 260.828 79.8718 260 79.8718C259.172 79.8718 258.5 80.5434 258.5 81.3718V85.2436C258.5 86.072 259.172 86.7436 260 86.7436C260.828 86.7436 261.5 86.072 261.5 85.2436V81.3718Z" fill="#3360FF"/>
<path d="M261.5 92.9872C261.5 92.1588 260.828 91.4872 260 91.4872C259.172 91.4872 258.5 92.1588 258.5 92.9872V96.859C258.5 97.6874 259.172 98.359 260 98.359C260.828 98.359 261.5 97.6874 261.5 96.859V92.9872Z" fill="#3360FF"/>
<path d="M261.5 104.603C261.5 103.774 260.828 103.103 260 103.103C259.172 103.103 258.5 103.774 258.5 104.603V108.474C258.5 109.303 259.172 109.974 260 109.974C260.828 109.974 261.5 109.303 261.5 108.474V104.603Z" fill="#3360FF"/>
<path d="M261.5 116.218C261.5 115.39 260.828 114.718 260 114.718C259.172 114.718 258.5 115.39 258.5 116.218V120.09C258.5 120.918 259.172 121.59 260 121.59C260.828 121.59 261.5 120.918 261.5 120.09V116.218Z" fill="#3360FF"/>
<path d="M261.5 127.833C261.5 127.005 260.828 126.333 260 126.333C259.172 126.333 258.5 127.005 258.5 127.833V131.705C258.5 132.534 259.172 133.205 260 133.205C260.828 133.205 261.5 132.534 261.5 131.705V127.833Z" fill="#3360FF"/>
<path d="M261.5 139.449C261.5 138.62 260.828 137.949 260 137.949C259.172 137.949 258.5 138.62 258.5 139.449V143.321C258.5 144.149 259.172 144.821 260 144.821C260.828 144.821 261.5 144.149 261.5 143.321V139.449Z" fill="#3360FF"/>
<path d="M261.5 151.064C261.5 150.236 260.828 149.564 260 149.564C259.172 149.564 258.5 150.236 258.5 151.064V153C258.5 153.828 259.172 154.5 260 154.5H262.05C262.878 154.5 263.55 153.828 263.55 153C263.55 152.172 262.878 151.5 262.05 151.5H261.5V151.064Z" fill="#3360FF"/>
<path d="M270.25 151.5C269.422 151.5 268.75 152.172 268.75 153C268.75 153.828 269.422 154.5 270.25 154.5H274.35C275.178 154.5 275.85 153.828 275.85 153C275.85 152.172 275.178 151.5 274.35 151.5H270.25Z" fill="#3360FF"/>
<path d="M282.55 151.5C281.722 151.5 281.05 152.172 281.05 153C281.05 153.828 281.722 154.5 282.55 154.5H286.65C287.478 154.5 288.15 153.828 288.15 153C288.15 152.172 287.478 151.5 286.65 151.5H282.55Z" fill="#3360FF"/>
<path d="M294.85 151.5C294.022 151.5 293.35 152.172 293.35 153C293.35 153.828 294.022 154.5 294.85 154.5H298.95C299.778 154.5 300.45 153.828 300.45 153C300.45 152.172 299.778 151.5 298.95 151.5H294.85Z" fill="#3360FF"/>
<path d="M307.15 151.5C306.322 151.5 305.65 152.172 305.65 153C305.65 153.828 306.322 154.5 307.15 154.5H311.25C312.078 154.5 312.75 153.828 312.75 153C312.75 152.172 312.078 151.5 311.25 151.5H307.15Z" fill="#3360FF"/>
<path d="M319.45 151.5C318.622 151.5 317.95 152.172 317.95 153C317.95 153.828 318.622 154.5 319.45 154.5H321.5C322.328 154.5 323 153.828 323 153C323 152.172 322.328 151.5 321.5 151.5H319.45Z" fill="#3360FF"/>
</svg>
