<svg width="336" height="56" viewBox="0 0 336 56" fill="none" xmlns="http://www.w3.org/2000/svg">
<path d="M22.5249 42.2194C22.5249 41.3964 21.8526 40.7293 21.0233 40.7293C20.1939 40.7293 19.5216 41.3964 19.5216 42.2194V44.1234C19.5216 44.9463 20.1939 45.6135 21.0233 45.6135C21.8526 45.6135 22.5249 44.9463 22.5249 44.1234V42.2194Z" fill="#3360FF"/>
<path d="M22.5249 51.7394C22.5249 50.9165 21.8526 50.2493 21.0233 50.2493C20.1939 50.2493 19.5216 50.9165 19.5216 51.7394V53.6434C19.5216 54.4648 20.1914 55.1312 21.0191 55.1335L23.0158 55.139C23.8451 55.1413 24.5193 54.4761 24.5216 53.6531C24.5239 52.8302 23.8535 52.1612 23.0241 52.1589L22.5249 52.1575V51.7394Z" fill="#3360FF"/>
<path d="M31.0107 52.1809C30.1814 52.1787 29.5072 52.8439 29.5049 53.6669C29.5026 54.4898 30.173 55.1588 31.0024 55.1611L34.9957 55.1722C35.825 55.1745 36.4992 54.5092 36.5015 53.6862C36.5038 52.8633 35.8334 52.1943 35.0041 52.192L31.0107 52.1809Z" fill="#3360FF"/>
<path d="M42.9907 52.2141C42.1613 52.2118 41.4872 52.877 41.4848 53.7C41.4825 54.5229 42.153 55.1919 42.9823 55.1942L46.9756 55.2053C47.805 55.2076 48.4792 54.5423 48.4815 53.7193C48.4838 52.8964 47.8133 52.2274 46.984 52.2251L42.9907 52.2141Z" fill="#3360FF"/>
<path d="M54.9706 52.2472C54.1413 52.2449 53.4671 52.9102 53.4648 53.7331C53.4625 54.5561 54.1329 55.2251 54.9623 55.2273L58.9556 55.2384C59.7849 55.2407 60.4591 54.5754 60.4614 53.7525C60.4637 52.9295 59.7933 52.2605 58.9639 52.2582L54.9706 52.2472Z" fill="#3360FF"/>
<path d="M66.9506 52.2803C66.1212 52.278 65.447 52.9433 65.4447 53.7662C65.4424 54.5892 66.1129 55.2582 66.9422 55.2605L70.9355 55.2715C71.7648 55.2738 72.439 54.6085 72.4413 53.7856C72.4437 52.9626 71.7732 52.2936 70.9439 52.2913L66.9506 52.2803Z" fill="#3360FF"/>
<path d="M78.9305 52.3134C78.1012 52.3111 77.427 52.9764 77.4247 53.7993C77.4224 54.6223 78.0928 55.2913 78.9221 55.2936L82.9154 55.3046C83.7448 55.3069 84.419 54.6416 84.4213 53.8187C84.4236 52.9957 83.7531 52.3267 82.9238 52.3244L78.9305 52.3134Z" fill="#3360FF"/>
<path d="M90.9104 52.3465C90.0811 52.3442 89.4069 53.0095 89.4046 53.8325C89.4023 54.6554 90.0727 55.3244 90.9021 55.3267L94.8954 55.3377C95.7247 55.34 96.3989 54.6747 96.4012 53.8518C96.4035 53.0288 95.7331 52.3598 94.9037 52.3575L90.9104 52.3465Z" fill="#3360FF"/>
<path d="M102.89 52.3796C102.061 52.3773 101.387 53.0426 101.385 53.8656C101.382 54.6885 102.053 55.3575 102.882 55.3598L106.875 55.3708C107.705 55.3731 108.379 54.7079 108.381 53.8849C108.383 53.0619 107.713 52.393 106.884 52.3907L102.89 52.3796Z" fill="#3360FF"/>
<path d="M114.87 52.4127C114.041 52.4104 113.367 53.0757 113.364 53.8987C113.362 54.7216 114.033 55.3906 114.862 55.3929L118.855 55.404C119.685 55.4062 120.359 54.741 120.361 53.918C120.363 53.0951 119.693 52.4261 118.864 52.4238L114.87 52.4127Z" fill="#3360FF"/>
<path d="M126.85 52.4459C126.021 52.4436 125.347 53.1088 125.344 53.9318C125.342 54.7547 126.013 55.4237 126.842 55.426L130.835 55.4371C131.665 55.4394 132.339 54.7741 132.341 53.9511C132.343 53.1282 131.673 52.4592 130.844 52.4569L126.85 52.4459Z" fill="#3360FF"/>
<path d="M138.83 52.479C138.001 52.4767 137.327 53.142 137.324 53.9649C137.322 54.7879 137.992 55.4568 138.822 55.4591L142.815 55.4702C143.644 55.4725 144.319 54.8072 144.321 53.9842C144.323 53.1613 143.653 52.4923 142.823 52.49L138.83 52.479Z" fill="#3360FF"/>
<path d="M150.81 52.5121C149.981 52.5098 149.307 53.1751 149.304 53.998C149.302 54.821 149.972 55.49 150.802 55.4923L154.795 55.5033C155.624 55.5056 156.299 54.8403 156.301 54.0174C156.303 53.1944 155.633 52.5254 154.803 52.5231L150.81 52.5121Z" fill="#3360FF"/>
<path d="M162.79 52.5452C161.961 52.5429 161.287 53.2082 161.284 54.0311C161.282 54.8541 161.952 55.5231 162.782 55.5254L166.775 55.5364C167.604 55.5387 168.279 54.8734 168.281 54.0505C168.283 53.2275 167.613 52.5585 166.783 52.5562L162.79 52.5452Z" fill="#3360FF"/>
<path d="M174.77 52.5783C173.941 52.576 173.266 53.2413 173.264 54.0642C173.262 54.8872 173.932 55.5562 174.762 55.5585L178.755 55.5695C179.584 55.5718 180.258 54.9065 180.261 54.0836C180.263 53.2606 179.593 52.5916 178.763 52.5893L174.77 52.5783Z" fill="#3360FF"/>
<path d="M186.75 52.6114C185.921 52.6091 185.246 53.2744 185.244 54.0974C185.242 54.9203 185.912 55.5893 186.742 55.5916L190.735 55.6026C191.564 55.6049 192.238 54.9397 192.241 54.1167C192.243 53.2937 191.573 52.6247 190.743 52.6225L186.75 52.6114Z" fill="#3360FF"/>
<path d="M198.73 52.6445C197.901 52.6422 197.226 53.3075 197.224 54.1305C197.222 54.9534 197.892 55.6224 198.722 55.6247L202.715 55.6357C203.544 55.638 204.218 54.9728 204.221 54.1498C204.223 53.3269 203.553 52.6579 202.723 52.6556L198.73 52.6445Z" fill="#3360FF"/>
<path d="M210.71 52.6776C209.88 52.6754 209.206 53.3406 209.204 54.1636C209.202 54.9865 209.872 55.6555 210.701 55.6578L214.695 55.6689C215.524 55.6712 216.198 55.0059 216.201 54.1829C216.203 53.36 215.532 52.691 214.703 52.6887L210.71 52.6776Z" fill="#3360FF"/>
<path d="M222.69 52.7108C221.86 52.7085 221.186 53.3737 221.184 54.1967C221.182 55.0196 221.852 55.6886 222.681 55.6909L226.675 55.702C227.504 55.7043 228.178 55.039 228.181 54.216C228.183 53.3931 227.512 52.7241 226.683 52.7218L222.69 52.7108Z" fill="#3360FF"/>
<path d="M234.67 52.7439C233.84 52.7416 233.166 53.4069 233.164 54.2298C233.162 55.0528 233.832 55.7218 234.661 55.724L238.655 55.7351C239.484 55.7374 240.158 55.0721 240.16 54.2491C240.163 53.4262 239.492 52.7572 238.663 52.7549L234.67 52.7439Z" fill="#3360FF"/>
<path d="M246.65 52.777C245.82 52.7747 245.146 53.44 245.144 54.2629C245.142 55.0859 245.812 55.7549 246.641 55.7572L250.635 55.7682C251.464 55.7705 252.138 55.1052 252.14 54.2823C252.143 53.4593 251.472 52.7903 250.643 52.788L246.65 52.777Z" fill="#3360FF"/>
<path d="M258.63 52.8101C257.8 52.8078 257.126 53.4731 257.124 54.296C257.121 55.119 257.792 55.788 258.621 55.7903L262.615 55.8013C263.444 55.8036 264.118 55.1383 264.12 54.3154C264.123 53.4924 263.452 52.8234 262.623 52.8211L258.63 52.8101Z" fill="#3360FF"/>
<path d="M270.61 52.8432C269.78 52.8409 269.106 53.5062 269.104 54.3292C269.101 55.1521 269.772 55.8211 270.601 55.8234L274.595 55.8344C275.424 55.8367 276.098 55.1714 276.1 54.3485C276.103 53.5255 275.432 52.8565 274.603 52.8542L270.61 52.8432Z" fill="#3360FF"/>
<path d="M282.589 52.8763C281.76 52.874 281.086 53.5393 281.084 54.3623C281.081 55.1852 281.752 55.8542 282.581 55.8565L286.574 55.8675C287.404 55.8698 288.078 55.2046 288.08 54.3816C288.083 53.5586 287.412 52.8897 286.583 52.8874L282.589 52.8763Z" fill="#3360FF"/>
<path d="M294.569 52.9094C293.74 52.9071 293.066 53.5724 293.064 54.3954C293.061 55.2183 293.732 55.8873 294.561 55.8896L298.554 55.9007C299.384 55.9029 300.058 55.2377 300.06 54.4147C300.062 53.5918 299.392 52.9228 298.563 52.9205L294.569 52.9094Z" fill="#3360FF"/>
<path d="M306.549 52.9425C305.72 52.9403 305.046 53.6055 305.044 54.4285C305.041 55.2514 305.712 55.9204 306.541 55.9227L310.534 55.9338C311.364 55.9361 312.038 55.2708 312.04 54.4478C312.042 53.6249 311.372 52.9559 310.543 52.9536L306.549 52.9425Z" fill="#3360FF"/>
<path d="M318.529 52.9757C317.7 52.9734 317.026 53.6387 317.023 54.4616C317.021 55.2846 317.692 55.9535 318.521 55.9558L322.514 55.9669C323.344 55.9692 324.018 55.3039 324.02 54.4809C324.022 53.658 323.352 52.989 322.523 52.9867L318.529 52.9757Z" fill="#3360FF"/>
<path d="M330.509 53.0088C329.68 53.0065 329.006 53.6718 329.003 54.4947C329.001 55.3177 329.671 55.9867 330.501 55.989L334.494 56C335.323 56.0023 335.998 55.337 336 54.5141C336.002 53.6911 335.332 53.0221 334.503 53.0198L330.509 53.0088Z" fill="#3360FF"/>
<path d="M20.0222 39.7359C31.0801 39.7359 40.0444 30.8407 40.0444 19.8679C40.0444 8.89518 31.0801 0 20.0222 0C8.96423 0 0 8.89518 0 19.8679C0 30.8407 8.96423 39.7359 20.0222 39.7359Z" fill="#3360FF"/>
</svg>
