<svg width="228" height="55" viewBox="0 0 228 55" fill="none" xmlns="http://www.w3.org/2000/svg">
<path d="M20.5 0.5C20.1022 0.5 19.7206 0.658035 19.4393 0.93934C19.158 1.22064 19 1.60218 19 2V4.30556C19 5.13398 19.6716 5.80556 20.5 5.80556C21.3284 5.80556 22 5.13398 22 4.30556V3.5H22.4958C23.3243 3.5 23.9958 2.82843 23.9958 2C23.9958 1.17157 23.3243 0.5 22.4958 0.5H20.5Z" fill="#3360FF"/>
<path d="M28.9792 2C28.9792 2.82843 29.6507 3.5 30.4792 3.5H34.4708C35.2993 3.5 35.9708 2.82843 35.9708 2C35.9708 1.17157 35.2993 0.5 34.4708 0.5H30.4792C29.6507 0.5 28.9792 1.17157 28.9792 2Z" fill="#3360FF"/>
<path d="M42.4542 0.5C41.6257 0.5 40.9542 1.17157 40.9542 2C40.9542 2.82843 41.6257 3.5 42.4542 3.5H46.4458C47.2743 3.5 47.9458 2.82843 47.9458 2C47.9458 1.17157 47.2743 0.5 46.4458 0.5H42.4542Z" fill="#3360FF"/>
<path d="M54.4292 0.5C53.6007 0.5 52.9292 1.17157 52.9292 2C52.9292 2.82843 53.6007 3.5 54.4292 3.5H58.4208C59.2493 3.5 59.9208 2.82843 59.9208 2C59.9208 1.17157 59.2493 0.5 58.4208 0.5H54.4292Z" fill="#3360FF"/>
<path d="M64.9042 2C64.9042 2.82843 65.5757 3.5 66.4042 3.5H70.3958C71.2243 3.5 71.8958 2.82843 71.8958 2C71.8958 1.17157 71.2243 0.5 70.3958 0.5H66.4042C65.5757 0.5 64.9042 1.17157 64.9042 2Z" fill="#3360FF"/>
<path d="M82.3708 0.5H78.3792C77.5507 0.5 76.8792 1.17157 76.8792 2C76.8792 2.82843 77.5507 3.5 78.3792 3.5H82.3708C83.1992 3.5 83.8708 2.82843 83.8708 2C83.8708 1.17157 83.1992 0.5 82.3708 0.5Z" fill="#3360FF"/>
<path d="M88.8542 2C88.8542 2.82843 89.5257 3.5 90.3542 3.5H94.3458C95.1743 3.5 95.8458 2.82843 95.8458 2C95.8458 1.17157 95.1743 0.5 94.3458 0.5H90.3542C89.5257 0.5 88.8542 1.17157 88.8542 2Z" fill="#3360FF"/>
<path d="M100.829 2C100.829 2.82843 101.501 3.5 102.329 3.5H106.321C107.149 3.5 107.821 2.82843 107.821 2C107.821 1.17157 107.149 0.5 106.321 0.5H102.329C101.501 0.5 100.829 1.17157 100.829 2Z" fill="#3360FF"/>
<path d="M114.304 0.5C113.476 0.5 112.804 1.17157 112.804 2C112.804 2.82843 113.476 3.5 114.304 3.5H118.296C119.124 3.5 119.796 2.82843 119.796 2C119.796 1.17157 119.124 0.5 118.296 0.5H114.304Z" fill="#3360FF"/>
<path d="M124.779 2C124.779 2.82843 125.451 3.5 126.279 3.5H130.271C131.099 3.5 131.771 2.82843 131.771 2C131.771 1.17157 131.099 0.5 130.271 0.5H126.279C125.451 0.5 124.779 1.17157 124.779 2Z" fill="#3360FF"/>
<path d="M136.754 2C136.754 2.82843 137.426 3.5 138.254 3.5H142.246C143.074 3.5 143.746 2.82843 143.746 2C143.746 1.17157 143.074 0.5 142.246 0.5H138.254C137.426 0.5 136.754 1.17157 136.754 2Z" fill="#3360FF"/>
<path d="M148.729 2C148.729 2.82843 149.401 3.5 150.229 3.5H154.221C155.049 3.5 155.721 2.82843 155.721 2C155.721 1.17157 155.049 0.5 154.221 0.5H150.229C149.401 0.5 148.729 1.17157 148.729 2Z" fill="#3360FF"/>
<path d="M160.704 2C160.704 2.82843 161.376 3.5 162.204 3.5H166.196C167.024 3.5 167.696 2.82843 167.696 2C167.696 1.17157 167.024 0.5 166.196 0.5H162.204C161.376 0.5 160.704 1.17157 160.704 2Z" fill="#3360FF"/>
<path d="M172.679 2C172.679 2.82843 173.351 3.5 174.179 3.5H178.171C178.999 3.5 179.671 2.82843 179.671 2C179.671 1.17157 178.999 0.5 178.171 0.5H174.179C173.351 0.5 172.679 1.17157 172.679 2Z" fill="#3360FF"/>
<path d="M186.154 0.5C185.326 0.5 184.654 1.17157 184.654 2C184.654 2.82843 185.326 3.5 186.154 3.5H190.146C190.974 3.5 191.646 2.82843 191.646 2C191.646 1.17157 190.974 0.5 190.146 0.5H186.154Z" fill="#3360FF"/>
<path d="M196.629 2C196.629 2.82843 197.301 3.5 198.129 3.5H202.121C202.949 3.5 203.621 2.82843 203.621 2C203.621 1.17157 202.949 0.5 202.121 0.5H198.129C197.301 0.5 196.629 1.17157 196.629 2Z" fill="#3360FF"/>
<path d="M208.604 2C208.604 2.82843 209.276 3.5 210.104 3.5H214.096C214.924 3.5 215.596 2.82843 215.596 2C215.596 1.17157 214.924 0.5 214.096 0.5H210.104C209.276 0.5 208.604 1.17157 208.604 2Z" fill="#3360FF"/>
<path d="M220.579 2C220.579 2.82843 221.251 3.5 222.079 3.5H226.071C226.899 3.5 227.571 2.82843 227.571 2C227.571 1.17157 226.899 0.5 226.071 0.5H222.079C221.251 0.5 220.579 1.17157 220.579 2Z" fill="#3360FF"/>
<path d="M22 13.5278C22 12.6994 21.3284 12.0278 20.5 12.0278C19.6716 12.0278 19 12.6994 19 13.5278V15.0246C8.41889 15.5456 0 24.2896 0 35C0 46.0457 8.9543 55 20 55C31.0457 55 40 46.0457 40 35C40 24.6293 32.1066 16.1022 22 15.0988V13.5278Z" fill="#3360FF"/>
</svg>
