<svg width="430" height="85" viewBox="0 0 430 85" fill="none" xmlns="http://www.w3.org/2000/svg">
<path d="M380 0.5C379.172 0.5 378.5 1.17157 378.5 2V3.92856C378.5 4.75699 379.172 5.42856 380 5.42856C380.828 5.42856 381.5 4.75699 381.5 3.92856V3.5H382C382.828 3.5 383.5 2.82843 383.5 2C383.5 1.17157 382.828 0.5 382 0.5H380Z" fill="#3360FF"/>
<path d="M390 0.5C389.172 0.5 388.5 1.17157 388.5 2C388.5 2.82843 389.172 3.5 390 3.5H394C394.828 3.5 395.5 2.82843 395.5 2C395.5 1.17157 394.828 0.5 394 0.5H390Z" fill="#3360FF"/>
<path d="M402 0.5C401.172 0.5 400.5 1.17157 400.5 2C400.5 2.82843 401.172 3.5 402 3.5H406C406.828 3.5 407.5 2.82843 407.5 2C407.5 1.17157 406.828 0.5 406 0.5H402Z" fill="#3360FF"/>
<path d="M414 0.5C413.172 0.5 412.5 1.17157 412.5 2C412.5 2.82843 413.172 3.5 414 3.5H418C418.828 3.5 419.5 2.82843 419.5 2C419.5 1.17157 418.828 0.5 418 0.5H414Z" fill="#3360FF"/>
<path d="M426 0.5C425.172 0.5 424.5 1.17157 424.5 2C424.5 2.82843 425.172 3.5 426 3.5H428C428.828 3.5 429.5 2.82843 429.5 2C429.5 1.17157 428.828 0.5 428 0.5H426Z" fill="#3360FF"/>
<path d="M381.5 11.6429C381.5 10.8144 380.828 10.1429 380 10.1429C379.172 10.1429 378.5 10.8144 378.5 11.6429V15.5C378.5 16.3284 379.172 17 380 17C380.828 17 381.5 16.3284 381.5 15.5V11.6429Z" fill="#3360FF"/>
<path d="M381.5 23.2143C381.5 22.3859 380.828 21.7143 380 21.7143C379.172 21.7143 378.5 22.3859 378.5 23.2143V27.0714C378.5 27.8999 379.172 28.5714 380 28.5714C380.828 28.5714 381.5 27.8999 381.5 27.0714V23.2143Z" fill="#3360FF"/>
<path d="M381.5 34.7857C381.5 33.9573 380.828 33.2857 380 33.2857C379.172 33.2857 378.5 33.9573 378.5 34.7857V38.6429C378.5 39.4713 379.172 40.1429 380 40.1429C380.828 40.1429 381.5 39.4713 381.5 38.6429V34.7857Z" fill="#3360FF"/>
<path d="M381.5 46.3571C381.5 45.5287 380.828 44.8571 380 44.8571C379.172 44.8571 378.5 45.5287 378.5 46.3571V50.2143C378.5 51.0427 379.172 51.7143 380 51.7143C380.828 51.7143 381.5 51.0427 381.5 50.2143V46.3571Z" fill="#3360FF"/>
<path d="M381.5 57.9286C381.5 57.1001 380.828 56.4286 380 56.4286C379.172 56.4286 378.5 57.1001 378.5 57.9286V61.7857C378.5 62.6141 379.172 63.2857 380 63.2857C380.828 63.2857 381.5 62.6141 381.5 61.7857V57.9286Z" fill="#3360FF"/>
<path d="M381.5 69.5C381.5 68.6716 380.828 68 380 68C379.172 68 378.5 68.6716 378.5 69.5V73.3571C378.5 74.1856 379.172 74.8571 380 74.8571C380.828 74.8571 381.5 74.1856 381.5 73.3571V69.5Z" fill="#3360FF"/>
<path d="M22.5 70.5C22.5 69.6716 21.8284 69 21 69C20.1716 69 19.5 69.6716 19.5 70.5V72.4167C19.5 73.2451 20.1716 73.9167 21 73.9167C21.8284 73.9167 22.5 73.2451 22.5 72.4167V70.5Z" fill="#3360FF"/>
<path d="M22.5 80.0833C22.5 79.2549 21.8284 78.5833 21 78.5833C20.1716 78.5833 19.5 79.2549 19.5 80.0833V82C19.5 82.8268 20.169 83.4977 20.9958 83.5L22.9903 83.5055C23.8187 83.5079 24.4921 82.8382 24.4944 82.0097C24.4967 81.1813 23.827 80.5079 22.9986 80.5056L22.5 80.5042V80.0833Z" fill="#3360FF"/>
<path d="M381.5 81.0714C381.5 80.243 380.828 79.5714 380 79.5714C379.172 79.5714 378.5 80.243 378.5 81.0714V81.4958L378.01 81.4945C377.181 81.4921 376.508 82.1618 376.506 82.9903C376.503 83.8187 377.173 84.4921 378.001 84.4944L379.996 84.5C380.394 84.5011 380.777 84.3436 381.059 84.0621C381.341 83.7807 381.5 83.3986 381.5 83V81.0714Z" fill="#3360FF"/>
<path d="M30.9764 80.5278C30.148 80.5255 29.4745 81.1952 29.4722 82.0236C29.4699 82.852 30.1396 83.5255 30.968 83.5278L34.9569 83.5389C35.7854 83.5412 36.4588 82.8715 36.4611 82.0431C36.4634 81.2146 35.7937 80.5412 34.9653 80.5389L30.9764 80.5278Z" fill="#3360FF"/>
<path d="M42.9431 80.5611C42.1146 80.5588 41.4412 81.2285 41.4389 82.0569C41.4366 82.8854 42.1063 83.5588 42.9347 83.5611L46.9236 83.5722C47.752 83.5745 48.4255 82.9048 48.4278 82.0764C48.4301 81.248 47.7604 80.5745 46.932 80.5722L42.9431 80.5611Z" fill="#3360FF"/>
<path d="M54.9097 80.5945C54.0813 80.5921 53.4079 81.2618 53.4056 82.0903C53.4033 82.9187 54.073 83.5921 54.9014 83.5944L58.8903 83.6056C59.7187 83.6079 60.3921 82.9382 60.3944 82.1097C60.3967 81.2813 59.727 80.6079 58.8986 80.6056L54.9097 80.5945Z" fill="#3360FF"/>
<path d="M66.8764 80.6278C66.048 80.6255 65.3745 81.2952 65.3722 82.1236C65.3699 82.952 66.0396 83.6255 66.868 83.6278L70.8569 83.6389C71.6853 83.6412 72.3588 82.9715 72.3611 82.1431C72.3634 81.3146 71.6937 80.6412 70.8653 80.6389L66.8764 80.6278Z" fill="#3360FF"/>
<path d="M78.8431 80.6611C78.0146 80.6588 77.3412 81.3285 77.3389 82.1569C77.3366 82.9854 78.0063 83.6588 78.8347 83.6611L82.8236 83.6722C83.652 83.6745 84.3255 83.0048 84.3278 82.1764C84.3301 81.348 83.6604 80.6745 82.832 80.6722L78.8431 80.6611Z" fill="#3360FF"/>
<path d="M90.8097 80.6945C89.9813 80.6921 89.3079 81.3618 89.3056 82.1903C89.3033 83.0187 89.9729 83.6921 90.8014 83.6944L94.7903 83.7056C95.6187 83.7079 96.2921 83.0382 96.2944 82.2097C96.2967 81.3813 95.627 80.7079 94.7986 80.7056L90.8097 80.6945Z" fill="#3360FF"/>
<path d="M102.776 80.7278C101.948 80.7255 101.275 81.3952 101.272 82.2236C101.27 83.052 101.94 83.7255 102.768 83.7278L106.757 83.7389C107.585 83.7412 108.259 83.0715 108.261 82.2431C108.263 81.4146 107.594 80.7412 106.765 80.7389L102.776 80.7278Z" fill="#3360FF"/>
<path d="M114.743 80.7611C113.915 80.7588 113.241 81.4285 113.239 82.2569C113.237 83.0854 113.906 83.7588 114.735 83.7611L118.724 83.7722C119.552 83.7745 120.225 83.1048 120.228 82.2764C120.23 81.448 119.56 80.7745 118.732 80.7722L114.743 80.7611Z" fill="#3360FF"/>
<path d="M126.71 80.7944C125.881 80.7921 125.208 81.4618 125.206 82.2903C125.203 83.1187 125.873 83.7921 126.701 83.7944L130.69 83.8055C131.519 83.8079 132.192 83.1382 132.194 82.3097C132.197 81.4813 131.527 80.8079 130.699 80.8056L126.71 80.7944Z" fill="#3360FF"/>
<path d="M138.676 80.8278C137.848 80.8255 137.175 81.4952 137.172 82.3236C137.17 83.152 137.84 83.8255 138.668 83.8278L142.657 83.8389C143.485 83.8412 144.159 83.1715 144.161 82.3431C144.163 81.5146 143.494 80.8412 142.665 80.8389L138.676 80.8278Z" fill="#3360FF"/>
<path d="M150.643 80.8611C149.815 80.8588 149.141 81.5285 149.139 82.3569C149.137 83.1854 149.806 83.8588 150.635 83.8611L154.624 83.8722C155.452 83.8745 156.125 83.2048 156.128 82.3764C156.13 81.548 155.46 80.8745 154.632 80.8722L150.643 80.8611Z" fill="#3360FF"/>
<path d="M162.61 80.8944C161.781 80.8921 161.108 81.5618 161.106 82.3903C161.103 83.2187 161.773 83.8921 162.601 83.8944L166.59 83.9055C167.419 83.9079 168.092 83.2382 168.094 82.4097C168.097 81.5813 167.427 80.9079 166.599 80.9056L162.61 80.8944Z" fill="#3360FF"/>
<path d="M174.576 80.9278C173.748 80.9255 173.075 81.5952 173.072 82.4236C173.07 83.252 173.74 83.9255 174.568 83.9278L178.557 83.9389C179.385 83.9412 180.059 83.2715 180.061 82.4431C180.063 81.6146 179.394 80.9412 178.565 80.9389L174.576 80.9278Z" fill="#3360FF"/>
<path d="M186.543 80.9611C185.715 80.9588 185.041 81.6285 185.039 82.4569C185.037 83.2854 185.706 83.9588 186.535 83.9611L190.524 83.9722C191.352 83.9745 192.025 83.3048 192.028 82.4764C192.03 81.648 191.36 80.9745 190.532 80.9722L186.543 80.9611Z" fill="#3360FF"/>
<path d="M198.51 80.9945C197.681 80.9921 197.008 81.6618 197.006 82.4903C197.003 83.3187 197.673 83.9921 198.501 83.9944L202.49 84.0055C203.319 84.0079 203.992 83.3382 203.994 82.5097C203.997 81.6813 203.327 81.0079 202.499 81.0056L198.51 80.9945Z" fill="#3360FF"/>
<path d="M210.476 81.0278C209.648 81.0255 208.975 81.6952 208.972 82.5236C208.97 83.352 209.64 84.0255 210.468 84.0278L214.457 84.0389C215.285 84.0412 215.959 83.3715 215.961 82.5431C215.963 81.7146 215.294 81.0412 214.465 81.0389L210.476 81.0278Z" fill="#3360FF"/>
<path d="M222.443 81.0611C221.615 81.0588 220.941 81.7285 220.939 82.5569C220.937 83.3854 221.606 84.0588 222.435 84.0611L226.424 84.0722C227.252 84.0745 227.926 83.4048 227.928 82.5764C227.93 81.748 227.26 81.0745 226.432 81.0722L222.443 81.0611Z" fill="#3360FF"/>
<path d="M234.41 81.0945C233.581 81.0921 232.908 81.7618 232.906 82.5903C232.903 83.4187 233.573 84.0921 234.401 84.0944L238.39 84.1056C239.219 84.1079 239.892 83.4382 239.894 82.6097C239.897 81.7813 239.227 81.1079 238.399 81.1056L234.41 81.0945Z" fill="#3360FF"/>
<path d="M246.376 81.1278C245.548 81.1255 244.875 81.7952 244.872 82.6236C244.87 83.452 245.54 84.1255 246.368 84.1278L250.357 84.1389C251.185 84.1412 251.859 83.4715 251.861 82.6431C251.863 81.8146 251.194 81.1412 250.365 81.1389L246.376 81.1278Z" fill="#3360FF"/>
<path d="M258.343 81.1611C257.515 81.1588 256.841 81.8285 256.839 82.6569C256.837 83.4854 257.506 84.1588 258.335 84.1611L262.324 84.1722C263.152 84.1745 263.826 83.5048 263.828 82.6764C263.83 81.848 263.16 81.1745 262.332 81.1722L258.343 81.1611Z" fill="#3360FF"/>
<path d="M270.31 81.1945C269.481 81.1921 268.808 81.8618 268.806 82.6903C268.803 83.5187 269.473 84.1921 270.301 84.1944L274.29 84.2056C275.119 84.2079 275.792 83.5382 275.794 82.7097C275.797 81.8813 275.127 81.2079 274.299 81.2056L270.31 81.1945Z" fill="#3360FF"/>
<path d="M282.276 81.2278C281.448 81.2255 280.775 81.8952 280.772 82.7236C280.77 83.552 281.44 84.2255 282.268 84.2278L286.257 84.2389C287.085 84.2412 287.759 83.5715 287.761 82.7431C287.763 81.9146 287.094 81.2412 286.265 81.2389L282.276 81.2278Z" fill="#3360FF"/>
<path d="M294.243 81.2611C293.415 81.2588 292.741 81.9285 292.739 82.7569C292.737 83.5854 293.406 84.2588 294.235 84.2611L298.224 84.2722C299.052 84.2745 299.725 83.6048 299.728 82.7764C299.73 81.948 299.06 81.2745 298.232 81.2722L294.243 81.2611Z" fill="#3360FF"/>
<path d="M306.21 81.2944C305.381 81.2921 304.708 81.9618 304.706 82.7903C304.703 83.6187 305.373 84.2921 306.201 84.2944L310.19 84.3055C311.019 84.3079 311.692 83.6382 311.694 82.8097C311.697 81.9813 311.027 81.3079 310.199 81.3056L306.21 81.2944Z" fill="#3360FF"/>
<path d="M318.176 81.3278C317.348 81.3255 316.675 81.9952 316.672 82.8236C316.67 83.652 317.34 84.3255 318.168 84.3278L322.157 84.3389C322.985 84.3412 323.659 83.6715 323.661 82.8431C323.663 82.0146 322.994 81.3412 322.165 81.3389L318.176 81.3278Z" fill="#3360FF"/>
<path d="M330.143 81.3611C329.315 81.3588 328.641 82.0285 328.639 82.8569C328.637 83.6854 329.306 84.3588 330.135 84.3611L334.124 84.3722C334.952 84.3745 335.625 83.7048 335.628 82.8764C335.63 82.048 334.96 81.3745 334.132 81.3722L330.143 81.3611Z" fill="#3360FF"/>
<path d="M342.11 81.3944C341.281 81.3921 340.608 82.0618 340.606 82.8903C340.603 83.7187 341.273 84.3921 342.101 84.3944L346.09 84.4055C346.919 84.4079 347.592 83.7382 347.594 82.9097C347.597 82.0813 346.927 81.4079 346.099 81.4056L342.11 81.3944Z" fill="#3360FF"/>
<path d="M354.076 81.4278C353.248 81.4255 352.575 82.0952 352.572 82.9236C352.57 83.752 353.24 84.4255 354.068 84.4278L358.057 84.4389C358.885 84.4412 359.559 83.7715 359.561 82.9431C359.563 82.1146 358.894 81.4412 358.065 81.4389L354.076 81.4278Z" fill="#3360FF"/>
<path d="M366.043 81.4611C365.215 81.4588 364.541 82.1285 364.539 82.9569C364.537 83.7854 365.206 84.4588 366.035 84.4611L370.024 84.4722C370.852 84.4745 371.525 83.8048 371.528 82.9764C371.53 82.148 370.86 81.4745 370.032 81.4722L366.043 81.4611Z" fill="#3360FF"/>
<path d="M20 68C31.0457 68 40 59.0457 40 48C40 36.9543 31.0457 28 20 28C8.9543 28 0 36.9543 0 48C0 59.0457 8.9543 68 20 68Z" fill="#3360FF"/>
</svg>
