<svg width="214" height="62" viewBox="0 0 214 62" fill="none" xmlns="http://www.w3.org/2000/svg">
<path d="M193.048 40.3252C204.096 40.3252 213.053 31.2981 213.053 20.1626C213.053 9.0271 204.096 0 193.048 0C181.999 0 173.043 9.0271 173.043 20.1626C173.043 31.2981 181.999 40.3252 193.048 40.3252Z" fill="#3360FF"/>
<path d="M194.548 45.6899C194.548 44.8547 193.876 44.1777 193.048 44.1777C192.219 44.1777 191.547 44.8547 191.547 45.6899V49.5064C191.547 50.3415 192.219 51.0186 193.048 51.0186C193.876 51.0186 194.548 50.3415 194.548 49.5064V45.6899Z" fill="#3360FF"/>
<path d="M194.548 58.5796C194.548 57.7444 193.876 57.0674 193.048 57.0674C192.219 57.0674 191.547 57.7444 191.547 58.5796V58.9756H191.073C190.245 58.9756 189.573 59.6526 189.573 60.4878C189.573 61.323 190.245 62 191.073 62H193.048C193.876 62 194.548 61.323 194.548 60.4878V58.5796Z" fill="#3360FF"/>
<path d="M1.55298 58.9756C0.724356 58.9756 0.0526123 59.6526 0.0526123 60.4878C0.0526123 61.323 0.724356 62 1.55298 62H5.50133C6.32997 62 7.0017 61.323 7.0017 60.4878C7.0017 59.6526 6.32997 58.9756 5.50133 58.9756H1.55298Z" fill="#3360FF"/>
<path d="M13.398 58.9756C12.5694 58.9756 11.8976 59.6526 11.8976 60.4878C11.8976 61.323 12.5694 62 13.398 62H17.3464C18.175 62 18.8467 61.323 18.8467 60.4878C18.8467 59.6526 18.175 58.9756 17.3464 58.9756H13.398Z" fill="#3360FF"/>
<path d="M25.2431 58.9756C24.4144 58.9756 23.7427 59.6526 23.7427 60.4878C23.7427 61.323 24.4144 62 25.2431 62H29.1914C30.02 62 30.6918 61.323 30.6918 60.4878C30.6918 59.6526 30.02 58.9756 29.1914 58.9756H25.2431Z" fill="#3360FF"/>
<path d="M37.0881 58.9756C36.2595 58.9756 35.5877 59.6526 35.5877 60.4878C35.5877 61.323 36.2595 62 37.0881 62H41.0364C41.8651 62 42.5368 61.323 42.5368 60.4878C42.5368 59.6526 41.8651 58.9756 41.0364 58.9756H37.0881Z" fill="#3360FF"/>
<path d="M48.9331 58.9756C48.1045 58.9756 47.4327 59.6526 47.4327 60.4878C47.4327 61.323 48.1045 62 48.9331 62H52.8815C53.7101 62 54.3818 61.323 54.3818 60.4878C54.3818 59.6526 53.7101 58.9756 52.8815 58.9756H48.9331Z" fill="#3360FF"/>
<path d="M60.7781 58.9756C59.9495 58.9756 59.2778 59.6526 59.2778 60.4878C59.2778 61.323 59.9495 62 60.7781 62H64.7265C65.5551 62 66.2269 61.323 66.2269 60.4878C66.2269 59.6526 65.5551 58.9756 64.7265 58.9756H60.7781Z" fill="#3360FF"/>
<path d="M72.6232 58.9756C71.7945 58.9756 71.1228 59.6526 71.1228 60.4878C71.1228 61.323 71.7945 62 72.6232 62H76.5715C77.4001 62 78.0719 61.323 78.0719 60.4878C78.0719 59.6526 77.4001 58.9756 76.5715 58.9756H72.6232Z" fill="#3360FF"/>
<path d="M84.4682 58.9756C83.6396 58.9756 82.9678 59.6526 82.9678 60.4878C82.9678 61.323 83.6396 62 84.4682 62H88.4165C89.2452 62 89.9169 61.323 89.9169 60.4878C89.9169 59.6526 89.2452 58.9756 88.4165 58.9756H84.4682Z" fill="#3360FF"/>
<path d="M96.3132 58.9756C95.4846 58.9756 94.8129 59.6526 94.8129 60.4878C94.8129 61.323 95.4846 62 96.3132 62H100.262C101.09 62 101.762 61.323 101.762 60.4878C101.762 59.6526 101.09 58.9756 100.262 58.9756H96.3132Z" fill="#3360FF"/>
<path d="M108.158 58.9756C107.33 58.9756 106.658 59.6526 106.658 60.4878C106.658 61.323 107.33 62 108.158 62H112.107C112.935 62 113.607 61.323 113.607 60.4878C113.607 59.6526 112.935 58.9756 112.107 58.9756H108.158Z" fill="#3360FF"/>
<path d="M120.003 58.9756C119.175 58.9756 118.503 59.6526 118.503 60.4878C118.503 61.323 119.175 62 120.003 62H123.952C124.78 62 125.452 61.323 125.452 60.4878C125.452 59.6526 124.78 58.9756 123.952 58.9756H120.003Z" fill="#3360FF"/>
<path d="M131.848 58.9756C131.02 58.9756 130.348 59.6526 130.348 60.4878C130.348 61.323 131.02 62 131.848 62H135.797C136.625 62 137.297 61.323 137.297 60.4878C137.297 59.6526 136.625 58.9756 135.797 58.9756H131.848Z" fill="#3360FF"/>
<path d="M143.693 58.9756C142.865 58.9756 142.193 59.6526 142.193 60.4878C142.193 61.323 142.865 62 143.693 62H147.642C148.47 62 149.142 61.323 149.142 60.4878C149.142 59.6526 148.47 58.9756 147.642 58.9756H143.693Z" fill="#3360FF"/>
<path d="M155.538 58.9756C154.71 58.9756 154.038 59.6526 154.038 60.4878C154.038 61.323 154.71 62 155.538 62H159.487C160.315 62 160.987 61.323 160.987 60.4878C160.987 59.6526 160.315 58.9756 159.487 58.9756H155.538Z" fill="#3360FF"/>
<path d="M167.383 58.9756C166.555 58.9756 165.883 59.6526 165.883 60.4878C165.883 61.323 166.555 62 167.383 62H171.332C172.16 62 172.832 61.323 172.832 60.4878C172.832 59.6526 172.16 58.9756 171.332 58.9756H167.383Z" fill="#3360FF"/>
<path d="M179.228 58.9756C178.4 58.9756 177.728 59.6526 177.728 60.4878C177.728 61.323 178.4 62 179.228 62H183.177C184.005 62 184.677 61.323 184.677 60.4878C184.677 59.6526 184.005 58.9756 183.177 58.9756H179.228Z" fill="#3360FF"/>
</svg>
