<svg width="32" height="32" viewBox="0 0 32 32" fill="none" xmlns="http://www.w3.org/2000/svg">
<path d="M16 3L9.61656 7.76151V4.00527H3.86503V12.0511L1 14.1881L2.09816 15.6693L3.86503 14.3518V29.3158H28.135V14.3521L29.9018 15.6696L31 14.1884L16 3ZM16 5.3L26.2945 12.9789V27.4704H5.70552V12.9789L16 5.3ZM5.70552 5.85062H7.77607V9.13436L5.70552 10.6786V5.85062Z" fill="#3360FF"/>
<path d="M11.8592 11.543V13.6962H11.0923V14.4653H8.94507V15.0805H11.0923V16.0033H8.94507V16.6185H11.0923V17.5414H8.94507V18.1566H11.0923V19.0794H8.94507V19.6947H11.0923V20.6175H8.94507V21.2327H11.0923V22.1555H8.94507V22.7708H11.0923V23.5398H11.8592V25.6931H12.4727V23.5398H13.3929V25.6931H14.0064V23.5398H14.9267V25.6931H15.5402V23.5398H16.4604V25.6931H17.0739V23.5398H17.9942V25.6931H18.6076V23.5398H19.5279V25.6931H20.1414V23.5398H20.9083V22.7708H23.0555V22.1555H20.9083V21.2327H23.0555V20.6175H20.9083V19.6947H23.0555V19.0794H20.9083V18.1566H23.0555V17.5414H20.9083V16.6185H23.0555V16.0033H20.9083V15.0805H23.0555V14.4653H20.9083V13.6962H20.1414V11.543H19.5279V13.6962H18.6076V11.543H17.9942V13.6962H17.0739V11.543H16.4604V13.6962H15.5402V11.543H14.9267V13.6962H14.0064V11.543H13.3929V13.6962H12.4727V11.543H11.8592ZM11.7058 14.3115H20.2948V22.9246H11.7058V14.3115Z" fill="#3360FF"/>
<path d="M18.1469 15.6962H13.8524C13.3462 15.6962 12.9321 16.1114 12.9321 16.619V20.9256C12.9321 21.4331 13.3462 21.8484 13.8524 21.8484H18.1469C18.6561 21.8484 19.0671 21.4331 19.0671 20.9256V16.619C19.0671 16.1114 18.6561 15.6962 18.1469 15.6962Z" fill="#3360FF"/>
<path d="M12.1021 15.1448L12.5364 14.7103L12.9759 15.1496L12.5415 15.5841L12.1021 15.1448Z" fill="#3360FF"/>
<path d="M19.0254 22.0875L19.4598 21.6531L19.899 22.0923L19.4646 22.5267L19.0254 22.0875Z" fill="#3360FF"/>
</svg>
