<svg width="476" height="61" viewBox="0 0 476 61" fill="none" xmlns="http://www.w3.org/2000/svg">
<path d="M339.941 0.5C339.112 0.5 338.441 1.17157 338.441 2V4.16666C338.441 4.99509 339.112 5.66666 339.941 5.66666C340.769 5.66666 341.441 4.99509 341.441 4.16666V3.5H341.915C342.743 3.5 343.415 2.82843 343.415 2C343.415 1.17157 342.743 0.5 341.915 0.5H339.941Z" fill="#3360FF"/>
<path d="M349.81 0.5C348.982 0.5 348.31 1.17157 348.31 2C348.31 2.82843 348.982 3.5 349.81 3.5H353.758C354.586 3.5 355.258 2.82843 355.258 2C355.258 1.17157 354.586 0.5 353.758 0.5H349.81Z" fill="#3360FF"/>
<path d="M361.653 0.5C360.825 0.5 360.153 1.17157 360.153 2C360.153 2.82843 360.825 3.5 361.653 3.5H365.601C366.429 3.5 367.101 2.82843 367.101 2C367.101 1.17157 366.429 0.5 365.601 0.5H361.653Z" fill="#3360FF"/>
<path d="M373.496 0.5C372.668 0.5 371.996 1.17157 371.996 2C371.996 2.82843 372.668 3.5 373.496 3.5H377.444C378.273 3.5 378.944 2.82843 378.944 2C378.944 1.17157 378.273 0.5 377.444 0.5H373.496Z" fill="#3360FF"/>
<path d="M385.34 0.5C384.511 0.5 383.84 1.17157 383.84 2C383.84 2.82843 384.511 3.5 385.34 3.5H389.287C390.116 3.5 390.787 2.82843 390.787 2C390.787 1.17157 390.116 0.5 389.287 0.5H385.34Z" fill="#3360FF"/>
<path d="M397.183 0.5C396.354 0.5 395.683 1.17157 395.683 2C395.683 2.82843 396.354 3.5 397.183 3.5H401.131C401.959 3.5 402.631 2.82843 402.631 2C402.631 1.17157 401.959 0.5 401.131 0.5H397.183Z" fill="#3360FF"/>
<path d="M409.026 0.5C408.198 0.5 407.526 1.17157 407.526 2C407.526 2.82843 408.198 3.5 409.026 3.5H409.5V4.16718C409.5 4.9956 410.172 5.66718 411 5.66718C411.828 5.66718 412.5 4.9956 412.5 4.16718V2C412.5 1.17157 411.828 0.5 411 0.5H409.026Z" fill="#3360FF"/>
<path d="M341.441 12.8333C341.441 12.0049 340.769 11.3333 339.941 11.3333C339.112 11.3333 338.441 12.0049 338.441 12.8333V17.1667C338.441 17.9951 339.112 18.6667 339.941 18.6667C340.769 18.6667 341.441 17.9951 341.441 17.1667V12.8333Z" fill="#3360FF"/>
<path d="M412.5 12.8359C412.5 12.0075 411.828 11.3359 411 11.3359C410.172 11.3359 409.5 12.0075 409.5 12.8359V17.1702C409.5 17.9987 410.172 18.6702 411 18.6702C411.828 18.6702 412.5 17.9987 412.5 17.1702V12.8359Z" fill="#3360FF"/>
<path d="M341.441 25.8333C341.441 25.0049 340.769 24.3333 339.941 24.3333C339.112 24.3333 338.441 25.0049 338.441 25.8333V30.1667C338.441 30.9951 339.112 31.6667 339.941 31.6667C340.769 31.6667 341.441 30.9951 341.441 30.1667V25.8333Z" fill="#3360FF"/>
<path d="M412.5 25.8389C412.5 25.0105 411.828 24.3389 411 24.3389C410.172 24.3389 409.5 25.0105 409.5 25.8389V30.1733C409.5 31.0017 410.172 31.6733 411 31.6733C411.828 31.6733 412.5 31.0017 412.5 30.1733V25.8389Z" fill="#3360FF"/>
<path d="M341.441 38.8333C341.441 38.0049 340.769 37.3333 339.941 37.3333C339.112 37.3333 338.441 38.0049 338.441 38.8333V39.5H337.929C337.101 39.5 336.429 40.1716 336.429 41C336.429 41.8284 337.101 42.5 337.929 42.5H339.941C340.769 42.5 341.441 41.8284 341.441 41V38.8333Z" fill="#3360FF"/>
<path d="M412.5 38.842C412.5 38.0136 411.828 37.342 411 37.342C410.172 37.342 409.5 38.0136 409.5 38.842V41.0092C409.5 41.8376 410.172 42.5092 411 42.5092H412.875C413.703 42.5092 414.375 41.8376 414.375 41.0092C414.375 40.1807 413.703 39.5092 412.875 39.5092H412.5V38.842Z" fill="#3360FF"/>
<path d="M2 39.5C1.17157 39.5 0.5 40.1716 0.5 41C0.5 41.8284 1.17157 42.5 2 42.5H4.01155C4.83998 42.5 5.51155 41.8284 5.51155 41C5.51155 40.1716 4.83998 39.5 4.01155 39.5H2Z" fill="#3360FF"/>
<path d="M12.0578 39.5C11.2293 39.5 10.5578 40.1716 10.5578 41C10.5578 41.8284 11.2293 42.5 12.0578 42.5H16.0809C16.9093 42.5 17.5809 41.8284 17.5809 41C17.5809 40.1716 16.9093 39.5 16.0809 39.5H12.0578Z" fill="#3360FF"/>
<path d="M24.1271 39.5C23.2986 39.5 22.6271 40.1716 22.6271 41C22.6271 41.8284 23.2986 42.5 24.1271 42.5H28.1502C28.9786 42.5 29.6502 41.8284 29.6502 41C29.6502 40.1716 28.9786 39.5 28.1502 39.5H24.1271Z" fill="#3360FF"/>
<path d="M36.1964 39.5C35.368 39.5 34.6964 40.1716 34.6964 41C34.6964 41.8284 35.368 42.5 36.1964 42.5H40.2195C41.0479 42.5 41.7195 41.8284 41.7195 41C41.7195 40.1716 41.0479 39.5 40.2195 39.5H36.1964Z" fill="#3360FF"/>
<path d="M48.2657 39.5C47.4373 39.5 46.7657 40.1716 46.7657 41C46.7657 41.8284 47.4373 42.5 48.2657 42.5H52.2888C53.1172 42.5 53.7888 41.8284 53.7888 41C53.7888 40.1716 53.1172 39.5 52.2888 39.5H48.2657Z" fill="#3360FF"/>
<path d="M60.335 39.5C59.5066 39.5 58.835 40.1716 58.835 41C58.835 41.8284 59.5066 42.5 60.335 42.5H64.3581C65.1865 42.5 65.8581 41.8284 65.8581 41C65.8581 40.1716 65.1865 39.5 64.3581 39.5H60.335Z" fill="#3360FF"/>
<path d="M72.4043 39.5C71.5759 39.5 70.9043 40.1716 70.9043 41C70.9043 41.8284 71.5759 42.5 72.4043 42.5H76.4274C77.2559 42.5 77.9274 41.8284 77.9274 41C77.9274 40.1716 77.2559 39.5 76.4274 39.5H72.4043Z" fill="#3360FF"/>
<path d="M84.4736 39.5C83.6452 39.5 82.9736 40.1716 82.9736 41C82.9736 41.8284 83.6452 42.5 84.4736 42.5H88.4967C89.3252 42.5 89.9967 41.8284 89.9967 41C89.9967 40.1716 89.3252 39.5 88.4967 39.5H84.4736Z" fill="#3360FF"/>
<path d="M96.543 39.5C95.7145 39.5 95.043 40.1716 95.043 41C95.043 41.8284 95.7145 42.5 96.543 42.5H100.566C101.394 42.5 102.066 41.8284 102.066 41C102.066 40.1716 101.394 39.5 100.566 39.5H96.543Z" fill="#3360FF"/>
<path d="M108.612 39.5C107.784 39.5 107.112 40.1716 107.112 41C107.112 41.8284 107.784 42.5 108.612 42.5H112.635C113.464 42.5 114.135 41.8284 114.135 41C114.135 40.1716 113.464 39.5 112.635 39.5H108.612Z" fill="#3360FF"/>
<path d="M120.682 39.5C119.853 39.5 119.182 40.1716 119.182 41C119.182 41.8284 119.853 42.5 120.682 42.5H124.705C125.533 42.5 126.205 41.8284 126.205 41C126.205 40.1716 125.533 39.5 124.705 39.5H120.682Z" fill="#3360FF"/>
<path d="M132.751 39.5C131.922 39.5 131.251 40.1716 131.251 41C131.251 41.8284 131.922 42.5 132.751 42.5H136.774C137.602 42.5 138.274 41.8284 138.274 41C138.274 40.1716 137.602 39.5 136.774 39.5H132.751Z" fill="#3360FF"/>
<path d="M144.82 39.5C143.992 39.5 143.32 40.1716 143.32 41C143.32 41.8284 143.992 42.5 144.82 42.5H148.843C149.672 42.5 150.343 41.8284 150.343 41C150.343 40.1716 149.672 39.5 148.843 39.5H144.82Z" fill="#3360FF"/>
<path d="M156.889 39.5C156.061 39.5 155.389 40.1716 155.389 41C155.389 41.8284 156.061 42.5 156.889 42.5H160.913C161.741 42.5 162.413 41.8284 162.413 41C162.413 40.1716 161.741 39.5 160.913 39.5H156.889Z" fill="#3360FF"/>
<path d="M168.959 39.5C168.13 39.5 167.459 40.1716 167.459 41C167.459 41.8284 168.13 42.5 168.959 42.5H172.982C173.81 42.5 174.482 41.8284 174.482 41C174.482 40.1716 173.81 39.5 172.982 39.5H168.959Z" fill="#3360FF"/>
<path d="M181.028 39.5C180.2 39.5 179.528 40.1716 179.528 41C179.528 41.8284 180.2 42.5 181.028 42.5H185.051C185.88 42.5 186.551 41.8284 186.551 41C186.551 40.1716 185.88 39.5 185.051 39.5H181.028Z" fill="#3360FF"/>
<path d="M193.097 39.5C192.269 39.5 191.597 40.1716 191.597 41C191.597 41.8284 192.269 42.5 193.097 42.5H197.12C197.949 42.5 198.62 41.8284 198.62 41C198.62 40.1716 197.949 39.5 197.12 39.5H193.097Z" fill="#3360FF"/>
<path d="M205.167 39.5C204.338 39.5 203.667 40.1716 203.667 41C203.667 41.8284 204.338 42.5 205.167 42.5H209.19C210.018 42.5 210.69 41.8284 210.69 41C210.69 40.1716 210.018 39.5 209.19 39.5H205.167Z" fill="#3360FF"/>
<path d="M217.236 39.5C216.408 39.5 215.736 40.1716 215.736 41C215.736 41.8284 216.408 42.5 217.236 42.5H221.259C222.088 42.5 222.759 41.8284 222.759 41C222.759 40.1716 222.088 39.5 221.259 39.5H217.236Z" fill="#3360FF"/>
<path d="M229.305 39.5C228.477 39.5 227.805 40.1716 227.805 41C227.805 41.8284 228.477 42.5 229.305 42.5H233.328C234.157 42.5 234.828 41.8284 234.828 41C234.828 40.1716 234.157 39.5 233.328 39.5H229.305Z" fill="#3360FF"/>
<path d="M241.375 39.5C240.546 39.5 239.875 40.1716 239.875 41C239.875 41.8284 240.546 42.5 241.375 42.5H245.398C246.226 42.5 246.898 41.8284 246.898 41C246.898 40.1716 246.226 39.5 245.398 39.5H241.375Z" fill="#3360FF"/>
<path d="M253.444 39.5C252.616 39.5 251.944 40.1716 251.944 41C251.944 41.8284 252.616 42.5 253.444 42.5H257.467C258.295 42.5 258.967 41.8284 258.967 41C258.967 40.1716 258.295 39.5 257.467 39.5H253.444Z" fill="#3360FF"/>
<path d="M265.513 39.5C264.685 39.5 264.013 40.1716 264.013 41C264.013 41.8284 264.685 42.5 265.513 42.5H269.536C270.365 42.5 271.036 41.8284 271.036 41C271.036 40.1716 270.365 39.5 269.536 39.5H265.513Z" fill="#3360FF"/>
<path d="M277.583 39.5C276.754 39.5 276.083 40.1716 276.083 41C276.083 41.8284 276.754 42.5 277.583 42.5H281.606C282.434 42.5 283.106 41.8284 283.106 41C283.106 40.1716 282.434 39.5 281.606 39.5H277.583Z" fill="#3360FF"/>
<path d="M289.652 39.5C288.823 39.5 288.152 40.1716 288.152 41C288.152 41.8284 288.823 42.5 289.652 42.5H293.675C294.503 42.5 295.175 41.8284 295.175 41C295.175 40.1716 294.503 39.5 293.675 39.5H289.652Z" fill="#3360FF"/>
<path d="M301.721 39.5C300.893 39.5 300.221 40.1716 300.221 41C300.221 41.8284 300.893 42.5 301.721 42.5H305.744C306.573 42.5 307.244 41.8284 307.244 41C307.244 40.1716 306.573 39.5 305.744 39.5H301.721Z" fill="#3360FF"/>
<path d="M313.79 39.5C312.962 39.5 312.29 40.1716 312.29 41C312.29 41.8284 312.962 42.5 313.79 42.5H317.814C318.642 42.5 319.314 41.8284 319.314 41C319.314 40.1716 318.642 39.5 317.814 39.5H313.79Z" fill="#3360FF"/>
<path d="M325.86 39.5C325.031 39.5 324.36 40.1716 324.36 41C324.36 41.8284 325.031 42.5 325.86 42.5H329.883C330.711 42.5 331.383 41.8284 331.383 41C331.383 40.1716 330.711 39.5 329.883 39.5H325.86Z" fill="#3360FF"/>
<path d="M420.375 39.5092C419.547 39.5092 418.875 40.1807 418.875 41.0092C418.875 41.8376 419.547 42.5092 420.375 42.5092H424.125C424.953 42.5092 425.625 41.8376 425.625 41.0092C425.625 40.1807 424.953 39.5092 424.125 39.5092H420.375Z" fill="#3360FF"/>
<path d="M431.625 39.5092C430.797 39.5092 430.125 40.1807 430.125 41.0092C430.125 41.8376 430.797 42.5092 431.625 42.5092H435.375C435.616 42.5092 435.843 42.4524 436.045 42.3516C436.74 52.767 445.409 61 456 61C467.046 61 476 52.0457 476 41C476 29.9543 467.046 21 456 21C445.403 21 436.73 29.2423 436.044 39.6661C435.842 39.5657 435.615 39.5092 435.375 39.5092H431.625Z" fill="#3360FF"/>
</svg>
