<svg width="252" height="50" viewBox="0 0 252 50" fill="none" xmlns="http://www.w3.org/2000/svg">
<path d="M234.489 39.8466C244.36 38.6211 252 30.2027 252 20C252 8.9543 243.046 0 232 0C220.954 0 212 8.9543 212 20C212 30.8906 220.705 39.7481 231.536 39.9947C231.685 40.6654 232.284 41.1668 233 41.1668C233.768 41.1668 234.4 40.5902 234.489 39.8466Z" fill="#3360FF"/>
<path d="M234.5 46.3335C234.5 45.505 233.828 44.8335 233 44.8335C232.172 44.8335 231.5 45.505 231.5 46.3335V46.5001H230.973C230.145 46.5001 229.473 47.1717 229.473 48.0001C229.473 48.8285 230.145 49.5001 230.973 49.5001H233C233.828 49.5001 234.5 48.8285 234.5 48.0001V46.3335Z" fill="#3360FF"/>
<path d="M1.94067 46.5001C1.11225 46.5001 0.440674 47.1717 0.440674 48.0001C0.440674 48.8285 1.11225 49.5001 1.94067 49.5001H3.96751C4.79594 49.5001 5.46751 48.8285 5.46751 48.0001C5.46751 47.1717 4.79594 46.5001 3.96751 46.5001H1.94067Z" fill="#3360FF"/>
<path d="M12.0749 46.5001C11.2464 46.5001 10.5749 47.1717 10.5749 48.0001C10.5749 48.8285 11.2464 49.5001 12.0749 49.5001H16.1285C16.957 49.5001 17.6285 48.8285 17.6285 48.0001C17.6285 47.1717 16.957 46.5001 16.1285 46.5001H12.0749Z" fill="#3360FF"/>
<path d="M24.2359 46.5001C23.4074 46.5001 22.7359 47.1717 22.7359 48.0001C22.7359 48.8285 23.4074 49.5001 24.2359 49.5001H28.2895C29.118 49.5001 29.7895 48.8285 29.7895 48.0001C29.7895 47.1717 29.118 46.5001 28.2895 46.5001H24.2359Z" fill="#3360FF"/>
<path d="M36.3969 46.5001C35.5685 46.5001 34.8969 47.1717 34.8969 48.0001C34.8969 48.8285 35.5685 49.5001 36.3969 49.5001H40.4506C41.279 49.5001 41.9506 48.8285 41.9506 48.0001C41.9506 47.1717 41.279 46.5001 40.4506 46.5001H36.3969Z" fill="#3360FF"/>
<path d="M48.5579 46.5001C47.7295 46.5001 47.0579 47.1717 47.0579 48.0001C47.0579 48.8285 47.7295 49.5001 48.5579 49.5001H52.6116C53.44 49.5001 54.1116 48.8285 54.1116 48.0001C54.1116 47.1717 53.44 46.5001 52.6116 46.5001H48.5579Z" fill="#3360FF"/>
<path d="M60.7189 46.5001C59.8905 46.5001 59.2189 47.1717 59.2189 48.0001C59.2189 48.8285 59.8905 49.5001 60.7189 49.5001H64.7726C65.601 49.5001 66.2726 48.8285 66.2726 48.0001C66.2726 47.1717 65.601 46.5001 64.7726 46.5001H60.7189Z" fill="#3360FF"/>
<path d="M72.8799 46.5001C72.0515 46.5001 71.3799 47.1717 71.3799 48.0001C71.3799 48.8285 72.0515 49.5001 72.8799 49.5001H76.9336C77.762 49.5001 78.4336 48.8285 78.4336 48.0001C78.4336 47.1717 77.762 46.5001 76.9336 46.5001H72.8799Z" fill="#3360FF"/>
<path d="M85.0409 46.5001C84.2125 46.5001 83.5409 47.1717 83.5409 48.0001C83.5409 48.8285 84.2125 49.5001 85.0409 49.5001H89.0946C89.923 49.5001 90.5946 48.8285 90.5946 48.0001C90.5946 47.1717 89.923 46.5001 89.0946 46.5001H85.0409Z" fill="#3360FF"/>
<path d="M97.202 46.5001C96.3735 46.5001 95.702 47.1717 95.702 48.0001C95.702 48.8285 96.3735 49.5001 97.202 49.5001H101.256C102.084 49.5001 102.756 48.8285 102.756 48.0001C102.756 47.1717 102.084 46.5001 101.256 46.5001H97.202Z" fill="#3360FF"/>
<path d="M109.363 46.5001C108.535 46.5001 107.863 47.1717 107.863 48.0001C107.863 48.8285 108.535 49.5001 109.363 49.5001H113.417C114.245 49.5001 114.917 48.8285 114.917 48.0001C114.917 47.1717 114.245 46.5001 113.417 46.5001H109.363Z" fill="#3360FF"/>
<path d="M121.524 46.5001C120.696 46.5001 120.024 47.1717 120.024 48.0001C120.024 48.8285 120.696 49.5001 121.524 49.5001H125.578C126.406 49.5001 127.078 48.8285 127.078 48.0001C127.078 47.1717 126.406 46.5001 125.578 46.5001H121.524Z" fill="#3360FF"/>
<path d="M133.685 46.5001C132.857 46.5001 132.185 47.1717 132.185 48.0001C132.185 48.8285 132.857 49.5001 133.685 49.5001H137.739C138.567 49.5001 139.239 48.8285 139.239 48.0001C139.239 47.1717 138.567 46.5001 137.739 46.5001H133.685Z" fill="#3360FF"/>
<path d="M145.846 46.5001C145.018 46.5001 144.346 47.1717 144.346 48.0001C144.346 48.8285 145.018 49.5001 145.846 49.5001H149.9C150.728 49.5001 151.4 48.8285 151.4 48.0001C151.4 47.1717 150.728 46.5001 149.9 46.5001H145.846Z" fill="#3360FF"/>
<path d="M158.007 46.5001C157.179 46.5001 156.507 47.1717 156.507 48.0001C156.507 48.8285 157.179 49.5001 158.007 49.5001H162.061C162.889 49.5001 163.561 48.8285 163.561 48.0001C163.561 47.1717 162.889 46.5001 162.061 46.5001H158.007Z" fill="#3360FF"/>
<path d="M170.168 46.5001C169.34 46.5001 168.668 47.1717 168.668 48.0001C168.668 48.8285 169.34 49.5001 170.168 49.5001H174.222C175.05 49.5001 175.722 48.8285 175.722 48.0001C175.722 47.1717 175.05 46.5001 174.222 46.5001H170.168Z" fill="#3360FF"/>
<path d="M182.329 46.5001C181.501 46.5001 180.829 47.1717 180.829 48.0001C180.829 48.8285 181.501 49.5001 182.329 49.5001H186.383C187.211 49.5001 187.883 48.8285 187.883 48.0001C187.883 47.1717 187.211 46.5001 186.383 46.5001H182.329Z" fill="#3360FF"/>
<path d="M194.49 46.5001C193.662 46.5001 192.99 47.1717 192.99 48.0001C192.99 48.8285 193.662 49.5001 194.49 49.5001H198.544C199.372 49.5001 200.044 48.8285 200.044 48.0001C200.044 47.1717 199.372 46.5001 198.544 46.5001H194.49Z" fill="#3360FF"/>
<path d="M206.651 46.5001C205.823 46.5001 205.151 47.1717 205.151 48.0001C205.151 48.8285 205.823 49.5001 206.651 49.5001H210.705C211.533 49.5001 212.205 48.8285 212.205 48.0001C212.205 47.1717 211.533 46.5001 210.705 46.5001H206.651Z" fill="#3360FF"/>
<path d="M218.812 46.5001C217.984 46.5001 217.312 47.1717 217.312 48.0001C217.312 48.8285 217.984 49.5001 218.812 49.5001H222.866C223.694 49.5001 224.366 48.8285 224.366 48.0001C224.366 47.1717 223.694 46.5001 222.866 46.5001H218.812Z" fill="#3360FF"/>
</svg>
