<svg width="270" height="192" viewBox="0 0 270 192" fill="none" xmlns="http://www.w3.org/2000/svg">
<path d="M71.1818 0L40.8895 22.6172V4.77505H13.5959V42.9929L0 53.1435L5.21125 60.179L13.5959 53.9208V125H128.768V53.9223L137.152 60.1804L142.364 53.1449L71.1818 0ZM71.1818 10.925L120.034 47.3998V116.235H22.3298V47.3998L71.1818 10.925ZM22.3298 13.5404H32.1555V29.1382L22.3298 36.4732V13.5404Z" fill="#F4F4F4"/>
<path d="M51.5307 40.5791V50.8072H47.8915V54.46H37.7019V57.3823H47.8915V61.7658H37.7019V64.6881H47.8915V69.0716H37.7019V71.9939H47.8915V76.3773H37.7019V79.2996H47.8915V83.6831H37.7019V86.6054H47.8915V90.9888H37.7019V93.9111H47.8915V97.564H51.5307V107.792H54.442V97.564H58.809V107.792H61.7203V97.564H66.0873V107.792H68.9986V97.564H73.3656V107.792H76.2769V97.564H80.6439V107.792H83.5552V97.564H87.9222V107.792H90.8335V97.564H94.4727V93.9111H104.662V90.9888H94.4727V86.6054H104.662V83.6831H94.4727V79.2996H104.662V76.3773H94.4727V71.9939H104.662V69.0716H94.4727V64.6881H104.662V61.7658H94.4727V57.3823H104.662V54.46H94.4727V50.8072H90.8335V40.5791H87.9222V50.8072H83.5552V40.5791H80.6439V50.8072H76.2769V40.5791H73.3656V50.8072H68.9986V40.5791H66.0873V50.8072H61.7203V40.5791H58.809V50.8072H54.442V40.5791H51.5307ZM50.8029 53.7295H91.5614V94.6417H50.8029V53.7295Z" fill="#F4F4F4"/>
<path d="M81.3698 60.3071H60.9906C58.5887 60.3071 56.6236 62.2797 56.6236 64.6906V85.1467C56.6236 87.5576 58.5887 89.5302 60.9906 89.5302H81.3698C83.7862 89.5302 85.7368 87.5576 85.7368 85.1467V64.6906C85.7368 62.2797 83.7862 60.3071 81.3698 60.3071Z" fill="#F4F4F4"/>
<path d="M52.6845 57.6875L54.7466 55.6246L56.8331 57.7105L54.771 59.7734L52.6845 57.6875Z" fill="#F4F4F4"/>
<path d="M85.5388 90.6655L87.6012 88.6029L89.6863 90.6882L87.6239 92.7508L85.5388 90.6655Z" fill="#F4F4F4"/>
<path d="M172.926 30.0127H164.798V17.7777H155.401V30.0127H147.273V0H155.401V11.1265H164.798V0H172.926V30.0127Z" fill="#F4F4F4"/>
<path d="M201.098 18.332C201.098 22.1366 200.075 25.1064 198.027 27.2414C195.994 29.3626 193.141 30.4233 189.469 30.4233C185.948 30.4233 183.143 29.3353 181.055 27.1592C178.98 24.9832 177.943 22.0408 177.943 18.332C177.943 14.541 178.959 11.5986 180.993 9.50471C183.041 7.39711 185.907 6.34332 189.592 6.34332C191.872 6.34332 193.885 6.82916 195.632 7.80084C197.379 8.77252 198.723 10.1685 199.665 11.9887C200.621 13.7952 201.098 15.9096 201.098 18.332ZM186.071 18.332C186.071 20.3301 186.337 21.856 186.869 22.9098C187.401 23.9499 188.295 24.47 189.551 24.47C190.793 24.47 191.667 23.9499 192.172 22.9098C192.691 21.856 192.95 20.3301 192.95 18.332C192.95 16.3476 192.691 14.849 192.172 13.8362C191.653 12.8235 190.766 12.3171 189.51 12.3171C188.282 12.3171 187.401 12.8235 186.869 13.8362C186.337 14.8353 186.071 16.3339 186.071 18.332Z" fill="#F4F4F4"/>
<path d="M234.164 30.0127V17.3671C234.164 15.7933 233.945 14.6163 233.509 13.8362C233.085 13.0425 232.41 12.6456 231.482 12.6456C230.253 12.6456 229.352 13.1725 228.779 14.2263C228.206 15.2801 227.919 16.9292 227.919 19.1736V30.0127H219.893V17.3671C219.893 15.7933 219.689 14.6163 219.279 13.8362C218.87 13.0425 218.208 12.6456 217.293 12.6456C216.038 12.6456 215.123 13.2067 214.55 14.3289C213.977 15.4511 213.69 17.285 213.69 19.8306V30.0127H205.685V6.75389H211.724L212.728 9.62788H213.199C213.813 8.5604 214.7 7.7461 215.86 7.18499C217.034 6.62387 218.365 6.34332 219.853 6.34332C223.197 6.34332 225.544 7.3629 226.896 9.40207H227.53C228.185 8.44407 229.093 7.6982 230.253 7.16446C231.427 6.61703 232.717 6.34332 234.123 6.34332C236.866 6.34332 238.893 7.04813 240.204 8.45775C241.514 9.86738 242.169 12.0092 242.169 14.8832V30.0127H234.164Z" fill="#F4F4F4"/>
<path d="M258.814 30.4233C254.952 30.4233 251.949 29.3969 249.806 27.344C247.676 25.2775 246.612 22.3419 246.612 18.5373C246.612 14.6095 247.601 11.5986 249.581 9.50471C251.56 7.39711 254.385 6.34332 258.057 6.34332C261.551 6.34332 264.247 7.26026 266.144 9.09414C268.055 10.9143 269.01 13.542 269.01 16.9771V20.5491H254.699C254.754 21.8492 255.225 22.8688 256.112 23.6078C257.013 24.3468 258.234 24.7163 259.777 24.7163C261.182 24.7163 262.472 24.5863 263.646 24.3263C264.834 24.0526 266.117 23.5941 267.495 22.9509V28.7194C266.239 29.3626 264.943 29.8074 263.605 30.0538C262.268 30.3001 260.671 30.4233 258.814 30.4233ZM258.343 11.8039C257.402 11.8039 256.61 12.105 255.968 12.7072C255.341 13.2956 254.972 14.2263 254.863 15.499H261.742C261.715 14.3768 261.394 13.4804 260.78 12.8098C260.179 12.1392 259.367 11.8039 258.343 11.8039Z" fill="#F4F4F4"/>
<path d="M167.358 66.7236C167.358 68.5061 166.907 70.0921 166.004 71.4814C165.102 72.8577 163.801 73.9324 162.101 74.7057C160.401 75.466 158.407 75.8461 156.119 75.8461C154.21 75.8461 152.608 75.715 151.313 75.4528C150.019 75.1776 148.672 74.7057 147.273 74.0373V67.1168C148.75 67.877 150.287 68.4734 151.882 68.9059C153.477 69.3253 154.942 69.535 156.276 69.535C157.426 69.535 158.27 69.3384 158.806 68.9452C159.342 68.5389 159.61 68.0212 159.61 67.392C159.61 66.9988 159.499 66.658 159.277 66.3697C159.067 66.0682 158.721 65.7668 158.237 65.4653C157.766 65.1638 156.498 64.5478 154.432 63.6172C152.562 62.7653 151.156 61.9395 150.215 61.14C149.286 60.3405 148.593 59.423 148.136 58.3875C147.691 57.3521 147.469 56.1266 147.469 54.711C147.469 52.0634 148.43 49.999 150.352 48.5179C152.274 47.0368 154.916 46.2963 158.276 46.2963C161.245 46.2963 164.272 46.9844 167.358 48.3607L164.985 54.3571C162.304 53.125 159.989 52.509 158.041 52.509C157.034 52.509 156.302 52.686 155.844 53.0399C155.387 53.3937 155.158 53.8328 155.158 54.3571C155.158 54.9207 155.445 55.4253 156.021 55.871C156.609 56.3166 158.191 57.1292 160.767 58.3089C163.239 59.423 164.952 60.6223 165.906 61.9067C166.874 63.1781 167.358 64.7837 167.358 66.7236Z" fill="#F4F4F4"/>
<path d="M198.623 75.4528V63.342C198.623 61.8347 198.414 60.7075 197.996 59.9604C197.59 59.2001 196.943 58.82 196.054 58.82C194.877 58.82 194.014 59.3247 193.465 60.3339C192.915 61.3431 192.641 62.9225 192.641 65.0721V75.4528H184.952V63.342C184.952 61.8347 184.756 60.7075 184.364 59.9604C183.971 59.2001 183.337 58.82 182.461 58.82C181.258 58.82 180.382 59.3574 179.833 60.4322C179.283 61.507 179.009 63.2633 179.009 65.7012V75.4528H171.34V53.1775H177.126L178.087 55.93H178.538C179.126 54.9076 179.976 54.1277 181.088 53.5903C182.212 53.053 183.487 52.7843 184.913 52.7843C188.116 52.7843 190.366 53.7607 191.66 55.7137H192.268C192.896 54.7962 193.765 54.0819 194.877 53.5707C196.001 53.0464 197.237 52.7843 198.584 52.7843C201.212 52.7843 203.154 53.4593 204.409 54.8093C205.665 56.1593 206.292 58.2106 206.292 60.963V75.4528H198.623Z" fill="#F4F4F4"/>
<path d="M226.005 75.4528L224.534 72.5038H224.377C223.344 73.7883 222.291 74.6664 221.219 75.1383C220.147 75.6101 218.761 75.8461 217.061 75.8461C214.969 75.8461 213.321 75.2169 212.118 73.9586C210.915 72.7004 210.313 70.9309 210.313 68.6503C210.313 66.2779 211.137 64.515 212.785 63.3616C214.432 62.1951 216.819 61.5397 219.944 61.3956L223.651 61.2776V60.963C223.651 59.1281 222.749 58.2106 220.944 58.2106C219.323 58.2106 217.263 58.7611 214.766 59.8621L212.549 54.7896C215.139 53.4527 218.408 52.7843 222.357 52.7843C225.207 52.7843 227.411 53.492 228.967 54.9076C230.536 56.3232 231.32 58.3023 231.32 60.8451V75.4528H226.005ZM220.317 70.4197C221.245 70.4197 222.036 70.1248 222.69 69.535C223.357 68.9452 223.69 68.1785 223.69 67.2347V65.5046L221.925 65.5833C219.401 65.675 218.14 66.6056 218.14 68.3751C218.14 69.7382 218.865 70.4197 220.317 70.4197Z" fill="#F4F4F4"/>
<path d="M249.954 52.7843C250.621 52.7843 251.255 52.8367 251.857 52.9415L252.288 53.0202L251.602 60.2749C250.974 60.1176 250.104 60.039 248.993 60.039C247.319 60.039 246.103 60.4257 245.345 61.199C244.586 61.9592 244.207 63.0602 244.207 64.5019V75.4528H236.538V53.1775H242.246L243.442 56.736H243.815C244.455 55.5564 245.345 54.6061 246.482 53.8853C247.633 53.1513 248.79 52.7843 249.954 52.7843Z" fill="#F4F4F4"/>
<path d="M266.293 69.771C267.326 69.771 268.562 69.5154 270 69.0042V74.6074C268.967 75.0531 267.98 75.3676 267.038 75.5511C266.11 75.7477 265.018 75.8461 263.763 75.8461C261.187 75.8461 259.33 75.2169 258.192 73.9586C257.054 72.6873 256.486 70.7409 256.486 68.1195V58.938H253.798V55.812L257.211 53.3937L259.192 48.7145H264.214V53.1775H269.667V58.938H264.214V67.6083C264.214 69.0501 264.907 69.771 266.293 69.771Z" fill="#F4F4F4"/>
<path d="M162.285 100.014C160.283 100.014 158.722 100.833 157.6 102.472C156.479 104.097 155.918 106.343 155.918 109.212C155.918 115.174 158.196 118.155 162.753 118.155C164.13 118.155 165.465 117.964 166.757 117.583C168.048 117.201 169.347 116.742 170.653 116.205V123.283C168.056 124.428 165.117 125 161.838 125C157.139 125 153.533 123.644 151.02 120.931C148.522 118.218 147.273 114.298 147.273 109.169C147.273 105.962 147.876 103.143 149.083 100.713C150.304 98.2832 152.05 96.4183 154.321 95.1185C156.607 93.8046 159.29 93.1476 162.37 93.1476C165.735 93.1476 168.95 93.8752 172.016 95.3304L169.44 101.921C168.29 101.384 167.14 100.932 165.99 100.565C164.84 100.198 163.605 100.014 162.285 100.014Z" fill="#F4F4F4"/>
<path d="M184.58 124.576H176.254V91.6005H184.58V124.576Z" fill="#F4F4F4"/>
<path d="M213.39 112.518C213.39 116.445 212.326 119.511 210.196 121.715C208.081 123.905 205.114 125 201.295 125C197.633 125 194.716 123.877 192.544 121.63C190.386 119.384 189.307 116.346 189.307 112.518C189.307 108.604 190.364 105.566 192.48 103.405C194.609 101.229 197.59 100.141 201.423 100.141C203.794 100.141 205.888 100.643 207.705 101.646C209.522 102.649 210.92 104.09 211.9 105.969C212.893 107.834 213.39 110.017 213.39 112.518ZM197.761 112.518C197.761 114.58 198.037 116.156 198.591 117.244C199.145 118.317 200.074 118.854 201.381 118.854C202.672 118.854 203.581 118.317 204.106 117.244C204.646 116.156 204.915 114.58 204.915 112.518C204.915 110.469 204.646 108.922 204.106 107.876C203.567 106.831 202.644 106.308 201.338 106.308C200.06 106.308 199.145 106.831 198.591 107.876C198.037 108.908 197.761 110.455 197.761 112.518Z" fill="#F4F4F4"/>
<path d="M235.344 124.576L234.301 121.588H233.811C233.116 122.69 232.143 123.538 230.894 124.131C229.659 124.71 228.204 125 226.529 125C223.874 125 221.808 124.237 220.332 122.711C218.856 121.171 218.118 119.002 218.118 116.205V100.565H226.443V113.683C226.443 115.251 226.663 116.438 227.104 117.244C227.558 118.049 228.296 118.451 229.318 118.451C230.752 118.451 231.774 117.893 232.384 116.777C232.995 115.647 233.3 113.747 233.3 111.076V100.565H241.626V124.576H235.344Z" fill="#F4F4F4"/>
<path d="M254.871 125C253.153 125 251.648 124.513 250.356 123.538C249.079 122.563 248.085 121.129 247.375 119.236C246.68 117.342 246.332 115.131 246.332 112.602C246.332 108.703 247.12 105.651 248.696 103.447C250.271 101.243 252.436 100.141 255.19 100.141C256.539 100.141 257.717 100.41 258.725 100.946C259.747 101.483 260.677 102.388 261.514 103.659H261.685C261.415 101.78 261.28 99.9009 261.28 98.0219V91.6005H269.67V124.576H263.388L261.6 121.546H261.28C259.846 123.849 257.71 125 254.871 125ZM258.278 118.451C259.612 118.451 260.549 118.035 261.089 117.201C261.642 116.368 261.94 115.082 261.983 113.344V112.687C261.983 110.568 261.678 109.063 261.067 108.173C260.457 107.269 259.499 106.817 258.193 106.817C257.1 106.817 256.248 107.332 255.637 108.364C255.041 109.381 254.743 110.836 254.743 112.73C254.743 114.594 255.048 116.014 255.659 116.989C256.269 117.964 257.142 118.451 258.278 118.451Z" fill="#F4F4F4"/>
<path d="M8.86735 185.033L3.82485 168.792H3.69592C3.87738 172.096 3.9681 174.3 3.9681 175.404V185.033H0V164.331H6.04527L11.0018 180.162H11.0878L16.3451 164.331H22.3904V185.033H18.2504V175.234C18.2504 174.772 18.2552 174.238 18.2647 173.634C18.2838 173.03 18.3507 171.425 18.4653 168.82H18.3364L12.9357 185.033H8.86735Z" fill="#F4F4F4"/>
<path d="M41.231 185.033L39.7125 180.105H32.0772L30.5587 185.033H25.774L33.1659 164.246H38.5952L46.0157 185.033H41.231ZM38.6525 176.424C37.2486 171.959 36.4559 169.433 36.2745 168.848C36.1026 168.263 35.9784 167.8 35.902 167.46C35.5869 168.669 34.6844 171.657 33.1945 176.424H38.6525Z" fill="#F4F4F4"/>
<path d="M66.7759 174.484C66.7759 177.892 65.7922 180.502 63.8248 182.314C61.8671 184.127 59.0354 185.033 55.33 185.033H49.3993V164.331H55.9746C59.3936 164.331 62.0485 165.223 63.9394 167.007C65.8304 168.792 66.7759 171.284 66.7759 174.484ZM62.1631 174.597C62.1631 170.151 60.1767 167.928 56.2038 167.928H53.8401V181.408H55.7454C60.0239 181.408 62.1631 179.138 62.1631 174.597Z" fill="#F4F4F4"/>
<path d="M83.9118 185.033H71.8499V164.331H83.9118V167.928H76.2907V172.473H83.3817V176.07H76.2907V181.408H83.9118V185.033Z" fill="#F4F4F4"/>
<path d="M97.3832 164.331H103.901C106.871 164.331 109.025 164.751 110.362 165.591C111.709 166.422 112.382 167.748 112.382 169.57C112.382 170.807 112.086 171.822 111.494 172.615C110.911 173.408 110.133 173.884 109.159 174.045V174.187C110.486 174.479 111.441 175.027 112.024 175.829C112.616 176.632 112.912 177.698 112.912 179.029C112.912 180.917 112.219 182.39 110.835 183.447C109.459 184.505 107.588 185.033 105.219 185.033H97.3832V164.331ZM101.824 172.53H104.403C105.606 172.53 106.475 172.346 107.01 171.978C107.554 171.609 107.826 171 107.826 170.151C107.826 169.358 107.53 168.792 106.938 168.452C106.356 168.102 105.429 167.928 104.159 167.928H101.824V172.53ZM101.824 176.013V181.408H104.718C105.94 181.408 106.843 181.177 107.425 180.714C108.008 180.252 108.299 179.544 108.299 178.59C108.299 176.872 107.058 176.013 104.575 176.013H101.824Z" fill="#F4F4F4"/>
<path d="M124.346 172.855L128.715 164.331H133.5L126.552 176.976V185.033H122.14V177.118L115.192 164.331H120.006L124.346 172.855Z" fill="#F4F4F4"/>
<path d="M154.12 167.687C152.449 167.687 151.155 168.31 150.238 169.556C149.321 170.793 148.863 172.52 148.863 174.739C148.863 179.355 150.615 181.663 154.12 181.663C155.591 181.663 157.372 181.3 159.463 180.573V184.254C157.744 184.962 155.825 185.316 153.705 185.316C150.658 185.316 148.328 184.405 146.714 182.583C145.1 180.752 144.293 178.128 144.293 174.71C144.293 172.558 144.689 170.675 145.482 169.061C146.274 167.437 147.411 166.195 148.891 165.336C150.381 164.468 152.124 164.034 154.12 164.034C156.154 164.034 158.198 164.52 160.251 165.492L158.819 169.061C158.036 168.692 157.248 168.371 156.455 168.098C155.662 167.824 154.884 167.687 154.12 167.687Z" fill="#F4F4F4"/>
<path d="M164.136 165.11C164.136 163.703 164.929 163 166.514 163C168.1 163 168.892 163.703 168.892 165.11C168.892 165.78 168.692 166.304 168.291 166.682C167.899 167.05 167.307 167.234 166.514 167.234C164.929 167.234 164.136 166.526 164.136 165.11ZM168.692 185.033H164.322V169.202H168.692V185.033Z" fill="#F4F4F4"/>
<path d="M188.363 185.033H183.994V175.787C183.994 174.644 183.798 173.79 183.407 173.224C183.025 172.648 182.418 172.36 181.587 172.36C180.47 172.36 179.658 172.766 179.152 173.578C178.646 174.389 178.393 175.725 178.393 177.585V185.033H174.023V169.202H177.361L177.949 171.227H178.192C178.622 170.5 179.243 169.934 180.054 169.528C180.866 169.112 181.797 168.905 182.848 168.905C185.245 168.905 186.868 169.679 187.718 171.227H188.105C188.535 170.491 189.165 169.92 189.996 169.514C190.837 169.108 191.782 168.905 192.833 168.905C194.647 168.905 196.018 169.367 196.944 170.292C197.88 171.208 198.348 172.681 198.348 174.71V185.033H193.964V175.787C193.964 174.644 193.768 173.79 193.377 173.224C192.995 172.648 192.388 172.36 191.558 172.36C190.488 172.36 189.686 172.737 189.151 173.493C188.626 174.248 188.363 175.447 188.363 177.089V185.033Z" fill="#F4F4F4"/>
<path d="M212.375 185.316C210.494 185.316 209.018 184.641 207.949 183.292H207.719C207.872 184.613 207.949 185.378 207.949 185.585V192H203.579V169.202H207.132L207.748 171.255H207.949C208.97 169.688 210.484 168.905 212.49 168.905C214.381 168.905 215.861 169.627 216.931 171.071C218 172.516 218.535 174.522 218.535 177.089C218.535 178.779 218.282 180.247 217.776 181.493C217.279 182.739 216.568 183.688 215.641 184.339C214.715 184.991 213.626 185.316 212.375 185.316ZM211.086 172.36C210.007 172.36 209.219 172.69 208.722 173.351C208.226 174.002 207.968 175.083 207.949 176.594V177.061C207.949 178.76 208.202 179.978 208.708 180.714C209.224 181.451 210.035 181.819 211.143 181.819C213.101 181.819 214.08 180.223 214.08 177.033C214.08 175.475 213.836 174.309 213.349 173.535C212.872 172.752 212.117 172.36 211.086 172.36Z" fill="#F4F4F4"/>
<path d="M227.248 185.033H222.878V163H227.248V185.033Z" fill="#F4F4F4"/>
<path d="M239.212 171.978C238.286 171.978 237.56 172.27 237.035 172.855C236.509 173.431 236.209 174.253 236.132 175.319H242.263C242.244 174.253 241.963 173.431 241.418 172.855C240.874 172.27 240.138 171.978 239.212 171.978ZM239.828 185.316C237.25 185.316 235.234 184.613 233.783 183.207C232.331 181.8 231.605 179.808 231.605 177.231C231.605 174.578 232.274 172.53 233.611 171.085C234.958 169.632 236.815 168.905 239.183 168.905C241.447 168.905 243.209 169.542 244.469 170.816C245.73 172.091 246.36 173.851 246.36 176.098V178.194H236.032C236.08 179.421 236.447 180.379 237.135 181.068C237.823 181.757 238.787 182.102 240.029 182.102C240.993 182.102 241.905 182.003 242.765 181.805C243.624 181.606 244.522 181.29 245.458 180.856V184.198C244.694 184.575 243.877 184.854 243.008 185.033C242.139 185.222 241.079 185.316 239.828 185.316Z" fill="#F4F4F4"/>
<path d="M270 174.654C270 178.081 269.14 180.714 267.421 182.555C265.702 184.396 263.238 185.316 260.03 185.316C256.821 185.316 254.357 184.396 252.638 182.555C250.919 180.714 250.059 178.071 250.059 174.625C250.059 171.18 250.919 168.551 252.638 166.738C254.366 164.916 256.84 164.005 260.058 164.005C263.277 164.005 265.736 164.921 267.436 166.752C269.145 168.584 270 171.218 270 174.654ZM254.715 174.654C254.715 176.967 255.159 178.708 256.047 179.879C256.935 181.049 258.263 181.635 260.03 181.635C263.573 181.635 265.344 179.308 265.344 174.654C265.344 169.99 263.582 167.659 260.058 167.659C258.291 167.659 256.959 168.249 256.062 169.429C255.164 170.599 254.715 172.341 254.715 174.654Z" fill="#F4F4F4"/>
</svg>
