<svg width="117" height="50" viewBox="0 0 117 50" fill="none" xmlns="http://www.w3.org/2000/svg">
<path d="M33.8276 24.7885L30.0326 23.2182C30.3788 22.324 31.0159 21.5749 31.8395 21.0936C32.6632 20.6122 33.6246 20.4271 34.5662 20.5686C36.7608 21.0111 38.4308 22.8782 38.3131 24.7723C38.1525 27.4434 36.6538 29.0461 34.1327 29.2782C32.1415 29.4616 30.1718 27.7348 29.9363 26.2455L31.9007 25.5979L33.8276 24.9666V24.7885Z" fill="white"/>
<path d="M23.155 13.8884C23.4918 13.1003 24.0593 12.4347 24.7814 11.9805C25.5036 11.5264 26.346 11.3052 27.1962 11.3467C28.096 11.3432 28.9723 11.636 29.6921 12.1804C30.4118 12.7249 30.9356 13.4913 31.1838 14.3632C31.3841 15.0015 31.4343 15.6779 31.3307 16.3391C31.227 17.0003 30.9722 17.6281 30.5865 18.173C30.2007 18.7178 29.6946 19.1648 29.1081 19.4785C28.5215 19.7923 27.8707 19.9642 27.2069 19.9807C26.4021 20.0154 25.6044 19.8161 24.9088 19.4066C24.2132 18.9972 23.649 18.3947 23.2834 17.6711C23.0212 17.2286 23.1443 17.0074 23.5939 16.8671C24.5092 16.5865 25.4245 16.2951 26.3398 16.0037C26.5753 15.9281 26.8054 15.831 27.2122 15.6745L23.155 13.8884Z" fill="white"/>
<path d="M23.4116 35.8941L27.3297 34.4803V34.2699L23.4437 32.7751C23.7869 31.8549 24.4408 31.0859 25.2904 30.6034C26.14 30.1208 27.1312 29.9555 28.0897 30.1363C29.0587 30.2818 29.9467 30.7645 30.5997 31.5007C31.2527 32.237 31.6297 33.1803 31.6652 34.1673C31.7069 35.1899 31.3868 36.1941 30.7621 37.0009C30.1374 37.8076 29.2488 38.3643 28.2547 38.5718C27.2606 38.7792 26.2258 38.6238 25.3348 38.1334C24.4438 37.643 23.7546 36.8494 23.3902 35.8941H23.4116Z" fill="white"/>
<path d="M12.2622 17.8979C12.6135 16.9092 13.3153 16.0864 14.2324 15.5883C15.1495 15.0901 16.2171 14.9517 17.2294 15.1998C18.2697 15.3972 19.2006 15.976 19.8425 16.8246C20.4844 17.6732 20.7917 18.7314 20.7053 19.795C20.6188 20.8586 20.1446 21.8523 19.3742 22.5842C18.6038 23.3161 17.5918 23.7343 16.5336 23.7583C14.5317 23.8446 12.6636 22.6305 12.3586 21.0062L16.1375 19.5384V19.3333L12.2622 17.8979Z" fill="white"/>
<path d="M12.4495 32.527L16.3569 31.0754V30.8757L12.487 29.3864C12.8328 28.4758 13.4795 27.7134 14.3181 27.2278C15.1567 26.7422 16.1358 26.563 17.0902 26.7206C17.8351 26.8341 18.5372 27.1436 19.1255 27.6181C19.7138 28.0925 20.1676 28.715 20.4409 29.4228C20.7143 30.1306 20.7976 30.8985 20.6824 31.6491C20.5673 32.3997 20.2577 33.1064 19.785 33.6978C19.3124 34.2893 18.6932 34.7445 17.9902 35.0176C17.2872 35.2906 16.5252 35.3719 15.7811 35.2531C15.037 35.1343 14.3371 34.8198 13.7522 34.3411C13.1672 33.8625 12.7179 33.2367 12.4495 32.527Z" fill="white"/>
<path d="M33.8276 24.7885L30.0326 23.2182C30.3788 22.324 31.0159 21.5749 31.8395 21.0936C32.6632 20.6122 33.6246 20.4271 34.5662 20.5686C36.7769 20.8384 38.4308 22.8782 38.3131 24.7723C38.1525 27.4434 36.6538 29.0461 34.1327 29.2782C32.1415 29.4616 30.1718 27.7348 29.9363 26.2455L31.9007 25.5979L33.8276 24.9666V24.7885Z" fill="white"/>
<path d="M104.884 30.0394C104.884 31.4843 104.884 32.9291 104.884 34.374C104.901 34.4996 104.888 34.6273 104.848 34.7473C104.808 34.8674 104.741 34.9764 104.652 35.066C104.563 35.1556 104.455 35.2233 104.336 35.2639C104.216 35.3045 104.09 35.3169 103.965 35.3002C101.079 35.3002 98.1938 35.3002 95.3082 35.3002C94.6787 35.3002 94.4214 35.0686 94.3295 34.4249C94.3003 34.2054 94.2849 33.9842 94.2835 33.7627C94.2835 31.0582 94.2835 28.3537 94.2835 25.6493C94.2835 24.9176 94.6327 24.5842 95.3633 24.5842C97.9365 24.5842 100.51 24.561 103.083 24.5842C104.898 24.6119 104.879 24.7416 104.847 26.3578C104.87 27.5943 104.884 28.8215 104.884 30.0394ZM102.849 29.9561C102.849 29.0299 102.849 28.1407 102.849 27.2331C102.849 26.8441 102.715 26.6635 102.302 26.6681C100.5 26.6681 98.6993 26.6681 96.898 26.6681C96.5304 26.6681 96.3558 26.7839 96.3604 27.1729C96.3604 29.0252 96.3604 30.8776 96.3604 32.73C96.3604 33.1144 96.5213 33.2487 96.898 33.244C98.6993 33.244 100.5 33.244 102.302 33.244C102.711 33.244 102.858 33.0819 102.853 32.6883C102.839 31.7714 102.849 30.8637 102.849 29.9561Z" fill="white"/>
<path d="M59.9639 28.9228C59.9639 29.849 59.9639 30.7752 59.9639 31.7013C59.9639 32.5534 59.9272 33.4055 59.8996 34.2576C59.9051 34.3927 59.8836 34.5275 59.8363 34.6539C59.789 34.7804 59.7168 34.8959 59.6242 34.9936C59.5315 35.0913 59.4202 35.1692 59.297 35.2226C59.1738 35.2759 59.0412 35.3037 58.9071 35.3042C58.7778 35.3038 58.6499 35.2768 58.5313 35.2249C58.4127 35.173 58.3058 35.0973 58.2172 35.0024C58.1287 34.9075 58.0602 34.7954 58.0161 34.6729C57.9719 34.5504 57.953 34.4201 57.9605 34.29C57.9329 32.7201 57.9375 31.1456 57.9283 29.5711C57.9283 29.0339 57.9283 28.4967 57.9283 27.9595C57.9089 27.8028 57.9253 27.6437 57.9762 27.4944C58.0271 27.345 58.1111 27.2093 58.2219 27.0976C58.3327 26.986 58.4673 26.9013 58.6155 26.85C58.7637 26.7987 58.9216 26.7823 59.0771 26.8018C60.3637 26.8018 61.6457 26.8018 62.9323 26.8018C63.222 26.7667 63.5149 26.8338 63.7612 26.9916C64.0074 27.1495 64.1919 27.3884 64.2832 27.6678C64.7427 26.6999 65.4549 26.7972 66.1487 26.7972C67.2331 26.7972 68.3176 26.7972 69.402 26.7972C70.2888 26.7972 70.6058 27.1167 70.6104 27.9966C70.6104 30.0651 70.6104 32.1382 70.6104 34.2159C70.6104 34.9245 70.2428 35.3088 69.6501 35.3088C69.0573 35.3088 68.6897 34.9152 68.6851 34.2159C68.6851 32.4747 68.6851 30.7381 68.6851 28.9552H65.3814C65.3814 29.1404 65.3814 29.3396 65.3814 29.5341C65.3538 31.1024 65.3247 32.6754 65.2941 34.253C65.2992 34.5207 65.201 34.78 65.0201 34.9761C64.8392 35.1722 64.5898 35.2899 64.3245 35.3042C64.1866 35.3051 64.05 35.2774 63.9231 35.2231C63.7962 35.1687 63.6816 35.0888 63.5865 34.9881C63.4914 34.8875 63.4177 34.7683 63.37 34.6379C63.3223 34.5075 63.3015 34.3686 63.309 34.2298C63.2723 32.6738 63.2447 31.1178 63.2126 29.5665C63.2126 29.3673 63.2126 29.1636 63.2126 28.932L59.9639 28.9228Z" fill="white"/>
<path d="M93.0934 32.0628H86.812V33.2344H93.0842C93.0842 33.6975 93.1117 34.0819 93.0842 34.4616C93.0848 34.565 93.0648 34.6674 93.0253 34.7627C92.9858 34.8581 92.9277 34.9444 92.8543 35.0166C92.781 35.0888 92.694 35.1453 92.5985 35.1829C92.5029 35.2204 92.4009 35.2381 92.2984 35.235C90.0561 35.235 87.8153 35.235 85.576 35.235C85.4613 35.2455 85.3458 35.2306 85.2374 35.1914C85.1291 35.1522 85.0306 35.0896 84.9487 35.008C84.8669 34.9264 84.8037 34.8278 84.7636 34.719C84.7236 34.6102 84.7076 34.4939 84.7167 34.3783C84.7167 32.1462 84.7167 29.9048 84.7167 27.6634C84.7155 27.5499 84.7368 27.4374 84.7793 27.3323C84.8218 27.2273 84.8847 27.1318 84.9643 27.0516C85.0439 26.9713 85.1386 26.9079 85.2429 26.8651C85.3471 26.8222 85.4588 26.8008 85.5714 26.802C87.7555 26.7804 89.9412 26.7804 92.1284 26.802C92.2628 26.7949 92.3972 26.8175 92.5219 26.8684C92.6467 26.9193 92.7589 26.9972 92.8505 27.0966C92.9421 27.196 93.0109 27.3144 93.0521 27.4436C93.0932 27.5728 93.1058 27.7094 93.0888 27.844C93.0979 29.2101 93.0934 30.5809 93.0934 32.0628ZM91.044 28.9091H86.8074V29.965H91.044V28.9091Z" fill="white"/>
<path d="M73.9049 35.3045C73.8681 36.1473 73.8451 36.8837 73.7946 37.62C73.7855 37.8627 73.6858 38.093 73.5153 38.2647C73.3449 38.4365 73.1164 38.537 72.8756 38.5462C72.6349 38.555 72.4003 38.4683 72.2224 38.3046C72.0445 38.1409 71.9375 37.9133 71.9244 37.6709C71.9244 34.3027 71.9244 30.9375 71.9244 27.5755C71.9272 27.4682 71.9517 27.3626 71.9962 27.2651C72.0408 27.1676 72.1045 27.0802 72.1836 27.0083C72.2627 26.9364 72.3554 26.8815 72.4562 26.8468C72.557 26.8122 72.6637 26.7985 72.7699 26.8067C74.9709 26.8067 77.1765 26.8067 79.3775 26.8067C79.6363 26.8269 79.8771 26.948 80.0487 27.1443C80.2203 27.3406 80.3092 27.5966 80.2965 27.8579C80.2965 30.0036 80.2812 32.1493 80.2505 34.295C80.2591 34.4241 80.2391 34.5535 80.1921 34.6739C80.145 34.7943 80.0721 34.9027 79.9785 34.9913C79.8849 35.0799 79.7729 35.1464 79.6507 35.1862C79.5285 35.2259 79.3991 35.2379 79.2718 35.2211C77.7095 35.2536 76.1518 35.2767 74.5895 35.2999C74.3827 35.3045 74.1484 35.3045 73.9049 35.3045ZM78.2287 33.1928V28.9277H73.9233V33.2067L78.2287 33.1928Z" fill="white"/>
<path d="M45.021 26.6725V33.2299H45.6091C47.7044 33.2299 49.7951 33.2299 51.8904 33.2763C52.2878 33.2317 52.6895 33.3024 53.0484 33.48C53.1871 33.6143 53.2963 33.7765 53.3691 33.9559C53.4419 34.1354 53.4767 34.3282 53.4711 34.522C53.4711 34.9851 53.0621 35.2305 52.5751 35.2444C52.088 35.2583 51.4723 35.2953 50.9209 35.2953C48.6831 35.2953 46.4408 35.2953 44.1985 35.2953C43.3024 35.3046 42.9303 34.9388 42.9257 34.0265C42.9257 31.9703 42.9257 29.9142 42.9257 27.8627C42.9257 27.1773 42.9257 26.4734 42.9257 25.8065C42.9059 25.6548 42.9201 25.5005 42.9673 25.355C43.0145 25.2096 43.0935 25.0766 43.1984 24.966C43.3033 24.8553 43.4315 24.7698 43.5736 24.7157C43.7157 24.6616 43.8679 24.6403 44.0193 24.6534H52.4464C52.583 24.6391 52.721 24.6539 52.8514 24.6971C52.9819 24.7403 53.1018 24.8107 53.2033 24.9039C53.3048 24.997 53.3857 25.1107 53.4405 25.2375C53.4954 25.3644 53.523 25.5015 53.5216 25.6398C53.5216 26.177 53.1035 26.5429 52.4464 26.566L45.6597 26.6725H45.021Z" fill="white"/>
<path d="M81.5004 29.8906C81.5004 28.5013 81.5004 27.112 81.5004 25.7228C81.4823 25.4458 81.5712 25.1725 81.7485 24.9602C81.9258 24.7478 82.1778 24.6129 82.4516 24.5835C82.7377 24.598 83.0065 24.7258 83.1993 24.9393C83.3921 25.1527 83.4934 25.4344 83.4809 25.7228C83.4809 28.5353 83.4809 31.3447 83.4809 34.1511C83.4949 34.2963 83.4788 34.4428 83.4336 34.5814C83.3883 34.72 83.315 34.8476 83.2182 34.9561C83.1214 35.0645 83.0032 35.1515 82.8712 35.2114C82.7393 35.2714 82.5964 35.303 82.4516 35.3042C82.316 35.294 82.1839 35.2561 82.0633 35.1927C81.9428 35.1294 81.8362 35.042 81.7503 34.9359C81.6643 34.8297 81.6007 34.707 81.5632 34.5753C81.5258 34.4436 81.5154 34.3055 81.5326 34.1696C81.5326 32.7479 81.5326 31.3262 81.5326 29.9045L81.5004 29.8906Z" fill="white"/>
<path d="M54.7026 30.9559V27.8949C54.69 27.7574 54.7055 27.6188 54.7481 27.4876C54.7907 27.3564 54.8596 27.2354 54.9505 27.1321C55.0414 27.0288 55.1523 26.9454 55.2764 26.887C55.4005 26.8287 55.5352 26.7965 55.6721 26.7927C55.8048 26.785 55.9375 26.8051 56.0621 26.8517C56.1866 26.8983 56.3002 26.9705 56.3956 27.0636C56.4911 27.1568 56.5663 27.2689 56.6166 27.3928C56.6668 27.5168 56.691 27.6499 56.6876 27.7837C56.6876 30.0205 56.6876 32.2572 56.6646 34.4986C56.6223 34.7336 56.4965 34.9449 56.3107 35.0932C56.1249 35.2414 55.8918 35.3162 55.6552 35.3037C55.4186 35.2912 55.1946 35.1922 55.0251 35.0253C54.8557 34.8583 54.7525 34.6349 54.7348 34.3967C54.7072 33.2482 54.7348 32.0812 54.7348 30.9559H54.7026Z" fill="white"/>
<path d="M55.7318 25.5423C55.5955 25.5608 55.4568 25.5482 55.3259 25.5055C55.1951 25.4628 55.0754 25.391 54.9757 25.2954C54.876 25.1999 54.7989 25.083 54.7501 24.9534C54.7012 24.8238 54.6818 24.6848 54.6934 24.5466C54.6883 24.4084 54.7114 24.2706 54.7611 24.1416C54.8109 24.0127 54.8863 23.8954 54.9827 23.7969C55.0791 23.6985 55.1945 23.6209 55.3218 23.5691C55.449 23.5172 55.5854 23.4921 55.7227 23.4954C55.8598 23.4965 55.9953 23.5255 56.1211 23.5806C56.2469 23.6356 56.3603 23.7157 56.4547 23.816C56.5491 23.9163 56.6224 24.0348 56.6703 24.1643C56.7182 24.2938 56.7397 24.4317 56.7335 24.5698C56.7407 24.7026 56.7194 24.8354 56.6711 24.9591C56.6227 25.0829 56.5485 25.1947 56.4535 25.287C56.3584 25.3793 56.2448 25.4498 56.1203 25.4939C55.9957 25.5379 55.8633 25.5544 55.7318 25.5423Z" fill="white"/>
<path d="M48.7641 18.9664H47.2838V15.8689H44.3973V18.9664H42.917V11.7389H44.3973V14.6676H47.2838V11.7389H48.7641V18.9664Z" fill="#F4F4F4"/>
<path d="M53.0618 18.9664C52.996 18.8373 52.9483 18.6768 52.9187 18.4849C52.5733 18.8721 52.1243 19.0657 51.5716 19.0657C51.0486 19.0657 50.6144 18.9134 50.269 18.609C49.9269 18.3045 49.7558 17.9206 49.7558 17.4573C49.7558 16.8882 49.9647 16.4513 50.3825 16.1469C50.8035 15.8424 51.4104 15.6885 52.2032 15.6852H52.8595V15.3775C52.8595 15.1293 52.7953 14.9307 52.667 14.7818C52.542 14.6329 52.343 14.5584 52.07 14.5584C51.8299 14.5584 51.6407 14.6163 51.5026 14.7322C51.3677 14.848 51.3002 15.0068 51.3002 15.2087H49.8743C49.8743 14.8976 49.9697 14.6097 50.1604 14.345C50.3512 14.0802 50.621 13.8734 50.9697 13.7245C51.3183 13.5723 51.7098 13.4961 52.144 13.4961C52.8019 13.4961 53.3233 13.6633 53.7082 13.9975C54.0963 14.3284 54.2904 14.795 54.2904 15.3973V17.7254C54.2937 18.235 54.3644 18.6206 54.5026 18.882V18.9664H53.0618ZM51.8825 17.9686C52.093 17.9686 52.2871 17.9223 52.4647 17.8296C52.6424 17.7337 52.7739 17.6063 52.8595 17.4474V16.5241H52.3266C51.6127 16.5241 51.2328 16.7723 51.1868 17.2687L51.1818 17.3531C51.1818 17.5318 51.2443 17.6791 51.3693 17.7949C51.4943 17.9107 51.6654 17.9686 51.8825 17.9686Z" fill="#F4F4F4"/>
<path d="M56.6983 13.5954L56.7427 14.2159C57.1243 13.7361 57.6358 13.4961 58.2772 13.4961C58.843 13.4961 59.2641 13.6633 59.5404 13.9975C59.8167 14.3317 59.9582 14.8314 59.9648 15.4966V18.9664H58.5388V15.5313C58.5388 15.2269 58.473 15.0068 58.3414 14.8711C58.2098 14.7322 57.9911 14.6627 57.6851 14.6627C57.2838 14.6627 56.9828 14.8347 56.7822 15.1789V18.9664H55.3562V13.5954H56.6983Z" fill="#F4F4F4"/>
<path d="M60.8282 16.2412C60.8282 15.4039 61.0141 14.7371 61.3858 14.2407C61.7608 13.7443 62.2723 13.4961 62.9204 13.4961C63.4401 13.4961 63.8694 13.6914 64.2082 14.0819V11.3418H65.6391V18.9664H64.3513L64.2822 18.3955C63.9269 18.8423 63.4697 19.0657 62.9105 19.0657C62.2822 19.0657 61.7773 18.8175 61.3957 18.3211C61.0174 17.8214 60.8282 17.1281 60.8282 16.2412ZM62.2542 16.3454C62.2542 16.8484 62.3414 17.234 62.5158 17.502C62.6901 17.7701 62.9434 17.9041 63.2756 17.9041C63.7164 17.9041 64.0273 17.7171 64.2082 17.3432V15.2236C64.0306 14.8496 63.723 14.6627 63.2855 14.6627C62.598 14.6627 62.2542 15.2236 62.2542 16.3454Z" fill="#F4F4F4"/>
<path d="M68.0816 13.5954L68.126 14.1961C68.5043 13.7294 69.0158 13.4961 69.6605 13.4961C70.348 13.4961 70.8201 13.7692 71.0766 14.3152C71.4516 13.7692 71.9862 13.4961 72.6803 13.4961C73.2592 13.4961 73.6901 13.6666 73.973 14.0074C74.2559 14.345 74.3974 14.8546 74.3974 15.5363V18.9664H72.9664V15.5413C72.9664 15.2368 72.9072 15.0151 72.7888 14.8761C72.6704 14.7338 72.4615 14.6627 72.1622 14.6627C71.7345 14.6627 71.4385 14.8678 71.274 15.2782L71.2789 18.9664H69.8529V15.5462C69.8529 15.2352 69.7921 15.0101 69.6704 14.8711C69.5487 14.7322 69.3414 14.6627 69.0487 14.6627C68.6441 14.6627 68.3513 14.8314 68.1704 15.169V18.9664H66.7444V13.5954H68.0816Z" fill="#F4F4F4"/>
<path d="M78.5915 18.9664C78.5257 18.8373 78.478 18.6768 78.4484 18.4849C78.103 18.8721 77.654 19.0657 77.1013 19.0657C76.5783 19.0657 76.1441 18.9134 75.7987 18.609C75.4566 18.3045 75.2855 17.9206 75.2855 17.4573C75.2855 16.8882 75.4944 16.4513 75.9122 16.1469C76.3332 15.8424 76.9401 15.6885 77.7329 15.6852H78.3892V15.3775C78.3892 15.1293 78.325 14.9307 78.1967 14.7818C78.0717 14.6329 77.8727 14.5584 77.5997 14.5584C77.3596 14.5584 77.1704 14.6163 77.0323 14.7322C76.8974 14.848 76.8299 15.0068 76.8299 15.2087H75.404C75.404 14.8976 75.4994 14.6097 75.6901 14.345C75.8809 14.0802 76.1507 13.8734 76.4994 13.7245C76.848 13.5723 77.2395 13.4961 77.6737 13.4961C78.3316 13.4961 78.853 13.6633 79.2379 13.9975C79.626 14.3284 79.8201 14.795 79.8201 15.3973V17.7254C79.8234 18.235 79.8941 18.6206 80.0323 18.882V18.9664H78.5915ZM77.4122 17.9686C77.6227 17.9686 77.8168 17.9223 77.9944 17.8296C78.1721 17.7337 78.3036 17.6063 78.3892 17.4474V16.5241H77.8563C77.1424 16.5241 76.7625 16.7723 76.7165 17.2687L76.7115 17.3531C76.7115 17.5318 76.774 17.6791 76.899 17.7949C77.024 17.9107 77.1951 17.9686 77.4122 17.9686Z" fill="#F4F4F4"/>
<path d="M80.6935 16.2412C80.6935 15.4039 80.8793 14.7371 81.251 14.2407C81.626 13.7443 82.1375 13.4961 82.7856 13.4961C83.3053 13.4961 83.7346 13.6914 84.0734 14.0819V11.3418H85.5043V18.9664H84.2165L84.1474 18.3955C83.7921 18.8423 83.3349 19.0657 82.7757 19.0657C82.1474 19.0657 81.6425 18.8175 81.2609 18.3211C80.8826 17.8214 80.6935 17.1281 80.6935 16.2412ZM82.1194 16.3454C82.1194 16.8484 82.2066 17.234 82.381 17.502C82.5553 17.7701 82.8086 17.9041 83.1408 17.9041C83.5816 17.9041 83.8925 17.7171 84.0734 17.3432V15.2236C83.8958 14.8496 83.5882 14.6627 83.1507 14.6627C82.4632 14.6627 82.1194 15.2236 82.1194 16.3454Z" fill="#F4F4F4"/>
<path d="M89.0668 19.0657C88.2839 19.0657 87.6458 18.8241 87.1524 18.3409C86.6622 17.8578 86.4172 17.2141 86.4172 16.41V16.271C86.4172 15.7316 86.5208 15.2501 86.728 14.8265C86.9352 14.3996 87.228 14.072 87.6063 13.8436C87.9879 13.612 88.4221 13.4961 88.9089 13.4961C89.6392 13.4961 90.2132 13.7278 90.631 14.1911C91.052 14.6544 91.2626 15.3113 91.2626 16.1618V16.7475H87.8629C87.9089 17.0983 88.0471 17.3796 88.2774 17.5914C88.5109 17.8032 88.8053 17.9091 89.1606 17.9091C89.7099 17.9091 90.1392 17.7089 90.4484 17.3084L91.1491 18.0977C90.9353 18.4021 90.6458 18.6404 90.2807 18.8125C89.9155 18.9813 89.5109 19.0657 89.0668 19.0657ZM88.904 14.6577C88.6211 14.6577 88.3908 14.7537 88.2132 14.9456C88.0389 15.1375 87.927 15.4122 87.8777 15.7696H89.8612V15.6554C89.8547 15.3378 89.7691 15.0929 89.6047 14.9208C89.4402 14.7454 89.2066 14.6577 88.904 14.6577Z" fill="#F4F4F4"/>
<path d="M99.404 16.3305C99.404 17.1909 99.2215 17.8627 98.8563 18.3459C98.4912 18.8257 97.9813 19.0657 97.3267 19.0657C96.7478 19.0657 96.2856 18.8423 95.9402 18.3955L95.8761 18.9664H94.5932V11.3418H96.0192V14.0769C96.3481 13.6897 96.7807 13.4961 97.3169 13.4961C97.9682 13.4961 98.4781 13.7377 98.8465 14.2209C99.2182 14.7007 99.404 15.3775 99.404 16.2511V16.3305ZM97.9781 16.2263C97.9781 15.6836 97.8925 15.2881 97.7215 15.0399C97.5504 14.7884 97.2955 14.6627 96.9567 14.6627C96.5027 14.6627 96.1902 14.8496 96.0192 15.2236V17.3432C96.1935 17.7204 96.5093 17.9091 96.9665 17.9091C97.4271 17.9091 97.7297 17.6807 97.8744 17.224C97.9435 17.0056 97.9781 16.673 97.9781 16.2263Z" fill="#F4F4F4"/>
<path d="M102.221 16.9361L103.208 13.5954H104.738L102.592 19.8003L102.473 20.0833C102.154 20.7848 101.628 21.1356 100.894 21.1356C100.687 21.1356 100.476 21.1042 100.263 21.0413V19.9542L100.48 19.9592C100.749 19.9592 100.95 19.9178 101.082 19.8351C101.217 19.7523 101.322 19.615 101.397 19.4231L101.565 18.9813L99.6952 13.5954H101.23L102.221 16.9361Z" fill="#F4F4F4"/>
<rect x="0.9887" y="0.9887" width="115.023" height="48.0226" rx="5.60264" stroke="#F4F4F4" stroke-width="1.9774"/>
<rect x="5.10889" y="5.15527" width="106.782" height="39.6907" rx="3.29567" stroke="#F4F4F4" stroke-width="0.659134" stroke-dasharray="3.3 3.3"/>
</svg>
