<svg width="372" height="378" viewBox="0 0 372 378" fill="none" xmlns="http://www.w3.org/2000/svg">
<path d="M77.7593 90.7584H53.1221V53.7598H24.6372V90.7584H0V0H24.6372V33.6464H53.1221V0H77.7593V90.7584Z" fill="#222222"/>
<path d="M163.152 55.4359C163.152 66.9411 160.049 75.9217 153.843 82.3779C147.679 88.7926 139.032 92 127.903 92C117.229 92 108.727 88.7099 102.397 82.1296C96.108 75.5493 92.9637 66.6514 92.9637 55.4359C92.9637 43.9721 96.0459 35.0742 102.21 28.7422C108.416 22.3689 117.104 19.1822 128.275 19.1822C135.184 19.1822 141.287 20.6514 146.582 23.5897C151.878 26.5281 155.953 30.7494 158.808 36.2537C161.704 41.7166 163.152 48.1107 163.152 55.4359ZM117.601 55.4359C117.601 61.4782 118.408 66.0927 120.021 69.2794C121.635 72.4247 124.345 73.9973 128.151 73.9973C131.916 73.9973 134.564 72.4247 136.094 69.2794C137.666 66.0927 138.453 61.4782 138.453 55.4359C138.453 49.435 137.666 44.9033 136.094 41.8408C134.522 38.7782 131.833 37.247 128.027 37.247C124.303 37.247 121.635 38.7782 120.021 41.8408C118.408 44.8619 117.601 49.3936 117.601 55.4359Z" fill="#222222"/>
<path d="M263.376 90.7584V52.5182C263.376 47.7589 262.714 44.1997 261.391 41.8408C260.108 39.4404 258.06 38.2402 255.247 38.2402C251.523 38.2402 248.793 39.8336 247.055 43.0202C245.317 46.2069 244.449 51.1939 244.449 57.9811V90.7584H220.122V52.5182C220.122 47.7589 219.501 44.1997 218.26 41.8408C217.019 39.4404 215.012 38.2402 212.24 38.2402C208.434 38.2402 205.662 39.937 203.924 43.3306C202.187 46.7242 201.318 52.2699 201.318 59.9676V90.7584H177.053V20.4238H195.36L198.401 29.1147H199.828C201.69 25.8866 204.379 23.4242 207.896 21.7274C211.454 20.0306 215.488 19.1822 219.997 19.1822C230.134 19.1822 237.25 22.2654 241.346 28.4318H243.269C245.255 25.5349 248.007 23.2794 251.523 21.6653C255.081 20.0099 258.991 19.1822 263.252 19.1822C271.568 19.1822 277.712 21.3135 281.684 25.5762C285.655 29.839 287.641 36.3158 287.641 45.0067V90.7584H263.376Z" fill="#222222"/>
<path d="M338.095 92C326.386 92 317.285 88.8961 310.789 82.6883C304.335 76.439 301.108 67.5619 301.108 56.0567C301.108 44.179 304.107 35.0742 310.106 28.7422C316.105 22.3689 324.67 19.1822 335.799 19.1822C346.39 19.1822 354.561 21.955 360.312 27.5007C366.104 33.0049 369 40.951 369 51.3387V62.1404H325.621C325.787 66.072 327.214 69.1552 329.903 71.39C332.634 73.6248 336.337 74.7422 341.012 74.7422C345.273 74.7422 349.183 74.3491 352.741 73.5628C356.34 72.735 360.229 71.3486 364.408 69.4035V86.8475C360.601 88.7926 356.671 90.1376 352.617 90.8826C348.562 91.6275 343.721 92 338.095 92ZM336.668 35.695C333.813 35.695 331.413 36.6055 329.469 38.4264C327.566 40.206 326.449 43.0202 326.118 46.8691H346.969C346.886 43.4755 345.914 40.7647 344.052 38.7368C342.232 36.709 339.77 35.695 336.668 35.695Z" fill="#222222"/>
<path d="M60.8803 201.772C60.8803 207.163 59.5129 211.958 56.778 216.16C54.0432 220.322 50.0994 223.572 44.9468 225.91C39.7942 228.209 33.7497 229.358 26.8135 229.358C21.0267 229.358 16.1713 228.962 12.2474 228.169C8.32348 227.337 4.24101 225.91 0 223.889V202.961C4.47882 205.26 9.13601 207.063 13.9716 208.371C18.8071 209.64 23.2463 210.274 27.2891 210.274C30.7771 210.274 33.3335 209.679 34.9586 208.49C36.5837 207.262 37.3962 205.696 37.3962 203.794C37.3962 202.604 37.0593 201.574 36.3855 200.702C35.7513 199.79 34.701 198.879 33.2345 197.967C31.8076 197.055 27.9629 195.193 21.7005 192.378C16.0326 189.802 11.7718 187.305 8.91801 184.887C6.10388 182.47 4.0032 179.695 2.61595 176.564C1.26834 173.433 0.594534 169.727 0.594534 165.446C0.594534 157.44 3.50775 151.197 9.33419 146.718C15.1606 142.239 23.167 140 33.3534 140C42.3507 140 51.5263 142.081 60.8803 146.243L53.6864 164.376C45.5611 160.65 38.5456 158.787 32.6399 158.787C29.588 158.787 27.3684 159.322 25.9811 160.393C24.5939 161.463 23.9003 162.79 23.9003 164.376C23.9003 166.08 24.7723 167.606 26.5162 168.954C28.2998 170.301 33.0957 172.759 40.9039 176.326C48.3951 179.695 53.5873 183.322 56.4807 187.206C59.4138 191.051 60.8803 195.906 60.8803 201.772Z" fill="#222222"/>
<path d="M155.649 228.169V191.546C155.649 186.988 155.015 183.579 153.747 181.32C152.518 179.021 150.556 177.872 147.861 177.872C144.293 177.872 141.677 179.398 140.013 182.45C138.348 185.502 137.516 190.278 137.516 196.778V228.169H114.21V191.546C114.21 186.988 113.615 183.579 112.426 181.32C111.237 179.021 109.315 177.872 106.659 177.872C103.013 177.872 100.357 179.497 98.6927 182.747C97.028 185.997 96.1956 191.308 96.1956 198.681V228.169H72.9493V160.809H90.4881L93.4013 169.132H94.7687C96.5523 166.041 99.1287 163.682 102.498 162.057C105.906 160.432 109.771 159.62 114.091 159.62C123.802 159.62 130.619 162.572 134.543 168.478H136.386C138.289 165.704 140.924 163.544 144.293 161.998C147.702 160.412 151.448 159.62 155.53 159.62C163.497 159.62 169.383 161.661 173.188 165.743C176.993 169.826 178.895 176.029 178.895 184.352V228.169H155.649Z" fill="#222222"/>
<path d="M238.646 228.169L234.187 219.251H233.711C230.58 223.136 227.389 225.791 224.139 227.218C220.889 228.645 216.688 229.358 211.535 229.358C205.194 229.358 200.199 227.456 196.553 223.651C192.907 219.846 191.083 214.495 191.083 207.599C191.083 200.424 193.58 195.093 198.574 191.606C203.568 188.078 210.802 186.096 220.275 185.66L231.512 185.303V184.352C231.512 178.803 228.777 176.029 223.307 176.029C218.392 176.029 212.15 177.693 204.579 181.023L197.861 165.684C205.709 161.641 215.618 159.62 227.588 159.62C236.228 159.62 242.907 161.76 247.623 166.041C252.38 170.321 254.758 176.306 254.758 183.996V228.169H238.646ZM221.405 212.949C224.219 212.949 226.617 212.058 228.598 210.274C230.62 208.49 231.631 206.172 231.631 203.318V198.086L226.28 198.324C218.63 198.601 214.805 201.415 214.805 206.766C214.805 210.888 217.005 212.949 221.405 212.949Z" fill="#222222"/>
<path d="M311.239 159.62C313.26 159.62 315.182 159.778 317.006 160.095L318.314 160.333L316.233 182.271C314.33 181.796 311.694 181.558 308.325 181.558C303.252 181.558 299.566 182.727 297.267 185.066C294.968 187.365 293.819 190.694 293.819 195.054V228.169H270.572V160.809H287.873L291.5 171.57H292.63C294.572 168.003 297.267 165.129 300.715 162.949C304.203 160.729 307.711 159.62 311.239 159.62Z" fill="#222222"/>
<path d="M360.763 210.987C363.895 210.987 367.64 210.214 372 208.669V225.613C368.869 226.961 365.876 227.912 363.023 228.467C360.208 229.061 356.899 229.358 353.094 229.358C345.286 229.358 339.657 227.456 336.209 223.651C332.761 219.806 331.037 213.92 331.037 205.993V178.229H322.892V168.775L333.236 161.463L339.241 147.313H354.461V160.809H370.989V178.229H354.461V204.447C354.461 208.807 356.562 210.987 360.763 210.987Z" fill="#222222"/>
<path d="M45.5037 302.442C39.4365 302.442 34.7033 304.92 31.3039 309.876C27.9046 314.79 26.2049 321.583 26.2049 330.256C26.2049 348.285 33.1112 357.3 46.9236 357.3C51.0975 357.3 55.1423 356.723 59.0579 355.57C62.9736 354.416 66.9108 353.028 70.8695 351.404V372.809C62.9951 376.27 54.088 378 44.1482 378C29.9055 378 18.976 373.898 11.3598 365.695C3.78659 357.492 0 345.636 0 330.128C0 320.429 1.82875 311.906 5.48626 304.557C9.18679 297.209 14.4794 291.569 21.3641 287.638C28.2919 283.665 36.4244 281.678 45.7618 281.678C55.9598 281.678 65.706 283.879 75.0003 288.279L67.1905 308.21C63.7051 306.587 60.2197 305.219 56.7343 304.108C53.249 302.998 49.5054 302.442 45.5037 302.442Z" fill="#222222"/>
<path d="M113.081 376.718H87.8446V277H113.081V376.718Z" fill="#222222"/>
<path d="M200.41 340.253C200.41 352.13 197.182 361.402 190.728 368.067C184.317 374.689 175.324 378 163.749 378C152.647 378 143.804 374.603 137.221 367.81C130.68 361.017 127.41 351.831 127.41 340.253C127.41 328.419 130.616 319.233 137.027 312.696C143.482 306.117 152.518 302.827 164.136 302.827C171.322 302.827 177.669 304.343 183.176 307.377C188.684 310.41 192.923 314.768 195.892 320.451C198.904 326.09 200.41 332.691 200.41 340.253ZM153.034 340.253C153.034 346.491 153.873 351.255 155.551 354.544C157.23 357.791 160.048 359.415 164.007 359.415C167.922 359.415 170.676 357.791 172.268 354.544C173.904 351.255 174.721 346.491 174.721 340.253C174.721 334.058 173.904 329.38 172.268 326.218C170.633 323.057 167.836 321.476 163.878 321.476C160.005 321.476 157.23 323.057 155.551 326.218C153.873 329.337 153.034 334.015 153.034 340.253Z" fill="#222222"/>
<path d="M266.955 376.718L263.792 367.682H262.308C260.199 371.015 257.252 373.578 253.465 375.372C249.721 377.124 245.311 378 240.233 378C232.187 378 225.926 375.693 221.451 371.079C216.976 366.422 214.739 359.864 214.739 351.404V304.108H239.975V343.778C239.975 348.52 240.642 352.109 241.976 354.544C243.353 356.98 245.591 358.197 248.689 358.197C253.035 358.197 256.133 356.51 257.983 353.135C259.833 349.717 260.759 343.97 260.759 335.895V304.108H285.995V376.718H266.955Z" fill="#222222"/>
<path d="M326.142 378C320.935 378 316.374 376.526 312.458 373.578C308.586 370.63 305.574 366.294 303.422 360.569C301.314 354.843 300.26 348.157 300.26 340.51C300.26 328.718 302.648 319.489 307.424 312.824C312.2 306.159 318.762 302.827 327.11 302.827C331.198 302.827 334.769 303.639 337.824 305.262C340.922 306.886 343.741 309.62 346.28 313.465H346.796C345.978 307.783 345.57 302.1 345.57 296.418V277H371V376.718H351.959L346.538 367.554H345.57C341.224 374.518 334.748 378 326.142 378ZM336.469 358.197C340.514 358.197 343.354 356.937 344.989 354.416C346.667 351.896 347.57 348.008 347.7 342.753V340.766C347.7 334.357 346.774 329.807 344.924 327.115C343.074 324.381 340.169 323.014 336.211 323.014C332.897 323.014 330.316 324.573 328.465 327.692C326.658 330.768 325.755 335.169 325.755 340.894C325.755 346.534 326.68 350.827 328.53 353.775C330.38 356.723 333.026 358.197 336.469 358.197Z" fill="#222222"/>
</svg>
