<svg width="107" height="50" viewBox="0 0 107 50" fill="none" xmlns="http://www.w3.org/2000/svg">
<path fill-rule="evenodd" clip-rule="evenodd" d="M16.3715 9.04687L28.5 0L57 21.258L54.9135 24.0722L51.5564 21.5689V50H5.44356V21.5683L2.0865 24.0716L0 21.2574L5.44356 17.1971V1.91002H16.3715V9.04687ZM48.0595 18.9599L28.5 4.37001L8.94049 18.9599V46.4938H48.0595V18.9599ZM12.8745 5.41618H8.94049V14.5893L12.8745 11.6553V5.41618ZM69.2198 11.5011H71.9766V0H69.2198V4.5657H65.136V0H62.3634V11.5011H65.136V6.69846H69.2198V11.5011ZM73.7776 4.87376C73.4458 5.53729 73.28 6.29561 73.28 7.14871L73.2879 7.59896C73.3458 8.84703 73.7434 9.83705 74.4806 10.569C75.2179 11.2958 76.1947 11.6591 77.4112 11.6591C78.6751 11.6591 79.6756 11.2694 80.4129 10.49C81.1554 9.7054 81.5266 8.64691 81.5266 7.31459V7.2198C81.5266 5.85589 81.158 4.77897 80.4208 3.98906C79.6835 3.19388 78.6751 2.79629 77.3954 2.79629C76.5581 2.79629 75.8287 2.97534 75.2073 3.33343C74.5859 3.69153 74.1094 4.20497 73.7776 4.87376ZM76.3132 9.0524C76.0657 8.68378 75.942 8.10451 75.942 7.31459L75.9499 6.83275C76.0236 5.51096 76.5054 4.85007 77.3954 4.85007C78.3749 4.85007 78.8646 5.61628 78.8646 7.14871V7.41728C78.8436 8.87599 78.3591 9.60534 77.4112 9.60534C76.9267 9.60534 76.5607 9.42103 76.3132 9.0524ZM85.2155 2.95427L85.3024 3.95746C85.908 3.18335 86.7216 2.79629 87.7433 2.79629C88.8228 2.79629 89.5522 3.22548 89.9313 4.08385C90.5106 3.22548 91.3479 2.79629 92.4432 2.79629C94.1758 2.79629 95.0658 3.84424 95.1132 5.94015V11.5011H92.4432V6.10603C92.4432 5.66894 92.3695 5.35034 92.2221 5.15023C92.0746 4.95012 91.8061 4.85007 91.4164 4.85007C90.8898 4.85007 90.4974 5.08441 90.2394 5.55309L90.2473 5.66368V11.5011H87.5774V6.12183C87.5774 5.67421 87.5063 5.35034 87.3641 5.15023C87.2219 4.95012 86.9507 4.85007 86.5505 4.85007C86.0397 4.85007 85.65 5.08441 85.3814 5.55309V11.5011H82.7194V2.95427H85.2155ZM97.5856 10.49C98.3966 11.2694 99.4577 11.6591 100.769 11.6591C101.469 11.6591 102.122 11.5248 102.728 11.2563C103.339 10.9824 103.81 10.6164 104.142 10.1583L102.925 8.72064C102.451 9.31044 101.793 9.60534 100.951 9.60534C100.44 9.60534 100.024 9.46842 99.7025 9.19459C99.3813 8.92075 99.1733 8.54423 99.0785 8.06501H104.371V7.03023C104.371 5.69791 104.023 4.66049 103.328 3.91797C102.633 3.17018 101.685 2.79629 100.485 2.79629C99.6315 2.79629 98.8942 2.98061 98.2728 3.34923C97.6514 3.71259 97.1775 4.22867 96.851 4.89746C96.5297 5.56625 96.3691 6.33774 96.3691 7.21191V7.43308C96.3691 8.68641 96.7746 9.7054 97.5856 10.49ZM99.0785 6.39829C99.226 5.36614 99.6894 4.85007 100.469 4.85007C100.89 4.85007 101.214 4.96855 101.44 5.20553C101.667 5.43723 101.775 5.76637 101.764 6.19292V6.39829H99.0785ZM68.2956 27.6146C68.2956 27.2091 68.1508 26.8932 67.8612 26.6667C67.5768 26.4403 67.0739 26.2059 66.3524 25.9637C65.631 25.7215 65.0412 25.4871 64.583 25.2607C63.0927 24.5287 62.3476 23.5229 62.3476 22.2432C62.3476 21.606 62.5319 21.0452 62.9005 20.5607C63.2744 20.0709 63.801 19.6918 64.4803 19.4232C65.1597 19.1494 65.9232 19.0125 66.7711 19.0125C67.5978 19.0125 68.3377 19.1599 68.9907 19.4548C69.649 19.7497 70.1598 20.171 70.5232 20.7187C70.8865 21.2611 71.0682 21.8825 71.0682 22.5829H68.3035C68.3035 22.1142 68.1587 21.7508 67.8691 21.4928C67.5847 21.2347 67.1976 21.1057 66.7079 21.1057C66.2129 21.1057 65.8205 21.2163 65.5309 21.4375C65.2465 21.6534 65.1044 21.9299 65.1044 22.2669C65.1044 22.5618 65.2623 22.8304 65.5783 23.0726C65.8943 23.3096 66.4498 23.5571 67.245 23.8151C68.0402 24.0679 68.6932 24.3417 69.204 24.6366C70.4468 25.3528 71.0682 26.3402 71.0682 27.5988C71.0682 28.6046 70.689 29.3945 69.9307 29.9686C69.1724 30.5426 68.1324 30.8296 66.8106 30.8296C65.8785 30.8296 65.0333 30.6637 64.2749 30.3319C63.5219 29.9949 62.9532 29.5367 62.5687 28.9575C62.1896 28.3729 62 27.7015 62 26.9432H64.7805C64.7805 27.5593 64.9385 28.0148 65.2544 28.3097C65.5757 28.5994 66.0944 28.7442 66.8106 28.7442C67.2687 28.7442 67.6294 28.6468 67.8928 28.4519C68.1613 28.2518 68.2956 27.9727 68.2956 27.6146ZM74.9704 23.1279L74.8835 22.1247H72.3874V30.6716H75.0494V24.7235C75.3179 24.2549 75.7076 24.0205 76.2184 24.0205C76.6187 24.0205 76.8899 24.1206 77.032 24.3207C77.1742 24.5208 77.2453 24.8447 77.2453 25.2923V30.6716H79.9152V24.8341L79.9073 24.7235C80.1654 24.2549 80.5577 24.0205 81.0843 24.0205C81.474 24.0205 81.7426 24.1206 81.89 24.3207C82.0375 24.5208 82.1112 24.8394 82.1112 25.2765V30.6716H84.7811V25.1106C84.7337 23.0147 83.8437 21.9667 82.1112 21.9667C81.0158 21.9667 80.1785 22.3959 79.5993 23.2543C79.2201 22.3959 78.4908 21.9667 77.4112 21.9667C76.3896 21.9667 75.576 22.3538 74.9704 23.1279ZM91.1162 30.6716C91.0214 30.4978 90.9371 30.2424 90.8634 29.9054C90.3737 30.5215 89.6891 30.8296 88.8096 30.8296C88.0039 30.8296 87.3193 30.5873 86.7559 30.1028C86.1924 29.6131 85.9107 28.9996 85.9107 28.2623C85.9107 27.3355 86.253 26.6351 86.9376 26.1612C87.6221 25.6872 88.6174 25.4503 89.9234 25.4503H90.7449V25C90.7449 24.2154 90.4053 23.823 89.7259 23.823C89.094 23.823 88.778 24.1337 88.778 24.7551H86.116C86.116 23.9284 86.4662 23.2569 87.1666 22.7408C87.8723 22.2248 88.7701 21.9667 89.8602 21.9667C90.9503 21.9667 91.8113 22.2327 92.4432 22.7645C93.0752 23.2964 93.399 24.0258 93.4148 24.9526V28.7363C93.4254 29.5209 93.5465 30.1213 93.7782 30.5373V30.6716H91.1162ZM89.4495 28.9338C89.7812 28.9338 90.0551 28.8627 90.271 28.7205C90.4922 28.5783 90.6501 28.4177 90.7449 28.2386V26.8721H89.9708C89.044 26.8721 88.5806 27.2881 88.5806 28.1202C88.5806 28.3624 88.6622 28.5599 88.8254 28.7126C88.9887 28.86 89.1967 28.9338 89.4495 28.9338ZM99.1891 24.4708L100.066 24.534L100.113 22.0615C99.9027 21.9983 99.6552 21.9667 99.3708 21.9667C98.5703 21.9667 97.9463 22.3854 97.4987 23.2227L97.4118 22.1247H94.9157V30.6716H97.5777V25.2607C97.8147 24.7341 98.3518 24.4708 99.1891 24.4708ZM104.521 19.9998V22.1247H105.927V23.9731H104.521V27.8832C104.521 28.2044 104.579 28.4282 104.695 28.5546C104.811 28.681 105.04 28.7442 105.382 28.7442C105.645 28.7442 105.867 28.7284 106.046 28.6968V30.6005C105.566 30.7532 105.066 30.8296 104.545 30.8296C103.628 30.8296 102.952 30.6136 102.515 30.1818C102.078 29.75 101.859 29.0944 101.859 28.2149V23.9731H100.769V22.1247H101.859V19.9998H104.521ZM71.0208 48.0726C71.4158 47.4565 71.6317 46.7482 71.6685 45.9477H68.9117C68.8907 46.6007 68.7116 47.0773 68.3746 47.3775C68.0376 47.6777 67.5505 47.8277 66.9133 47.8277C66.1602 47.8277 65.6283 47.5644 65.3176 47.0378C65.0122 46.5112 64.8595 45.6344 64.8595 44.4074V43.5938C64.8753 42.4616 65.0438 41.6375 65.365 41.1214C65.6863 40.6053 66.1918 40.3473 66.8817 40.3473C67.561 40.3473 68.0665 40.5 68.3983 40.8054C68.7301 41.1108 68.9065 41.6138 68.9275 42.3141H71.6922C71.5764 41.024 71.0945 40.0129 70.2467 39.2809C69.3988 38.5436 68.2772 38.175 66.8817 38.175C65.9127 38.175 65.0596 38.4067 64.3223 38.8701C63.5851 39.3283 63.019 39.9813 62.624 40.8291C62.2343 41.6717 62.0395 42.6564 62.0395 43.7834V44.3521C62.0395 46.1479 62.4739 47.5381 63.3429 48.5229C64.2118 49.5076 65.4019 50 66.9133 50C67.8296 50 68.6432 49.8315 69.3541 49.4945C70.0703 49.1574 70.6258 48.6835 71.0208 48.0726ZM75.6655 49.842H72.9956V37.709H75.6655V49.842ZM77.4744 43.2146C77.1426 43.8782 76.9768 44.6365 76.9768 45.4896L76.9846 45.9398C77.0426 47.1879 77.4402 48.1779 78.1774 48.9099C78.9147 49.6366 79.8915 50 81.108 50C82.3719 50 83.3724 49.6103 84.1097 48.8309C84.8522 48.0463 85.2234 46.9878 85.2234 45.6555V45.5607C85.2234 44.1968 84.8548 43.1199 84.1176 42.3299C83.3803 41.5348 82.3719 41.1372 81.0922 41.1372C80.2549 41.1372 79.5255 41.3162 78.9041 41.6743C78.2827 42.0324 77.8062 42.5459 77.4744 43.2146ZM80.01 47.3933C79.7625 47.0247 79.6388 46.4454 79.6388 45.6555L79.6467 45.1736C79.7204 43.8518 80.2022 43.1909 81.0922 43.1909C82.0717 43.1909 82.5614 43.9572 82.5614 45.4896V45.7582C82.5404 47.2169 82.0559 47.9462 81.108 47.9462C80.6235 47.9462 80.2575 47.7619 80.01 47.3933ZM91.4875 48.9178C90.924 49.6393 90.163 50 89.2046 50C88.2672 50 87.5563 49.7288 87.0718 49.1864C86.5926 48.6387 86.353 47.8541 86.353 46.8324V41.2952H89.015V46.8482C89.015 47.5802 89.3705 47.9462 90.0814 47.9462C90.6923 47.9462 91.1267 47.7277 91.3848 47.2906V41.2952H94.0626V49.842H91.5664L91.4875 48.9178ZM96.069 42.3062C95.4844 43.0856 95.1922 44.152 95.1922 45.5054C95.1922 46.943 95.4897 48.0515 96.0847 48.8309C96.6798 49.6103 97.4855 50 98.5019 50C99.3445 50 100.04 49.6419 100.587 48.9257L100.722 49.842H103.115V37.709H100.445V42.0377C99.9237 41.4373 99.2813 41.1372 98.5177 41.1372C97.4697 41.1372 96.6535 41.5269 96.069 42.3062ZM100.445 47.2037C100.192 47.6987 99.771 47.9462 99.1812 47.9462C98.2965 47.9462 97.8542 47.1879 97.8542 45.6713L97.8621 45.1815C97.9305 43.8545 98.3755 43.1909 99.197 43.1909C99.7868 43.1909 100.203 43.4437 100.445 43.9493V47.2037Z" fill="#3360FF"/>
<path d="M20.632 16.2314V20.3227H19.175V21.7838H15.0952V22.9527H19.175V24.7061H15.0952V25.875H19.175V27.6284H15.0952V28.7974H19.175V30.5507H15.0952V31.7197H19.175V33.473H15.0952V34.642H19.175V36.3953H15.0952V37.5643H19.175V39.0254H20.632V43.1166H21.7977V39.0254H23.5461V43.1166H24.7118V39.0254H26.4602V43.1166H27.6259V39.0254H29.3744V43.1166H30.54V39.0254H32.2885V43.1166H33.4541V39.0254H35.2026V43.1166H36.3682V39.0254H37.8253V37.5643H41.905V36.3953H37.8253V34.642H41.905V33.473H37.8253V31.7197H41.905V30.5507H37.8253V28.7974H41.905V27.6284H37.8253V25.875H41.905V24.7061H37.8253V22.9527H41.905V21.7838H37.8253V20.3227H36.3682V16.2314H35.2026V20.3227H33.4541V16.2314H32.2885V20.3227H30.54V16.2314H29.3744V20.3227H27.6259V16.2314H26.4602V20.3227H24.7118V16.2314H23.5461V20.3227H21.7977V16.2314H20.632ZM20.3406 21.4916H36.6596V37.8565H20.3406V21.4916Z" fill="#3360FF"/>
<path d="M32.5791 24.1228H24.4196C23.458 24.1228 22.6711 24.9118 22.6711 25.8762V34.0586C22.6711 35.023 23.458 35.812 24.4196 35.812H32.5791C33.5466 35.812 34.3276 35.023 34.3276 34.0586V25.8762C34.3276 24.9118 33.5466 24.1228 32.5791 24.1228Z" fill="#3360FF"/>
<path d="M21.094 23.0752L21.9193 22.2497L22.7543 23.0844L21.929 23.9099L21.094 23.0752Z" fill="#3360FF"/>
<path d="M34.2483 36.2664L35.0737 35.441L35.9082 36.2754L35.0828 37.1008L34.2483 36.2664Z" fill="#3360FF"/>
</svg>
